<svg width="176" height="223" viewBox="0 0 176 223" fill="none" xmlns="http://www.w3.org/2000/svg">
<path d="M170.388 7C170.388 7 119.62 8.23305 87.8022 8.23305C55.9848 8.23305 5.21597 7 5.21597 7C2.26025 7 0 9.00372 0 11.624V216.466C0 219.087 2.43412 221.244 5.21597 221.244C5.21597 221.244 55.9848 222.786 87.8022 222.786C119.62 222.786 170.388 221.244 170.388 221.244C173.344 221.09 175.604 218.932 175.604 216.466V11.624C175.604 9.00372 173.344 7 170.388 7Z" fill="white"/>
<path d="M13.8196 36.1217C13.6596 36.1217 13.5236 36.0897 13.4116 36.0257C13.2996 35.9617 13.1316 35.8337 12.9076 35.6417L13.1236 34.3697C13.4116 32.5937 13.6356 31.1137 13.7956 29.9297C13.9556 28.7297 14.0676 27.4977 14.1316 26.2337C13.5876 26.7137 12.8516 27.4977 11.9236 28.5857C11.3796 29.2257 10.9556 29.6977 10.6516 30.0017C10.3636 30.2897 10.1396 30.4337 9.97956 30.4337C9.85156 30.4177 9.73156 30.3457 9.61956 30.2177C9.52356 30.0737 9.47556 29.9057 9.47556 29.7137C9.47556 29.4897 9.55556 29.2897 9.71556 29.1137L13.9396 24.6017C14.0836 24.4417 14.1956 24.2257 14.2756 23.9537C14.3556 23.6817 14.4356 23.3057 14.5156 22.8257C14.6116 22.2177 14.7236 21.7617 14.8516 21.4577C14.9796 21.1377 15.1876 20.9777 15.4756 20.9777C15.6036 20.9777 15.6996 20.9937 15.7636 21.0257C15.8276 21.0417 15.8836 21.0977 15.9316 21.1937L15.9556 21.9857C15.9556 22.2737 15.8116 23.6737 15.5236 26.1857C15.2516 28.6817 14.9556 30.9617 14.6356 33.0257C14.3156 35.0897 14.0436 36.1217 13.8196 36.1217ZM22.0602 35.1617C21.0842 35.1617 20.2042 34.9617 19.4202 34.5617C18.6522 34.1457 18.0442 33.5457 17.5962 32.7617C17.1642 31.9617 16.9482 31.0097 16.9482 29.9057C16.9482 28.9937 17.1882 28.1457 17.6682 27.3617C18.1482 26.5617 18.7642 25.9297 19.5162 25.4657C20.2682 25.0017 21.0282 24.7697 21.7962 24.7697C22.5002 24.7697 23.1882 25.0337 23.8602 25.5617C24.5482 26.0897 25.1082 26.7697 25.5402 27.6017C25.9722 28.4337 26.1882 29.2897 26.1882 30.1697C26.1882 31.6417 25.8282 32.8417 25.1082 33.7697C24.4042 34.6977 23.3882 35.1617 22.0602 35.1617ZM21.7002 33.7937C23.7962 33.7937 24.8442 32.6577 24.8442 30.3857C24.8442 29.6497 24.7162 28.9537 24.4602 28.2977C24.2042 27.6417 23.8282 27.1137 23.3322 26.7137C22.8522 26.3137 22.2922 26.1137 21.6522 26.1137C20.6762 26.1137 19.8602 26.4337 19.2042 27.0737C18.5642 27.7137 18.1802 28.6017 18.0522 29.7377C18.0362 29.8657 18.0282 30.0497 18.0282 30.2897C18.0282 31.3937 18.3722 32.2577 19.0602 32.8817C19.7642 33.4897 20.6442 33.7937 21.7002 33.7937Z" fill="black"/>
<path d="M14.0332 56.6888V54.0728C16.9852 54.0728 17.8972 53.4488 17.8972 51.3368C17.4172 52.2248 16.2892 52.8488 14.8972 52.8488C12.2812 52.8488 10.3612 51.0008 10.3612 48.4568C10.3612 46.0568 12.0652 44.3768 14.2252 44.3768C15.2092 44.3768 15.7132 44.5688 16.1692 44.9288C15.6652 44.4248 15.2812 43.4168 15.2812 42.8168C15.2812 40.3208 17.0092 38.7128 19.6492 38.7128C22.2892 38.7128 24.0172 40.2968 24.0172 42.8168C24.0172 43.4168 23.6332 44.4488 23.1292 44.9288C23.5852 44.5688 24.0892 44.3768 25.0732 44.3768C27.2332 44.3768 28.9372 46.0328 28.9372 48.4568C28.9372 51.0008 26.9932 52.8488 24.4012 52.8488C23.0572 52.8488 21.8812 52.2248 21.4012 51.3368C21.4012 53.4008 22.2652 54.0728 25.2652 54.0728V56.6888H14.0332ZM15.1372 55.6808H24.1612V55.0328C20.7532 55.0328 20.2252 53.4488 20.2252 49.5368H20.8012C21.4972 50.7608 22.9132 51.5768 24.4012 51.5768C26.2012 51.5768 27.5932 50.1848 27.5932 48.4568C27.5932 46.6328 26.5132 45.4808 24.6892 45.4808C23.7772 45.4808 23.0332 45.7208 22.4812 46.3688L21.8572 45.8648C22.3612 44.9528 22.6732 43.8008 22.6732 42.8168C22.6732 41.0888 21.5212 40.0568 19.6492 40.0568C17.7772 40.0568 16.6252 41.0888 16.6252 42.8168C16.6252 43.8008 16.9132 44.9288 17.4412 45.8648L16.8172 46.3688C16.2412 45.7208 15.5212 45.4808 14.6092 45.4808C12.8092 45.4808 11.7052 46.6328 11.7052 48.4568C11.7052 50.1608 13.0972 51.5768 14.8972 51.5768C16.3612 51.5768 17.8012 50.7848 18.4972 49.5368H19.0732C19.0732 53.4968 18.5452 55.0328 15.1372 55.0328V55.6808Z" fill="black"/>
<path d="M160.705 173.152V175.768C157.753 175.768 156.841 176.392 156.841 178.504C157.321 177.616 158.449 176.992 159.841 176.992C162.457 176.992 164.377 178.84 164.377 181.384C164.377 183.784 162.673 185.464 160.513 185.464C159.529 185.464 159.025 185.272 158.569 184.912C159.073 185.416 159.457 186.424 159.457 187.024C159.457 189.52 157.729 191.128 155.089 191.128C152.449 191.128 150.721 189.544 150.721 187.024C150.721 186.424 151.105 185.392 151.609 184.912C151.153 185.272 150.649 185.464 149.665 185.464C147.505 185.464 145.801 183.808 145.801 181.384C145.801 178.84 147.745 176.992 150.337 176.992C151.681 176.992 152.857 177.616 153.337 178.504C153.337 176.44 152.473 175.768 149.473 175.768V173.152H160.705ZM159.601 174.16H150.577V174.808C153.985 174.808 154.513 176.392 154.513 180.304H153.937C153.241 179.08 151.825 178.264 150.337 178.264C148.537 178.264 147.145 179.656 147.145 181.384C147.145 183.208 148.225 184.36 150.049 184.36C150.961 184.36 151.705 184.12 152.257 183.472L152.881 183.976C152.377 184.888 152.065 186.04 152.065 187.024C152.065 188.752 153.217 189.784 155.089 189.784C156.961 189.784 158.113 188.752 158.113 187.024C158.113 186.04 157.825 184.912 157.297 183.976L157.921 183.472C158.497 184.12 159.217 184.36 160.129 184.36C161.929 184.36 163.033 183.208 163.033 181.384C163.033 179.68 161.641 178.264 159.841 178.264C158.377 178.264 156.937 179.056 156.241 180.304H155.665C155.665 176.344 156.193 174.808 159.601 174.808V174.16Z" fill="black"/>
<path d="M159.232 191.614C159.392 191.614 159.528 191.646 159.64 191.71C159.752 191.773 159.92 191.901 160.144 192.093L159.93 193.365C159.644 195.142 159.422 196.622 159.264 197.806C159.105 199.006 158.995 200.238 158.932 201.502C159.476 201.022 160.211 200.237 161.137 199.148C161.681 198.507 162.104 198.035 162.408 197.731C162.695 197.442 162.919 197.298 163.079 197.298C163.207 197.314 163.327 197.386 163.439 197.514C163.535 197.658 163.584 197.825 163.584 198.017C163.584 198.241 163.504 198.442 163.345 198.618L159.126 203.134C158.983 203.294 158.871 203.51 158.791 203.782C158.712 204.055 158.632 204.431 158.553 204.911C158.458 205.519 158.346 205.975 158.219 206.279C158.091 206.599 157.883 206.759 157.595 206.76C157.467 206.76 157.371 206.744 157.307 206.712C157.243 206.696 157.187 206.64 157.139 206.544L157.114 205.752C157.113 205.464 157.256 204.064 157.54 201.552C157.809 199.055 158.102 196.775 158.42 194.711C158.737 192.647 159.008 191.614 159.232 191.614ZM150.992 192.583C151.968 192.582 152.849 192.781 153.633 193.18C154.402 193.595 155.01 194.194 155.459 194.978C155.892 195.777 156.11 196.729 156.111 197.833C156.112 198.745 155.873 199.594 155.394 200.378C154.915 201.179 154.3 201.811 153.549 202.276C152.797 202.741 152.038 202.973 151.27 202.974C150.566 202.975 149.877 202.712 149.205 202.184C148.516 201.657 147.955 200.978 147.522 200.146C147.089 199.315 146.872 198.459 146.871 197.579C146.869 196.107 147.227 194.906 147.946 193.978C148.649 193.049 149.664 192.584 150.992 192.583ZM151.354 193.95C149.258 193.952 148.212 195.089 148.214 197.361C148.215 198.097 148.344 198.793 148.601 199.449C148.858 200.105 149.235 200.632 149.731 201.032C150.212 201.431 150.772 201.631 151.412 201.63C152.388 201.629 153.204 201.308 153.859 200.668C154.498 200.027 154.881 199.139 155.007 198.002C155.023 197.874 155.031 197.69 155.031 197.45C155.029 196.346 154.684 195.483 153.995 194.859C153.29 194.252 152.41 193.949 151.354 193.95Z" fill="black"/>
<path d="M109.323 49.5734V44.3414C115.227 44.3414 117.051 43.0934 117.051 38.8694C116.091 40.6454 113.835 41.8934 111.051 41.8934C105.819 41.8934 101.979 38.1974 101.979 33.1094C101.979 28.3094 105.387 24.9494 109.707 24.9494C111.675 24.9494 112.683 25.3334 113.595 26.0534C112.587 25.0454 111.819 23.0294 111.819 21.8294C111.819 16.8374 115.275 13.6214 120.555 13.6214C125.835 13.6214 129.291 16.7894 129.291 21.8294C129.291 23.0294 128.523 25.0934 127.515 26.0534C128.427 25.3334 129.435 24.9494 131.403 24.9494C135.723 24.9494 139.131 28.2614 139.131 33.1094C139.131 38.1974 135.243 41.8934 130.059 41.8934C127.371 41.8934 125.019 40.6454 124.059 38.8694C124.059 42.9974 125.787 44.3414 131.787 44.3414V49.5734H109.323ZM111.531 47.5574H129.579V46.2614C122.763 46.2614 121.707 43.0934 121.707 35.2694H122.859C124.251 37.7174 127.083 39.3494 130.059 39.3494C133.659 39.3494 136.443 36.5654 136.443 33.1094C136.443 29.4614 134.283 27.1574 130.635 27.1574C128.811 27.1574 127.323 27.6374 126.219 28.9334L124.971 27.9254C125.979 26.1014 126.603 23.7974 126.603 21.8294C126.603 18.3734 124.299 16.3094 120.555 16.3094C116.811 16.3094 114.507 18.3734 114.507 21.8294C114.507 23.7974 115.083 26.0534 116.139 27.9254L114.891 28.9334C113.739 27.6374 112.299 27.1574 110.475 27.1574C106.875 27.1574 104.667 29.4614 104.667 33.1094C104.667 36.5174 107.451 39.3494 111.051 39.3494C113.979 39.3494 116.859 37.7654 118.251 35.2694H119.403C119.403 43.1894 118.347 46.2614 111.531 46.2614V47.5574Z" fill="black"/>
<path d="M109.323 90.5734V85.3414C115.227 85.3414 117.051 84.0934 117.051 79.8694C116.091 81.6454 113.835 82.8934 111.051 82.8934C105.819 82.8934 101.979 79.1974 101.979 74.1094C101.979 69.3094 105.387 65.9494 109.707 65.9494C111.675 65.9494 112.683 66.3334 113.595 67.0534C112.587 66.0454 111.819 64.0294 111.819 62.8294C111.819 57.8374 115.275 54.6214 120.555 54.6214C125.835 54.6214 129.291 57.7894 129.291 62.8294C129.291 64.0294 128.523 66.0934 127.515 67.0534C128.427 66.3334 129.435 65.9494 131.403 65.9494C135.723 65.9494 139.131 69.2614 139.131 74.1094C139.131 79.1974 135.243 82.8934 130.059 82.8934C127.371 82.8934 125.019 81.6454 124.059 79.8694C124.059 83.9974 125.787 85.3414 131.787 85.3414V90.5734H109.323ZM111.531 88.5574H129.579V87.2614C122.763 87.2614 121.707 84.0934 121.707 76.2694H122.859C124.251 78.7174 127.083 80.3494 130.059 80.3494C133.659 80.3494 136.443 77.5654 136.443 74.1094C136.443 70.4614 134.283 68.1574 130.635 68.1574C128.811 68.1574 127.323 68.6374 126.219 69.9334L124.971 68.9254C125.979 67.1014 126.603 64.7974 126.603 62.8294C126.603 59.3734 124.299 57.3094 120.555 57.3094C116.811 57.3094 114.507 59.3734 114.507 62.8294C114.507 64.7974 115.083 67.0534 116.139 68.9254L114.891 69.9334C113.739 68.6374 112.299 68.1574 110.475 68.1574C106.875 68.1574 104.667 70.4614 104.667 74.1094C104.667 77.5174 107.451 80.3494 111.051 80.3494C113.979 80.3494 116.859 78.7654 118.251 76.2694H119.403C119.403 84.1894 118.347 87.2614 111.531 87.2614V88.5574Z" fill="black"/>
<path d="M132.003 106.538V111.77C126.099 111.77 124.275 113.018 124.275 117.242C125.235 115.466 127.491 114.218 130.275 114.218C135.507 114.218 139.347 117.914 139.347 123.002C139.347 127.802 135.939 131.162 131.619 131.162C129.651 131.162 128.643 130.778 127.731 130.058C128.739 131.066 129.507 133.082 129.507 134.282C129.507 139.274 126.051 142.49 120.771 142.49C115.491 142.49 112.035 139.322 112.035 134.282C112.035 133.082 112.803 131.018 113.811 130.058C112.899 130.778 111.891 131.162 109.923 131.162C105.603 131.162 102.195 127.85 102.195 123.002C102.195 117.914 106.083 114.218 111.267 114.218C113.955 114.218 116.307 115.466 117.267 117.242C117.267 113.114 115.539 111.77 109.539 111.77V106.538H132.003ZM129.795 108.554H111.747V109.85C118.563 109.85 119.619 113.018 119.619 120.842H118.467C117.075 118.394 114.243 116.762 111.267 116.762C107.667 116.762 104.883 119.546 104.883 123.002C104.883 126.65 107.043 128.954 110.691 128.954C112.515 128.954 114.003 128.474 115.107 127.178L116.355 128.186C115.347 130.01 114.723 132.314 114.723 134.282C114.723 137.738 117.027 139.802 120.771 139.802C124.515 139.802 126.819 137.738 126.819 134.282C126.819 132.314 126.243 130.058 125.187 128.186L126.435 127.178C127.587 128.474 129.027 128.954 130.851 128.954C134.451 128.954 136.659 126.65 136.659 123.002C136.659 119.594 133.875 116.762 130.275 116.762C127.347 116.762 124.467 118.346 123.075 120.842H121.923C121.923 112.922 122.979 109.85 129.795 109.85V108.554Z" fill="black"/>
<path d="M132.003 151.538V156.77C126.099 156.77 124.275 158.018 124.275 162.242C125.235 160.466 127.491 159.218 130.275 159.218C135.507 159.218 139.347 162.914 139.347 168.002C139.347 172.802 135.939 176.162 131.619 176.162C129.651 176.162 128.643 175.778 127.731 175.058C128.739 176.066 129.507 178.082 129.507 179.282C129.507 184.274 126.051 187.49 120.771 187.49C115.491 187.49 112.035 184.322 112.035 179.282C112.035 178.082 112.803 176.018 113.811 175.058C112.899 175.778 111.891 176.162 109.923 176.162C105.603 176.162 102.195 172.85 102.195 168.002C102.195 162.914 106.083 159.218 111.267 159.218C113.955 159.218 116.307 160.466 117.267 162.242C117.267 158.114 115.539 156.77 109.539 156.77V151.538H132.003ZM129.795 153.554H111.747V154.85C118.563 154.85 119.619 158.018 119.619 165.842H118.467C117.075 163.394 114.243 161.762 111.267 161.762C107.667 161.762 104.883 164.546 104.883 168.002C104.883 171.65 107.043 173.954 110.691 173.954C112.515 173.954 114.003 173.474 115.107 172.178L116.355 173.186C115.347 175.01 114.723 177.314 114.723 179.282C114.723 182.738 117.027 184.802 120.771 184.802C124.515 184.802 126.819 182.738 126.819 179.282C126.819 177.314 126.243 175.058 125.187 173.186L126.435 172.178C127.587 173.474 129.027 173.954 130.851 173.954C134.451 173.954 136.659 171.65 136.659 168.002C136.659 164.594 133.875 161.762 130.275 161.762C127.347 161.762 124.467 163.346 123.075 165.842H121.923C121.923 157.922 122.979 154.85 129.795 154.85V153.554Z" fill="black"/>
<path d="M41.3233 51.5734V46.3414C47.2273 46.3414 49.0513 45.0934 49.0513 40.8694C48.0913 42.6454 45.8353 43.8934 43.0513 43.8934C37.8193 43.8934 33.9793 40.1974 33.9793 35.1094C33.9793 30.3094 37.3873 26.9494 41.7073 26.9494C43.6753 26.9494 44.6833 27.3334 45.5953 28.0534C44.5873 27.0454 43.8193 25.0294 43.8193 23.8294C43.8193 18.8374 47.2753 15.6214 52.5553 15.6214C57.8353 15.6214 61.2913 18.7894 61.2913 23.8294C61.2913 25.0294 60.5233 27.0934 59.5153 28.0534C60.4273 27.3334 61.4353 26.9494 63.4033 26.9494C67.7233 26.9494 71.1313 30.2614 71.1313 35.1094C71.1313 40.1974 67.2433 43.8934 62.0593 43.8934C59.3713 43.8934 57.0193 42.6454 56.0593 40.8694C56.0593 44.9974 57.7873 46.3414 63.7873 46.3414V51.5734H41.3233ZM43.5312 49.5574H61.5793V48.2614C54.7633 48.2614 53.7073 45.0934 53.7073 37.2694H54.8593C56.2513 39.7174 59.0833 41.3494 62.0593 41.3494C65.6593 41.3494 68.4433 38.5654 68.4433 35.1094C68.4433 31.4614 66.2833 29.1574 62.6353 29.1574C60.8113 29.1574 59.3233 29.6374 58.2193 30.9334L56.9713 29.9254C57.9792 28.1014 58.6033 25.7974 58.6033 23.8294C58.6033 20.3734 56.2993 18.3094 52.5553 18.3094C48.8113 18.3094 46.5073 20.3734 46.5073 23.8294C46.5073 25.7974 47.0833 28.0534 48.1393 29.9254L46.8913 30.9334C45.7393 29.6374 44.2993 29.1574 42.4753 29.1574C38.8753 29.1574 36.6673 31.4614 36.6673 35.1094C36.6673 38.5174 39.4513 41.3494 43.0513 41.3494C45.9793 41.3494 48.8593 39.7654 50.2513 37.2694H51.4033C51.4033 45.1894 50.3473 48.2614 43.5312 48.2614V49.5574Z" fill="black"/>
<path d="M76.3233 76.5734V71.3414C82.2273 71.3414 84.0513 70.0934 84.0513 65.8694C83.0913 67.6454 80.8353 68.8934 78.0513 68.8934C72.8193 68.8934 68.9793 65.1974 68.9793 60.1094C68.9793 55.3094 72.3873 51.9494 76.7073 51.9494C78.6753 51.9494 79.6833 52.3334 80.5953 53.0534C79.5873 52.0454 78.8193 50.0294 78.8193 48.8294C78.8193 43.8374 82.2753 40.6214 87.5553 40.6214C92.8353 40.6214 96.2913 43.7894 96.2913 48.8294C96.2913 50.0294 95.5233 52.0934 94.5153 53.0534C95.4273 52.3334 96.4353 51.9494 98.4033 51.9494C102.723 51.9494 106.131 55.2614 106.131 60.1094C106.131 65.1974 102.243 68.8934 97.0593 68.8934C94.3713 68.8934 92.0193 67.6454 91.0593 65.8694C91.0593 69.9974 92.7873 71.3414 98.7873 71.3414V76.5734H76.3233ZM78.5312 74.5574H96.5793V73.2614C89.7633 73.2614 88.7073 70.0934 88.7073 62.2694H89.8593C91.2513 64.7174 94.0833 66.3494 97.0593 66.3494C100.659 66.3494 103.443 63.5654 103.443 60.1094C103.443 56.4614 101.283 54.1574 97.6353 54.1574C95.8113 54.1574 94.3233 54.6374 93.2193 55.9334L91.9713 54.9254C92.9792 53.1014 93.6033 50.7974 93.6033 48.8294C93.6033 45.3734 91.2993 43.3094 87.5553 43.3094C83.8113 43.3094 81.5073 45.3734 81.5073 48.8294C81.5073 50.7974 82.0833 53.0534 83.1393 54.9254L81.8913 55.9334C80.7393 54.6374 79.2993 54.1574 77.4753 54.1574C73.8753 54.1574 71.6673 56.4614 71.6673 60.1094C71.6673 63.5174 74.4513 66.3494 78.0513 66.3494C80.9793 66.3494 83.8593 64.7654 85.2513 62.2694H86.4033C86.4033 70.1894 85.3473 73.2614 78.5312 73.2614V74.5574Z" fill="black"/>
<path d="M40.3233 92.5734V87.3414C46.2273 87.3414 48.0513 86.0934 48.0513 81.8694C47.0913 83.6454 44.8353 84.8934 42.0513 84.8934C36.8193 84.8934 32.9793 81.1974 32.9793 76.1094C32.9793 71.3094 36.3873 67.9494 40.7073 67.9494C42.6753 67.9494 43.6833 68.3334 44.5953 69.0534C43.5873 68.0454 42.8193 66.0294 42.8193 64.8294C42.8193 59.8374 46.2753 56.6214 51.5553 56.6214C56.8353 56.6214 60.2913 59.7894 60.2913 64.8294C60.2913 66.0294 59.5233 68.0934 58.5153 69.0534C59.4273 68.3334 60.4353 67.9494 62.4033 67.9494C66.7233 67.9494 70.1313 71.2614 70.1313 76.1094C70.1313 81.1974 66.2433 84.8934 61.0593 84.8934C58.3713 84.8934 56.0193 83.6454 55.0593 81.8694C55.0593 85.9974 56.7873 87.3414 62.7873 87.3414V92.5734H40.3233ZM42.5312 90.5574H60.5793V89.2614C53.7633 89.2614 52.7073 86.0934 52.7073 78.2694H53.8593C55.2513 80.7174 58.0833 82.3494 61.0593 82.3494C64.6593 82.3494 67.4433 79.5654 67.4433 76.1094C67.4433 72.4614 65.2833 70.1574 61.6353 70.1574C59.8113 70.1574 58.3233 70.6374 57.2193 71.9334L55.9713 70.9254C56.9792 69.1014 57.6033 66.7974 57.6033 64.8294C57.6033 61.3734 55.2993 59.3094 51.5553 59.3094C47.8113 59.3094 45.5073 61.3734 45.5073 64.8294C45.5073 66.7974 46.0833 69.0534 47.1393 70.9254L45.8913 71.9334C44.7393 70.6374 43.2993 70.1574 41.4753 70.1574C37.8753 70.1574 35.6673 72.4614 35.6673 76.1094C35.6673 79.5174 38.4513 82.3494 42.0513 82.3494C44.9793 82.3494 47.8593 80.7654 49.2513 78.2694H50.4033C50.4033 86.1894 49.3473 89.2614 42.5312 89.2614V90.5574Z" fill="black"/>
<path d="M98.0034 127.538V132.77C92.0994 132.77 90.2754 134.018 90.2754 138.242C91.2354 136.466 93.4914 135.218 96.2754 135.218C101.507 135.218 105.347 138.914 105.347 144.002C105.347 148.802 101.939 152.162 97.6194 152.162C95.6514 152.162 94.6434 151.778 93.7314 151.058C94.7394 152.066 95.5074 154.082 95.5074 155.282C95.5074 160.274 92.0514 163.49 86.7714 163.49C81.4914 163.49 78.0354 160.322 78.0354 155.282C78.0354 154.082 78.8034 152.018 79.8114 151.058C78.8994 151.778 77.8914 152.162 75.9234 152.162C71.6034 152.162 68.1954 148.85 68.1954 144.002C68.1954 138.914 72.0834 135.218 77.2674 135.218C79.9554 135.218 82.3074 136.466 83.2674 138.242C83.2674 134.114 81.5394 132.77 75.5394 132.77V127.538H98.0034ZM95.7954 129.554H77.7474V130.85C84.5634 130.85 85.6194 134.018 85.6194 141.842H84.4674C83.0754 139.394 80.2434 137.762 77.2674 137.762C73.6674 137.762 70.8834 140.546 70.8834 144.002C70.8834 147.65 73.0434 149.954 76.6914 149.954C78.5154 149.954 80.0034 149.474 81.1074 148.178L82.3554 149.186C81.3474 151.01 80.7234 153.314 80.7234 155.282C80.7234 158.738 83.0274 160.802 86.7714 160.802C90.5154 160.802 92.8194 158.738 92.8194 155.282C92.8194 153.314 92.2434 151.058 91.1874 149.186L92.4354 148.178C93.5874 149.474 95.0274 149.954 96.8514 149.954C100.451 149.954 102.659 147.65 102.659 144.002C102.659 140.594 99.8754 137.762 96.2754 137.762C93.3474 137.762 90.4674 139.346 89.0754 141.842H87.9234C87.9234 133.922 88.9794 130.85 95.7954 130.85V129.554Z" fill="black"/>
<path d="M63.0034 106.538V111.77C57.0994 111.77 55.2754 113.018 55.2754 117.242C56.2354 115.466 58.4914 114.218 61.2754 114.218C66.5074 114.218 70.3474 117.914 70.3474 123.002C70.3474 127.802 66.9394 131.162 62.6194 131.162C60.6514 131.162 59.6434 130.778 58.7314 130.058C59.7394 131.066 60.5074 133.082 60.5074 134.282C60.5074 139.274 57.0514 142.49 51.7714 142.49C46.4914 142.49 43.0354 139.322 43.0354 134.282C43.0354 133.082 43.8034 131.018 44.8114 130.058C43.8994 130.778 42.8914 131.162 40.9234 131.162C36.6034 131.162 33.1954 127.85 33.1954 123.002C33.1954 117.914 37.0834 114.218 42.2674 114.218C44.9554 114.218 47.3074 115.466 48.2674 117.242C48.2674 113.114 46.5394 111.77 40.5394 111.77V106.538H63.0034ZM60.7954 108.554H42.7474V109.85C49.5634 109.85 50.6194 113.018 50.6194 120.842H49.4674C48.0754 118.394 45.2434 116.762 42.2674 116.762C38.6674 116.762 35.8834 119.546 35.8834 123.002C35.8834 126.65 38.0434 128.954 41.6914 128.954C43.5154 128.954 45.0034 128.474 46.1074 127.178L47.3554 128.186C46.3474 130.01 45.7234 132.314 45.7234 134.282C45.7234 137.738 48.0274 139.802 51.7714 139.802C55.5154 139.802 57.8194 137.738 57.8194 134.282C57.8194 132.314 57.2434 130.058 56.1874 128.186L57.4354 127.178C58.5874 128.474 60.0274 128.954 61.8514 128.954C65.4514 128.954 67.6594 126.65 67.6594 123.002C67.6594 119.594 64.8754 116.762 61.2754 116.762C58.3474 116.762 55.4674 118.346 54.0754 120.842H52.9234C52.9234 112.922 53.9794 109.85 60.7954 109.85V108.554Z" fill="black"/>
<path d="M63.0034 151.538V156.77C57.0994 156.77 55.2754 158.018 55.2754 162.242C56.2354 160.466 58.4914 159.218 61.2754 159.218C66.5074 159.218 70.3474 162.914 70.3474 168.002C70.3474 172.802 66.9394 176.162 62.6194 176.162C60.6514 176.162 59.6434 175.778 58.7314 175.058C59.7394 176.066 60.5074 178.082 60.5074 179.282C60.5074 184.274 57.0514 187.49 51.7714 187.49C46.4914 187.49 43.0354 184.322 43.0354 179.282C43.0354 178.082 43.8034 176.018 44.8114 175.058C43.8994 175.778 42.8914 176.162 40.9234 176.162C36.6034 176.162 33.1954 172.85 33.1954 168.002C33.1954 162.914 37.0834 159.218 42.2674 159.218C44.9554 159.218 47.3074 160.466 48.2674 162.242C48.2674 158.114 46.5394 156.77 40.5394 156.77V151.538H63.0034ZM60.7954 153.554H42.7474V154.85C49.5634 154.85 50.6194 158.018 50.6194 165.842H49.4674C48.0754 163.394 45.2434 161.762 42.2674 161.762C38.6674 161.762 35.8834 164.546 35.8834 168.002C35.8834 171.65 38.0434 173.954 41.6914 173.954C43.5154 173.954 45.0034 173.474 46.1074 172.178L47.3554 173.186C46.3474 175.01 45.7234 177.314 45.7234 179.282C45.7234 182.738 48.0274 184.802 51.7714 184.802C55.5154 184.802 57.8194 182.738 57.8194 179.282C57.8194 177.314 57.2434 175.058 56.1874 173.186L57.4354 172.178C58.5874 173.474 60.0274 173.954 61.8514 173.954C65.4514 173.954 67.6594 171.65 67.6594 168.002C67.6594 164.594 64.8754 161.762 61.2754 161.762C58.3474 161.762 55.4674 163.346 54.0754 165.842H52.9234C52.9234 157.922 53.9794 154.85 60.7954 154.85V153.554Z" fill="black"/>
</svg>
