<svg width="177" height="236" viewBox="0 0 177 236" fill="none" xmlns="http://www.w3.org/2000/svg">
<path d="M170.919 9.54591C170.919 9.54591 120.15 10.779 88.333 10.779C56.5155 10.779 5.74673 9.54591 5.74673 9.54591C2.79102 9.54591 0.530762 11.5496 0.530762 14.1699V219.012C0.530762 221.632 2.96488 223.79 5.74673 223.79C5.74673 223.79 56.5155 225.332 88.333 225.332C120.15 225.332 170.919 223.79 170.919 223.79C173.875 223.636 176.135 221.478 176.135 219.012V14.1699C176.135 11.5496 173.875 9.54591 170.919 9.54591Z" fill="white"/>
<path d="M19.9423 37.6837C19.6383 37.6837 19.3103 37.6517 18.9583 37.5877C18.6223 37.5077 18.2863 37.4277 17.9503 37.3477C17.1183 37.1077 16.4463 36.9877 15.9343 36.9877C15.4543 36.9877 14.9183 37.0277 14.3263 37.1077C13.4463 37.1877 12.8943 37.2277 12.6703 37.2277C11.7103 37.2277 10.9743 37.0517 10.4623 36.6997C9.96632 36.3477 9.68632 35.8437 9.62232 35.1877C9.59032 34.7877 9.70232 34.5077 9.95832 34.3477C10.2143 34.1717 10.6223 34.0837 11.1823 34.0837C11.5023 34.0837 11.7983 34.1317 12.0703 34.2277C12.3583 34.3077 12.7263 34.4357 13.1743 34.6117C13.6223 34.8037 14.0223 34.9477 14.3743 35.0437C14.7263 35.1397 15.1023 35.1877 15.5023 35.1877C15.9343 35.1877 16.3743 34.9157 16.8223 34.3717C17.2863 33.8277 17.6623 33.1157 17.9503 32.2357C18.2543 31.3557 18.4063 30.4357 18.4063 29.4757C18.4063 28.2917 18.2383 27.3797 17.9023 26.7397C17.5823 26.0837 16.9743 25.7557 16.0783 25.7557C14.3823 25.7557 13.1583 26.7397 12.4063 28.7077C12.1183 28.5957 11.9103 28.4517 11.7823 28.2757C11.6703 28.0837 11.6143 27.8277 11.6143 27.5077C11.6143 27.0437 11.7903 26.5957 12.1423 26.1637C12.5103 25.7157 13.0223 25.3557 13.6783 25.0837C14.3503 24.7957 15.1263 24.6517 16.0063 24.6517C17.2703 24.6517 18.2143 25.0837 18.8383 25.9477C19.4783 26.8117 19.7983 27.9477 19.7983 29.3557C19.7983 30.7637 19.5023 32.0357 18.9103 33.1717C18.3343 34.2917 17.6303 35.1797 16.7983 35.8357C17.1983 35.9957 17.5823 36.0997 17.9503 36.1477C18.3343 36.1957 18.7503 36.2197 19.1983 36.2197C19.7423 36.2357 20.1183 36.2917 20.3263 36.3877C20.5503 36.4677 20.6623 36.6757 20.6623 37.0117C20.6623 37.1557 20.5903 37.3077 20.4463 37.4677C20.3023 37.6117 20.1343 37.6837 19.9423 37.6837Z" fill="black"/>
<path d="M10.564 59.2347V56.6187C13.516 56.6187 14.428 55.9947 14.428 53.8827C13.948 54.7707 12.82 55.3947 11.428 55.3947C8.81197 55.3947 6.89197 53.5467 6.89197 51.0027C6.89197 48.6027 8.59597 46.9227 10.756 46.9227C11.74 46.9227 12.244 47.1147 12.7 47.4747C12.196 46.9707 11.812 45.9627 11.812 45.3627C11.812 42.8667 13.54 41.2587 16.18 41.2587C18.82 41.2587 20.548 42.8427 20.548 45.3627C20.548 45.9627 20.164 46.9947 19.66 47.4747C20.116 47.1147 20.62 46.9227 21.604 46.9227C23.764 46.9227 25.468 48.5787 25.468 51.0027C25.468 53.5467 23.524 55.3947 20.932 55.3947C19.588 55.3947 18.412 54.7707 17.932 53.8827C17.932 55.9467 18.796 56.6187 21.796 56.6187V59.2347H10.564ZM11.668 58.2267H20.692V57.5787C17.284 57.5787 16.756 55.9947 16.756 52.0827H17.332C18.028 53.3067 19.444 54.1227 20.932 54.1227C22.732 54.1227 24.124 52.7307 24.124 51.0027C24.124 49.1787 23.044 48.0267 21.22 48.0267C20.308 48.0267 19.564 48.2667 19.012 48.9147L18.388 48.4107C18.892 47.4987 19.204 46.3467 19.204 45.3627C19.204 43.6347 18.052 42.6027 16.18 42.6027C14.308 42.6027 13.156 43.6347 13.156 45.3627C13.156 46.3467 13.444 47.4747 13.972 48.4107L13.348 48.9147C12.772 48.2667 12.052 48.0267 11.14 48.0267C9.33997 48.0267 8.23597 49.1787 8.23597 51.0027C8.23597 52.7067 9.62797 54.1227 11.428 54.1227C12.892 54.1227 14.332 53.3307 15.028 52.0827H15.604C15.604 56.0427 15.076 57.5787 11.668 57.5787V58.2267Z" fill="black"/>
<path d="M165.235 171.698V174.314C162.283 174.314 161.371 174.938 161.371 177.05C161.851 176.162 162.979 175.538 164.371 175.538C166.987 175.538 168.907 177.386 168.907 179.93C168.907 182.33 167.203 184.01 165.043 184.01C164.059 184.01 163.555 183.818 163.099 183.458C163.603 183.962 163.987 184.97 163.987 185.57C163.987 188.066 162.259 189.674 159.619 189.674C156.979 189.674 155.251 188.09 155.251 185.57C155.251 184.97 155.635 183.938 156.139 183.458C155.683 183.818 155.179 184.01 154.195 184.01C152.035 184.01 150.331 182.354 150.331 179.93C150.331 177.386 152.275 175.538 154.867 175.538C156.211 175.538 157.387 176.162 157.867 177.05C157.867 174.986 157.003 174.314 154.003 174.314V171.698H165.235ZM164.131 172.706H155.107V173.354C158.515 173.354 159.043 174.938 159.043 178.85H158.467C157.771 177.626 156.355 176.81 154.867 176.81C153.067 176.81 151.675 178.202 151.675 179.93C151.675 181.754 152.755 182.906 154.579 182.906C155.491 182.906 156.235 182.666 156.787 182.018L157.411 182.522C156.907 183.434 156.595 184.586 156.595 185.57C156.595 187.298 157.747 188.33 159.619 188.33C161.491 188.33 162.643 187.298 162.643 185.57C162.643 184.586 162.355 183.458 161.827 182.522L162.451 182.018C163.027 182.666 163.747 182.906 164.659 182.906C166.459 182.906 167.563 181.754 167.563 179.93C167.563 178.226 166.171 176.81 164.371 176.81C162.907 176.81 161.467 177.602 160.771 178.85H160.195C160.195 174.89 160.723 173.354 164.131 173.354V172.706Z" fill="black"/>
<path d="M64.7954 97.4276V86.9636C76.6034 86.9636 80.2514 84.4676 80.2514 76.0196C78.3314 79.5716 73.8194 82.0676 68.2514 82.0676C57.7874 82.0676 50.1074 74.6755 50.1074 64.4995C50.1074 54.8995 56.9234 48.1796 65.5634 48.1796C69.4994 48.1796 71.5154 48.9476 73.3394 50.3876C71.3234 48.3715 69.7874 44.3395 69.7874 41.9396C69.7874 31.9555 76.6994 25.5236 87.2594 25.5236C97.8194 25.5236 104.731 31.8595 104.731 41.9396C104.731 44.3395 103.195 48.4675 101.179 50.3876C103.003 48.9476 105.019 48.1796 108.955 48.1796C117.595 48.1796 124.411 54.8035 124.411 64.4995C124.411 74.6755 116.635 82.0676 106.267 82.0676C100.891 82.0676 96.1874 79.5716 94.2674 76.0196C94.2674 84.2756 97.7234 86.9636 109.723 86.9636V97.4276H64.7954ZM69.2114 93.3956H105.307V90.8036C91.6754 90.8036 89.5634 84.4676 89.5634 68.8196H91.8674C94.6514 73.7156 100.315 76.9795 106.267 76.9795C113.467 76.9795 119.035 71.4115 119.035 64.4995C119.035 57.2035 114.715 52.5956 107.419 52.5956C103.771 52.5956 100.795 53.5555 98.5874 56.1476L96.0914 54.1315C98.1074 50.4835 99.3554 45.8756 99.3554 41.9396C99.3554 35.0275 94.7474 30.8995 87.2594 30.8995C79.7714 30.8995 75.1634 35.0275 75.1634 41.9396C75.1634 45.8756 76.3154 50.3876 78.4274 54.1315L75.9314 56.1476C73.6274 53.5555 70.7474 52.5956 67.0994 52.5956C59.8994 52.5956 55.4834 57.2035 55.4834 64.4995C55.4834 71.3155 61.0514 76.9795 68.2514 76.9795C74.1074 76.9795 79.8674 73.8116 82.6514 68.8196H84.9554C84.9554 84.6596 82.8434 90.8036 69.2114 90.8036V93.3956Z" fill="black"/>
<path d="M111.892 138.392V148.856C100.084 148.856 96.4356 151.352 96.4356 159.8C98.3556 156.248 102.868 153.752 108.436 153.752C118.9 153.752 126.58 161.144 126.58 171.32C126.58 180.92 119.764 187.64 111.124 187.64C107.188 187.64 105.172 186.872 103.348 185.432C105.364 187.448 106.9 191.48 106.9 193.88C106.9 203.864 99.9876 210.296 89.4276 210.296C78.8676 210.296 71.9556 203.96 71.9556 193.88C71.9556 191.48 73.4916 187.352 75.5076 185.432C73.6836 186.872 71.6676 187.64 67.7316 187.64C59.0916 187.64 52.2756 181.016 52.2756 171.32C52.2756 161.144 60.0516 153.752 70.4196 153.752C75.7956 153.752 80.4996 156.248 82.4196 159.8C82.4196 151.544 78.9636 148.856 66.9636 148.856V138.392H111.892ZM107.476 142.424H71.3796V145.016C85.0116 145.016 87.1236 151.352 87.1236 167H84.8196C82.0356 162.104 76.3716 158.84 70.4196 158.84C63.2196 158.84 57.6516 164.408 57.6516 171.32C57.6516 178.616 61.9716 183.224 69.2676 183.224C72.9156 183.224 75.8916 182.264 78.0996 179.672L80.5956 181.688C78.5796 185.336 77.3316 189.944 77.3316 193.88C77.3316 200.792 81.9396 204.92 89.4276 204.92C96.9156 204.92 101.524 200.792 101.524 193.88C101.524 189.944 100.372 185.432 98.2596 181.688L100.756 179.672C103.06 182.264 105.94 183.224 109.588 183.224C116.788 183.224 121.204 178.616 121.204 171.32C121.204 164.504 115.636 158.84 108.436 158.84C102.58 158.84 96.8196 162.008 94.0356 167H91.7316C91.7316 151.16 93.8436 145.016 107.476 145.016V142.424Z" fill="black"/>
<path d="M154.172 195.15C154.476 195.149 154.804 195.181 155.156 195.245C155.492 195.324 155.828 195.404 156.164 195.484C156.996 195.723 157.669 195.842 158.181 195.842C158.661 195.841 159.197 195.801 159.788 195.72C160.668 195.639 161.22 195.598 161.444 195.598C162.404 195.597 163.141 195.772 163.653 196.124C164.149 196.475 164.43 196.979 164.495 197.635C164.527 198.035 164.416 198.315 164.16 198.475C163.904 198.652 163.496 198.74 162.936 198.741C162.616 198.741 162.32 198.693 162.048 198.598C161.76 198.518 161.392 198.39 160.944 198.215C160.495 198.023 160.095 197.88 159.743 197.784C159.391 197.688 159.015 197.641 158.615 197.641C158.183 197.642 157.743 197.914 157.296 198.459C156.833 199.003 156.458 199.715 156.171 200.596C155.868 201.476 155.717 202.396 155.718 203.356C155.72 204.54 155.889 205.452 156.226 206.092C156.547 206.747 157.155 207.075 158.051 207.074C159.747 207.072 160.97 206.087 161.719 204.118C162.007 204.23 162.216 204.373 162.344 204.549C162.456 204.741 162.512 204.997 162.513 205.317C162.513 205.781 162.338 206.229 161.987 206.662C161.619 207.11 161.108 207.471 160.452 207.743C159.78 208.032 159.004 208.177 158.124 208.178C156.86 208.179 155.916 207.748 155.291 206.885C154.65 206.021 154.328 204.886 154.326 203.478C154.325 202.07 154.619 200.797 155.21 199.661C155.784 198.54 156.487 197.651 157.318 196.994C156.918 196.835 156.534 196.731 156.166 196.684C155.782 196.636 155.366 196.613 154.918 196.613C154.374 196.598 153.998 196.542 153.789 196.446C153.565 196.366 153.453 196.159 153.453 195.823C153.452 195.679 153.524 195.526 153.668 195.366C153.812 195.222 153.98 195.15 154.172 195.15Z" fill="black"/>
</svg>
