<svg width="177" height="221" viewBox="0 0 177 221" fill="none" xmlns="http://www.w3.org/2000/svg">
<path d="M171.318 2.76633C171.318 2.76633 120.549 3.99938 88.7314 3.99938C56.914 3.99938 6.14517 2.76633 6.14517 2.76633C3.18945 2.76633 0.929199 4.77005 0.929199 7.39031V212.233C0.929199 214.853 3.36332 217.011 6.14517 217.011C6.14517 217.011 56.914 218.552 88.7314 218.552C120.549 218.552 171.318 217.011 171.318 217.011C174.273 216.857 176.534 214.699 176.534 212.233V7.39031C176.534 4.77005 174.273 2.76633 171.318 2.76633Z" fill="white"/>
<path d="M15.5408 30.9281C14.8688 30.8801 14.3328 30.8161 13.9328 30.7361C13.5328 30.6561 13.0208 30.4481 12.3968 30.1121C11.7728 29.7601 10.9808 29.2081 10.0208 28.4561V28.2641C10.0208 27.9761 10.0928 27.7521 10.2368 27.5921C10.3808 27.4161 10.5888 27.3281 10.8608 27.3281C10.9088 27.3281 10.9968 27.3921 11.1248 27.5201C11.2688 27.6321 11.3568 27.7041 11.3888 27.7361C11.9168 28.2481 12.4848 28.6801 13.0928 29.0321C13.7008 29.3841 14.4448 29.5601 15.3248 29.5601C15.8848 29.5601 16.3728 29.3761 16.7888 29.0081C17.2208 28.6401 17.4368 28.1041 17.4368 27.4001C17.4368 26.4081 17.0448 25.6641 16.2608 25.1681C15.4928 24.6561 14.3648 24.4161 12.8768 24.4481C12.7808 24.2721 12.7328 24.0881 12.7328 23.8961C12.7328 23.7361 12.7568 23.6001 12.8048 23.4881C12.8528 23.3601 12.9168 23.2801 12.9968 23.2481C14.0688 23.1521 14.8848 22.8721 15.4448 22.4081C16.0208 21.9441 16.3088 21.3201 16.3088 20.5361C16.3088 20.0561 16.0288 19.6721 15.4688 19.3841C14.9248 19.0801 14.1968 18.9281 13.2848 18.9281C12.6288 18.9281 12.1408 19.0081 11.8208 19.1681C11.5168 19.3121 11.3648 19.5441 11.3648 19.8641V20.3921C11.0768 20.3921 10.8448 20.3281 10.6688 20.2001C10.5088 20.0561 10.4288 19.8481 10.4288 19.5761C10.4288 18.9841 10.6768 18.5201 11.1728 18.1841C11.6688 17.8321 12.3968 17.6561 13.3568 17.6561C14.6208 17.6561 15.6128 17.9281 16.3328 18.4721C17.0688 19.0001 17.4368 19.7761 17.4368 20.8001C17.4368 21.6481 17.1968 22.2881 16.7168 22.7201C16.2528 23.1361 15.5488 23.4561 14.6048 23.6801C15.9968 23.8561 17.0368 24.2401 17.7248 24.8321C18.4288 25.4081 18.7808 26.2161 18.7808 27.2561C18.7808 28.0721 18.6208 28.7601 18.3008 29.3201C17.9808 29.8641 17.5728 30.2721 17.0768 30.5441C16.5808 30.8001 16.0688 30.9281 15.5408 30.9281Z" fill="black"/>
<path d="M9.96241 52.4551V49.8391C12.9144 49.8391 13.8264 49.2151 13.8264 47.1031C13.3464 47.9911 12.2184 48.6151 10.8264 48.6151C8.21041 48.6151 6.29041 46.7671 6.29041 44.2231C6.29041 41.8231 7.99441 40.1431 10.1544 40.1431C11.1384 40.1431 11.6424 40.3351 12.0984 40.6951C11.5944 40.1911 11.2104 39.1831 11.2104 38.5831C11.2104 36.0871 12.9384 34.4791 15.5784 34.4791C18.2184 34.4791 19.9464 36.0631 19.9464 38.5831C19.9464 39.1831 19.5624 40.2151 19.0584 40.6951C19.5144 40.3351 20.0184 40.1431 21.0024 40.1431C23.1624 40.1431 24.8664 41.7991 24.8664 44.2231C24.8664 46.7671 22.9224 48.6151 20.3304 48.6151C18.9864 48.6151 17.8104 47.9911 17.3304 47.1031C17.3304 49.1671 18.1944 49.8391 21.1944 49.8391V52.4551H9.96241ZM11.0664 51.4471H20.0904V50.7991C16.6824 50.7991 16.1544 49.2151 16.1544 45.3031H16.7304C17.4264 46.5271 18.8424 47.3431 20.3304 47.3431C22.1304 47.3431 23.5224 45.9511 23.5224 44.2231C23.5224 42.3991 22.4424 41.2471 20.6184 41.2471C19.7064 41.2471 18.9624 41.4871 18.4104 42.1351L17.7864 41.6311C18.2904 40.7191 18.6024 39.5671 18.6024 38.5831C18.6024 36.8551 17.4504 35.8231 15.5784 35.8231C13.7064 35.8231 12.5544 36.8551 12.5544 38.5831C12.5544 39.5671 12.8424 40.6951 13.3704 41.6311L12.7464 42.1351C12.1704 41.4871 11.4504 41.2471 10.5384 41.2471C8.73841 41.2471 7.63441 42.3991 7.63441 44.2231C7.63441 45.9271 9.02641 47.3431 10.8264 47.3431C12.2904 47.3431 13.7304 46.5511 14.4264 45.3031H15.0024C15.0024 49.2631 14.4744 50.7991 11.0664 50.7991V51.4471Z" fill="black"/>
<path d="M166.634 168.918V171.534C163.682 171.534 162.77 172.158 162.77 174.27C163.25 173.382 164.378 172.758 165.77 172.758C168.386 172.758 170.306 174.606 170.306 177.15C170.306 179.55 168.602 181.23 166.442 181.23C165.458 181.23 164.954 181.038 164.498 180.678C165.002 181.182 165.386 182.19 165.386 182.79C165.386 185.286 163.658 186.894 161.018 186.894C158.378 186.894 156.65 185.31 156.65 182.79C156.65 182.19 157.034 181.158 157.538 180.678C157.082 181.038 156.578 181.23 155.594 181.23C153.434 181.23 151.73 179.574 151.73 177.15C151.73 174.606 153.674 172.758 156.266 172.758C157.61 172.758 158.786 173.382 159.266 174.27C159.266 172.206 158.402 171.534 155.402 171.534V168.918H166.634ZM165.53 169.926H156.506V170.574C159.914 170.574 160.442 172.158 160.442 176.07H159.866C159.17 174.846 157.754 174.03 156.266 174.03C154.466 174.03 153.074 175.422 153.074 177.15C153.074 178.974 154.154 180.126 155.978 180.126C156.89 180.126 157.634 179.886 158.186 179.238L158.81 179.742C158.306 180.654 157.994 181.806 157.994 182.79C157.994 184.518 159.146 185.55 161.018 185.55C162.89 185.55 164.042 184.518 164.042 182.79C164.042 181.806 163.754 180.678 163.226 179.742L163.85 179.238C164.426 179.886 165.146 180.126 166.058 180.126C167.858 180.126 168.962 178.974 168.962 177.15C168.962 175.446 167.57 174.03 165.77 174.03C164.306 174.03 162.866 174.822 162.17 176.07H161.594C161.594 172.11 162.122 170.574 165.53 170.574V169.926Z" fill="black"/>
<path d="M68.6659 130.648V123.672C76.5379 123.672 78.9699 122.008 78.9699 116.376C77.6899 118.744 74.6819 120.408 70.9699 120.408C63.9939 120.408 58.8739 115.48 58.8739 108.696C58.8739 102.296 63.4179 97.816 69.1779 97.816C71.8019 97.816 73.1459 98.328 74.3619 99.288C73.0179 97.944 71.9939 95.256 71.9939 93.656C71.9939 87 76.6019 82.712 83.6419 82.712C90.6819 82.712 95.2899 86.936 95.2899 93.656C95.2899 95.256 94.2659 98.008 92.9219 99.288C94.1379 98.328 95.4819 97.816 98.1059 97.816C103.866 97.816 108.41 102.232 108.41 108.696C108.41 115.48 103.226 120.408 96.3139 120.408C92.7299 120.408 89.5939 118.744 88.3139 116.376C88.3139 121.88 90.6179 123.672 98.6179 123.672V130.648H68.6659ZM71.6099 127.96H95.6739V126.232C86.5859 126.232 85.1779 122.008 85.1779 111.576H86.7139C88.5699 114.84 92.3459 117.016 96.3139 117.016C101.114 117.016 104.826 113.304 104.826 108.696C104.826 103.832 101.946 100.76 97.0819 100.76C94.6499 100.76 92.6659 101.4 91.1939 103.128L89.5299 101.784C90.8739 99.352 91.7059 96.28 91.7059 93.656C91.7059 89.048 88.6339 86.296 83.6419 86.296C78.6499 86.296 75.5779 89.048 75.5779 93.656C75.5779 96.28 76.3459 99.288 77.7539 101.784L76.0899 103.128C74.5539 101.4 72.6339 100.76 70.2019 100.76C65.4019 100.76 62.4579 103.832 62.4579 108.696C62.4579 113.24 66.1699 117.016 70.9699 117.016C74.8739 117.016 78.7139 114.904 80.5699 111.576H82.1059C82.1059 122.136 80.6979 126.232 71.6099 126.232V127.96Z" fill="black"/>
<path d="M100.818 155.612V162.588C92.946 162.588 90.514 164.252 90.514 169.884C91.794 167.516 94.802 165.852 98.514 165.852C105.49 165.852 110.61 170.78 110.61 177.564C110.61 183.964 106.066 188.444 100.306 188.444C97.682 188.444 96.338 187.932 95.122 186.972C96.466 188.316 97.49 191.004 97.49 192.604C97.49 199.26 92.882 203.548 85.842 203.548C78.802 203.548 74.194 199.324 74.194 192.604C74.194 191.004 75.218 188.252 76.562 186.972C75.346 187.932 74.002 188.444 71.378 188.444C65.618 188.444 61.074 184.028 61.074 177.564C61.074 170.78 66.258 165.852 73.17 165.852C76.754 165.852 79.89 167.516 81.17 169.884C81.17 164.38 78.866 162.588 70.866 162.588V155.612H100.818ZM97.874 158.3H73.81V160.028C82.898 160.028 84.306 164.252 84.306 174.684H82.77C80.914 171.42 77.138 169.244 73.17 169.244C68.37 169.244 64.658 172.956 64.658 177.564C64.658 182.428 67.538 185.5 72.402 185.5C74.834 185.5 76.818 184.86 78.29 183.132L79.954 184.476C78.61 186.908 77.778 189.98 77.778 192.604C77.778 197.212 80.85 199.964 85.842 199.964C90.834 199.964 93.906 197.212 93.906 192.604C93.906 189.98 93.138 186.972 91.73 184.476L93.394 183.132C94.93 184.86 96.85 185.5 99.282 185.5C104.082 185.5 107.026 182.428 107.026 177.564C107.026 173.02 103.314 169.244 98.514 169.244C94.61 169.244 90.77 171.356 88.914 174.684H87.378C87.378 164.124 88.786 160.028 97.874 160.028V158.3Z" fill="black"/>
<path d="M68.056 65V58.024C75.928 58.024 78.36 56.36 78.36 50.728C77.08 53.096 74.072 54.76 70.36 54.76C63.384 54.76 58.264 49.832 58.264 43.048C58.264 36.648 62.808 32.168 68.568 32.168C71.192 32.168 72.536 32.68 73.752 33.64C72.408 32.296 71.384 29.608 71.384 28.008C71.384 21.352 75.992 17.064 83.032 17.064C90.072 17.064 94.68 21.288 94.68 28.008C94.68 29.608 93.656 32.36 92.312 33.64C93.528 32.68 94.872 32.168 97.496 32.168C103.256 32.168 107.8 36.584 107.8 43.048C107.8 49.832 102.616 54.76 95.704 54.76C92.12 54.76 88.984 53.096 87.704 50.728C87.704 56.232 90.008 58.024 98.008 58.024V65H68.056ZM71 62.312H95.064V60.584C85.976 60.584 84.568 56.36 84.568 45.928H86.104C87.96 49.192 91.736 51.368 95.704 51.368C100.504 51.368 104.216 47.656 104.216 43.048C104.216 38.184 101.336 35.112 96.472 35.112C94.04 35.112 92.056 35.752 90.584 37.48L88.92 36.136C90.264 33.704 91.096 30.632 91.096 28.008C91.096 23.4 88.024 20.648 83.032 20.648C78.04 20.648 74.968 23.4 74.968 28.008C74.968 30.632 75.736 33.64 77.144 36.136L75.48 37.48C73.944 35.752 72.024 35.112 69.592 35.112C64.792 35.112 61.848 38.184 61.848 43.048C61.848 47.592 65.56 51.368 70.36 51.368C74.264 51.368 78.104 49.256 79.96 45.928H81.496C81.496 56.488 80.088 60.584 71 60.584V62.312Z" fill="black"/>
<path d="M159.37 188.341C160.042 188.388 160.578 188.452 160.978 188.532C161.378 188.611 161.891 188.819 162.515 189.154C163.14 189.505 163.932 190.056 164.893 190.807L164.894 190.999C164.894 191.287 164.822 191.512 164.678 191.672C164.535 191.848 164.327 191.936 164.055 191.936C164.007 191.936 163.919 191.872 163.791 191.745C163.646 191.633 163.558 191.561 163.526 191.529C162.998 191.017 162.429 190.586 161.821 190.235C161.212 189.883 160.468 189.708 159.588 189.709C159.028 189.71 158.54 189.894 158.125 190.262C157.693 190.631 157.478 191.167 157.479 191.871C157.48 192.863 157.873 193.607 158.658 194.102C159.426 194.613 160.554 194.852 162.042 194.818C162.139 194.994 162.187 195.178 162.187 195.37C162.187 195.53 162.164 195.666 162.116 195.778C162.068 195.906 162.004 195.986 161.924 196.019C160.852 196.116 160.036 196.396 159.477 196.861C158.902 197.326 158.614 197.95 158.615 198.734C158.616 199.214 158.897 199.598 159.457 199.885C160.001 200.189 160.73 200.34 161.642 200.339C162.298 200.338 162.785 200.258 163.105 200.097C163.409 199.953 163.561 199.721 163.56 199.401L163.56 198.873C163.848 198.873 164.08 198.936 164.256 199.064C164.416 199.208 164.496 199.416 164.497 199.688C164.497 200.28 164.25 200.744 163.754 201.081C163.259 201.433 162.531 201.61 161.571 201.611C160.307 201.612 159.315 201.341 158.594 200.798C157.857 200.271 157.488 199.495 157.487 198.471C157.486 197.623 157.725 196.983 158.205 196.55C158.668 196.134 159.372 195.813 160.315 195.588C158.923 195.414 157.883 195.031 157.194 194.439C156.489 193.864 156.136 193.057 156.135 192.017C156.134 191.201 156.293 190.512 156.612 189.952C156.931 189.408 157.339 188.999 157.835 188.727C158.33 188.47 158.842 188.342 159.37 188.341Z" fill="black"/>
</svg>
