<svg width="177" height="217" viewBox="0 0 177 217" fill="none" xmlns="http://www.w3.org/2000/svg">
<path d="M171.041 0.912247C171.041 0.912247 120.272 2.1453 88.4545 2.1453C56.6371 2.1453 5.86832 0.912247 5.86832 0.912247C2.9126 0.912247 0.652344 2.91597 0.652344 5.53623V210.379C0.652344 212.999 3.08646 215.157 5.86832 215.157C5.86832 215.157 56.6371 216.698 88.4545 216.698C120.272 216.698 171.041 215.157 171.041 215.157C173.996 215.003 176.257 212.845 176.257 210.379V5.53623C176.257 2.91597 173.996 0.912247 171.041 0.912247Z" fill="white"/>
<path d="M17.9279 29.098C17.7839 29.098 17.6319 28.906 17.4719 28.522C17.3279 28.122 17.2079 27.602 17.1119 26.962C17.0159 26.322 16.9679 25.65 16.9679 24.946C16.9679 24.034 17.0399 23.25 17.1839 22.594C16.6399 23.346 16.0719 23.898 15.4799 24.25C14.9039 24.586 14.0879 24.754 13.0319 24.754C11.9599 24.754 11.1759 24.362 10.6799 23.578C10.1999 22.794 9.95991 21.786 9.95991 20.554C9.95991 19.578 10.0399 18.706 10.1999 17.938C10.3759 17.17 10.6639 16.226 11.0639 15.106C11.0959 14.946 11.1919 14.826 11.3519 14.746C11.5119 14.65 11.6879 14.602 11.8799 14.602C12.0559 14.602 12.1999 14.642 12.3119 14.722C12.4239 14.786 12.4719 14.874 12.4559 14.986C11.6079 17.194 11.1839 19.162 11.1839 20.89C11.1839 21.818 11.3359 22.482 11.6399 22.882C11.9599 23.282 12.5039 23.482 13.2719 23.482C14.4399 23.482 15.3919 22.946 16.1279 21.874C16.8639 20.802 17.3519 19.946 17.5919 19.306C17.8479 18.666 17.9919 18.322 18.0239 18.274C18.3919 18.274 18.6399 18.33 18.7679 18.442C18.8959 18.554 18.9599 18.73 18.9599 18.97C18.9599 19.434 18.8399 20.178 18.5999 21.202C18.5839 21.314 18.5199 21.642 18.4079 22.186C18.2959 22.714 18.2399 23.162 18.2399 23.53C18.2399 24.106 18.3279 24.866 18.5039 25.81C18.6639 26.802 18.7439 27.522 18.7439 27.97C18.7439 28.722 18.4719 29.098 17.9279 29.098Z" fill="black"/>
<path d="M14.6856 50.601V47.985C17.6376 47.985 18.5496 47.361 18.5496 45.249C18.0696 46.137 16.9416 46.761 15.5496 46.761C12.9336 46.761 11.0136 44.913 11.0136 42.369C11.0136 39.969 12.7176 38.289 14.8776 38.289C15.8616 38.289 16.3656 38.481 16.8216 38.841C16.3176 38.337 15.9336 37.329 15.9336 36.729C15.9336 34.233 17.6616 32.625 20.3016 32.625C22.9416 32.625 24.6696 34.209 24.6696 36.729C24.6696 37.329 24.2856 38.361 23.7816 38.841C24.2376 38.481 24.7416 38.289 25.7256 38.289C27.8856 38.289 29.5896 39.945 29.5896 42.369C29.5896 44.913 27.6456 46.761 25.0536 46.761C23.7096 46.761 22.5336 46.137 22.0536 45.249C22.0536 47.313 22.9176 47.985 25.9176 47.985V50.601H14.6856ZM15.7896 49.593H24.8136V48.945C21.4056 48.945 20.8776 47.361 20.8776 43.449H21.4536C22.1496 44.673 23.5656 45.489 25.0536 45.489C26.8536 45.489 28.2456 44.097 28.2456 42.369C28.2456 40.545 27.1656 39.393 25.3416 39.393C24.4296 39.393 23.6856 39.633 23.1336 40.281L22.5096 39.777C23.0136 38.865 23.3256 37.713 23.3256 36.729C23.3256 35.001 22.1736 33.969 20.3016 33.969C18.4296 33.969 17.2776 35.001 17.2776 36.729C17.2776 37.713 17.5656 38.841 18.0936 39.777L17.4696 40.281C16.8936 39.633 16.1736 39.393 15.2616 39.393C13.4616 39.393 12.3576 40.545 12.3576 42.369C12.3576 44.073 13.7496 45.489 15.5496 45.489C17.0136 45.489 18.4536 44.697 19.1496 43.449H19.7256C19.7256 47.409 19.1976 48.945 15.7896 48.945V49.593Z" fill="black"/>
<path d="M165.357 166.064V168.68C162.405 168.68 161.493 169.304 161.493 171.416C161.973 170.528 163.101 169.904 164.493 169.904C167.109 169.904 169.029 171.752 169.029 174.296C169.029 176.696 167.325 178.376 165.165 178.376C164.181 178.376 163.677 178.184 163.221 177.824C163.725 178.328 164.109 179.336 164.109 179.936C164.109 182.432 162.381 184.04 159.741 184.04C157.101 184.04 155.373 182.456 155.373 179.936C155.373 179.336 155.757 178.304 156.261 177.824C155.805 178.184 155.301 178.376 154.317 178.376C152.157 178.376 150.453 176.72 150.453 174.296C150.453 171.752 152.397 169.904 154.989 169.904C156.333 169.904 157.509 170.528 157.989 171.416C157.989 169.352 157.125 168.68 154.125 168.68V166.064H165.357ZM164.253 167.072H155.229V167.72C158.637 167.72 159.165 169.304 159.165 173.216H158.589C157.893 171.992 156.477 171.176 154.989 171.176C153.189 171.176 151.797 172.568 151.797 174.296C151.797 176.12 152.877 177.272 154.701 177.272C155.613 177.272 156.357 177.032 156.909 176.384L157.533 176.888C157.029 177.8 156.717 178.952 156.717 179.936C156.717 181.664 157.869 182.696 159.741 182.696C161.613 182.696 162.765 181.664 162.765 179.936C162.765 178.952 162.477 177.824 161.949 176.888L162.573 176.384C163.149 177.032 163.869 177.272 164.781 177.272C166.581 177.272 167.685 176.12 167.685 174.296C167.685 172.592 166.293 171.176 164.493 171.176C163.029 171.176 161.589 171.968 160.893 173.216H160.317C160.317 169.256 160.845 167.72 164.253 167.72V167.072Z" fill="black"/>
<path d="M67.5412 138.758V145.734C59.6692 145.734 57.2372 147.398 57.2372 153.03C58.5172 150.662 61.5252 148.998 65.2372 148.998C72.2132 148.998 77.3332 153.926 77.3332 160.71C77.3332 167.11 72.7892 171.59 67.0292 171.59C64.4052 171.59 63.0612 171.078 61.8452 170.118C63.1892 171.462 64.2132 174.15 64.2132 175.75C64.2132 182.406 59.6052 186.694 52.5652 186.694C45.5252 186.694 40.9172 182.47 40.9172 175.75C40.9172 174.15 41.9412 171.398 43.2852 170.118C42.0692 171.078 40.7252 171.59 38.1012 171.59C32.3412 171.59 27.7972 167.174 27.7972 160.71C27.7972 153.926 32.9812 148.998 39.8932 148.998C43.4772 148.998 46.6132 150.662 47.8932 153.03C47.8932 147.526 45.5892 145.734 37.5892 145.734V138.758H67.5412ZM64.5972 141.446H40.5332V143.174C49.6212 143.174 51.0292 147.398 51.0292 157.83H49.4932C47.6372 154.566 43.8612 152.39 39.8932 152.39C35.0932 152.39 31.3812 156.102 31.3812 160.71C31.3812 165.574 34.2612 168.646 39.1252 168.646C41.5572 168.646 43.5412 168.006 45.0132 166.278L46.6772 167.622C45.3332 170.054 44.5012 173.126 44.5012 175.75C44.5012 180.358 47.5732 183.11 52.5652 183.11C57.5572 183.11 60.6292 180.358 60.6292 175.75C60.6292 173.126 59.8612 170.118 58.4532 167.622L60.1172 166.278C61.6532 168.006 63.5732 168.646 66.0052 168.646C70.8052 168.646 73.7492 165.574 73.7492 160.71C73.7492 156.166 70.0372 152.39 65.2372 152.39C61.3332 152.39 57.4932 154.502 55.6372 157.83H54.1012C54.1012 147.27 55.5092 143.174 64.5972 143.174V141.446Z" fill="black"/>
<path d="M128.541 138.758V145.734C120.669 145.734 118.237 147.398 118.237 153.03C119.517 150.662 122.525 148.998 126.237 148.998C133.213 148.998 138.333 153.926 138.333 160.71C138.333 167.11 133.789 171.59 128.029 171.59C125.405 171.59 124.061 171.078 122.845 170.118C124.189 171.462 125.213 174.15 125.213 175.75C125.213 182.406 120.605 186.694 113.565 186.694C106.525 186.694 101.917 182.47 101.917 175.75C101.917 174.15 102.941 171.398 104.285 170.118C103.069 171.078 101.725 171.59 99.1012 171.59C93.3412 171.59 88.7972 167.174 88.7972 160.71C88.7972 153.926 93.9812 148.998 100.893 148.998C104.477 148.998 107.613 150.662 108.893 153.03C108.893 147.526 106.589 145.734 98.5892 145.734V138.758H128.541ZM125.597 141.446H101.533V143.174C110.621 143.174 112.029 147.398 112.029 157.83H110.493C108.637 154.566 104.861 152.39 100.893 152.39C96.0932 152.39 92.3812 156.102 92.3812 160.71C92.3812 165.574 95.2612 168.646 100.125 168.646C102.557 168.646 104.541 168.006 106.013 166.278L107.677 167.622C106.333 170.054 105.501 173.126 105.501 175.75C105.501 180.358 108.573 183.11 113.565 183.11C118.557 183.11 121.629 180.358 121.629 175.75C121.629 173.126 120.861 170.118 119.453 167.622L121.117 166.278C122.653 168.006 124.573 168.646 127.005 168.646C131.805 168.646 134.749 165.574 134.749 160.71C134.749 156.166 131.037 152.39 126.237 152.39C122.333 152.39 118.493 154.502 116.637 157.83H115.101C115.101 147.27 116.509 143.174 125.597 143.174V141.446Z" fill="black"/>
<path d="M37.389 88.7939V81.8179C45.261 81.8179 47.693 80.1539 47.693 74.5219C46.413 76.8899 43.405 78.5539 39.693 78.5539C32.717 78.5539 27.597 73.6259 27.597 66.8419C27.597 60.4419 32.141 55.9619 37.901 55.9619C40.525 55.9619 41.869 56.4739 43.085 57.4339C41.741 56.0899 40.717 53.4019 40.717 51.8019C40.717 45.1459 45.325 40.8579 52.365 40.8579C59.405 40.8579 64.013 45.0819 64.013 51.8019C64.013 53.4019 62.989 56.1539 61.645 57.4339C62.861 56.4739 64.205 55.9619 66.829 55.9619C72.589 55.9619 77.133 60.3779 77.133 66.8419C77.133 73.6259 71.949 78.5539 65.037 78.5539C61.453 78.5539 58.317 76.8899 57.037 74.5219C57.037 80.0259 59.341 81.8179 67.341 81.8179V88.7939H37.389ZM40.333 86.1059H64.397V84.3779C55.309 84.3779 53.901 80.1539 53.901 69.7219H55.437C57.293 72.9859 61.069 75.1619 65.037 75.1619C69.837 75.1619 73.549 71.4499 73.549 66.8419C73.549 61.9779 70.669 58.9059 65.805 58.9059C63.373 58.9059 61.389 59.5459 59.917 61.2739L58.253 59.9299C59.597 57.4979 60.429 54.4259 60.429 51.8019C60.429 47.1939 57.357 44.4419 52.365 44.4419C47.373 44.4419 44.301 47.1939 44.301 51.8019C44.301 54.4259 45.069 57.4339 46.477 59.9299L44.813 61.2739C43.277 59.5459 41.357 58.9059 38.925 58.9059C34.125 58.9059 31.181 61.9779 31.181 66.8419C31.181 71.3859 34.893 75.1619 39.693 75.1619C43.597 75.1619 47.437 73.0499 49.293 69.7219H50.829C50.829 80.2819 49.421 84.3779 40.333 84.3779V86.1059Z" fill="black"/>
<path d="M98.389 87.7939V80.8179C106.261 80.8179 108.693 79.1539 108.693 73.5219C107.413 75.8899 104.405 77.5539 100.693 77.5539C93.717 77.5539 88.597 72.6259 88.597 65.8419C88.597 59.4419 93.141 54.9619 98.901 54.9619C101.525 54.9619 102.869 55.4739 104.085 56.4339C102.741 55.0899 101.717 52.4019 101.717 50.8019C101.717 44.1459 106.325 39.8579 113.365 39.8579C120.405 39.8579 125.013 44.0819 125.013 50.8019C125.013 52.4019 123.989 55.1539 122.645 56.4339C123.861 55.4739 125.205 54.9619 127.829 54.9619C133.589 54.9619 138.133 59.3779 138.133 65.8419C138.133 72.6259 132.949 77.5539 126.037 77.5539C122.453 77.5539 119.317 75.8899 118.037 73.5219C118.037 79.0259 120.341 80.8179 128.341 80.8179V87.7939H98.389ZM101.333 85.1059H125.397V83.3779C116.309 83.3779 114.901 79.1539 114.901 68.7219H116.437C118.293 71.9859 122.069 74.1619 126.037 74.1619C130.837 74.1619 134.549 70.4499 134.549 65.8419C134.549 60.9779 131.669 57.9059 126.805 57.9059C124.373 57.9059 122.389 58.5459 120.917 60.2739L119.253 58.9299C120.597 56.4979 121.429 53.4259 121.429 50.8019C121.429 46.1939 118.357 43.4419 113.365 43.4419C108.373 43.4419 105.301 46.1939 105.301 50.8019C105.301 53.4259 106.069 56.4339 107.477 58.9299L105.813 60.2739C104.277 58.5459 102.357 57.9059 99.925 57.9059C95.125 57.9059 92.181 60.9779 92.181 65.8419C92.181 70.3859 95.893 74.1619 100.693 74.1619C104.597 74.1619 108.437 72.0499 110.293 68.7219H111.829C111.829 79.2819 110.421 83.3779 101.333 83.3779V85.1059Z" fill="black"/>
<path d="M156.429 186.466C156.573 186.466 156.725 186.658 156.886 187.041C157.031 187.441 157.151 187.961 157.248 188.601C157.345 189.241 157.394 189.913 157.395 190.617C157.396 191.529 157.325 192.313 157.182 192.969C157.725 192.217 158.292 191.664 158.883 191.311C159.459 190.975 160.275 190.806 161.331 190.805C162.403 190.804 163.187 191.195 163.684 191.978C164.165 192.762 164.407 193.77 164.408 195.002C164.409 195.978 164.331 196.85 164.172 197.618C163.997 198.386 163.71 199.33 163.311 200.451C163.279 200.611 163.184 200.731 163.024 200.811C162.864 200.907 162.688 200.955 162.496 200.956C162.32 200.956 162.176 200.916 162.064 200.836C161.952 200.772 161.903 200.684 161.919 200.572C162.765 198.363 163.186 196.395 163.184 194.667C163.183 193.739 163.03 193.075 162.725 192.675C162.405 192.276 161.86 192.076 161.092 192.077C159.924 192.078 158.973 192.615 158.239 193.688C157.504 194.761 157.017 195.617 156.778 196.258C156.523 196.898 156.379 197.242 156.347 197.29C155.979 197.29 155.731 197.235 155.603 197.123C155.475 197.011 155.411 196.835 155.41 196.595C155.41 196.131 155.529 195.387 155.767 194.363C155.783 194.251 155.847 193.922 155.958 193.378C156.069 192.85 156.125 192.402 156.124 192.034C156.124 191.458 156.035 190.698 155.857 189.754C155.696 188.763 155.615 188.043 155.615 187.595C155.614 186.843 155.885 186.466 156.429 186.466Z" fill="black"/>
</svg>
