<svg width="177" height="217" viewBox="0 0 177 217" fill="none" xmlns="http://www.w3.org/2000/svg">
<path d="M170.841 0.554077C170.841 0.554077 120.072 1.78713 88.2543 1.78713C56.4369 1.78713 5.66812 0.554077 5.66812 0.554077C2.7124 0.554077 0.452148 2.5578 0.452148 5.17806V210.02C0.452148 212.641 2.88627 214.798 5.66812 214.798C5.66812 214.798 56.4369 216.34 88.2543 216.34C120.072 216.34 170.841 214.798 170.841 214.798C173.796 214.644 176.056 212.486 176.056 210.02V5.17806C176.056 2.5578 173.796 0.554077 170.841 0.554077Z" fill="white"/>
<path d="M16.4077 29.1718C16.2157 29.1878 15.9277 29.1958 15.5437 29.1958C12.3277 29.1958 10.7197 28.0518 10.7197 25.7638C10.6877 25.3478 10.7277 24.9878 10.8397 24.6838C10.9677 24.3798 11.1117 24.2278 11.2717 24.2278C11.4317 24.2278 11.5517 24.3958 11.6317 24.7318C11.7277 25.0518 11.7597 25.5558 11.7277 26.2438C11.7277 26.7718 12.1117 27.1798 12.8797 27.4678C13.6637 27.7398 14.6157 27.8758 15.7357 27.8758C18.3917 27.8758 19.7197 26.6838 19.7197 24.2998C19.7197 23.0038 19.1837 22.0198 18.1117 21.3478C17.0557 20.6758 15.3277 20.2838 12.9277 20.1718C12.8157 20.0278 12.7437 19.9078 12.7117 19.8118C12.6797 19.7158 12.6717 19.6118 12.6877 19.4998C12.7997 18.8918 12.9677 18.2678 13.1917 17.6278C13.4157 16.9878 13.7357 16.1478 14.1517 15.1078L14.7517 13.4998C15.6157 13.3558 16.6077 13.2838 17.7277 13.2838C18.6877 13.2838 19.5837 13.3398 20.4157 13.4518C21.2637 13.5638 21.9037 13.7158 22.3357 13.9078C22.2397 14.2918 22.0477 14.6278 21.7597 14.9158C20.4477 14.7398 19.2397 14.6518 18.1357 14.6518C17.2237 14.6518 16.4157 14.6918 15.7117 14.7718C15.1197 16.0838 14.7117 17.4278 14.4877 18.8038C16.1997 19.1078 17.4797 19.4038 18.3277 19.6918C19.1757 19.9638 19.8717 20.4598 20.4157 21.1798C20.9597 21.8838 21.2477 22.9318 21.2797 24.3238C21.3117 25.7478 20.9037 26.8918 20.0557 27.7558C19.2237 28.6038 18.0077 29.0758 16.4077 29.1718Z" fill="black"/>
<path d="M10.4854 51.2429V48.6269C13.4374 48.6269 14.3494 48.0029 14.3494 45.8909C13.8694 46.7789 12.7414 47.4029 11.3494 47.4029C8.73336 47.4029 6.81336 45.5549 6.81336 43.0109C6.81336 40.6109 8.51736 38.9309 10.6774 38.9309C11.6614 38.9309 12.1654 39.1229 12.6214 39.4829C12.1174 38.9789 11.7334 37.9709 11.7334 37.3709C11.7334 34.8749 13.4614 33.2669 16.1014 33.2669C18.7414 33.2669 20.4694 34.8509 20.4694 37.3709C20.4694 37.9709 20.0854 39.0029 19.5814 39.4829C20.0374 39.1229 20.5414 38.9309 21.5254 38.9309C23.6854 38.9309 25.3894 40.5869 25.3894 43.0109C25.3894 45.5549 23.4454 47.4029 20.8534 47.4029C19.5094 47.4029 18.3334 46.7789 17.8534 45.8909C17.8534 47.9549 18.7174 48.6269 21.7174 48.6269V51.2429H10.4854ZM11.5894 50.2349H20.6134V49.5869C17.2054 49.5869 16.6774 48.0029 16.6774 44.0909H17.2534C17.9494 45.3149 19.3654 46.1309 20.8534 46.1309C22.6534 46.1309 24.0454 44.7389 24.0454 43.0109C24.0454 41.1869 22.9654 40.0349 21.1414 40.0349C20.2294 40.0349 19.4854 40.2749 18.9334 40.9229L18.3094 40.4189C18.8134 39.5069 19.1254 38.3549 19.1254 37.3709C19.1254 35.6429 17.9734 34.6109 16.1014 34.6109C14.2294 34.6109 13.0774 35.6429 13.0774 37.3709C13.0774 38.3549 13.3654 39.4829 13.8934 40.4189L13.2694 40.9229C12.6934 40.2749 11.9734 40.0349 11.0614 40.0349C9.26136 40.0349 8.15736 41.1869 8.15736 43.0109C8.15736 44.7149 9.54936 46.1309 11.3494 46.1309C12.8134 46.1309 14.2534 45.3389 14.9494 44.0909H15.5254C15.5254 48.0509 14.9974 49.5869 11.5894 49.5869V50.2349Z" fill="black"/>
<path d="M164.157 163.706V166.322C161.205 166.322 160.293 166.946 160.293 169.058C160.773 168.17 161.901 167.546 163.293 167.546C165.909 167.546 167.829 169.394 167.829 171.938C167.829 174.338 166.125 176.018 163.965 176.018C162.981 176.018 162.477 175.826 162.021 175.466C162.525 175.97 162.909 176.978 162.909 177.578C162.909 180.074 161.181 181.682 158.541 181.682C155.901 181.682 154.173 180.098 154.173 177.578C154.173 176.978 154.557 175.946 155.061 175.466C154.605 175.826 154.101 176.018 153.117 176.018C150.957 176.018 149.253 174.362 149.253 171.938C149.253 169.394 151.197 167.546 153.789 167.546C155.133 167.546 156.309 168.17 156.789 169.058C156.789 166.994 155.925 166.322 152.925 166.322V163.706H164.157ZM163.053 164.714H154.029V165.362C157.437 165.362 157.965 166.946 157.965 170.858H157.389C156.693 169.634 155.277 168.818 153.789 168.818C151.989 168.818 150.597 170.21 150.597 171.938C150.597 173.762 151.677 174.914 153.501 174.914C154.413 174.914 155.157 174.674 155.709 174.026L156.333 174.53C155.829 175.442 155.517 176.594 155.517 177.578C155.517 179.306 156.669 180.338 158.541 180.338C160.413 180.338 161.565 179.306 161.565 177.578C161.565 176.594 161.277 175.466 160.749 174.53L161.373 174.026C161.949 174.674 162.669 174.914 163.581 174.914C165.381 174.914 166.485 173.762 166.485 171.938C166.485 170.234 165.093 168.818 163.293 168.818C161.829 168.818 160.389 169.61 159.693 170.858H159.117C159.117 166.898 159.645 165.362 163.053 165.362V164.714Z" fill="black"/>
<path d="M67.1888 131.436V124.46C75.0608 124.46 77.4928 122.796 77.4928 117.164C76.2128 119.532 73.2048 121.196 69.4928 121.196C62.5168 121.196 57.3968 116.268 57.3968 109.484C57.3968 103.084 61.9408 98.6037 67.7008 98.6037C70.3248 98.6037 71.6688 99.1157 72.8848 100.076C71.5408 98.7317 70.5168 96.0437 70.5168 94.4437C70.5168 87.7877 75.1248 83.4997 82.1648 83.4997C89.2048 83.4997 93.8128 87.7237 93.8128 94.4437C93.8128 96.0437 92.7888 98.7957 91.4448 100.076C92.6608 99.1157 94.0048 98.6037 96.6288 98.6037C102.389 98.6037 106.933 103.02 106.933 109.484C106.933 116.268 101.749 121.196 94.8368 121.196C91.2528 121.196 88.1168 119.532 86.8368 117.164C86.8368 122.668 89.1408 124.46 97.1408 124.46V131.436H67.1888ZM70.1328 128.748H94.1968V127.02C85.1088 127.02 83.7008 122.796 83.7008 112.364H85.2368C87.0928 115.628 90.8688 117.804 94.8368 117.804C99.6368 117.804 103.349 114.092 103.349 109.484C103.349 104.62 100.469 101.548 95.6048 101.548C93.1728 101.548 91.1888 102.188 89.7168 103.916L88.0528 102.572C89.3968 100.14 90.2288 97.0677 90.2288 94.4437C90.2288 89.8357 87.1568 87.0837 82.1648 87.0837C77.1728 87.0837 74.1008 89.8357 74.1008 94.4437C74.1008 97.0677 74.8688 100.076 76.2768 102.572L74.6128 103.916C73.0768 102.188 71.1568 101.548 68.7248 101.548C63.9248 101.548 60.9808 104.62 60.9808 109.484C60.9808 114.028 64.6928 117.804 69.4928 117.804C73.3968 117.804 77.2368 115.692 79.0928 112.364H80.6288C80.6288 122.924 79.2208 127.02 70.1328 127.02V128.748Z" fill="black"/>
<path d="M37.1888 84.4357V77.4597C45.0608 77.4597 47.4928 75.7957 47.4928 70.1637C46.2128 72.5317 43.2048 74.1957 39.4928 74.1957C32.5168 74.1957 27.3968 69.2677 27.3968 62.4837C27.3968 56.0837 31.9408 51.6037 37.7008 51.6037C40.3248 51.6037 41.6688 52.1157 42.8848 53.0757C41.5408 51.7317 40.5168 49.0437 40.5168 47.4437C40.5168 40.7877 45.1248 36.4997 52.1648 36.4997C59.2048 36.4997 63.8128 40.7237 63.8128 47.4437C63.8128 49.0437 62.7888 51.7957 61.4448 53.0757C62.6608 52.1157 64.0048 51.6037 66.6288 51.6037C72.3888 51.6037 76.9328 56.0197 76.9328 62.4837C76.9328 69.2677 71.7488 74.1957 64.8368 74.1957C61.2528 74.1957 58.1168 72.5317 56.8368 70.1637C56.8368 75.6677 59.1408 77.4597 67.1408 77.4597V84.4357H37.1888ZM40.1328 81.7477H64.1968V80.0197C55.1088 80.0197 53.7008 75.7957 53.7008 65.3637H55.2368C57.0928 68.6277 60.8688 70.8037 64.8368 70.8037C69.6368 70.8037 73.3488 67.0917 73.3488 62.4837C73.3488 57.6197 70.4688 54.5477 65.6048 54.5477C63.1728 54.5477 61.1888 55.1877 59.7168 56.9157L58.0528 55.5717C59.3968 53.1397 60.2288 50.0677 60.2288 47.4437C60.2288 42.8357 57.1568 40.0837 52.1648 40.0837C47.1728 40.0837 44.1008 42.8357 44.1008 47.4437C44.1008 50.0677 44.8688 53.0757 46.2768 55.5717L44.6128 56.9157C43.0768 55.1877 41.1568 54.5477 38.7248 54.5477C33.9248 54.5477 30.9808 57.6197 30.9808 62.4837C30.9808 67.0277 34.6928 70.8037 39.4928 70.8037C43.3968 70.8037 47.2368 68.6917 49.0928 65.3637H50.6288C50.6288 75.9237 49.2208 80.0197 40.1328 80.0197V81.7477Z" fill="black"/>
<path d="M97.1888 84.4357V77.4597C105.061 77.4597 107.493 75.7957 107.493 70.1637C106.213 72.5317 103.205 74.1957 99.4928 74.1957C92.5168 74.1957 87.3968 69.2677 87.3968 62.4837C87.3968 56.0837 91.9408 51.6037 97.7008 51.6037C100.325 51.6037 101.669 52.1157 102.885 53.0757C101.541 51.7317 100.517 49.0437 100.517 47.4437C100.517 40.7877 105.125 36.4997 112.165 36.4997C119.205 36.4997 123.813 40.7237 123.813 47.4437C123.813 49.0437 122.789 51.7957 121.445 53.0757C122.661 52.1157 124.005 51.6037 126.629 51.6037C132.389 51.6037 136.933 56.0197 136.933 62.4837C136.933 69.2677 131.749 74.1957 124.837 74.1957C121.253 74.1957 118.117 72.5317 116.837 70.1637C116.837 75.6677 119.141 77.4597 127.141 77.4597V84.4357H97.1888ZM100.133 81.7477H124.197V80.0197C115.109 80.0197 113.701 75.7957 113.701 65.3637H115.237C117.093 68.6277 120.869 70.8037 124.837 70.8037C129.637 70.8037 133.349 67.0917 133.349 62.4837C133.349 57.6197 130.469 54.5477 125.605 54.5477C123.173 54.5477 121.189 55.1877 119.717 56.9157L118.053 55.5717C119.397 53.1397 120.229 50.0677 120.229 47.4437C120.229 42.8357 117.157 40.0837 112.165 40.0837C107.173 40.0837 104.101 42.8357 104.101 47.4437C104.101 50.0677 104.869 53.0757 106.277 55.5717L104.613 56.9157C103.077 55.1877 101.157 54.5477 98.7248 54.5477C93.9248 54.5477 90.9808 57.6197 90.9808 62.4837C90.9808 67.0277 94.6928 70.8037 99.4928 70.8037C103.397 70.8037 107.237 68.6917 109.093 65.3637H110.629C110.629 75.9237 109.221 80.0197 100.133 80.0197V81.7477Z" fill="black"/>
<path d="M130.341 142.4V149.376C122.469 149.376 120.037 151.04 120.037 156.672C121.317 154.304 124.325 152.64 128.037 152.64C135.013 152.64 140.133 157.568 140.133 164.352C140.133 170.752 135.589 175.232 129.829 175.232C127.205 175.232 125.861 174.72 124.645 173.76C125.989 175.104 127.013 177.792 127.013 179.392C127.013 186.048 122.405 190.336 115.365 190.336C108.325 190.336 103.717 186.112 103.717 179.392C103.717 177.792 104.741 175.04 106.085 173.76C104.869 174.72 103.525 175.232 100.901 175.232C95.141 175.232 90.597 170.816 90.597 164.352C90.597 157.568 95.781 152.64 102.693 152.64C106.277 152.64 109.413 154.304 110.693 156.672C110.693 151.168 108.389 149.376 100.389 149.376V142.4H130.341ZM127.397 145.088H103.333V146.816C112.421 146.816 113.829 151.04 113.829 161.472H112.293C110.437 158.208 106.661 156.032 102.693 156.032C97.893 156.032 94.181 159.744 94.181 164.352C94.181 169.216 97.061 172.288 101.925 172.288C104.357 172.288 106.341 171.648 107.813 169.92L109.477 171.264C108.133 173.696 107.301 176.768 107.301 179.392C107.301 184 110.373 186.752 115.365 186.752C120.357 186.752 123.429 184 123.429 179.392C123.429 176.768 122.661 173.76 121.253 171.264L122.917 169.92C124.453 171.648 126.373 172.288 128.805 172.288C133.605 172.288 136.549 169.216 136.549 164.352C136.549 159.808 132.837 156.032 128.037 156.032C124.133 156.032 120.293 158.144 118.437 161.472H116.901C116.901 150.912 118.309 146.816 127.397 146.816V145.088Z" fill="black"/>
<path d="M56.341 142.4V149.376C48.469 149.376 46.037 151.04 46.037 156.672C47.317 154.304 50.325 152.64 54.037 152.64C61.013 152.64 66.133 157.568 66.133 164.352C66.133 170.752 61.589 175.232 55.829 175.232C53.205 175.232 51.861 174.72 50.645 173.76C51.989 175.104 53.013 177.792 53.013 179.392C53.013 186.048 48.405 190.336 41.365 190.336C34.325 190.336 29.717 186.112 29.717 179.392C29.717 177.792 30.741 175.04 32.085 173.76C30.869 174.72 29.525 175.232 26.901 175.232C21.141 175.232 16.597 170.816 16.597 164.352C16.597 157.568 21.781 152.64 28.693 152.64C32.277 152.64 35.413 154.304 36.693 156.672C36.693 151.168 34.389 149.376 26.389 149.376V142.4H56.341ZM53.397 145.088H29.333V146.816C38.421 146.816 39.829 151.04 39.829 161.472H38.293C36.437 158.208 32.661 156.032 28.693 156.032C23.893 156.032 20.181 159.744 20.181 164.352C20.181 169.216 23.061 172.288 27.925 172.288C30.357 172.288 32.341 171.648 33.813 169.92L35.477 171.264C34.133 173.696 33.301 176.768 33.301 179.392C33.301 184 36.373 186.752 41.365 186.752C46.357 186.752 49.429 184 49.429 179.392C49.429 176.768 48.661 173.76 47.253 171.264L48.917 169.92C50.453 171.648 52.373 172.288 54.805 172.288C59.605 172.288 62.549 169.216 62.549 164.352C62.549 159.808 58.837 156.032 54.037 156.032C50.133 156.032 46.293 158.144 44.437 161.472H42.901C42.901 150.912 44.309 146.816 53.397 146.816V145.088Z" fill="black"/>
<path d="M157.548 185.674C157.74 185.658 158.028 185.65 158.412 185.649C161.628 185.646 163.238 186.788 163.241 189.076C163.273 189.492 163.234 189.852 163.122 190.157C162.995 190.461 162.851 190.613 162.691 190.613C162.531 190.613 162.411 190.445 162.33 190.109C162.234 189.789 162.201 189.286 162.232 188.597C162.232 188.069 161.847 187.662 161.079 187.375C160.294 187.103 159.342 186.968 158.222 186.97C155.566 186.972 154.24 188.166 154.243 190.55C154.244 191.846 154.782 192.829 155.855 193.5C156.911 194.171 158.64 194.561 161.04 194.671C161.152 194.815 161.224 194.935 161.257 195.03C161.289 195.126 161.297 195.23 161.281 195.342C161.17 195.951 161.002 196.575 160.779 197.215C160.556 197.855 160.237 198.696 159.823 199.736L159.225 201.345C158.361 201.49 157.369 201.563 156.249 201.564C155.289 201.565 154.393 201.51 153.561 201.398C152.713 201.287 152.072 201.136 151.64 200.944C151.736 200.56 151.927 200.224 152.215 199.936C153.527 200.111 154.735 200.197 155.839 200.196C156.751 200.195 157.559 200.154 158.263 200.074C158.853 198.761 159.26 197.417 159.482 196.04C157.769 195.738 156.489 195.443 155.641 195.156C154.792 194.885 154.096 194.39 153.551 193.67C153.006 192.967 152.717 191.919 152.683 190.527C152.649 189.103 153.055 187.959 153.902 187.094C154.733 186.245 155.949 185.772 157.548 185.674Z" fill="black"/>
</svg>
