<svg width="177" height="217" viewBox="0 0 177 217" fill="none" xmlns="http://www.w3.org/2000/svg">
<path d="M171.239 0.691772C171.239 0.691772 120.47 1.92483 88.6528 1.92483C56.8354 1.92483 6.06656 0.691772 6.06656 0.691772C3.11084 0.691772 0.850586 2.6955 0.850586 5.31575V210.158C0.850586 212.778 3.28471 214.936 6.06656 214.936C6.06656 214.936 56.8354 216.477 88.6528 216.477C120.47 216.477 171.239 214.936 171.239 214.936C174.195 214.782 176.455 212.624 176.455 210.158V5.31575C176.455 2.6955 174.195 0.691772 171.239 0.691772Z" fill="white"/>
<path d="M14.6701 28.6855C13.1821 28.6855 12.0541 28.2615 11.2861 27.4135C10.5341 26.5655 10.1581 25.3815 10.1581 23.8615C10.1581 22.5655 10.4141 21.2055 10.9261 19.7815C11.4541 18.3415 12.1981 17.1175 13.1581 16.1095C14.1341 15.1015 15.2621 14.5495 16.5421 14.4535L17.0461 14.4295C17.8141 14.4295 18.4621 14.5495 18.9901 14.7895C19.5181 15.0135 19.7821 15.3095 19.7821 15.6775C19.7821 15.8695 19.7421 16.0055 19.6621 16.0855C19.5981 16.1495 19.4861 16.1815 19.3261 16.1815C19.1821 16.1815 18.9501 16.1415 18.6301 16.0615C17.9101 15.9015 17.3581 15.8215 16.9741 15.8215C16.7501 15.8215 16.5821 15.8295 16.4701 15.8455C15.7181 15.9415 14.9981 16.3015 14.3101 16.9255C13.6221 17.5495 13.0621 18.2855 12.6301 19.1335C12.2141 19.9655 12.0061 20.7175 12.0061 21.3895C12.9661 20.8135 13.9821 20.5255 15.0541 20.5255C15.8861 20.5255 16.6461 20.7095 17.3341 21.0775C18.0381 21.4295 18.5901 21.9415 18.9901 22.6135C19.4061 23.2695 19.6141 24.0295 19.6141 24.8935C19.6141 26.2215 19.1261 27.1895 18.1501 27.7975C17.1901 28.3895 16.0301 28.6855 14.6701 28.6855ZM14.5261 27.4375C15.1341 27.4855 15.7181 27.4135 16.2781 27.2215C16.8541 27.0295 17.3261 26.7175 17.6941 26.2855C18.0621 25.8375 18.2461 25.2775 18.2461 24.6055C18.2461 24.0295 18.0621 23.5335 17.6941 23.1175C17.3421 22.6855 16.8781 22.3575 16.3021 22.1335C15.7421 21.9095 15.1501 21.7975 14.5261 21.7975C13.6461 21.7975 12.9021 22.0215 12.2941 22.4695C11.7021 22.9015 11.4061 23.5335 11.4061 24.3655C11.4061 26.2535 12.4461 27.2775 14.5261 27.4375Z" fill="black"/>
<path d="M8.88379 50.3806V47.7646C11.8358 47.7646 12.7478 47.1406 12.7478 45.0286C12.2678 45.9166 11.1398 46.5406 9.74779 46.5406C7.13179 46.5406 5.21179 44.6926 5.21179 42.1486C5.21179 39.7486 6.91579 38.0686 9.07579 38.0686C10.0598 38.0686 10.5638 38.2606 11.0198 38.6206C10.5158 38.1166 10.1318 37.1086 10.1318 36.5086C10.1318 34.0126 11.8598 32.4046 14.4998 32.4046C17.1398 32.4046 18.8678 33.9886 18.8678 36.5086C18.8678 37.1086 18.4838 38.1406 17.9798 38.6206C18.4358 38.2606 18.9398 38.0686 19.9238 38.0686C22.0838 38.0686 23.7878 39.7246 23.7878 42.1486C23.7878 44.6926 21.8438 46.5406 19.2518 46.5406C17.9078 46.5406 16.7318 45.9166 16.2518 45.0286C16.2518 47.0926 17.1158 47.7646 20.1158 47.7646V50.3806H8.88379ZM9.98779 49.3726H19.0118V48.7246C15.6038 48.7246 15.0758 47.1406 15.0758 43.2286H15.6518C16.3478 44.4526 17.7638 45.2686 19.2518 45.2686C21.0518 45.2686 22.4438 43.8766 22.4438 42.1486C22.4438 40.3246 21.3638 39.1726 19.5398 39.1726C18.6278 39.1726 17.8838 39.4126 17.3318 40.0606L16.7078 39.5566C17.2118 38.6446 17.5238 37.4926 17.5238 36.5086C17.5238 34.7806 16.3718 33.7486 14.4998 33.7486C12.6278 33.7486 11.4758 34.7806 11.4758 36.5086C11.4758 37.4926 11.7638 38.6206 12.2918 39.5566L11.6678 40.0606C11.0918 39.4126 10.3718 39.1726 9.45979 39.1726C7.65979 39.1726 6.55579 40.3246 6.55579 42.1486C6.55579 43.8526 7.94779 45.2686 9.74779 45.2686C11.2118 45.2686 12.6518 44.4766 13.3478 43.2286H13.9238C13.9238 47.1886 13.3958 48.7246 9.98779 48.7246V49.3726Z" fill="black"/>
<path d="M166.555 164.844V167.46C163.603 167.46 162.691 168.084 162.691 170.196C163.171 169.308 164.299 168.684 165.691 168.684C168.307 168.684 170.227 170.532 170.227 173.076C170.227 175.476 168.523 177.156 166.363 177.156C165.379 177.156 164.875 176.964 164.419 176.604C164.923 177.108 165.307 178.116 165.307 178.716C165.307 181.212 163.579 182.82 160.939 182.82C158.299 182.82 156.571 181.236 156.571 178.716C156.571 178.116 156.955 177.084 157.459 176.604C157.003 176.964 156.499 177.156 155.515 177.156C153.355 177.156 151.651 175.5 151.651 173.076C151.651 170.532 153.595 168.684 156.187 168.684C157.531 168.684 158.707 169.308 159.187 170.196C159.187 168.132 158.323 167.46 155.323 167.46V164.844H166.555ZM165.451 165.852H156.427V166.5C159.835 166.5 160.363 168.084 160.363 171.996H159.787C159.091 170.772 157.675 169.956 156.187 169.956C154.387 169.956 152.995 171.348 152.995 173.076C152.995 174.9 154.075 176.052 155.899 176.052C156.811 176.052 157.555 175.812 158.107 175.164L158.731 175.668C158.227 176.58 157.915 177.732 157.915 178.716C157.915 180.444 159.067 181.476 160.939 181.476C162.811 181.476 163.963 180.444 163.963 178.716C163.963 177.732 163.675 176.604 163.147 175.668L163.771 175.164C164.347 175.812 165.067 176.052 165.979 176.052C167.779 176.052 168.883 174.9 168.883 173.076C168.883 171.372 167.491 169.956 165.691 169.956C164.227 169.956 162.787 170.748 162.091 171.996H161.515C161.515 168.036 162.043 166.5 165.451 166.5V165.852Z" fill="black"/>
<path d="M45.5873 69.5734V62.5974C53.4593 62.5974 55.8913 60.9334 55.8913 55.3014C54.6113 57.6694 51.6033 59.3334 47.8913 59.3334C40.9153 59.3334 35.7953 54.4054 35.7953 47.6214C35.7953 41.2214 40.3393 36.7414 46.0993 36.7414C48.7233 36.7414 50.0673 37.2534 51.2833 38.2134C49.9393 36.8694 48.9153 34.1814 48.9153 32.5814C48.9153 25.9254 53.5233 21.6374 60.5633 21.6374C67.6033 21.6374 72.2113 25.8614 72.2113 32.5814C72.2113 34.1814 71.1873 36.9334 69.8433 38.2134C71.0593 37.2534 72.4033 36.7414 75.0273 36.7414C80.7873 36.7414 85.3313 41.1574 85.3313 47.6214C85.3313 54.4054 80.1473 59.3334 73.2353 59.3334C69.6513 59.3334 66.5153 57.6694 65.2353 55.3014C65.2353 60.8054 67.5393 62.5974 75.5393 62.5974V69.5734H45.5873ZM48.5312 66.8854H72.5953V65.1574C63.5073 65.1574 62.0993 60.9334 62.0993 50.5014H63.6353C65.4913 53.7654 69.2673 55.9414 73.2353 55.9414C78.0353 55.9414 81.7473 52.2294 81.7473 47.6214C81.7473 42.7574 78.8673 39.6854 74.0033 39.6854C71.5713 39.6854 69.5873 40.3254 68.1153 42.0534L66.4513 40.7094C67.7952 38.2774 68.6273 35.2054 68.6273 32.5814C68.6273 27.9734 65.5553 25.2214 60.5633 25.2214C55.5713 25.2214 52.4993 27.9734 52.4993 32.5814C52.4993 35.2054 53.2673 38.2134 54.6753 40.7094L53.0113 42.0534C51.4753 40.3254 49.5553 39.6854 47.1233 39.6854C42.3233 39.6854 39.3793 42.7574 39.3793 47.6214C39.3793 52.1654 43.0913 55.9414 47.8913 55.9414C51.7953 55.9414 55.6353 53.8294 57.4913 50.5014H59.0273C59.0273 61.0614 57.6193 65.1574 48.5312 65.1574V66.8854Z" fill="black"/>
<path d="M110.587 69.5734V62.5974C118.459 62.5974 120.891 60.9334 120.891 55.3014C119.611 57.6694 116.603 59.3334 112.891 59.3334C105.915 59.3334 100.795 54.4054 100.795 47.6214C100.795 41.2214 105.339 36.7414 111.099 36.7414C113.723 36.7414 115.067 37.2534 116.283 38.2134C114.939 36.8694 113.915 34.1814 113.915 32.5814C113.915 25.9254 118.523 21.6374 125.563 21.6374C132.603 21.6374 137.211 25.8614 137.211 32.5814C137.211 34.1814 136.187 36.9334 134.843 38.2134C136.059 37.2534 137.403 36.7414 140.027 36.7414C145.787 36.7414 150.331 41.1574 150.331 47.6214C150.331 54.4054 145.147 59.3334 138.235 59.3334C134.651 59.3334 131.515 57.6694 130.235 55.3014C130.235 60.8054 132.539 62.5974 140.539 62.5974V69.5734H110.587ZM113.531 66.8854H137.595V65.1574C128.507 65.1574 127.099 60.9334 127.099 50.5014H128.635C130.491 53.7654 134.267 55.9414 138.235 55.9414C143.035 55.9414 146.747 52.2294 146.747 47.6214C146.747 42.7574 143.867 39.6854 139.003 39.6854C136.571 39.6854 134.587 40.3254 133.115 42.0534L131.451 40.7094C132.795 38.2774 133.627 35.2054 133.627 32.5814C133.627 27.9734 130.555 25.2214 125.563 25.2214C120.571 25.2214 117.499 27.9734 117.499 32.5814C117.499 35.2054 118.267 38.2134 119.675 40.7094L118.011 42.0534C116.475 40.3254 114.555 39.6854 112.123 39.6854C107.323 39.6854 104.379 42.7574 104.379 47.6214C104.379 52.1654 108.091 55.9414 112.891 55.9414C116.795 55.9414 120.635 53.8294 122.491 50.5014H124.027C124.027 61.0614 122.619 65.1574 113.531 65.1574V66.8854Z" fill="black"/>
<path d="M46.5873 126.573V119.597C54.4593 119.597 56.8913 117.933 56.8913 112.301C55.6113 114.669 52.6033 116.333 48.8913 116.333C41.9153 116.333 36.7953 111.405 36.7953 104.621C36.7953 98.2214 41.3393 93.7414 47.0993 93.7414C49.7233 93.7414 51.0673 94.2534 52.2833 95.2134C50.9393 93.8694 49.9153 91.1814 49.9153 89.5814C49.9153 82.9254 54.5233 78.6374 61.5633 78.6374C68.6033 78.6374 73.2113 82.8614 73.2113 89.5814C73.2113 91.1814 72.1873 93.9334 70.8433 95.2134C72.0593 94.2534 73.4033 93.7414 76.0273 93.7414C81.7873 93.7414 86.3313 98.1574 86.3313 104.621C86.3313 111.405 81.1473 116.333 74.2353 116.333C70.6513 116.333 67.5153 114.669 66.2353 112.301C66.2353 117.805 68.5393 119.597 76.5393 119.597V126.573H46.5873ZM49.5312 123.885H73.5953V122.157C64.5073 122.157 63.0993 117.933 63.0993 107.501H64.6353C66.4913 110.765 70.2673 112.941 74.2353 112.941C79.0353 112.941 82.7473 109.229 82.7473 104.621C82.7473 99.7574 79.8673 96.6854 75.0033 96.6854C72.5713 96.6854 70.5873 97.3254 69.1153 99.0534L67.4513 97.7094C68.7952 95.2774 69.6273 92.2054 69.6273 89.5814C69.6273 84.9734 66.5553 82.2214 61.5633 82.2214C56.5713 82.2214 53.4993 84.9734 53.4993 89.5814C53.4993 92.2054 54.2673 95.2134 55.6753 97.7094L54.0113 99.0534C52.4753 97.3254 50.5553 96.6854 48.1233 96.6854C43.3233 96.6854 40.3793 99.7574 40.3793 104.621C40.3793 109.165 44.0913 112.941 48.8913 112.941C52.7953 112.941 56.6353 110.829 58.4913 107.501H60.0273C60.0273 118.061 58.6193 122.157 49.5312 122.157V123.885Z" fill="black"/>
<path d="M110.587 126.573V119.597C118.459 119.597 120.891 117.933 120.891 112.301C119.611 114.669 116.603 116.333 112.891 116.333C105.915 116.333 100.795 111.405 100.795 104.621C100.795 98.2214 105.339 93.7414 111.099 93.7414C113.723 93.7414 115.067 94.2534 116.283 95.2134C114.939 93.8694 113.915 91.1814 113.915 89.5814C113.915 82.9254 118.523 78.6374 125.563 78.6374C132.603 78.6374 137.211 82.8614 137.211 89.5814C137.211 91.1814 136.187 93.9334 134.843 95.2134C136.059 94.2534 137.403 93.7414 140.027 93.7414C145.787 93.7414 150.331 98.1574 150.331 104.621C150.331 111.405 145.147 116.333 138.235 116.333C134.651 116.333 131.515 114.669 130.235 112.301C130.235 117.805 132.539 119.597 140.539 119.597V126.573H110.587ZM113.531 123.885H137.595V122.157C128.507 122.157 127.099 117.933 127.099 107.501H128.635C130.491 110.765 134.267 112.941 138.235 112.941C143.035 112.941 146.747 109.229 146.747 104.621C146.747 99.7574 143.867 96.6854 139.003 96.6854C136.571 96.6854 134.587 97.3254 133.115 99.0534L131.451 97.7094C132.795 95.2774 133.627 92.2054 133.627 89.5814C133.627 84.9734 130.555 82.2214 125.563 82.2214C120.571 82.2214 117.499 84.9734 117.499 89.5814C117.499 92.2054 118.267 95.2134 119.675 97.7094L118.011 99.0534C116.475 97.3254 114.555 96.6854 112.123 96.6854C107.323 96.6854 104.379 99.7574 104.379 104.621C104.379 109.165 108.091 112.941 112.891 112.941C116.795 112.941 120.635 110.829 122.491 107.501H124.027C124.027 118.061 122.619 122.157 113.531 122.157V123.885Z" fill="black"/>
<path d="M76.7394 140.538V147.514C68.8674 147.514 66.4354 149.178 66.4354 154.81C67.7154 152.442 70.7234 150.778 74.4354 150.778C81.4114 150.778 86.5314 155.706 86.5314 162.49C86.5314 168.89 81.9874 173.37 76.2274 173.37C73.6034 173.37 72.2594 172.858 71.0434 171.898C72.3874 173.242 73.4114 175.93 73.4114 177.53C73.4114 184.186 68.8034 188.474 61.7634 188.474C54.7234 188.474 50.1154 184.25 50.1154 177.53C50.1154 175.93 51.1394 173.178 52.4834 171.898C51.2674 172.858 49.9234 173.37 47.2994 173.37C41.5394 173.37 36.9954 168.954 36.9954 162.49C36.9954 155.706 42.1794 150.778 49.0914 150.778C52.6754 150.778 55.8114 152.442 57.0914 154.81C57.0914 149.306 54.7874 147.514 46.7874 147.514V140.538H76.7394ZM73.7954 143.226H49.7314V144.954C58.8194 144.954 60.2274 149.178 60.2274 159.61H58.6914C56.8354 156.346 53.0594 154.17 49.0914 154.17C44.2914 154.17 40.5794 157.882 40.5794 162.49C40.5794 167.354 43.4594 170.426 48.3234 170.426C50.7554 170.426 52.7394 169.786 54.2114 168.058L55.8754 169.402C54.5314 171.834 53.6994 174.906 53.6994 177.53C53.6994 182.138 56.7714 184.89 61.7634 184.89C66.7554 184.89 69.8274 182.138 69.8274 177.53C69.8274 174.906 69.0594 171.898 67.6514 169.402L69.3154 168.058C70.8514 169.786 72.7714 170.426 75.2034 170.426C80.0034 170.426 82.9474 167.354 82.9474 162.49C82.9474 157.946 79.2354 154.17 74.4354 154.17C70.5314 154.17 66.6914 156.282 64.8354 159.61H63.2994C63.2994 149.05 64.7074 144.954 73.7954 144.954V143.226Z" fill="black"/>
<path d="M139.739 141.538V148.514C131.867 148.514 129.435 150.178 129.435 155.81C130.715 153.442 133.723 151.778 137.435 151.778C144.411 151.778 149.531 156.706 149.531 163.49C149.531 169.89 144.987 174.37 139.227 174.37C136.603 174.37 135.259 173.858 134.043 172.898C135.387 174.242 136.411 176.93 136.411 178.53C136.411 185.186 131.803 189.474 124.763 189.474C117.723 189.474 113.115 185.25 113.115 178.53C113.115 176.93 114.139 174.178 115.483 172.898C114.267 173.858 112.923 174.37 110.299 174.37C104.539 174.37 99.9954 169.954 99.9954 163.49C99.9954 156.706 105.179 151.778 112.091 151.778C115.675 151.778 118.811 153.442 120.091 155.81C120.091 150.306 117.787 148.514 109.787 148.514V141.538H139.739ZM136.795 144.226H112.731V145.954C121.819 145.954 123.227 150.178 123.227 160.61H121.691C119.835 157.346 116.059 155.17 112.091 155.17C107.291 155.17 103.579 158.882 103.579 163.49C103.579 168.354 106.459 171.426 111.323 171.426C113.755 171.426 115.739 170.786 117.211 169.058L118.875 170.402C117.531 172.834 116.699 175.906 116.699 178.53C116.699 183.138 119.771 185.89 124.763 185.89C129.755 185.89 132.827 183.138 132.827 178.53C132.827 175.906 132.059 172.898 130.651 170.402L132.315 169.058C133.851 170.786 135.771 171.426 138.203 171.426C143.003 171.426 145.947 168.354 145.947 163.49C145.947 158.946 142.235 155.17 137.435 155.17C133.531 155.17 129.691 157.282 127.835 160.61H126.299C126.299 150.05 127.707 145.954 136.795 145.954V144.226Z" fill="black"/>
<path d="M160.084 186.434C161.572 186.432 162.7 186.855 163.469 187.702C164.222 188.55 164.6 189.733 164.602 191.253C164.604 192.549 164.349 193.909 163.839 195.334C163.313 196.774 162.571 197.999 161.612 199.008C160.637 200.017 159.51 200.57 158.23 200.668L157.726 200.692C156.958 200.693 156.31 200.574 155.782 200.334C155.253 200.111 154.989 199.815 154.988 199.447C154.988 199.255 155.028 199.119 155.108 199.039C155.172 198.975 155.284 198.943 155.444 198.943C155.588 198.942 155.82 198.982 156.14 199.062C156.86 199.221 157.412 199.301 157.796 199.3C158.02 199.3 158.188 199.292 158.3 199.276C159.052 199.179 159.772 198.818 160.459 198.193C161.146 197.569 161.705 196.832 162.136 195.984C162.551 195.151 162.758 194.399 162.757 193.727C161.798 194.304 160.782 194.593 159.71 194.594C158.878 194.595 158.118 194.412 157.429 194.045C156.725 193.693 156.172 193.182 155.772 192.51C155.355 191.855 155.146 191.095 155.145 190.231C155.143 188.903 155.63 187.934 156.605 187.325C157.564 186.732 158.724 186.435 160.084 186.434ZM160.229 187.682C159.621 187.634 159.037 187.707 158.478 187.899C157.902 188.092 157.43 188.405 157.063 188.837C156.695 189.285 156.512 189.846 156.513 190.518C156.514 191.094 156.698 191.589 157.067 192.005C157.419 192.437 157.884 192.764 158.46 192.988C159.02 193.211 159.613 193.322 160.237 193.322C161.117 193.321 161.86 193.096 162.468 192.647C163.059 192.215 163.354 191.582 163.353 190.75C163.351 188.862 162.31 187.84 160.229 187.682Z" fill="black"/>
</svg>
