<svg width="176" height="217" viewBox="0 0 176 217" fill="none" xmlns="http://www.w3.org/2000/svg">
<path d="M170.388 1C170.388 1 119.62 2.23305 87.8022 2.23305C55.9848 2.23305 5.21597 1 5.21597 1C2.26025 1 0 3.00372 0 5.62398V210.466C0 213.087 2.43412 215.244 5.21597 215.244C5.21597 215.244 55.9848 216.786 87.8022 216.786C119.62 216.786 170.388 215.244 170.388 215.244C173.344 215.09 175.604 212.932 175.604 210.466V5.62398C175.604 3.00372 173.344 1 170.388 1Z" fill="white"/>
<path d="M18.3316 23.0418C18.4116 23.1378 18.4516 23.2498 18.4516 23.3778C18.4516 23.5378 18.3876 23.6818 18.2596 23.8098C18.1476 23.9218 18.0196 23.9778 17.8756 23.9778C17.2036 23.7698 16.4436 23.6178 15.5956 23.5218C15.3716 24.9458 15.0036 26.6658 14.4916 28.6818C14.3956 29.0018 14.1636 29.1618 13.7956 29.1618C13.6196 29.1618 13.4836 29.1058 13.3876 28.9938C13.3076 28.8658 13.2276 28.6898 13.1476 28.4658C13.6436 26.5138 14.0116 24.8338 14.2516 23.4258C13.9956 23.4098 13.5876 23.4018 13.0276 23.4018C12.6116 23.4018 11.8756 23.4178 10.8196 23.4498C10.7556 23.2578 10.7236 23.1058 10.7236 22.9938C10.7236 22.8338 10.7556 22.6978 10.8196 22.5858C10.8836 22.4578 10.9716 22.3858 11.0836 22.3698C11.5156 22.2898 12.2516 22.2498 13.2916 22.2498C13.7876 22.2498 14.1636 22.2578 14.4196 22.2738C14.6596 20.5778 14.7556 19.0338 14.7076 17.6418C14.4676 17.6258 14.0036 17.6338 13.3156 17.6658C12.7076 17.6978 12.2276 17.7138 11.8756 17.7138C11.1556 17.7138 10.5796 17.6578 10.1476 17.5458C9.73156 17.4178 9.52356 17.2018 9.52356 16.8978C9.52356 16.7058 9.58756 16.5138 9.71556 16.3218C11.3796 16.4978 12.9956 16.5858 14.5636 16.5858C15.2676 16.5858 15.7636 16.5698 16.0516 16.5378C16.0516 18.7938 15.9556 20.7298 15.7636 22.3458C17.2196 22.4578 18.0756 22.6898 18.3316 23.0418Z" fill="black"/>
<path d="M9.03321 50.6888V48.0728C11.9852 48.0728 12.8972 47.4488 12.8972 45.3368C12.4172 46.2248 11.2892 46.8488 9.89721 46.8488C7.28121 46.8488 5.36121 45.0008 5.36121 42.4568C5.36121 40.0568 7.06521 38.3768 9.22521 38.3768C10.2092 38.3768 10.7132 38.5688 11.1692 38.9288C10.6652 38.4248 10.2812 37.4168 10.2812 36.8168C10.2812 34.3208 12.0092 32.7128 14.6492 32.7128C17.2892 32.7128 19.0172 34.2968 19.0172 36.8168C19.0172 37.4168 18.6332 38.4488 18.1292 38.9288C18.5852 38.5688 19.0892 38.3768 20.0732 38.3768C22.2332 38.3768 23.9372 40.0328 23.9372 42.4568C23.9372 45.0008 21.9932 46.8488 19.4012 46.8488C18.0572 46.8488 16.8812 46.2248 16.4012 45.3368C16.4012 47.4008 17.2652 48.0728 20.2652 48.0728V50.6888H9.03321ZM10.1372 49.6808H19.1612V49.0328C15.7532 49.0328 15.2252 47.4488 15.2252 43.5368H15.8012C16.4972 44.7608 17.9132 45.5768 19.4012 45.5768C21.2012 45.5768 22.5932 44.1848 22.5932 42.4568C22.5932 40.6328 21.5132 39.4808 19.6892 39.4808C18.7772 39.4808 18.0332 39.7208 17.4812 40.3688L16.8572 39.8648C17.3612 38.9528 17.6732 37.8008 17.6732 36.8168C17.6732 35.0888 16.5212 34.0568 14.6492 34.0568C12.7772 34.0568 11.6252 35.0888 11.6252 36.8168C11.6252 37.8008 11.9132 38.9288 12.4412 39.8648L11.8172 40.3688C11.2412 39.7208 10.5212 39.4808 9.60921 39.4808C7.80921 39.4808 6.70521 40.6328 6.70521 42.4568C6.70521 44.1608 8.09721 45.5768 9.89721 45.5768C11.3612 45.5768 12.8012 44.7848 13.4972 43.5368H14.0732C14.0732 47.4968 13.5452 49.0328 10.1372 49.0328V49.6808Z" fill="black"/>
<path d="M165.705 167.152V169.768C162.753 169.768 161.841 170.392 161.841 172.504C162.321 171.616 163.449 170.992 164.841 170.992C167.457 170.992 169.377 172.84 169.377 175.384C169.377 177.784 167.673 179.464 165.513 179.464C164.529 179.464 164.025 179.272 163.569 178.912C164.073 179.416 164.457 180.424 164.457 181.024C164.457 183.52 162.729 185.128 160.089 185.128C157.449 185.128 155.721 183.544 155.721 181.024C155.721 180.424 156.105 179.392 156.609 178.912C156.153 179.272 155.649 179.464 154.665 179.464C152.505 179.464 150.801 177.808 150.801 175.384C150.801 172.84 152.745 170.992 155.337 170.992C156.681 170.992 157.857 171.616 158.337 172.504C158.337 170.44 157.473 169.768 154.473 169.768V167.152H165.705ZM164.601 168.16H155.577V168.808C158.985 168.808 159.513 170.392 159.513 174.304H158.937C158.241 173.08 156.825 172.264 155.337 172.264C153.537 172.264 152.145 173.656 152.145 175.384C152.145 177.208 153.225 178.36 155.049 178.36C155.961 178.36 156.705 178.12 157.257 177.472L157.881 177.976C157.377 178.888 157.065 180.04 157.065 181.024C157.065 182.752 158.217 183.784 160.089 183.784C161.961 183.784 163.113 182.752 163.113 181.024C163.113 180.04 162.825 178.912 162.297 177.976L162.921 177.472C163.497 178.12 164.217 178.36 165.129 178.36C166.929 178.36 168.033 177.208 168.033 175.384C168.033 173.68 166.641 172.264 164.841 172.264C163.377 172.264 161.937 173.056 161.241 174.304H160.665C160.665 170.344 161.193 168.808 164.601 168.808V168.16Z" fill="black"/>
<path d="M154.729 192.699C154.649 192.603 154.609 192.491 154.608 192.363C154.608 192.203 154.672 192.059 154.8 191.931C154.912 191.819 155.04 191.762 155.184 191.762C155.856 191.97 156.616 192.121 157.464 192.216C157.686 190.792 158.052 189.071 158.562 187.055C158.657 186.735 158.889 186.574 159.257 186.574C159.433 186.574 159.569 186.63 159.665 186.742C159.745 186.87 159.826 187.045 159.906 187.269C159.412 189.222 159.046 190.902 158.808 192.31C159.064 192.326 159.472 192.334 160.032 192.333C160.448 192.333 161.184 192.316 162.24 192.283C162.305 192.475 162.337 192.627 162.337 192.739C162.337 192.899 162.305 193.035 162.241 193.147C162.178 193.275 162.09 193.347 161.978 193.363C161.546 193.444 160.81 193.484 159.77 193.485C159.274 193.486 158.898 193.478 158.642 193.463C158.404 195.159 158.31 196.703 158.36 198.095C158.6 198.111 159.064 198.102 159.752 198.07C160.36 198.037 160.84 198.02 161.192 198.02C161.912 198.019 162.488 198.075 162.92 198.186C163.336 198.314 163.544 198.53 163.545 198.834C163.545 199.026 163.481 199.218 163.353 199.41C161.689 199.235 160.073 199.149 158.505 199.151C157.801 199.152 157.305 199.168 157.017 199.2C157.014 196.944 157.108 195.008 157.298 193.392C155.842 193.282 154.985 193.05 154.729 192.699Z" fill="black"/>
<path d="M48.5873 65.5734V58.5974C56.4593 58.5974 58.8913 56.9334 58.8913 51.3014C57.6113 53.6694 54.6033 55.3334 50.8913 55.3334C43.9153 55.3334 38.7953 50.4054 38.7953 43.6214C38.7953 37.2214 43.3393 32.7414 49.0993 32.7414C51.7233 32.7414 53.0673 33.2534 54.2833 34.2134C52.9393 32.8694 51.9153 30.1814 51.9153 28.5814C51.9153 21.9254 56.5233 17.6374 63.5633 17.6374C70.6033 17.6374 75.2113 21.8614 75.2113 28.5814C75.2113 30.1814 74.1873 32.9334 72.8433 34.2134C74.0593 33.2534 75.4033 32.7414 78.0273 32.7414C83.7873 32.7414 88.3313 37.1574 88.3313 43.6214C88.3313 50.4054 83.1473 55.3334 76.2353 55.3334C72.6513 55.3334 69.5153 53.6694 68.2353 51.3014C68.2353 56.8054 70.5393 58.5974 78.5393 58.5974V65.5734H48.5873ZM51.5312 62.8854H75.5953V61.1574C66.5073 61.1574 65.0993 56.9334 65.0993 46.5014H66.6353C68.4913 49.7654 72.2673 51.9414 76.2353 51.9414C81.0353 51.9414 84.7473 48.2294 84.7473 43.6214C84.7473 38.7574 81.8673 35.6854 77.0033 35.6854C74.5713 35.6854 72.5873 36.3254 71.1153 38.0534L69.4513 36.7094C70.7952 34.2774 71.6273 31.2054 71.6273 28.5814C71.6273 23.9734 68.5553 21.2214 63.5633 21.2214C58.5713 21.2214 55.4993 23.9734 55.4993 28.5814C55.4993 31.2054 56.2673 34.2134 57.6753 36.7094L56.0113 38.0534C54.4753 36.3254 52.5553 35.6854 50.1233 35.6854C45.3233 35.6854 42.3793 38.7574 42.3793 43.6214C42.3793 48.1654 46.0913 51.9414 50.8913 51.9414C54.7953 51.9414 58.6353 49.8294 60.4913 46.5014H62.0273C62.0273 57.0614 60.6193 61.1574 51.5312 61.1574V62.8854Z" fill="black"/>
<path d="M86.5873 88.5734V81.5974C94.4593 81.5974 96.8913 79.9334 96.8913 74.3014C95.6113 76.6694 92.6033 78.3334 88.8913 78.3334C81.9153 78.3334 76.7953 73.4054 76.7953 66.6214C76.7953 60.2214 81.3393 55.7414 87.0993 55.7414C89.7233 55.7414 91.0673 56.2534 92.2833 57.2134C90.9393 55.8694 89.9153 53.1814 89.9153 51.5814C89.9153 44.9254 94.5233 40.6374 101.563 40.6374C108.603 40.6374 113.211 44.8614 113.211 51.5814C113.211 53.1814 112.187 55.9334 110.843 57.2134C112.059 56.2534 113.403 55.7414 116.027 55.7414C121.787 55.7414 126.331 60.1574 126.331 66.6214C126.331 73.4054 121.147 78.3334 114.235 78.3334C110.651 78.3334 107.515 76.6694 106.235 74.3014C106.235 79.8054 108.539 81.5974 116.539 81.5974V88.5734H86.5873ZM89.5312 85.8854H113.595V84.1574C104.507 84.1574 103.099 79.9334 103.099 69.5014H104.635C106.491 72.7654 110.267 74.9414 114.235 74.9414C119.035 74.9414 122.747 71.2294 122.747 66.6214C122.747 61.7574 119.867 58.6854 115.003 58.6854C112.571 58.6854 110.587 59.3254 109.115 61.0534L107.451 59.7094C108.795 57.2774 109.627 54.2054 109.627 51.5814C109.627 46.9734 106.555 44.2214 101.563 44.2214C96.5713 44.2214 93.4993 46.9734 93.4993 51.5814C93.4993 54.2054 94.2673 57.2134 95.6753 59.7094L94.0113 61.0534C92.4753 59.3254 90.5553 58.6854 88.1233 58.6854C83.3233 58.6854 80.3793 61.7574 80.3793 66.6214C80.3793 71.1654 84.0913 74.9414 88.8913 74.9414C92.7953 74.9414 96.6353 72.8294 98.4913 69.5014H100.027C100.027 80.0614 98.6193 84.1574 89.5312 84.1574V85.8854Z" fill="black"/>
<path d="M77.7394 120.538V127.514C69.8674 127.514 67.4354 129.178 67.4354 134.81C68.7154 132.442 71.7234 130.778 75.4354 130.778C82.4114 130.778 87.5314 135.706 87.5314 142.49C87.5314 148.89 82.9874 153.37 77.2274 153.37C74.6034 153.37 73.2594 152.858 72.0434 151.898C73.3874 153.242 74.4114 155.93 74.4114 157.53C74.4114 164.186 69.8034 168.474 62.7634 168.474C55.7234 168.474 51.1154 164.25 51.1154 157.53C51.1154 155.93 52.1394 153.178 53.4834 151.898C52.2674 152.858 50.9234 153.37 48.2994 153.37C42.5394 153.37 37.9954 148.954 37.9954 142.49C37.9954 135.706 43.1794 130.778 50.0914 130.778C53.6754 130.778 56.8114 132.442 58.0914 134.81C58.0914 129.306 55.7874 127.514 47.7874 127.514V120.538H77.7394ZM74.7954 123.226H50.7314V124.954C59.8194 124.954 61.2274 129.178 61.2274 139.61H59.6914C57.8354 136.346 54.0594 134.17 50.0914 134.17C45.2914 134.17 41.5794 137.882 41.5794 142.49C41.5794 147.354 44.4594 150.426 49.3234 150.426C51.7554 150.426 53.7394 149.786 55.2114 148.058L56.8754 149.402C55.5314 151.834 54.6994 154.906 54.6994 157.53C54.6994 162.138 57.7714 164.89 62.7634 164.89C67.7554 164.89 70.8274 162.138 70.8274 157.53C70.8274 154.906 70.0594 151.898 68.6514 149.402L70.3154 148.058C71.8514 149.786 73.7714 150.426 76.2034 150.426C81.0034 150.426 83.9474 147.354 83.9474 142.49C83.9474 137.946 80.2354 134.17 75.4354 134.17C71.5314 134.17 67.6914 136.282 65.8354 139.61H64.2994C64.2994 129.05 65.7074 124.954 74.7954 124.954V123.226Z" fill="black"/>
<path d="M154.739 119.538V126.514C146.867 126.514 144.435 128.178 144.435 133.81C145.715 131.442 148.723 129.778 152.435 129.778C159.411 129.778 164.531 134.706 164.531 141.49C164.531 147.89 159.987 152.37 154.227 152.37C151.603 152.37 150.259 151.858 149.043 150.898C150.387 152.242 151.411 154.93 151.411 156.53C151.411 163.186 146.803 167.474 139.763 167.474C132.723 167.474 128.115 163.25 128.115 156.53C128.115 154.93 129.139 152.178 130.483 150.898C129.267 151.858 127.923 152.37 125.299 152.37C119.539 152.37 114.995 147.954 114.995 141.49C114.995 134.706 120.179 129.778 127.091 129.778C130.675 129.778 133.811 131.442 135.091 133.81C135.091 128.306 132.787 126.514 124.787 126.514V119.538H154.739ZM151.795 122.226H127.731V123.954C136.819 123.954 138.227 128.178 138.227 138.61H136.691C134.835 135.346 131.059 133.17 127.091 133.17C122.291 133.17 118.579 136.882 118.579 141.49C118.579 146.354 121.459 149.426 126.323 149.426C128.755 149.426 130.739 148.786 132.211 147.058L133.875 148.402C132.531 150.834 131.699 153.906 131.699 156.53C131.699 161.138 134.771 163.89 139.763 163.89C144.755 163.89 147.827 161.138 147.827 156.53C147.827 153.906 147.059 150.898 145.651 148.402L147.315 147.058C148.851 148.786 150.771 149.426 153.203 149.426C158.003 149.426 160.947 146.354 160.947 141.49C160.947 136.946 157.235 133.17 152.435 133.17C148.531 133.17 144.691 135.282 142.835 138.61H141.299C141.299 128.05 142.707 123.954 151.795 123.954V122.226Z" fill="black"/>
<path d="M124.587 65.5734V58.5974C132.459 58.5974 134.891 56.9334 134.891 51.3014C133.611 53.6694 130.603 55.3334 126.891 55.3334C119.915 55.3334 114.795 50.4054 114.795 43.6214C114.795 37.2214 119.339 32.7414 125.099 32.7414C127.723 32.7414 129.067 33.2534 130.283 34.2134C128.939 32.8694 127.915 30.1814 127.915 28.5814C127.915 21.9254 132.523 17.6374 139.563 17.6374C146.603 17.6374 151.211 21.8614 151.211 28.5814C151.211 30.1814 150.187 32.9334 148.843 34.2134C150.059 33.2534 151.403 32.7414 154.027 32.7414C159.787 32.7414 164.331 37.1574 164.331 43.6214C164.331 50.4054 159.147 55.3334 152.235 55.3334C148.651 55.3334 145.515 53.6694 144.235 51.3014C144.235 56.8054 146.539 58.5974 154.539 58.5974V65.5734H124.587ZM127.531 62.8854H151.595V61.1574C142.507 61.1574 141.099 56.9334 141.099 46.5014H142.635C144.491 49.7654 148.267 51.9414 152.235 51.9414C157.035 51.9414 160.747 48.2294 160.747 43.6214C160.747 38.7574 157.867 35.6854 153.003 35.6854C150.571 35.6854 148.587 36.3254 147.115 38.0534L145.451 36.7094C146.795 34.2774 147.627 31.2054 147.627 28.5814C147.627 23.9734 144.555 21.2214 139.563 21.2214C134.571 21.2214 131.499 23.9734 131.499 28.5814C131.499 31.2054 132.267 34.2134 133.675 36.7094L132.011 38.0534C130.475 36.3254 128.555 35.6854 126.123 35.6854C121.323 35.6854 118.379 38.7574 118.379 43.6214C118.379 48.1654 122.091 51.9414 126.891 51.9414C130.795 51.9414 134.635 49.8294 136.491 46.5014H138.027C138.027 57.0614 136.619 61.1574 127.531 61.1574V62.8854Z" fill="black"/>
<path d="M48.5873 116.573V109.597C56.4593 109.597 58.8913 107.933 58.8913 102.301C57.6113 104.669 54.6033 106.333 50.8913 106.333C43.9153 106.333 38.7953 101.405 38.7953 94.6214C38.7953 88.2214 43.3393 83.7414 49.0993 83.7414C51.7233 83.7414 53.0673 84.2534 54.2833 85.2134C52.9393 83.8694 51.9153 81.1814 51.9153 79.5814C51.9153 72.9254 56.5233 68.6374 63.5633 68.6374C70.6033 68.6374 75.2113 72.8614 75.2113 79.5814C75.2113 81.1814 74.1873 83.9334 72.8433 85.2134C74.0593 84.2534 75.4033 83.7414 78.0273 83.7414C83.7873 83.7414 88.3313 88.1574 88.3313 94.6214C88.3313 101.405 83.1473 106.333 76.2353 106.333C72.6513 106.333 69.5153 104.669 68.2353 102.301C68.2353 107.805 70.5393 109.597 78.5393 109.597V116.573H48.5873ZM51.5312 113.885H75.5953V112.157C66.5073 112.157 65.0993 107.933 65.0993 97.5014H66.6353C68.4913 100.765 72.2673 102.941 76.2353 102.941C81.0353 102.941 84.7473 99.2294 84.7473 94.6214C84.7473 89.7574 81.8673 86.6854 77.0033 86.6854C74.5713 86.6854 72.5873 87.3254 71.1153 89.0534L69.4513 87.7094C70.7952 85.2774 71.6273 82.2054 71.6273 79.5814C71.6273 74.9734 68.5553 72.2214 63.5633 72.2214C58.5713 72.2214 55.4993 74.9734 55.4993 79.5814C55.4993 82.2054 56.2673 85.2134 57.6753 87.7094L56.0113 89.0534C54.4753 87.3254 52.5553 86.6854 50.1233 86.6854C45.3233 86.6854 42.3793 89.7574 42.3793 94.6214C42.3793 99.1654 46.0913 102.941 50.8913 102.941C54.7953 102.941 58.6353 100.829 60.4913 97.5014H62.0273C62.0273 108.061 60.6193 112.157 51.5312 112.157V113.885Z" fill="black"/>
<path d="M124.587 114.573V107.597C132.459 107.597 134.891 105.933 134.891 100.301C133.611 102.669 130.603 104.333 126.891 104.333C119.915 104.333 114.795 99.4054 114.795 92.6214C114.795 86.2214 119.339 81.7414 125.099 81.7414C127.723 81.7414 129.067 82.2534 130.283 83.2134C128.939 81.8694 127.915 79.1814 127.915 77.5814C127.915 70.9254 132.523 66.6374 139.563 66.6374C146.603 66.6374 151.211 70.8614 151.211 77.5814C151.211 79.1814 150.187 81.9334 148.843 83.2134C150.059 82.2534 151.403 81.7414 154.027 81.7414C159.787 81.7414 164.331 86.1574 164.331 92.6214C164.331 99.4054 159.147 104.333 152.235 104.333C148.651 104.333 145.515 102.669 144.235 100.301C144.235 105.805 146.539 107.597 154.539 107.597V114.573H124.587ZM127.531 111.885H151.595V110.157C142.507 110.157 141.099 105.933 141.099 95.5014H142.635C144.491 98.7654 148.267 100.941 152.235 100.941C157.035 100.941 160.747 97.2294 160.747 92.6214C160.747 87.7574 157.867 84.6854 153.003 84.6854C150.571 84.6854 148.587 85.3254 147.115 87.0534L145.451 85.7094C146.795 83.2774 147.627 80.2054 147.627 77.5814C147.627 72.9734 144.555 70.2214 139.563 70.2214C134.571 70.2214 131.499 72.9734 131.499 77.5814C131.499 80.2054 132.267 83.2134 133.675 85.7094L132.011 87.0534C130.475 85.3254 128.555 84.6854 126.123 84.6854C121.323 84.6854 118.379 87.7574 118.379 92.6214C118.379 97.1654 122.091 100.941 126.891 100.941C130.795 100.941 134.635 98.8294 136.491 95.5014H138.027C138.027 106.061 136.619 110.157 127.531 110.157V111.885Z" fill="black"/>
</svg>
