<svg width="177" height="235" viewBox="0 0 177 235" fill="none" xmlns="http://www.w3.org/2000/svg">
<path d="M171.331 8.34286C171.331 8.34286 120.562 9.57592 88.7446 9.57592C56.9271 9.57592 6.15835 8.34286 6.15835 8.34286C3.20264 8.34286 0.942383 10.3466 0.942383 12.9668V217.809C0.942383 220.429 3.3765 222.587 6.15835 222.587C6.15835 222.587 56.9271 224.129 88.7446 224.129C120.562 224.129 171.331 222.587 171.331 222.587C174.286 222.433 176.547 220.275 176.547 217.809V12.9668C176.547 10.3466 174.286 8.34286 171.331 8.34286Z" fill="white"/>
<path d="M112.588 65.5734V58.5974C120.46 58.5974 122.892 56.9334 122.892 51.3014C121.612 53.6694 118.604 55.3334 114.892 55.3334C107.916 55.3334 102.796 50.4054 102.796 43.6214C102.796 37.2214 107.34 32.7414 113.1 32.7414C115.724 32.7414 117.068 33.2534 118.284 34.2134C116.94 32.8694 115.916 30.1814 115.916 28.5814C115.916 21.9254 120.524 17.6374 127.564 17.6374C134.604 17.6374 139.212 21.8614 139.212 28.5814C139.212 30.1814 138.188 32.9334 136.844 34.2134C138.06 33.2534 139.404 32.7414 142.028 32.7414C147.788 32.7414 152.332 37.1574 152.332 43.6214C152.332 50.4054 147.148 55.3334 140.236 55.3334C136.652 55.3334 133.516 53.6694 132.236 51.3014C132.236 56.8054 134.54 58.5974 142.54 58.5974V65.5734H112.588ZM115.532 62.8854H139.596V61.1574C130.508 61.1574 129.1 56.9334 129.1 46.5014H130.636C132.492 49.7654 136.268 51.9414 140.236 51.9414C145.036 51.9414 148.748 48.2294 148.748 43.6214C148.748 38.7574 145.868 35.6854 141.004 35.6854C138.572 35.6854 136.588 36.3254 135.116 38.0534L133.452 36.7094C134.796 34.2774 135.628 31.2054 135.628 28.5814C135.628 23.9734 132.556 21.2214 127.564 21.2214C122.572 21.2214 119.5 23.9734 119.5 28.5814C119.5 31.2054 120.268 34.2134 121.676 36.7094L120.012 38.0534C118.476 36.3254 116.556 35.6854 114.124 35.6854C109.324 35.6854 106.38 38.7574 106.38 43.6214C106.38 48.1654 110.092 51.9414 114.892 51.9414C118.796 51.9414 122.636 49.8294 124.492 46.5014H126.028C126.028 57.0614 124.62 61.1574 115.532 61.1574V62.8854Z" fill="black"/>
<path d="M113.588 115.573V108.597C121.46 108.597 123.892 106.933 123.892 101.301C122.612 103.669 119.604 105.333 115.892 105.333C108.916 105.333 103.796 100.405 103.796 93.6214C103.796 87.2214 108.34 82.7414 114.1 82.7414C116.724 82.7414 118.068 83.2534 119.284 84.2134C117.94 82.8694 116.916 80.1814 116.916 78.5814C116.916 71.9254 121.524 67.6374 128.564 67.6374C135.604 67.6374 140.212 71.8614 140.212 78.5814C140.212 80.1814 139.188 82.9334 137.844 84.2134C139.06 83.2534 140.404 82.7414 143.028 82.7414C148.788 82.7414 153.332 87.1574 153.332 93.6214C153.332 100.405 148.148 105.333 141.236 105.333C137.652 105.333 134.516 103.669 133.236 101.301C133.236 106.805 135.54 108.597 143.54 108.597V115.573H113.588ZM116.532 112.885H140.596V111.157C131.508 111.157 130.1 106.933 130.1 96.5014H131.636C133.492 99.7654 137.268 101.941 141.236 101.941C146.036 101.941 149.748 98.2294 149.748 93.6214C149.748 88.7574 146.868 85.6854 142.004 85.6854C139.572 85.6854 137.588 86.3254 136.116 88.0534L134.452 86.7094C135.796 84.2774 136.628 81.2054 136.628 78.5814C136.628 73.9734 133.556 71.2214 128.564 71.2214C123.572 71.2214 120.5 73.9734 120.5 78.5814C120.5 81.2054 121.268 84.2134 122.676 86.7094L121.012 88.0534C119.476 86.3254 117.556 85.6854 115.124 85.6854C110.324 85.6854 107.38 88.7574 107.38 93.6214C107.38 98.1654 111.092 101.941 115.892 101.941C119.796 101.941 123.636 99.8294 125.492 96.5014H127.028C127.028 107.061 125.62 111.157 116.532 111.157V112.885Z" fill="black"/>
<path d="M142.74 118.538V125.514C134.868 125.514 132.436 127.178 132.436 132.81C133.716 130.442 136.724 128.778 140.436 128.778C147.412 128.778 152.532 133.706 152.532 140.49C152.532 146.89 147.988 151.37 142.228 151.37C139.604 151.37 138.26 150.858 137.044 149.898C138.388 151.242 139.412 153.93 139.412 155.53C139.412 162.186 134.804 166.474 127.764 166.474C120.724 166.474 116.116 162.25 116.116 155.53C116.116 153.93 117.14 151.178 118.484 149.898C117.268 150.858 115.924 151.37 113.3 151.37C107.54 151.37 102.996 146.954 102.996 140.49C102.996 133.706 108.18 128.778 115.092 128.778C118.676 128.778 121.812 130.442 123.092 132.81C123.092 127.306 120.788 125.514 112.788 125.514V118.538H142.74ZM139.796 121.226H115.732V122.954C124.82 122.954 126.228 127.178 126.228 137.61H124.692C122.836 134.346 119.06 132.17 115.092 132.17C110.292 132.17 106.58 135.882 106.58 140.49C106.58 145.354 109.46 148.426 114.324 148.426C116.756 148.426 118.74 147.786 120.212 146.058L121.876 147.402C120.532 149.834 119.7 152.906 119.7 155.53C119.7 160.138 122.772 162.89 127.764 162.89C132.756 162.89 135.828 160.138 135.828 155.53C135.828 152.906 135.06 149.898 133.652 147.402L135.316 146.058C136.852 147.786 138.772 148.426 141.204 148.426C146.004 148.426 148.948 145.354 148.948 140.49C148.948 135.946 145.236 132.17 140.436 132.17C136.532 132.17 132.692 134.282 130.836 137.61H129.3C129.3 127.05 130.708 122.954 139.796 122.954V121.226Z" fill="black"/>
<path d="M142.74 169.538V176.514C134.868 176.514 132.436 178.178 132.436 183.81C133.716 181.442 136.724 179.778 140.436 179.778C147.412 179.778 152.532 184.706 152.532 191.49C152.532 197.89 147.988 202.37 142.228 202.37C139.604 202.37 138.26 201.858 137.044 200.898C138.388 202.242 139.412 204.93 139.412 206.53C139.412 213.186 134.804 217.474 127.764 217.474C120.724 217.474 116.116 213.25 116.116 206.53C116.116 204.93 117.14 202.178 118.484 200.898C117.268 201.858 115.924 202.37 113.3 202.37C107.54 202.37 102.996 197.954 102.996 191.49C102.996 184.706 108.18 179.778 115.092 179.778C118.676 179.778 121.812 181.442 123.092 183.81C123.092 178.306 120.788 176.514 112.788 176.514V169.538H142.74ZM139.796 172.226H115.732V173.954C124.82 173.954 126.228 178.178 126.228 188.61H124.692C122.836 185.346 119.06 183.17 115.092 183.17C110.292 183.17 106.58 186.882 106.58 191.49C106.58 196.354 109.46 199.426 114.324 199.426C116.756 199.426 118.74 198.786 120.212 197.058L121.876 198.402C120.532 200.834 119.7 203.906 119.7 206.53C119.7 211.138 122.772 213.89 127.764 213.89C132.756 213.89 135.828 211.138 135.828 206.53C135.828 203.906 135.06 200.898 133.652 198.402L135.316 197.058C136.852 198.786 138.772 199.426 141.204 199.426C146.004 199.426 148.948 196.354 148.948 191.49C148.948 186.946 145.236 183.17 140.436 183.17C136.532 183.17 132.692 185.282 130.836 188.61H129.3C129.3 178.05 130.708 173.954 139.796 173.954V172.226Z" fill="black"/>
<path d="M15.4339 36.5046C14.6179 36.5046 13.8739 36.3526 13.2019 36.0486C12.5459 35.7286 12.0259 35.2966 11.6419 34.7526C11.2739 34.1926 11.0899 33.5686 11.0899 32.8806C11.0899 31.6326 11.6659 30.4006 12.8179 29.1846C11.9859 28.7366 11.3779 28.3046 10.9939 27.8886C10.6099 27.4566 10.3619 26.9366 10.2499 26.3286C10.2179 26.1046 10.2019 25.9366 10.2019 25.8246C10.2019 25.2486 10.3699 24.7366 10.7059 24.2886C11.0419 23.8406 11.4899 23.4966 12.0499 23.2566C12.6099 23.0006 13.2019 22.8726 13.8259 22.8726C14.7859 22.8726 15.5139 23.0566 16.0099 23.4246C16.5219 23.7766 16.7779 24.2966 16.7779 24.9846C16.7779 25.7366 16.6499 26.3286 16.3939 26.7606C16.1539 27.1926 15.7539 27.6886 15.1939 28.2486C14.7939 28.6486 14.5539 28.8966 14.4739 28.9926C14.7619 29.2486 15.1219 29.5446 15.5539 29.8806C16.2579 30.4566 16.7699 30.9046 17.0899 31.2246C17.4259 31.5446 17.6819 31.9126 17.8579 32.3286C18.0499 32.7286 18.1459 33.2166 18.1459 33.7926C18.1459 34.6406 17.9059 35.3046 17.4259 35.7846C16.9459 36.2646 16.2819 36.5046 15.4339 36.5046ZM13.4899 28.5126C14.1459 28.0166 14.6579 27.4886 15.0259 26.9286C15.3939 26.3526 15.5779 25.8246 15.5779 25.3446C15.5779 24.9286 15.4259 24.5926 15.1219 24.3366C14.8339 24.0806 14.4019 23.9526 13.8259 23.9526C12.9779 23.9526 12.3539 24.1686 11.9539 24.6006C11.5539 25.0166 11.3539 25.5206 11.3539 26.1126C11.3539 26.6086 11.5219 27.0246 11.8579 27.3606C12.2099 27.6966 12.7539 28.0806 13.4899 28.5126ZM15.2899 35.4006C15.7859 35.4006 16.1939 35.2806 16.5139 35.0406C16.8339 34.8006 16.9939 34.4166 16.9939 33.8886C16.9939 33.4246 16.8899 33.0006 16.6819 32.6166C16.4739 32.2326 16.1539 31.8326 15.7219 31.4166C15.3059 31.0006 14.6579 30.4166 13.7779 29.6646C13.2819 30.1286 12.9059 30.6246 12.6499 31.1526C12.4099 31.6806 12.2899 32.1926 12.2899 32.6886C12.2899 33.4566 12.5539 34.1046 13.0819 34.6326C13.6259 35.1446 14.3619 35.4006 15.2899 35.4006Z" fill="black"/>
<path d="M14.9756 58.0316V55.4156C17.9276 55.4156 18.8396 54.7916 18.8396 52.6796C18.3596 53.5676 17.2316 54.1916 15.8396 54.1916C13.2236 54.1916 11.3036 52.3436 11.3036 49.7996C11.3036 47.3996 13.0076 45.7196 15.1676 45.7196C16.1516 45.7196 16.6556 45.9116 17.1116 46.2716C16.6076 45.7676 16.2236 44.7596 16.2236 44.1596C16.2236 41.6636 17.9516 40.0556 20.5916 40.0556C23.2316 40.0556 24.9596 41.6396 24.9596 44.1596C24.9596 44.7596 24.5756 45.7916 24.0716 46.2716C24.5276 45.9116 25.0316 45.7196 26.0156 45.7196C28.1756 45.7196 29.8796 47.3756 29.8796 49.7996C29.8796 52.3436 27.9356 54.1916 25.3436 54.1916C23.9996 54.1916 22.8236 53.5676 22.3436 52.6796C22.3436 54.7436 23.2076 55.4156 26.2076 55.4156V58.0316H14.9756ZM16.0796 57.0236H25.1036V56.3756C21.6956 56.3756 21.1676 54.7916 21.1676 50.8796H21.7436C22.4396 52.1036 23.8556 52.9196 25.3436 52.9196C27.1436 52.9196 28.5356 51.5276 28.5356 49.7996C28.5356 47.9756 27.4556 46.8236 25.6316 46.8236C24.7196 46.8236 23.9756 47.0636 23.4236 47.7116L22.7996 47.2076C23.3036 46.2956 23.6156 45.1436 23.6156 44.1596C23.6156 42.4316 22.4636 41.3996 20.5916 41.3996C18.7196 41.3996 17.5676 42.4316 17.5676 44.1596C17.5676 45.1436 17.8556 46.2716 18.3836 47.2076L17.7596 47.7116C17.1836 47.0636 16.4636 46.8236 15.5516 46.8236C13.7516 46.8236 12.6476 47.9756 12.6476 49.7996C12.6476 51.5036 14.0396 52.9196 15.8396 52.9196C17.3036 52.9196 18.7436 52.1276 19.4396 50.8796H20.0156C20.0156 54.8396 19.4876 56.3756 16.0796 56.3756V57.0236Z" fill="black"/>
<path d="M165.647 173.495V176.111C162.695 176.111 161.783 176.735 161.783 178.847C162.263 177.959 163.391 177.335 164.783 177.335C167.399 177.335 169.319 179.183 169.319 181.727C169.319 184.127 167.615 185.807 165.455 185.807C164.471 185.807 163.967 185.615 163.511 185.255C164.015 185.759 164.399 186.767 164.399 187.367C164.399 189.863 162.671 191.471 160.031 191.471C157.391 191.471 155.663 189.887 155.663 187.367C155.663 186.767 156.047 185.735 156.551 185.255C156.095 185.615 155.591 185.807 154.607 185.807C152.447 185.807 150.743 184.151 150.743 181.727C150.743 179.183 152.687 177.335 155.279 177.335C156.623 177.335 157.799 177.959 158.279 178.847C158.279 176.783 157.415 176.111 154.415 176.111V173.495H165.647ZM164.543 174.503H155.519V175.151C158.927 175.151 159.455 176.735 159.455 180.647H158.879C158.183 179.423 156.767 178.607 155.279 178.607C153.479 178.607 152.087 179.999 152.087 181.727C152.087 183.551 153.167 184.703 154.991 184.703C155.903 184.703 156.647 184.463 157.199 183.815L157.823 184.319C157.319 185.231 157.007 186.383 157.007 187.367C157.007 189.095 158.159 190.127 160.031 190.127C161.903 190.127 163.055 189.095 163.055 187.367C163.055 186.383 162.767 185.255 162.239 184.319L162.863 183.815C163.439 184.463 164.159 184.703 165.071 184.703C166.871 184.703 167.975 183.551 167.975 181.727C167.975 180.023 166.583 178.607 164.783 178.607C163.319 178.607 161.879 179.399 161.183 180.647H160.607C160.607 176.687 161.135 175.151 164.543 175.151V174.503Z" fill="black"/>
<path d="M159.503 193.918C160.319 193.917 161.064 194.068 161.736 194.371C162.392 194.691 162.913 195.122 163.298 195.666C163.666 196.225 163.851 196.849 163.852 197.537C163.854 198.785 163.279 200.018 162.129 201.235C162.961 201.682 163.57 202.113 163.954 202.529C164.339 202.961 164.588 203.48 164.7 204.088C164.733 204.312 164.749 204.48 164.749 204.592C164.75 205.168 164.582 205.68 164.247 206.129C163.912 206.577 163.464 206.921 162.904 207.162C162.345 207.419 161.753 207.547 161.129 207.548C160.169 207.549 159.441 207.366 158.944 206.998C158.432 206.647 158.175 206.127 158.174 205.439C158.173 204.687 158.3 204.095 158.556 203.663C158.795 203.23 159.195 202.734 159.754 202.173C160.153 201.773 160.393 201.525 160.473 201.429C160.185 201.173 159.824 200.877 159.392 200.542C158.687 199.966 158.175 199.519 157.854 199.199C157.518 198.88 157.261 198.512 157.085 198.096C156.892 197.696 156.796 197.208 156.795 196.632C156.794 195.784 157.033 195.12 157.512 194.64C157.992 194.159 158.655 193.918 159.503 193.918ZM161.458 201.908C160.802 202.404 160.291 202.933 159.924 203.493C159.556 204.07 159.373 204.598 159.374 205.078C159.374 205.494 159.527 205.83 159.831 206.085C160.119 206.341 160.551 206.469 161.127 206.468C161.975 206.467 162.599 206.25 162.999 205.818C163.398 205.402 163.597 204.897 163.597 204.305C163.596 203.809 163.427 203.394 163.091 203.058C162.739 202.722 162.194 202.339 161.458 201.908ZM159.649 195.021C159.153 195.022 158.745 195.142 158.425 195.383C158.106 195.623 157.946 196.007 157.947 196.535C157.947 196.999 158.052 197.423 158.26 197.807C158.469 198.191 158.789 198.59 159.222 199.006C159.638 199.421 160.287 200.005 161.168 200.756C161.663 200.291 162.039 199.795 162.294 199.267C162.534 198.738 162.653 198.226 162.652 197.73C162.651 196.962 162.386 196.315 161.858 195.787C161.313 195.276 160.577 195.02 159.649 195.021Z" fill="black"/>
<path d="M43.5877 66.5734V59.5974C51.4597 59.5974 53.8917 57.9334 53.8917 52.3014C52.6117 54.6694 49.6037 56.3334 45.8917 56.3334C38.9157 56.3334 33.7957 51.4054 33.7957 44.6214C33.7957 38.2214 38.3397 33.7414 44.0997 33.7414C46.7237 33.7414 48.0677 34.2534 49.2837 35.2134C47.9397 33.8694 46.9157 31.1814 46.9157 29.5814C46.9157 22.9254 51.5237 18.6374 58.5637 18.6374C65.6037 18.6374 70.2117 22.8614 70.2117 29.5814C70.2117 31.1814 69.1877 33.9334 67.8437 35.2134C69.0597 34.2534 70.4037 33.7414 73.0277 33.7414C78.7877 33.7414 83.3317 38.1574 83.3317 44.6214C83.3317 51.4054 78.1477 56.3334 71.2357 56.3334C67.6517 56.3334 64.5157 54.6694 63.2357 52.3014C63.2357 57.8054 65.5397 59.5974 73.5397 59.5974V66.5734H43.5877ZM46.5317 63.8854H70.5957V62.1574C61.5077 62.1574 60.0997 57.9334 60.0997 47.5014H61.6357C63.4917 50.7654 67.2677 52.9414 71.2357 52.9414C76.0357 52.9414 79.7477 49.2294 79.7477 44.6214C79.7477 39.7574 76.8677 36.6854 72.0037 36.6854C69.5717 36.6854 67.5877 37.3254 66.1157 39.0534L64.4517 37.7094C65.7957 35.2774 66.6277 32.2054 66.6277 29.5814C66.6277 24.9734 63.5557 22.2214 58.5637 22.2214C53.5717 22.2214 50.4997 24.9734 50.4997 29.5814C50.4997 32.2054 51.2677 35.2134 52.6757 37.7094L51.0117 39.0534C49.4757 37.3254 47.5557 36.6854 45.1237 36.6854C40.3237 36.6854 37.3797 39.7574 37.3797 44.6214C37.3797 49.1654 41.0917 52.9414 45.8917 52.9414C49.7957 52.9414 53.6357 50.8294 55.4917 47.5014H57.0277C57.0277 58.0614 55.6197 62.1574 46.5317 62.1574V63.8854Z" fill="black"/>
<path d="M44.5877 115.573V108.597C52.4597 108.597 54.8917 106.933 54.8917 101.301C53.6117 103.669 50.6037 105.333 46.8917 105.333C39.9157 105.333 34.7957 100.405 34.7957 93.6214C34.7957 87.2214 39.3397 82.7414 45.0997 82.7414C47.7237 82.7414 49.0677 83.2534 50.2837 84.2134C48.9397 82.8694 47.9157 80.1814 47.9157 78.5814C47.9157 71.9254 52.5237 67.6374 59.5637 67.6374C66.6037 67.6374 71.2117 71.8614 71.2117 78.5814C71.2117 80.1814 70.1877 82.9334 68.8437 84.2134C70.0597 83.2534 71.4037 82.7414 74.0277 82.7414C79.7877 82.7414 84.3317 87.1574 84.3317 93.6214C84.3317 100.405 79.1477 105.333 72.2357 105.333C68.6517 105.333 65.5157 103.669 64.2357 101.301C64.2357 106.805 66.5397 108.597 74.5397 108.597V115.573H44.5877ZM47.5317 112.885H71.5957V111.157C62.5077 111.157 61.0997 106.933 61.0997 96.5014H62.6357C64.4917 99.7654 68.2677 101.941 72.2357 101.941C77.0357 101.941 80.7477 98.2294 80.7477 93.6214C80.7477 88.7574 77.8677 85.6854 73.0037 85.6854C70.5717 85.6854 68.5877 86.3254 67.1157 88.0534L65.4517 86.7094C66.7957 84.2774 67.6277 81.2054 67.6277 78.5814C67.6277 73.9734 64.5557 71.2214 59.5637 71.2214C54.5717 71.2214 51.4997 73.9734 51.4997 78.5814C51.4997 81.2054 52.2677 84.2134 53.6757 86.7094L52.0117 88.0534C50.4757 86.3254 48.5557 85.6854 46.1237 85.6854C41.3237 85.6854 38.3797 88.7574 38.3797 93.6214C38.3797 98.1654 42.0917 101.941 46.8917 101.941C50.7957 101.941 54.6357 99.8294 56.4917 96.5014H58.0277C58.0277 107.061 56.6197 111.157 47.5317 111.157V112.885Z" fill="black"/>
<path d="M73.7399 118.538V125.514C65.8679 125.514 63.4359 127.178 63.4359 132.81C64.7159 130.442 67.7239 128.778 71.4359 128.778C78.4119 128.778 83.5319 133.706 83.5319 140.49C83.5319 146.89 78.9879 151.37 73.2279 151.37C70.6039 151.37 69.2599 150.858 68.0439 149.898C69.3879 151.242 70.4119 153.93 70.4119 155.53C70.4119 162.186 65.8039 166.474 58.7639 166.474C51.7239 166.474 47.1159 162.25 47.1159 155.53C47.1159 153.93 48.1399 151.178 49.4839 149.898C48.2679 150.858 46.9239 151.37 44.2999 151.37C38.5399 151.37 33.9959 146.954 33.9959 140.49C33.9959 133.706 39.1799 128.778 46.0919 128.778C49.6759 128.778 52.8119 130.442 54.0919 132.81C54.0919 127.306 51.7879 125.514 43.7879 125.514V118.538H73.7399ZM70.7959 121.226H46.7319V122.954C55.8199 122.954 57.2279 127.178 57.2279 137.61H55.6919C53.8359 134.346 50.0599 132.17 46.0919 132.17C41.2919 132.17 37.5799 135.882 37.5799 140.49C37.5799 145.354 40.4599 148.426 45.3239 148.426C47.7559 148.426 49.7399 147.786 51.2119 146.058L52.8759 147.402C51.5319 149.834 50.6999 152.906 50.6999 155.53C50.6999 160.138 53.7719 162.89 58.7639 162.89C63.7559 162.89 66.8279 160.138 66.8279 155.53C66.8279 152.906 66.0599 149.898 64.6519 147.402L66.3159 146.058C67.8519 147.786 69.7719 148.426 72.2039 148.426C77.0039 148.426 79.9479 145.354 79.9479 140.49C79.9479 135.946 76.2359 132.17 71.4359 132.17C67.5319 132.17 63.6919 134.282 61.8359 137.61H60.2999C60.2999 127.05 61.7079 122.954 70.7959 122.954V121.226Z" fill="black"/>
<path d="M73.7399 168.538V175.514C65.8679 175.514 63.4359 177.178 63.4359 182.81C64.7159 180.442 67.7239 178.778 71.4359 178.778C78.4119 178.778 83.5319 183.706 83.5319 190.49C83.5319 196.89 78.9879 201.37 73.2279 201.37C70.6039 201.37 69.2599 200.858 68.0439 199.898C69.3879 201.242 70.4119 203.93 70.4119 205.53C70.4119 212.186 65.8039 216.474 58.7639 216.474C51.7239 216.474 47.1159 212.25 47.1159 205.53C47.1159 203.93 48.1399 201.178 49.4839 199.898C48.2679 200.858 46.9239 201.37 44.2999 201.37C38.5399 201.37 33.9959 196.954 33.9959 190.49C33.9959 183.706 39.1799 178.778 46.0919 178.778C49.6759 178.778 52.8119 180.442 54.0919 182.81C54.0919 177.306 51.7879 175.514 43.7879 175.514V168.538H73.7399ZM70.7959 171.226H46.7319V172.954C55.8199 172.954 57.2279 177.178 57.2279 187.61H55.6919C53.8359 184.346 50.0599 182.17 46.0919 182.17C41.2919 182.17 37.5799 185.882 37.5799 190.49C37.5799 195.354 40.4599 198.426 45.3239 198.426C47.7559 198.426 49.7399 197.786 51.2119 196.058L52.8759 197.402C51.5319 199.834 50.6999 202.906 50.6999 205.53C50.6999 210.138 53.7719 212.89 58.7639 212.89C63.7559 212.89 66.8279 210.138 66.8279 205.53C66.8279 202.906 66.0599 199.898 64.6519 197.402L66.3159 196.058C67.8519 197.786 69.7719 198.426 72.2039 198.426C77.0039 198.426 79.9479 195.354 79.9479 190.49C79.9479 185.946 76.2359 182.17 71.4359 182.17C67.5319 182.17 63.6919 184.282 61.8359 187.61H60.2999C60.2999 177.05 61.7079 172.954 70.7959 172.954V171.226Z" fill="black"/>
</svg>
