<svg width="176" height="217" viewBox="0 0 176 217" fill="none" xmlns="http://www.w3.org/2000/svg">
<path d="M170.388 1C170.388 1 119.62 2.23305 87.8022 2.23305C55.9848 2.23305 5.21597 1 5.21597 1C2.26025 1 0 3.00372 0 5.62398V210.466C0 213.087 2.43412 215.244 5.21597 215.244C5.21597 215.244 55.9848 216.786 87.8022 216.786C119.62 216.786 170.388 215.244 170.388 215.244C173.344 215.09 175.604 212.932 175.604 210.466V5.62398C175.604 3.00372 173.344 1 170.388 1Z" fill="white"/>
<path d="M12.4996 13.7138C13.0276 13.7138 13.5476 13.8338 14.0596 14.0738C14.5876 14.2978 15.0196 14.6258 15.3556 15.0578C15.6916 15.4738 15.8596 15.9378 15.8596 16.4498C15.8596 16.6898 15.8276 16.9058 15.7636 17.0978C15.4916 18.0738 15.2996 19.2178 15.1876 20.5298C15.0756 21.8418 15.0196 23.1538 15.0196 24.4658C15.0196 26.2098 15.0836 27.2338 15.2116 27.5378C15.2116 27.7138 15.1316 27.8338 14.9716 27.8978C14.8276 27.9458 14.6036 27.9698 14.2996 27.9698C13.7556 27.9858 13.4836 27.1698 13.4836 25.5218C13.4836 24.2738 13.6196 22.7778 13.8916 21.0338C13.3156 21.0978 12.9236 21.1298 12.7156 21.1298C11.4676 21.1298 10.5476 20.8258 9.95556 20.2178C9.37956 19.5938 9.09156 18.7218 9.09156 17.6018C9.09156 16.5138 9.39556 15.5938 10.0036 14.8418C10.6276 14.0898 11.4596 13.7138 12.4996 13.7138ZM12.7876 20.1698C13.2836 20.1698 13.7156 20.0578 14.0836 19.8338C14.2436 18.8738 14.4196 18.0098 14.6116 17.2418C14.6756 16.5378 14.5156 15.9778 14.1316 15.5618C13.7636 15.1298 13.3076 14.9138 12.7636 14.9138C12.1716 14.9138 11.6276 15.1298 11.1316 15.5618C10.6516 15.9778 10.4116 16.5858 10.4116 17.3858C10.4116 18.2338 10.6196 18.9138 11.0356 19.4258C11.4516 19.9218 12.0356 20.1698 12.7876 20.1698Z" fill="black"/>
<path d="M8.03321 48.6888V46.0728C10.9852 46.0728 11.8972 45.4488 11.8972 43.3368C11.4172 44.2248 10.2892 44.8488 8.89721 44.8488C6.28121 44.8488 4.36121 43.0008 4.36121 40.4568C4.36121 38.0568 6.06521 36.3768 8.22521 36.3768C9.20921 36.3768 9.71321 36.5688 10.1692 36.9288C9.66521 36.4248 9.28121 35.4168 9.28121 34.8168C9.28121 32.3208 11.0092 30.7128 13.6492 30.7128C16.2892 30.7128 18.0172 32.2968 18.0172 34.8168C18.0172 35.4168 17.6332 36.4488 17.1292 36.9288C17.5852 36.5688 18.0892 36.3768 19.0732 36.3768C21.2332 36.3768 22.9372 38.0328 22.9372 40.4568C22.9372 43.0008 20.9932 44.8488 18.4012 44.8488C17.0572 44.8488 15.8812 44.2248 15.4012 43.3368C15.4012 45.4008 16.2652 46.0728 19.2652 46.0728V48.6888H8.03321ZM9.13721 47.6808H18.1612V47.0328C14.7532 47.0328 14.2252 45.4488 14.2252 41.5368H14.8012C15.4972 42.7608 16.9132 43.5768 18.4012 43.5768C20.2012 43.5768 21.5932 42.1848 21.5932 40.4568C21.5932 38.6328 20.5132 37.4808 18.6892 37.4808C17.7772 37.4808 17.0332 37.7208 16.4812 38.3688L15.8572 37.8648C16.3612 36.9528 16.6732 35.8008 16.6732 34.8168C16.6732 33.0888 15.5212 32.0568 13.6492 32.0568C11.7772 32.0568 10.6252 33.0888 10.6252 34.8168C10.6252 35.8008 10.9132 36.9288 11.4412 37.8648L10.8172 38.3688C10.2412 37.7208 9.52121 37.4808 8.60921 37.4808C6.80921 37.4808 5.70521 38.6328 5.70521 40.4568C5.70521 42.1608 7.09721 43.5768 8.89721 43.5768C10.3612 43.5768 11.8012 42.7848 12.4972 41.5368H13.0732C13.0732 45.4968 12.5452 47.0328 9.13721 47.0328V47.6808Z" fill="black"/>
<path d="M166.705 164.152V166.768C163.753 166.768 162.841 167.392 162.841 169.504C163.321 168.616 164.449 167.992 165.841 167.992C168.457 167.992 170.377 169.84 170.377 172.384C170.377 174.784 168.673 176.464 166.513 176.464C165.529 176.464 165.025 176.272 164.569 175.912C165.073 176.416 165.457 177.424 165.457 178.024C165.457 180.52 163.729 182.128 161.089 182.128C158.449 182.128 156.721 180.544 156.721 178.024C156.721 177.424 157.105 176.392 157.609 175.912C157.153 176.272 156.649 176.464 155.665 176.464C153.505 176.464 151.801 174.808 151.801 172.384C151.801 169.84 153.745 167.992 156.337 167.992C157.681 167.992 158.857 168.616 159.337 169.504C159.337 167.44 158.473 166.768 155.473 166.768V164.152H166.705ZM165.601 165.16H156.577V165.808C159.985 165.808 160.513 167.392 160.513 171.304H159.937C159.241 170.08 157.825 169.264 156.337 169.264C154.537 169.264 153.145 170.656 153.145 172.384C153.145 174.208 154.225 175.36 156.049 175.36C156.961 175.36 157.705 175.12 158.257 174.472L158.881 174.976C158.377 175.888 158.065 177.04 158.065 178.024C158.065 179.752 159.217 180.784 161.089 180.784C162.961 180.784 164.113 179.752 164.113 178.024C164.113 177.04 163.825 175.912 163.297 174.976L163.921 174.472C164.497 175.12 165.217 175.36 166.129 175.36C167.929 175.36 169.033 174.208 169.033 172.384C169.033 170.68 167.641 169.264 165.841 169.264C164.377 169.264 162.937 170.056 162.241 171.304H161.665C161.665 167.344 162.193 165.808 165.601 165.808V165.16Z" fill="black"/>
<path d="M160.571 200.021C160.043 200.021 159.523 199.902 159.011 199.662C158.483 199.439 158.05 199.111 157.714 198.68C157.377 198.264 157.209 197.8 157.208 197.288C157.208 197.048 157.239 196.832 157.303 196.64C157.574 195.664 157.764 194.52 157.875 193.207C157.985 191.895 158.039 190.583 158.038 189.271C158.035 187.527 157.97 186.503 157.842 186.2C157.842 186.024 157.921 185.903 158.081 185.839C158.225 185.791 158.449 185.767 158.753 185.767C159.297 185.75 159.57 186.566 159.572 188.214C159.574 189.462 159.44 190.958 159.17 192.702C159.746 192.638 160.138 192.605 160.346 192.605C161.594 192.604 162.514 192.907 163.107 193.514C163.684 194.137 163.973 195.009 163.974 196.129C163.976 197.217 163.673 198.137 163.066 198.89C162.443 199.643 161.611 200.02 160.571 200.021ZM160.275 193.565C159.779 193.566 159.347 193.678 158.98 193.902C158.821 194.863 158.646 195.727 158.455 196.495C158.392 197.199 158.553 197.759 158.937 198.174C159.306 198.606 159.762 198.822 160.306 198.821C160.898 198.82 161.442 198.604 161.937 198.171C162.417 197.755 162.656 197.147 162.655 196.347C162.654 195.499 162.445 194.819 162.028 194.307C161.612 193.812 161.027 193.564 160.275 193.565Z" fill="black"/>
<path d="M112.323 49.5734V44.3414C118.227 44.3414 120.051 43.0934 120.051 38.8694C119.091 40.6454 116.835 41.8934 114.051 41.8934C108.819 41.8934 104.979 38.1974 104.979 33.1094C104.979 28.3094 108.387 24.9494 112.707 24.9494C114.675 24.9494 115.683 25.3334 116.595 26.0534C115.587 25.0454 114.819 23.0294 114.819 21.8294C114.819 16.8374 118.275 13.6214 123.555 13.6214C128.835 13.6214 132.291 16.7894 132.291 21.8294C132.291 23.0294 131.523 25.0934 130.515 26.0534C131.427 25.3334 132.435 24.9494 134.403 24.9494C138.723 24.9494 142.131 28.2614 142.131 33.1094C142.131 38.1974 138.243 41.8934 133.059 41.8934C130.371 41.8934 128.019 40.6454 127.059 38.8694C127.059 42.9974 128.787 44.3414 134.787 44.3414V49.5734H112.323ZM114.531 47.5574H132.579V46.2614C125.763 46.2614 124.707 43.0934 124.707 35.2694H125.859C127.251 37.7174 130.083 39.3494 133.059 39.3494C136.659 39.3494 139.443 36.5654 139.443 33.1094C139.443 29.4614 137.283 27.1574 133.635 27.1574C131.811 27.1574 130.323 27.6374 129.219 28.9334L127.971 27.9254C128.979 26.1014 129.603 23.7974 129.603 21.8294C129.603 18.3734 127.299 16.3094 123.555 16.3094C119.811 16.3094 117.507 18.3734 117.507 21.8294C117.507 23.7974 118.083 26.0534 119.139 27.9254L117.891 28.9334C116.739 27.6374 115.299 27.1574 113.475 27.1574C109.875 27.1574 107.667 29.4614 107.667 33.1094C107.667 36.5174 110.451 39.3494 114.051 39.3494C116.979 39.3494 119.859 37.7654 121.251 35.2694H122.403C122.403 43.1894 121.347 46.2614 114.531 46.2614V47.5574Z" fill="black"/>
<path d="M44.3233 50.5734V45.3414C50.2273 45.3414 52.0513 44.0934 52.0513 39.8694C51.0913 41.6454 48.8353 42.8934 46.0513 42.8934C40.8193 42.8934 36.9793 39.1974 36.9793 34.1094C36.9793 29.3094 40.3873 25.9494 44.7073 25.9494C46.6753 25.9494 47.6833 26.3334 48.5953 27.0534C47.5873 26.0454 46.8193 24.0294 46.8193 22.8294C46.8193 17.8374 50.2753 14.6214 55.5553 14.6214C60.8353 14.6214 64.2913 17.7894 64.2913 22.8294C64.2913 24.0294 63.5233 26.0934 62.5153 27.0534C63.4273 26.3334 64.4353 25.9494 66.4033 25.9494C70.7233 25.9494 74.1313 29.2614 74.1313 34.1094C74.1313 39.1974 70.2433 42.8934 65.0593 42.8934C62.3713 42.8934 60.0193 41.6454 59.0593 39.8694C59.0593 43.9974 60.7873 45.3414 66.7873 45.3414V50.5734H44.3233ZM46.5312 48.5574H64.5793V47.2614C57.7633 47.2614 56.7073 44.0934 56.7073 36.2694H57.8593C59.2513 38.7174 62.0833 40.3494 65.0593 40.3494C68.6593 40.3494 71.4433 37.5654 71.4433 34.1094C71.4433 30.4614 69.2833 28.1574 65.6353 28.1574C63.8113 28.1574 62.3233 28.6374 61.2193 29.9334L59.9713 28.9254C60.9792 27.1014 61.6033 24.7974 61.6033 22.8294C61.6033 19.3734 59.2993 17.3094 55.5553 17.3094C51.8113 17.3094 49.5073 19.3734 49.5073 22.8294C49.5073 24.7974 50.0833 27.0534 51.1393 28.9254L49.8913 29.9334C48.7393 28.6374 47.2993 28.1574 45.4753 28.1574C41.8753 28.1574 39.6673 30.4614 39.6673 34.1094C39.6673 37.5174 42.4513 40.3494 46.0513 40.3494C48.9793 40.3494 51.8593 38.7654 53.2513 36.2694H54.4033C54.4033 44.1894 53.3473 47.2614 46.5312 47.2614V48.5574Z" fill="black"/>
<path d="M79.3233 117.573V112.341C85.2273 112.341 87.0513 111.093 87.0513 106.869C86.0913 108.645 83.8353 109.893 81.0513 109.893C75.8193 109.893 71.9793 106.197 71.9793 101.109C71.9793 96.3094 75.3873 92.9494 79.7073 92.9494C81.6753 92.9494 82.6833 93.3334 83.5953 94.0534C82.5873 93.0454 81.8193 91.0294 81.8193 89.8294C81.8193 84.8374 85.2753 81.6214 90.5553 81.6214C95.8353 81.6214 99.2913 84.7894 99.2913 89.8294C99.2913 91.0294 98.5233 93.0934 97.5153 94.0534C98.4273 93.3334 99.4353 92.9494 101.403 92.9494C105.723 92.9494 109.131 96.2614 109.131 101.109C109.131 106.197 105.243 109.893 100.059 109.893C97.3713 109.893 95.0193 108.645 94.0593 106.869C94.0593 110.997 95.7873 112.341 101.787 112.341V117.573H79.3233ZM81.5312 115.557H99.5793V114.261C92.7633 114.261 91.7073 111.093 91.7073 103.269H92.8593C94.2513 105.717 97.0833 107.349 100.059 107.349C103.659 107.349 106.443 104.565 106.443 101.109C106.443 97.4614 104.283 95.1574 100.635 95.1574C98.8113 95.1574 97.3233 95.6374 96.2193 96.9334L94.9713 95.9254C95.9792 94.1014 96.6033 91.7974 96.6033 89.8294C96.6033 86.3734 94.2993 84.3094 90.5553 84.3094C86.8113 84.3094 84.5073 86.3734 84.5073 89.8294C84.5073 91.7974 85.0833 94.0534 86.1393 95.9254L84.8913 96.9334C83.7393 95.6374 82.2993 95.1574 80.4753 95.1574C76.8753 95.1574 74.6673 97.4614 74.6673 101.109C74.6673 104.517 77.4513 107.349 81.0513 107.349C83.9793 107.349 86.8593 105.765 88.2513 103.269H89.4033C89.4033 111.189 88.3473 114.261 81.5312 114.261V115.557Z" fill="black"/>
<path d="M44.3233 94.5734V89.3414C50.2273 89.3414 52.0513 88.0934 52.0513 83.8694C51.0913 85.6454 48.8353 86.8934 46.0513 86.8934C40.8193 86.8934 36.9793 83.1974 36.9793 78.1094C36.9793 73.3094 40.3873 69.9494 44.7073 69.9494C46.6753 69.9494 47.6833 70.3334 48.5953 71.0534C47.5873 70.0454 46.8193 68.0294 46.8193 66.8294C46.8193 61.8374 50.2753 58.6214 55.5553 58.6214C60.8353 58.6214 64.2913 61.7894 64.2913 66.8294C64.2913 68.0294 63.5233 70.0934 62.5153 71.0534C63.4273 70.3334 64.4353 69.9494 66.4033 69.9494C70.7233 69.9494 74.1313 73.2614 74.1313 78.1094C74.1313 83.1974 70.2433 86.8934 65.0593 86.8934C62.3713 86.8934 60.0193 85.6454 59.0593 83.8694C59.0593 87.9974 60.7873 89.3414 66.7873 89.3414V94.5734H44.3233ZM46.5312 92.5574H64.5793V91.2614C57.7633 91.2614 56.7073 88.0934 56.7073 80.2694H57.8593C59.2513 82.7174 62.0833 84.3494 65.0593 84.3494C68.6593 84.3494 71.4433 81.5654 71.4433 78.1094C71.4433 74.4614 69.2833 72.1574 65.6353 72.1574C63.8113 72.1574 62.3233 72.6374 61.2193 73.9334L59.9713 72.9254C60.9792 71.1014 61.6033 68.7974 61.6033 66.8294C61.6033 63.3734 59.2993 61.3094 55.5553 61.3094C51.8113 61.3094 49.5073 63.3734 49.5073 66.8294C49.5073 68.7974 50.0833 71.0534 51.1393 72.9254L49.8913 73.9334C48.7393 72.6374 47.2993 72.1574 45.4753 72.1574C41.8753 72.1574 39.6673 74.4614 39.6673 78.1094C39.6673 81.5174 42.4513 84.3494 46.0513 84.3494C48.9793 84.3494 51.8593 82.7654 53.2513 80.2694H54.4033C54.4033 88.1894 53.3473 91.2614 46.5312 91.2614V92.5574Z" fill="black"/>
<path d="M67.0034 108.538V113.77C61.0994 113.77 59.2754 115.018 59.2754 119.242C60.2354 117.466 62.4914 116.218 65.2754 116.218C70.5074 116.218 74.3474 119.914 74.3474 125.002C74.3474 129.802 70.9394 133.162 66.6194 133.162C64.6514 133.162 63.6434 132.778 62.7314 132.058C63.7394 133.066 64.5074 135.082 64.5074 136.282C64.5074 141.274 61.0514 144.49 55.7714 144.49C50.4914 144.49 47.0354 141.322 47.0354 136.282C47.0354 135.082 47.8034 133.018 48.8114 132.058C47.8994 132.778 46.8914 133.162 44.9234 133.162C40.6034 133.162 37.1954 129.85 37.1954 125.002C37.1954 119.914 41.0834 116.218 46.2674 116.218C48.9554 116.218 51.3074 117.466 52.2674 119.242C52.2674 115.114 50.5394 113.77 44.5394 113.77V108.538H67.0034ZM64.7954 110.554H46.7474V111.85C53.5634 111.85 54.6194 115.018 54.6194 122.842H53.4674C52.0754 120.394 49.2434 118.762 46.2674 118.762C42.6674 118.762 39.8834 121.546 39.8834 125.002C39.8834 128.65 42.0434 130.954 45.6914 130.954C47.5154 130.954 49.0034 130.474 50.1074 129.178L51.3554 130.186C50.3474 132.01 49.7234 134.314 49.7234 136.282C49.7234 139.738 52.0274 141.802 55.7714 141.802C59.5154 141.802 61.8194 139.738 61.8194 136.282C61.8194 134.314 61.2434 132.058 60.1874 130.186L61.4354 129.178C62.5874 130.474 64.0274 130.954 65.8514 130.954C69.4514 130.954 71.6594 128.65 71.6594 125.002C71.6594 121.594 68.8754 118.762 65.2754 118.762C62.3474 118.762 59.4674 120.346 58.0754 122.842H56.9234C56.9234 114.922 57.9794 111.85 64.7954 111.85V110.554Z" fill="black"/>
<path d="M67.0034 152.538V157.77C61.0994 157.77 59.2754 159.018 59.2754 163.242C60.2354 161.466 62.4914 160.218 65.2754 160.218C70.5074 160.218 74.3474 163.914 74.3474 169.002C74.3474 173.802 70.9394 177.162 66.6194 177.162C64.6514 177.162 63.6434 176.778 62.7314 176.058C63.7394 177.066 64.5074 179.082 64.5074 180.282C64.5074 185.274 61.0514 188.49 55.7714 188.49C50.4914 188.49 47.0354 185.322 47.0354 180.282C47.0354 179.082 47.8034 177.018 48.8114 176.058C47.8994 176.778 46.8914 177.162 44.9234 177.162C40.6034 177.162 37.1954 173.85 37.1954 169.002C37.1954 163.914 41.0834 160.218 46.2674 160.218C48.9554 160.218 51.3074 161.466 52.2674 163.242C52.2674 159.114 50.5394 157.77 44.5394 157.77V152.538H67.0034ZM64.7954 154.554H46.7474V155.85C53.5634 155.85 54.6194 159.018 54.6194 166.842H53.4674C52.0754 164.394 49.2434 162.762 46.2674 162.762C42.6674 162.762 39.8834 165.546 39.8834 169.002C39.8834 172.65 42.0434 174.954 45.6914 174.954C47.5154 174.954 49.0034 174.474 50.1074 173.178L51.3554 174.186C50.3474 176.01 49.7234 178.314 49.7234 180.282C49.7234 183.738 52.0274 185.802 55.7714 185.802C59.5154 185.802 61.8194 183.738 61.8194 180.282C61.8194 178.314 61.2434 176.058 60.1874 174.186L61.4354 173.178C62.5874 174.474 64.0274 174.954 65.8514 174.954C69.4514 174.954 71.6594 172.65 71.6594 169.002C71.6594 165.594 68.8754 162.762 65.2754 162.762C62.3474 162.762 59.4674 164.346 58.0754 166.842H56.9234C56.9234 158.922 57.9794 155.85 64.7954 155.85V154.554Z" fill="black"/>
<path d="M113.323 92.5734V87.3414C119.227 87.3414 121.051 86.0934 121.051 81.8694C120.091 83.6454 117.835 84.8934 115.051 84.8934C109.819 84.8934 105.979 81.1974 105.979 76.1094C105.979 71.3094 109.387 67.9494 113.707 67.9494C115.675 67.9494 116.683 68.3334 117.595 69.0534C116.587 68.0454 115.819 66.0294 115.819 64.8294C115.819 59.8374 119.275 56.6214 124.555 56.6214C129.835 56.6214 133.291 59.7894 133.291 64.8294C133.291 66.0294 132.523 68.0934 131.515 69.0534C132.427 68.3334 133.435 67.9494 135.403 67.9494C139.723 67.9494 143.131 71.2614 143.131 76.1094C143.131 81.1974 139.243 84.8934 134.059 84.8934C131.371 84.8934 129.019 83.6454 128.059 81.8694C128.059 85.9974 129.787 87.3414 135.787 87.3414V92.5734H113.323ZM115.531 90.5574H133.579V89.2614C126.763 89.2614 125.707 86.0934 125.707 78.2694H126.859C128.251 80.7174 131.083 82.3494 134.059 82.3494C137.659 82.3494 140.443 79.5654 140.443 76.1094C140.443 72.4614 138.283 70.1574 134.635 70.1574C132.811 70.1574 131.323 70.6374 130.219 71.9334L128.971 70.9254C129.979 69.1014 130.603 66.7974 130.603 64.8294C130.603 61.3734 128.299 59.3094 124.555 59.3094C120.811 59.3094 118.507 61.3734 118.507 64.8294C118.507 66.7974 119.083 69.0534 120.139 70.9254L118.891 71.9334C117.739 70.6374 116.299 70.1574 114.475 70.1574C110.875 70.1574 108.667 72.4614 108.667 76.1094C108.667 79.5174 111.451 82.3494 115.051 82.3494C117.979 82.3494 120.859 80.7654 122.251 78.2694H123.403C123.403 86.1894 122.347 89.2614 115.531 89.2614V90.5574Z" fill="black"/>
<path d="M135.003 109.538V114.77C129.099 114.77 127.275 116.018 127.275 120.242C128.235 118.466 130.491 117.218 133.275 117.218C138.507 117.218 142.347 120.914 142.347 126.002C142.347 130.802 138.939 134.162 134.619 134.162C132.651 134.162 131.643 133.778 130.731 133.058C131.739 134.066 132.507 136.082 132.507 137.282C132.507 142.274 129.051 145.49 123.771 145.49C118.491 145.49 115.035 142.322 115.035 137.282C115.035 136.082 115.803 134.018 116.811 133.058C115.899 133.778 114.891 134.162 112.923 134.162C108.603 134.162 105.195 130.85 105.195 126.002C105.195 120.914 109.083 117.218 114.267 117.218C116.955 117.218 119.307 118.466 120.267 120.242C120.267 116.114 118.539 114.77 112.539 114.77V109.538H135.003ZM132.795 111.554H114.747V112.85C121.563 112.85 122.619 116.018 122.619 123.842H121.467C120.075 121.394 117.243 119.762 114.267 119.762C110.667 119.762 107.883 122.546 107.883 126.002C107.883 129.65 110.043 131.954 113.691 131.954C115.515 131.954 117.003 131.474 118.107 130.178L119.355 131.186C118.347 133.01 117.723 135.314 117.723 137.282C117.723 140.738 120.027 142.802 123.771 142.802C127.515 142.802 129.819 140.738 129.819 137.282C129.819 135.314 129.243 133.058 128.187 131.186L129.435 130.178C130.587 131.474 132.027 131.954 133.851 131.954C137.451 131.954 139.659 129.65 139.659 126.002C139.659 122.594 136.875 119.762 133.275 119.762C130.347 119.762 127.467 121.346 126.075 123.842H124.923C124.923 115.922 125.979 112.85 132.795 112.85V111.554Z" fill="black"/>
<path d="M132.003 153.538V158.77C126.099 158.77 124.275 160.018 124.275 164.242C125.235 162.466 127.491 161.218 130.275 161.218C135.507 161.218 139.347 164.914 139.347 170.002C139.347 174.802 135.939 178.162 131.619 178.162C129.651 178.162 128.643 177.778 127.731 177.058C128.739 178.066 129.507 180.082 129.507 181.282C129.507 186.274 126.051 189.49 120.771 189.49C115.491 189.49 112.035 186.322 112.035 181.282C112.035 180.082 112.803 178.018 113.811 177.058C112.899 177.778 111.891 178.162 109.923 178.162C105.603 178.162 102.195 174.85 102.195 170.002C102.195 164.914 106.083 161.218 111.267 161.218C113.955 161.218 116.307 162.466 117.267 164.242C117.267 160.114 115.539 158.77 109.539 158.77V153.538H132.003ZM129.795 155.554H111.747V156.85C118.563 156.85 119.619 160.018 119.619 167.842H118.467C117.075 165.394 114.243 163.762 111.267 163.762C107.667 163.762 104.883 166.546 104.883 170.002C104.883 173.65 107.043 175.954 110.691 175.954C112.515 175.954 114.003 175.474 115.107 174.178L116.355 175.186C115.347 177.01 114.723 179.314 114.723 181.282C114.723 184.738 117.027 186.802 120.771 186.802C124.515 186.802 126.819 184.738 126.819 181.282C126.819 179.314 126.243 177.058 125.187 175.186L126.435 174.178C127.587 175.474 129.027 175.954 130.851 175.954C134.451 175.954 136.659 173.65 136.659 170.002C136.659 166.594 133.875 163.762 130.275 163.762C127.347 163.762 124.467 165.346 123.075 167.842H121.923C121.923 159.922 122.979 156.85 129.795 156.85V155.554Z" fill="black"/>
</svg>
