<svg width="176" height="217" viewBox="0 0 176 217" fill="none" xmlns="http://www.w3.org/2000/svg">
<path d="M170.521 0.416321C170.521 0.416321 119.752 1.64937 87.9345 1.64937C56.1171 1.64937 5.3483 0.416321 5.3483 0.416321C2.39258 0.416321 0.132324 2.42005 0.132324 5.0403V209.883C0.132324 212.503 2.56644 214.661 5.3483 214.661C5.3483 214.661 56.1171 216.202 87.9345 216.202C119.752 216.202 170.521 214.661 170.521 214.661C173.476 214.507 175.737 212.349 175.737 209.883V5.0403C175.737 2.42005 173.476 0.416321 170.521 0.416321Z" fill="white"/>
<path d="M21.2239 28.5781C21.0319 28.5781 20.8959 28.5301 20.8159 28.4341C20.7519 28.3381 20.7199 28.2021 20.7199 28.0261C20.7199 27.6741 20.7999 27.1301 20.9599 26.3941C21.1359 25.7221 21.2239 25.1701 21.2239 24.7381C21.2239 23.4901 21.1279 22.5381 20.9359 21.8821H20.1919C19.5359 21.8821 18.6799 21.8661 17.6239 21.8341L15.3679 21.8101H12.1279L12.1759 22.7461C12.1759 23.4821 12.2959 24.4021 12.5359 25.5061C12.6159 25.9541 12.6879 26.4101 12.7519 26.8741C12.8319 27.3221 12.8719 27.7301 12.8719 28.0981V28.3141C12.7119 28.4741 12.5439 28.5541 12.3679 28.5541C11.9519 28.5541 11.6239 28.0661 11.3839 27.0901C11.1439 26.0981 11.0239 24.9061 11.0239 23.5141C11.0239 22.9541 11.0479 22.4021 11.0959 21.8581C10.7439 21.8421 10.5039 21.7861 10.3759 21.6901C10.2479 21.5781 10.1839 21.4101 10.1839 21.1861C10.1839 21.0101 10.2319 20.8901 10.3279 20.8261C10.4399 20.7621 10.6319 20.7141 10.9039 20.6821L10.8799 20.0341L10.9519 18.9301C11.0639 17.1221 11.2319 15.6501 11.4559 14.5141C11.6799 13.3781 12.1599 12.3941 12.8959 11.5621C13.6319 10.7301 14.7359 10.3141 16.2079 10.3141C17.8879 10.3141 19.1999 11.2181 20.1439 13.0261C21.0879 14.8341 21.7279 16.8501 22.0639 19.0741C22.3999 21.2981 22.5679 23.2101 22.5679 24.8101C22.5679 25.3861 22.5519 25.8901 22.5199 26.3221C22.4879 26.7381 22.4239 27.2581 22.3279 27.8821C21.9599 28.3461 21.5919 28.5781 21.2239 28.5781ZM20.8399 20.9461C20.5359 17.9861 19.9919 15.6661 19.2079 13.9861C18.4239 12.2901 17.2479 11.4421 15.6799 11.4421C14.5119 11.4421 13.6479 11.9861 13.0879 13.0741C12.5439 14.1461 12.2159 15.2981 12.1039 16.5301C11.9919 17.7621 11.9359 19.1461 11.9359 20.6821L20.8399 20.9461Z" fill="black"/>
<path d="M14.1655 49.1051V46.4891C17.1175 46.4891 18.0295 45.8651 18.0295 43.7531C17.5495 44.6411 16.4215 45.2651 15.0295 45.2651C12.4135 45.2651 10.4935 43.4171 10.4935 40.8731C10.4935 38.4731 12.1975 36.7931 14.3575 36.7931C15.3415 36.7931 15.8455 36.9851 16.3015 37.3451C15.7975 36.8411 15.4135 35.8331 15.4135 35.2331C15.4135 32.7371 17.1415 31.1291 19.7815 31.1291C22.4215 31.1291 24.1495 32.7131 24.1495 35.2331C24.1495 35.8331 23.7655 36.8651 23.2615 37.3451C23.7175 36.9851 24.2215 36.7931 25.2055 36.7931C27.3655 36.7931 29.0695 38.4491 29.0695 40.8731C29.0695 43.4171 27.1255 45.2651 24.5335 45.2651C23.1895 45.2651 22.0135 44.6411 21.5335 43.7531C21.5335 45.8171 22.3975 46.4891 25.3975 46.4891V49.1051H14.1655ZM15.2695 48.0971H24.2935V47.4491C20.8855 47.4491 20.3575 45.8651 20.3575 41.9531H20.9335C21.6295 43.1771 23.0455 43.9931 24.5335 43.9931C26.3335 43.9931 27.7255 42.6011 27.7255 40.8731C27.7255 39.0491 26.6455 37.8971 24.8215 37.8971C23.9095 37.8971 23.1655 38.1371 22.6135 38.7851L21.9895 38.2811C22.4935 37.3691 22.8055 36.2171 22.8055 35.2331C22.8055 33.5051 21.6535 32.4731 19.7815 32.4731C17.9095 32.4731 16.7575 33.5051 16.7575 35.2331C16.7575 36.2171 17.0455 37.3451 17.5735 38.2811L16.9495 38.7851C16.3735 38.1371 15.6535 37.8971 14.7415 37.8971C12.9415 37.8971 11.8375 39.0491 11.8375 40.8731C11.8375 42.5771 13.2295 43.9931 15.0295 43.9931C16.4935 43.9931 17.9335 43.2011 18.6295 41.9531H19.2055C19.2055 45.9131 18.6775 47.4491 15.2695 47.4491V48.0971Z" fill="black"/>
<path d="M163.837 165.568V168.184C160.885 168.184 159.973 168.808 159.973 170.92C160.453 170.032 161.581 169.408 162.973 169.408C165.589 169.408 167.509 171.256 167.509 173.8C167.509 176.2 165.805 177.88 163.645 177.88C162.661 177.88 162.157 177.688 161.701 177.328C162.205 177.832 162.589 178.84 162.589 179.44C162.589 181.936 160.861 183.544 158.221 183.544C155.581 183.544 153.853 181.96 153.853 179.44C153.853 178.84 154.237 177.808 154.741 177.328C154.285 177.688 153.781 177.88 152.797 177.88C150.637 177.88 148.933 176.224 148.933 173.8C148.933 171.256 150.877 169.408 153.469 169.408C154.813 169.408 155.989 170.032 156.469 170.92C156.469 168.856 155.605 168.184 152.605 168.184V165.568H163.837ZM162.733 166.576H153.709V167.224C157.117 167.224 157.645 168.808 157.645 172.72H157.069C156.373 171.496 154.957 170.68 153.469 170.68C151.669 170.68 150.277 172.072 150.277 173.8C150.277 175.624 151.357 176.776 153.181 176.776C154.093 176.776 154.837 176.536 155.389 175.888L156.013 176.392C155.509 177.304 155.197 178.456 155.197 179.44C155.197 181.168 156.349 182.2 158.221 182.2C160.093 182.2 161.245 181.168 161.245 179.44C161.245 178.456 160.957 177.328 160.429 176.392L161.053 175.888C161.629 176.536 162.349 176.776 163.261 176.776C165.061 176.776 166.165 175.624 166.165 173.8C166.165 172.096 164.773 170.68 162.973 170.68C161.509 170.68 160.069 171.472 159.373 172.72H158.797C158.797 168.76 159.325 167.224 162.733 167.224V166.576Z" fill="black"/>
<path d="M63.584 145V134.536C75.392 134.536 79.04 132.04 79.04 123.592C77.12 127.144 72.608 129.64 67.04 129.64C56.576 129.64 48.896 122.248 48.896 112.072C48.896 102.472 55.712 95.752 64.352 95.752C68.288 95.752 70.304 96.52 72.128 97.96C70.112 95.944 68.576 91.912 68.576 89.512C68.576 79.528 75.488 73.096 86.048 73.096C96.608 73.096 103.52 79.432 103.52 89.512C103.52 91.912 101.984 96.04 99.968 97.96C101.792 96.52 103.808 95.752 107.744 95.752C116.384 95.752 123.2 102.376 123.2 112.072C123.2 122.248 115.424 129.64 105.056 129.64C99.68 129.64 94.976 127.144 93.056 123.592C93.056 131.848 96.512 134.536 108.512 134.536V145H63.584ZM68 140.968H104.096V138.376C90.464 138.376 88.352 132.04 88.352 116.392H90.656C93.44 121.288 99.104 124.552 105.056 124.552C112.256 124.552 117.824 118.984 117.824 112.072C117.824 104.776 113.504 100.168 106.208 100.168C102.56 100.168 99.584 101.128 97.376 103.72L94.88 101.704C96.896 98.056 98.144 93.448 98.144 89.512C98.144 82.6 93.536 78.472 86.048 78.472C78.56 78.472 73.952 82.6 73.952 89.512C73.952 93.448 75.104 97.96 77.216 101.704L74.72 103.72C72.416 101.128 69.536 100.168 65.888 100.168C58.688 100.168 54.272 104.776 54.272 112.072C54.272 118.888 59.84 124.552 67.04 124.552C72.896 124.552 78.656 121.384 81.44 116.392H83.744C83.744 132.232 81.632 138.376 68 138.376V140.968Z" fill="black"/>
<path d="M152.093 185.998C152.285 185.998 152.421 186.046 152.501 186.141C152.566 186.237 152.598 186.373 152.598 186.549C152.598 186.901 152.519 187.445 152.36 188.182C152.185 188.854 152.098 189.406 152.098 189.838C152.1 191.086 152.197 192.038 152.39 192.694L153.134 192.693C153.79 192.692 154.646 192.707 155.702 192.738L157.958 192.76L161.198 192.756L161.149 191.82C161.148 191.085 161.027 190.165 160.785 189.061C160.705 188.613 160.632 188.157 160.567 187.693C160.487 187.245 160.446 186.837 160.446 186.469L160.446 186.253C160.605 186.093 160.773 186.013 160.949 186.013C161.365 186.012 161.694 186.5 161.935 187.476C162.176 188.467 162.298 189.659 162.3 191.051C162.3 191.611 162.277 192.163 162.23 192.707C162.582 192.723 162.822 192.779 162.95 192.875C163.078 192.986 163.142 193.154 163.143 193.378C163.143 193.554 163.095 193.674 162.999 193.739C162.887 193.803 162.695 193.851 162.423 193.883L162.448 194.531L162.378 195.635C162.268 197.443 162.102 198.916 161.879 200.052C161.657 201.188 161.178 202.172 160.443 203.005C159.708 203.838 158.605 204.255 157.133 204.257C155.453 204.258 154.14 203.356 153.193 201.549C152.247 199.742 151.604 197.726 151.265 195.503C150.927 193.279 150.756 191.367 150.754 189.767C150.753 189.191 150.769 188.687 150.8 188.255C150.832 187.839 150.895 187.319 150.99 186.695C151.358 186.231 151.725 185.998 152.093 185.998ZM152.487 193.629C152.795 196.589 153.342 198.909 154.128 200.588C154.914 202.283 156.091 203.13 157.659 203.128C158.827 203.127 159.691 202.582 160.249 201.493C160.792 200.421 161.118 199.269 161.229 198.036C161.339 196.804 161.393 195.42 161.391 193.884L152.487 193.629Z" fill="black"/>
</svg>
