<svg width="177" height="217" viewBox="0 0 177 217" fill="none" xmlns="http://www.w3.org/2000/svg">
<path d="M171.322 0.598969C171.322 0.598969 120.553 1.83202 88.7358 1.83202C56.9184 1.83202 6.14957 0.598969 6.14957 0.598969C3.19385 0.598969 0.933594 2.60269 0.933594 5.22295V210.065C0.933594 212.685 3.36771 214.843 6.14957 214.843C6.14957 214.843 56.9184 216.385 88.7358 216.385C120.553 216.385 171.322 214.843 171.322 214.843C174.278 214.689 176.538 212.531 176.538 210.065V5.22295C176.538 2.60269 174.278 0.598969 171.322 0.598969Z" fill="white"/>
<path d="M16.6732 28.7607C14.4652 28.7447 12.8492 28.2487 11.8252 27.2727C10.8012 26.2967 10.2892 25.0407 10.2892 23.5047C10.2892 22.1287 10.6652 21.4407 11.4172 21.4407C11.5612 21.5047 11.6332 21.5767 11.6332 21.6567C11.6332 21.7207 11.6012 21.8087 11.5372 21.9207C11.4892 22.0327 11.4492 22.1367 11.4172 22.2327C11.3372 22.5207 11.2972 22.7927 11.2972 23.0487C11.2972 23.7527 11.5372 24.4407 12.0172 25.1127C12.4972 25.7847 13.1452 26.3367 13.9612 26.7687C14.7772 27.1847 15.6492 27.3927 16.5772 27.3927C17.2652 27.3927 17.8012 27.0887 18.1852 26.4807C18.5852 25.8727 18.7852 24.9367 18.7852 23.6727C18.7852 22.9047 18.7212 22.1127 18.5932 21.2967L17.2972 12.5127C17.4732 12.2727 17.6252 12.1527 17.7532 12.1527C18.1532 12.1527 18.4972 12.8727 18.7852 14.3127C19.0732 15.7367 19.4092 17.9367 19.7932 20.9127L19.8892 21.7047C20.0012 22.6327 20.0572 23.3607 20.0572 23.8887C20.0572 25.4727 19.7692 26.6807 19.1932 27.5127C18.6172 28.3447 17.7772 28.7607 16.6732 28.7607Z" fill="black"/>
<path d="M14.9668 50.2878V47.6718C17.9188 47.6718 18.8308 47.0478 18.8308 44.9358C18.3508 45.8238 17.2228 46.4478 15.8308 46.4478C13.2148 46.4478 11.2948 44.5998 11.2948 42.0558C11.2948 39.6558 12.9988 37.9758 15.1588 37.9758C16.1428 37.9758 16.6468 38.1678 17.1028 38.5278C16.5988 38.0238 16.2148 37.0158 16.2148 36.4158C16.2148 33.9198 17.9428 32.3118 20.5828 32.3118C23.2228 32.3118 24.9508 33.8958 24.9508 36.4158C24.9508 37.0158 24.5668 38.0478 24.0628 38.5278C24.5188 38.1678 25.0228 37.9758 26.0068 37.9758C28.1668 37.9758 29.8708 39.6318 29.8708 42.0558C29.8708 44.5998 27.9268 46.4478 25.3348 46.4478C23.9908 46.4478 22.8148 45.8238 22.3348 44.9358C22.3348 46.9998 23.1988 47.6718 26.1988 47.6718V50.2878H14.9668ZM16.0708 49.2798H25.0948V48.6318C21.6868 48.6318 21.1588 47.0478 21.1588 43.1358H21.7348C22.4308 44.3598 23.8468 45.1758 25.3348 45.1758C27.1348 45.1758 28.5268 43.7838 28.5268 42.0558C28.5268 40.2318 27.4468 39.0798 25.6228 39.0798C24.7108 39.0798 23.9668 39.3198 23.4148 39.9678L22.7908 39.4638C23.2948 38.5518 23.6068 37.3998 23.6068 36.4158C23.6068 34.6878 22.4548 33.6558 20.5828 33.6558C18.7108 33.6558 17.5588 34.6878 17.5588 36.4158C17.5588 37.3998 17.8468 38.5278 18.3748 39.4638L17.7508 39.9678C17.1748 39.3198 16.4548 39.0798 15.5428 39.0798C13.7428 39.0798 12.6388 40.2318 12.6388 42.0558C12.6388 43.7598 14.0308 45.1758 15.8308 45.1758C17.2948 45.1758 18.7348 44.3838 19.4308 43.1358H20.0068C20.0068 47.0958 19.4788 48.6318 16.0708 48.6318V49.2798Z" fill="black"/>
<path d="M166.638 164.751V167.367C163.686 167.367 162.774 167.991 162.774 170.103C163.254 169.215 164.382 168.591 165.774 168.591C168.39 168.591 170.31 170.439 170.31 172.983C170.31 175.383 168.606 177.063 166.446 177.063C165.462 177.063 164.958 176.871 164.502 176.511C165.006 177.015 165.39 178.023 165.39 178.623C165.39 181.119 163.662 182.727 161.022 182.727C158.382 182.727 156.654 181.143 156.654 178.623C156.654 178.023 157.038 176.991 157.542 176.511C157.086 176.871 156.582 177.063 155.598 177.063C153.438 177.063 151.734 175.407 151.734 172.983C151.734 170.439 153.678 168.591 156.27 168.591C157.614 168.591 158.79 169.215 159.27 170.103C159.27 168.039 158.406 167.367 155.406 167.367V164.751H166.638ZM165.534 165.759H156.51V166.407C159.918 166.407 160.446 167.991 160.446 171.903H159.87C159.174 170.679 157.758 169.863 156.27 169.863C154.47 169.863 153.078 171.255 153.078 172.983C153.078 174.807 154.158 175.959 155.982 175.959C156.894 175.959 157.638 175.719 158.19 175.071L158.814 175.575C158.31 176.487 157.998 177.639 157.998 178.623C157.998 180.351 159.15 181.383 161.022 181.383C162.894 181.383 164.046 180.351 164.046 178.623C164.046 177.639 163.758 176.511 163.23 175.575L163.854 175.071C164.43 175.719 165.15 175.959 166.062 175.959C167.862 175.959 168.966 174.807 168.966 172.983C168.966 171.279 167.574 169.863 165.774 169.863C164.31 169.863 162.87 170.655 162.174 171.903H161.598C161.598 167.943 162.126 166.407 165.534 166.407V165.759Z" fill="black"/>
<path d="M158.247 186.175C160.455 186.189 162.071 186.683 163.096 187.658C164.122 188.633 164.635 189.888 164.637 191.424C164.639 192.8 164.264 193.489 163.512 193.49C163.368 193.426 163.296 193.354 163.296 193.274C163.296 193.21 163.327 193.122 163.391 193.01C163.439 192.898 163.479 192.794 163.511 192.698C163.591 192.409 163.63 192.137 163.63 191.881C163.629 191.177 163.388 190.49 162.907 189.818C162.426 189.147 161.778 188.595 160.961 188.164C160.145 187.749 159.272 187.542 158.344 187.543C157.656 187.544 157.121 187.848 156.737 188.457C156.338 189.065 156.139 190.001 156.141 191.265C156.142 192.033 156.207 192.825 156.336 193.641L157.643 202.424C157.468 202.664 157.316 202.784 157.188 202.784C156.788 202.785 156.443 202.065 156.153 200.625C155.863 199.201 155.524 197.002 155.137 194.026L155.04 193.234C154.926 192.306 154.869 191.579 154.869 191.051C154.867 189.467 155.153 188.258 155.728 187.426C156.303 186.593 157.143 186.176 158.247 186.175Z" fill="black"/>
</svg>
