<svg width="182" height="231" viewBox="0 0 182 231" fill="none" xmlns="http://www.w3.org/2000/svg">
<path d="M170.388 15C170.388 15 119.62 16.2331 87.8022 16.2331C55.9848 16.2331 5.21597 15 5.21597 15C2.26025 15 0 17.0037 0 19.624V224.466C0 227.087 2.43412 229.244 5.21597 229.244C5.21597 229.244 55.9848 230.786 87.8022 230.786C119.62 230.786 170.388 229.244 170.388 229.244C173.344 229.09 175.604 226.932 175.604 224.466V19.624C175.604 17.0037 173.344 15 170.388 15Z" fill="white"/>
<path d="M13.8195 44.1217C13.6595 44.1217 13.5235 44.0897 13.4115 44.0257C13.2995 43.9617 13.1315 43.8337 12.9075 43.6417L13.1235 42.3697C13.4115 40.5937 13.6355 39.1137 13.7955 37.9297C13.9555 36.7297 14.0675 35.4977 14.1315 34.2337C13.5875 34.7137 12.8515 35.4977 11.9235 36.5857C11.3795 37.2257 10.9555 37.6977 10.6515 38.0017C10.3635 38.2897 10.1395 38.4337 9.9795 38.4337C9.8515 38.4177 9.7315 38.3457 9.6195 38.2177C9.5235 38.0737 9.4755 37.9057 9.4755 37.7137C9.4755 37.4897 9.5555 37.2897 9.7155 37.1137L13.9395 32.6017C14.0835 32.4417 14.1955 32.2257 14.2755 31.9537C14.3555 31.6817 14.4355 31.3057 14.5155 30.8257C14.6115 30.2177 14.7235 29.7617 14.8515 29.4577C14.9795 29.1377 15.1875 28.9777 15.4755 28.9777C15.6035 28.9777 15.6995 28.9937 15.7635 29.0257C15.8275 29.0417 15.8835 29.0977 15.9315 29.1937L15.9555 29.9857C15.9555 30.2737 15.8115 31.6737 15.5235 34.1857C15.2515 36.6817 14.9555 38.9617 14.6355 41.0257C14.3155 43.0897 14.0435 44.1217 13.8195 44.1217ZM22.0601 43.1617C21.0841 43.1617 20.2041 42.9617 19.4201 42.5617C18.6521 42.1457 18.0441 41.5457 17.5961 40.7617C17.1641 39.9617 16.9481 39.0097 16.9481 37.9057C16.9481 36.9937 17.1881 36.1457 17.6681 35.3617C18.1481 34.5617 18.7641 33.9297 19.5161 33.4657C20.2681 33.0017 21.0281 32.7697 21.7961 32.7697C22.5001 32.7697 23.1881 33.0337 23.8601 33.5617C24.5481 34.0897 25.1081 34.7697 25.5401 35.6017C25.9721 36.4337 26.1881 37.2897 26.1881 38.1697C26.1881 39.6417 25.8281 40.8417 25.1081 41.7697C24.4041 42.6977 23.3881 43.1617 22.0601 43.1617ZM21.7001 41.7937C23.7961 41.7937 24.8441 40.6577 24.8441 38.3857C24.8441 37.6497 24.7161 36.9537 24.4601 36.2977C24.2041 35.6417 23.8281 35.1137 23.3321 34.7137C22.8521 34.3137 22.2921 34.1137 21.6521 34.1137C20.6761 34.1137 19.8601 34.4337 19.2041 35.0737C18.5641 35.7137 18.1801 36.6017 18.0521 37.7377C18.0361 37.8657 18.0281 38.0497 18.0281 38.2897C18.0281 39.3937 18.3721 40.2577 19.0601 40.8817C19.7641 41.4897 20.6441 41.7937 21.7001 41.7937Z" fill="black"/>
<path d="M17.0005 50.2278C17.688 51.431 18.5396 52.7083 19.5552 54.0599C20.7271 55.6224 21.6724 56.806 22.3911 57.6106C21.813 58.22 20.8677 59.3997 19.5552 61.1497C18.4927 62.5716 17.6411 63.845 17.0005 64.97C16.7896 64.5638 16.5005 64.0911 16.1333 63.552C15.5005 62.6145 14.7153 61.5247 13.7778 60.2825C13.5747 60.0091 12.8599 59.1185 11.6333 57.6106C12.4224 56.7122 13.438 55.431 14.6802 53.7669C15.6021 52.5325 16.3755 51.3528 17.0005 50.2278Z" fill="black"/>
<path d="M154.058 179.699C154.745 180.902 155.597 182.18 156.612 183.531C157.784 185.094 158.729 186.277 159.448 187.082C158.87 187.691 157.925 188.871 156.612 190.621C155.55 192.043 154.698 193.316 154.058 194.441C153.847 194.035 153.558 193.562 153.19 193.023C152.558 192.086 151.772 190.996 150.835 189.754C150.632 189.48 149.917 188.59 148.69 187.082C149.479 186.184 150.495 184.902 151.737 183.238C152.659 182.004 153.433 180.824 154.058 179.699Z" fill="black"/>
<path d="M159.232 199.614C159.392 199.614 159.528 199.646 159.64 199.71C159.752 199.773 159.92 199.901 160.144 200.093L159.93 201.365C159.644 203.142 159.422 204.622 159.264 205.806C159.105 207.006 158.995 208.238 158.932 209.502C159.476 209.022 160.211 208.237 161.137 207.148C161.68 206.507 162.104 206.035 162.407 205.731C162.695 205.442 162.919 205.298 163.079 205.298C163.207 205.314 163.327 205.386 163.439 205.514C163.535 205.658 163.584 205.825 163.584 206.017C163.584 206.241 163.504 206.442 163.345 206.618L159.126 211.134C158.983 211.294 158.871 211.51 158.791 211.782C158.712 212.055 158.632 212.431 158.553 212.911C158.457 213.519 158.346 213.975 158.218 214.279C158.091 214.599 157.883 214.759 157.595 214.76C157.467 214.76 157.371 214.744 157.307 214.712C157.243 214.696 157.187 214.64 157.139 214.544L157.114 213.752C157.113 213.464 157.256 212.064 157.54 209.552C157.809 207.055 158.102 204.775 158.42 202.711C158.737 200.647 159.008 199.614 159.232 199.614ZM150.992 200.583C151.968 200.582 152.848 200.781 153.633 201.18C154.401 201.595 155.01 202.194 155.459 202.978C155.892 203.777 156.11 204.729 156.111 205.833C156.112 206.745 155.873 207.594 155.394 208.378C154.915 209.179 154.3 209.811 153.549 210.276C152.797 210.741 152.038 210.973 151.27 210.974C150.566 210.975 149.877 210.712 149.205 210.184C148.516 209.657 147.955 208.978 147.522 208.146C147.089 207.315 146.872 206.459 146.871 205.579C146.869 204.107 147.227 202.906 147.946 201.978C148.649 201.049 149.664 200.584 150.992 200.583ZM151.354 201.95C149.258 201.952 148.211 203.089 148.214 205.361C148.215 206.097 148.344 206.793 148.601 207.449C148.858 208.105 149.235 208.632 149.731 209.032C150.212 209.431 150.772 209.631 151.412 209.63C152.388 209.629 153.203 209.308 153.859 208.668C154.498 208.027 154.881 207.139 155.007 206.002C155.023 205.874 155.031 205.69 155.03 205.45C155.029 204.346 154.684 203.483 153.995 202.859C153.29 202.252 152.41 201.949 151.354 201.95Z" fill="black"/>
<path d="M120.5 27.0109C122.333 30.2193 124.604 33.6255 127.313 37.2297C130.438 41.3963 132.958 44.5526 134.875 46.6984C133.333 48.3234 130.813 51.4693 127.313 56.1359C124.479 59.9276 122.208 63.3234 120.5 66.3234C119.938 65.2401 119.167 63.9797 118.188 62.5422C116.5 60.0422 114.406 57.1359 111.906 53.8234C111.365 53.0943 109.458 50.7193 106.188 46.6984C108.292 44.3026 111 40.8859 114.313 36.4484C116.771 33.1568 118.833 30.0109 120.5 27.0109Z" fill="black"/>
<path d="M121.5 67.0109C123.333 70.2193 125.604 73.6255 128.313 77.2297C131.438 81.3963 133.958 84.5526 135.875 86.6984C134.333 88.3234 131.813 91.4693 128.313 96.1359C125.479 99.9276 123.208 103.323 121.5 106.323C120.938 105.24 120.167 103.98 119.188 102.542C117.5 100.042 115.406 97.1359 112.906 93.8234C112.365 93.0943 110.458 90.7193 107.188 86.6984C109.292 84.3026 112 80.8859 115.313 76.4484C117.771 73.1568 119.833 70.0109 121.5 67.0109Z" fill="black"/>
<path d="M120.5 114.011C122.333 117.219 124.604 120.626 127.313 124.23C130.438 128.396 132.958 131.553 134.875 133.698C133.333 135.323 130.813 138.469 127.313 143.136C124.479 146.928 122.208 150.323 120.5 153.323C119.938 152.24 119.167 150.98 118.188 149.542C116.5 147.042 114.406 144.136 111.906 140.823C111.365 140.094 109.458 137.719 106.188 133.698C108.292 131.303 111 127.886 114.313 123.448C116.771 120.157 118.833 117.011 120.5 114.011Z" fill="black"/>
<path d="M120.5 161.011C122.333 164.219 124.604 167.626 127.313 171.23C130.438 175.396 132.958 178.553 134.875 180.698C133.333 182.323 130.813 185.469 127.313 190.136C124.479 193.928 122.208 197.323 120.5 200.323C119.938 199.24 119.167 197.98 118.188 196.542C116.5 194.042 114.406 191.136 111.906 187.823C111.365 187.094 109.458 184.719 106.188 180.698C108.292 178.303 111 174.886 114.313 170.448C116.771 167.157 118.833 164.011 120.5 161.011Z" fill="black"/>
<path d="M58.5001 29.0109C60.3335 32.2193 62.6043 35.6255 65.3126 39.2297C68.4376 43.3963 70.9585 46.5526 72.8751 48.6984C71.3335 50.3234 68.8126 53.4693 65.3126 58.1359C62.4793 61.9276 60.2085 65.3234 58.5001 68.3234C57.9376 67.2401 57.1668 65.9797 56.1876 64.5422C54.5001 62.0422 52.4064 59.1359 49.9064 55.8234C49.3647 55.0943 47.4585 52.7193 44.1876 48.6984C46.2918 46.3026 49.0001 42.8859 52.3126 38.4484C54.771 35.1568 56.8335 32.0109 58.5001 29.0109Z" fill="black"/>
<path d="M88.5001 49.0109C90.3335 52.2193 92.6043 55.6255 95.3126 59.2297C98.4376 63.3963 100.958 66.5526 102.875 68.6984C101.333 70.3234 98.8126 73.4693 95.3126 78.1359C92.4793 81.9276 90.2085 85.3234 88.5001 88.3234C87.9376 87.2401 87.1668 85.9797 86.1876 84.5422C84.5001 82.0422 82.4064 79.1359 79.9064 75.8234C79.3647 75.0943 77.4585 72.7193 74.1876 68.6984C76.2918 66.3026 79.0001 62.8859 82.3126 58.4484C84.771 55.1568 86.8335 52.0109 88.5001 49.0109Z" fill="black"/>
<path d="M59.5001 70.0109C61.3335 73.2193 63.6043 76.6255 66.3126 80.2297C69.4376 84.3963 71.9585 87.5526 73.8751 89.6984C72.3335 91.3234 69.8126 94.4693 66.3126 99.1359C63.4793 102.928 61.2085 106.323 59.5001 109.323C58.9376 108.24 58.1668 106.98 57.1876 105.542C55.5001 103.042 53.4064 100.136 50.9064 96.8234C50.3647 96.0943 48.4585 93.7193 45.1876 89.6984C47.2918 87.3026 50.0001 83.8859 53.3126 79.4484C55.771 76.1568 57.8335 73.0109 59.5001 70.0109Z" fill="black"/>
<path d="M90.5001 140.011C92.3335 143.219 94.6043 146.626 97.3126 150.23C100.438 154.396 102.958 157.553 104.875 159.698C103.333 161.323 100.813 164.469 97.3126 169.136C94.4793 172.928 92.2085 176.323 90.5001 179.323C89.9376 178.24 89.1668 176.98 88.1876 175.542C86.5001 173.042 84.4064 170.136 81.9064 166.823C81.3647 166.094 79.4585 163.719 76.1876 159.698C78.2918 157.303 81.0001 153.886 84.3126 149.448C86.771 146.157 88.8335 143.011 90.5001 140.011Z" fill="black"/>
<path d="M58.5001 113.011C60.3335 116.219 62.6043 119.626 65.3126 123.23C68.4376 127.396 70.9585 130.553 72.8751 132.698C71.3335 134.323 68.8126 137.469 65.3126 142.136C62.4793 145.928 60.2085 149.323 58.5001 152.323C57.9376 151.24 57.1668 149.98 56.1876 148.542C54.5001 146.042 52.4064 143.136 49.9064 139.823C49.3647 139.094 47.4585 136.719 44.1876 132.698C46.2918 130.303 49.0001 126.886 52.3126 122.448C54.771 119.157 56.8335 116.011 58.5001 113.011Z" fill="black"/>
<path d="M58.5001 162.011C60.3335 165.219 62.6043 168.626 65.3126 172.23C68.4376 176.396 70.9585 179.553 72.8751 181.698C71.3335 183.323 68.8126 186.469 65.3126 191.136C62.4793 194.928 60.2085 198.323 58.5001 201.323C57.9376 200.24 57.1668 198.98 56.1876 197.542C54.5001 195.042 52.4064 192.136 49.9064 188.823C49.3647 188.094 47.4585 185.719 44.1876 181.698C46.2918 179.303 49.0001 175.886 52.3126 171.448C54.771 168.157 56.8335 165.011 58.5001 162.011Z" fill="black"/>
</svg>
