<svg width="183" height="243" viewBox="0 0 183 243" fill="none" xmlns="http://www.w3.org/2000/svg">
<path d="M170.919 26.5459C170.919 26.5459 120.15 27.779 88.3329 27.779C56.5155 27.779 5.74667 26.5459 5.74667 26.5459C2.79096 26.5459 0.530701 28.5496 0.530701 31.1699V236.012C0.530701 238.632 2.96482 240.79 5.74667 240.79C5.74667 240.79 56.5155 242.332 88.3329 242.332C120.15 242.332 170.919 240.79 170.919 240.79C173.875 240.636 176.135 238.478 176.135 236.012V31.1699C176.135 28.5496 173.875 26.5459 170.919 26.5459Z" fill="white"/>
<path d="M19.9422 54.6837C19.6382 54.6837 19.3102 54.6517 18.9582 54.5877C18.6222 54.5077 18.2862 54.4277 17.9502 54.3477C17.1182 54.1077 16.4462 53.9877 15.9342 53.9877C15.4542 53.9877 14.9182 54.0277 14.3262 54.1077C13.4462 54.1877 12.8942 54.2277 12.6702 54.2277C11.7102 54.2277 10.9742 54.0517 10.4622 53.6997C9.96617 53.3477 9.68617 52.8437 9.62217 52.1877C9.59017 51.7877 9.70217 51.5077 9.95817 51.3477C10.2142 51.1717 10.6222 51.0837 11.1822 51.0837C11.5022 51.0837 11.7982 51.1317 12.0702 51.2277C12.3582 51.3077 12.7262 51.4357 13.1742 51.6117C13.6222 51.8037 14.0222 51.9477 14.3742 52.0437C14.7262 52.1397 15.1022 52.1877 15.5022 52.1877C15.9342 52.1877 16.3742 51.9157 16.8222 51.3717C17.2862 50.8277 17.6622 50.1157 17.9502 49.2357C18.2542 48.3557 18.4062 47.4357 18.4062 46.4757C18.4062 45.2917 18.2382 44.3797 17.9022 43.7397C17.5822 43.0837 16.9742 42.7557 16.0782 42.7557C14.3822 42.7557 13.1582 43.7397 12.4062 45.7077C12.1182 45.5957 11.9102 45.4517 11.7822 45.2757C11.6702 45.0837 11.6142 44.8277 11.6142 44.5077C11.6142 44.0437 11.7902 43.5957 12.1422 43.1637C12.5102 42.7157 13.0222 42.3557 13.6782 42.0837C14.3502 41.7957 15.1262 41.6517 16.0062 41.6517C17.2702 41.6517 18.2142 42.0837 18.8382 42.9477C19.4782 43.8117 19.7982 44.9477 19.7982 46.3557C19.7982 47.7637 19.5022 49.0357 18.9102 50.1717C18.3342 51.2917 17.6302 52.1797 16.7982 52.8357C17.1982 52.9957 17.5822 53.0997 17.9502 53.1477C18.3342 53.1957 18.7502 53.2197 19.1982 53.2197C19.7422 53.2357 20.1182 53.2917 20.3262 53.3877C20.5502 53.4677 20.6622 53.6757 20.6622 54.0117C20.6622 54.1557 20.5902 54.3077 20.4462 54.4677C20.3022 54.6117 20.1342 54.6837 19.9422 54.6837Z" fill="black"/>
<path d="M17.5311 61.7738C18.2186 62.9769 19.0702 64.2542 20.0858 65.6058C21.2577 67.1683 22.203 68.3519 22.9218 69.1566C22.3436 69.7659 21.3983 70.9456 20.0858 72.6956C19.0233 74.1175 18.1718 75.3909 17.5311 76.5159C17.3202 76.1097 17.0311 75.637 16.6639 75.098C16.0311 74.1605 15.246 73.0706 14.3085 71.8284C14.1053 71.555 13.3905 70.6644 12.1639 69.1566C12.953 68.2581 13.9686 66.9769 15.2108 65.3128C16.1327 64.0784 16.9061 62.8988 17.5311 61.7738Z" fill="black"/>
<path d="M154.588 191.245C155.276 192.448 156.127 193.726 157.143 195.077C158.315 196.64 159.26 197.823 159.979 198.628C159.401 199.237 158.455 200.417 157.143 202.167C156.08 203.589 155.229 204.862 154.588 205.987C154.377 205.581 154.088 205.108 153.721 204.569C153.088 203.632 152.303 202.542 151.366 201.3C151.162 201.026 150.448 200.136 149.221 198.628C150.01 197.73 151.026 196.448 152.268 194.784C153.19 193.55 153.963 192.37 154.588 191.245Z" fill="black"/>
<path d="M85.6646 39.5838C88.4146 44.3963 91.8208 49.5057 95.8833 54.9119C100.571 61.1619 104.352 65.8963 107.227 69.1151C104.915 71.5526 101.133 76.2713 95.8833 83.2713C91.6333 88.9588 88.2271 94.0526 85.6646 98.5526C84.8208 96.9276 83.6646 95.0369 82.1958 92.8807C79.6646 89.1307 76.5239 84.7713 72.7739 79.8026C71.9614 78.7088 69.1021 75.1463 64.1958 69.1151C67.3521 65.5213 71.4146 60.3963 76.3833 53.7401C80.0708 48.8026 83.1646 44.0838 85.6646 39.5838Z" fill="black"/>
<path d="M85.6646 159.584C88.4146 164.396 91.8208 169.506 95.8833 174.912C100.571 181.162 104.352 185.896 107.227 189.115C104.915 191.553 101.133 196.271 95.8833 203.271C91.6333 208.959 88.2271 214.053 85.6646 218.553C84.8208 216.928 83.6646 215.037 82.1958 212.881C79.6646 209.131 76.5239 204.771 72.7739 199.803C71.9614 198.709 69.1021 195.146 64.1958 189.115C67.3521 185.521 71.4146 180.396 76.3833 173.74C80.0708 168.803 83.1646 164.084 85.6646 159.584Z" fill="black"/>
<path d="M154.171 212.15C154.475 212.149 154.804 212.181 155.156 212.245C155.492 212.324 155.828 212.404 156.164 212.484C156.996 212.723 157.668 212.842 158.18 212.842C158.66 212.841 159.196 212.801 159.788 212.72C160.668 212.639 161.22 212.598 161.444 212.598C162.404 212.597 163.14 212.772 163.653 213.124C164.149 213.475 164.43 213.979 164.495 214.635C164.527 215.035 164.416 215.315 164.16 215.475C163.904 215.652 163.496 215.74 162.936 215.741C162.616 215.741 162.32 215.693 162.048 215.598C161.76 215.518 161.392 215.39 160.943 215.215C160.495 215.023 160.095 214.88 159.743 214.784C159.391 214.688 159.015 214.641 158.615 214.641C158.183 214.642 157.743 214.914 157.296 215.459C156.832 216.003 156.457 216.715 156.17 217.596C155.868 218.476 155.717 219.396 155.718 220.356C155.72 221.54 155.889 222.452 156.226 223.092C156.546 223.747 157.155 224.075 158.051 224.074C159.747 224.072 160.97 223.087 161.719 221.118C162.007 221.23 162.215 221.373 162.344 221.549C162.456 221.741 162.512 221.997 162.513 222.317C162.513 222.781 162.338 223.229 161.986 223.662C161.619 224.11 161.107 224.471 160.452 224.743C159.78 225.032 159.004 225.177 158.124 225.178C156.86 225.179 155.916 224.748 155.291 223.885C154.649 223.021 154.328 221.886 154.326 220.478C154.324 219.07 154.619 217.797 155.209 216.661C155.784 215.54 156.487 214.651 157.318 213.994C156.918 213.835 156.534 213.731 156.165 213.684C155.781 213.636 155.365 213.613 154.917 213.613C154.373 213.598 153.997 213.542 153.789 213.446C153.565 213.366 153.453 213.159 153.452 212.823C153.452 212.679 153.524 212.526 153.668 212.366C153.812 212.222 153.979 212.15 154.171 212.15Z" fill="black"/>
</svg>
