<svg width="183" height="246" viewBox="0 0 183 246" fill="none" xmlns="http://www.w3.org/2000/svg">
<path d="M171.318 29.7663C171.318 29.7663 120.549 30.9994 88.7315 30.9994C56.914 30.9994 6.14523 29.7663 6.14523 29.7663C3.18951 29.7663 0.92926 31.7701 0.92926 34.3903V239.233C0.92926 241.853 3.36338 244.011 6.14523 244.011C6.14523 244.011 56.914 245.552 88.7315 245.552C120.549 245.552 171.318 244.011 171.318 244.011C174.273 243.857 176.534 241.699 176.534 239.233V34.3903C176.534 31.7701 174.273 29.7663 171.318 29.7663Z" fill="white"/>
<path d="M15.5408 57.9281C14.8688 57.8801 14.3328 57.8161 13.9328 57.7361C13.5328 57.6561 13.0208 57.4481 12.3968 57.1121C11.7728 56.7601 10.9808 56.2081 10.0208 55.4561V55.2641C10.0208 54.9761 10.0928 54.7521 10.2368 54.5921C10.3808 54.4161 10.5888 54.3281 10.8608 54.3281C10.9088 54.3281 10.9968 54.3921 11.1248 54.5201C11.2688 54.6321 11.3568 54.7041 11.3888 54.7361C11.9168 55.2481 12.4848 55.6801 13.0928 56.0321C13.7008 56.3841 14.4448 56.5601 15.3248 56.5601C15.8848 56.5601 16.3728 56.3761 16.7888 56.0081C17.2208 55.6401 17.4368 55.1041 17.4368 54.4001C17.4368 53.4081 17.0448 52.6641 16.2608 52.1681C15.4928 51.6561 14.3648 51.4161 12.8768 51.4481C12.7808 51.2721 12.7328 51.0881 12.7328 50.8961C12.7328 50.7361 12.7568 50.6001 12.8048 50.4881C12.8528 50.3601 12.9168 50.2801 12.9968 50.2481C14.0688 50.1521 14.8848 49.8721 15.4448 49.4081C16.0208 48.9441 16.3088 48.3201 16.3088 47.5361C16.3088 47.0561 16.0288 46.6721 15.4688 46.3841C14.9248 46.0801 14.1968 45.9281 13.2848 45.9281C12.6288 45.9281 12.1408 46.0081 11.8208 46.1681C11.5168 46.3121 11.3648 46.5441 11.3648 46.8641V47.3921C11.0768 47.3921 10.8448 47.3281 10.6688 47.2001C10.5088 47.0561 10.4288 46.8481 10.4288 46.5761C10.4288 45.9841 10.6768 45.5201 11.1728 45.1841C11.6688 44.8321 12.3968 44.6561 13.3568 44.6561C14.6208 44.6561 15.6128 44.9281 16.3328 45.4721C17.0688 46.0001 17.4368 46.7761 17.4368 47.8001C17.4368 48.6481 17.1968 49.2881 16.7168 49.7201C16.2528 50.1361 15.5488 50.4561 14.6048 50.6801C15.9968 50.8561 17.0368 51.2401 17.7248 51.8321C18.4288 52.4081 18.7808 53.2161 18.7808 54.2561C18.7808 55.0721 18.6208 55.7601 18.3008 56.3201C17.9808 56.8641 17.5728 57.2721 17.0768 57.5441C16.5808 57.8001 16.0688 57.9281 15.5408 57.9281Z" fill="black"/>
<path d="M17.9297 64.9942C18.6172 66.1973 19.4688 67.4746 20.4844 68.8262C21.6562 70.3887 22.6016 71.5723 23.3203 72.377C22.7422 72.9864 21.7969 74.166 20.4844 75.916C19.4219 77.3379 18.5703 78.6114 17.9297 79.7364C17.7188 79.3301 17.4297 78.8575 17.0625 78.3184C16.4297 77.3809 15.6445 76.291 14.707 75.0489C14.5039 74.7754 13.7891 73.8848 12.5625 72.377C13.3516 71.4785 14.3672 70.1973 15.6094 68.5332C16.5312 67.2989 17.3047 66.1192 17.9297 64.9942Z" fill="black"/>
<path d="M154.987 194.466C155.674 195.669 156.526 196.946 157.542 198.298C158.713 199.86 159.659 201.044 160.377 201.848C159.799 202.458 158.854 203.637 157.542 205.387C156.479 206.809 155.627 208.083 154.987 209.208C154.776 208.801 154.487 208.329 154.12 207.79C153.487 206.852 152.702 205.762 151.764 204.52C151.561 204.247 150.846 203.356 149.62 201.848C150.409 200.95 151.424 199.669 152.667 198.005C153.588 196.77 154.362 195.591 154.987 194.466Z" fill="black"/>
<path d="M86.0631 101.804C88.8131 106.617 92.2194 111.726 96.2819 117.132C100.969 123.382 104.751 128.117 107.626 131.335C105.313 133.773 101.532 138.492 96.2819 145.492C92.0319 151.179 88.6256 156.273 86.0631 160.773C85.2194 159.148 84.0631 157.257 82.5944 155.101C80.0631 151.351 76.9225 146.992 73.1725 142.023C72.36 140.929 69.5006 137.367 64.5944 131.335C67.7506 127.742 71.8131 122.617 76.7819 115.96C80.4694 111.023 83.5631 106.304 86.0631 101.804Z" fill="black"/>
<path d="M86.0631 171.804C88.8131 176.617 92.2194 181.726 96.2819 187.132C100.969 193.382 104.751 198.117 107.626 201.335C105.313 203.773 101.532 208.492 96.2819 215.492C92.0319 221.179 88.6256 226.273 86.0631 230.773C85.2194 229.148 84.0631 227.257 82.5944 225.101C80.0631 221.351 76.9225 216.992 73.1725 212.023C72.36 210.929 69.5006 207.367 64.5944 201.335C67.7506 197.742 71.8131 192.617 76.7819 185.96C80.4694 181.023 83.5631 176.304 86.0631 171.804Z" fill="black"/>
<path d="M86.0631 39.8042C88.8131 44.6167 92.2194 49.7261 96.2819 55.1323C100.969 61.3823 104.751 66.1167 107.626 69.3355C105.313 71.773 101.532 76.4917 96.2819 83.4917C92.0319 89.1792 88.6256 94.273 86.0631 98.773C85.2194 97.148 84.0631 95.2573 82.5944 93.1011C80.0631 89.3511 76.9225 84.9917 73.1725 80.023C72.36 78.9292 69.5006 75.3667 64.5944 69.3355C67.7506 65.7417 71.8131 60.6167 76.7819 53.9605C80.4694 49.023 83.5631 44.3042 86.0631 39.8042Z" fill="black"/>
<path d="M159.37 215.341C160.042 215.388 160.578 215.452 160.978 215.532C161.378 215.611 161.891 215.819 162.515 216.154C163.14 216.505 163.932 217.056 164.893 217.807L164.893 217.999C164.894 218.287 164.822 218.512 164.678 218.672C164.535 218.848 164.327 218.936 164.055 218.936C164.007 218.936 163.919 218.872 163.79 218.745C163.646 218.633 163.558 218.561 163.526 218.529C162.998 218.017 162.429 217.586 161.821 217.235C161.212 216.883 160.468 216.708 159.588 216.709C159.028 216.71 158.54 216.894 158.125 217.262C157.693 217.631 157.478 218.167 157.479 218.871C157.48 219.863 157.873 220.607 158.657 221.102C159.426 221.613 160.554 221.852 162.042 221.818C162.139 221.994 162.187 222.178 162.187 222.37C162.187 222.53 162.163 222.666 162.116 222.778C162.068 222.906 162.004 222.986 161.924 223.019C160.852 223.116 160.036 223.396 159.477 223.861C158.902 224.326 158.614 224.95 158.615 225.734C158.616 226.214 158.897 226.598 159.457 226.885C160.001 227.189 160.729 227.34 161.641 227.339C162.297 227.338 162.785 227.258 163.105 227.097C163.409 226.953 163.561 226.721 163.56 226.401L163.56 225.873C163.848 225.873 164.08 225.936 164.256 226.064C164.416 226.208 164.496 226.416 164.497 226.688C164.497 227.28 164.25 227.744 163.754 228.081C163.259 228.433 162.531 228.61 161.571 228.611C160.307 228.612 159.315 228.341 158.594 227.798C157.857 227.271 157.488 226.495 157.487 225.471C157.486 224.623 157.725 223.983 158.205 223.55C158.668 223.134 159.372 222.813 160.315 222.588C158.923 222.414 157.883 222.031 157.194 221.439C156.489 220.864 156.136 220.057 156.135 219.017C156.134 218.201 156.293 217.512 156.612 216.952C156.931 216.408 157.339 215.999 157.835 215.727C158.33 215.47 158.842 215.342 159.37 215.341Z" fill="black"/>
</svg>
