<svg width="183" height="238" viewBox="0 0 183 238" fill="none" xmlns="http://www.w3.org/2000/svg">
<path d="M171.041 21.9122C171.041 21.9122 120.272 23.1453 88.4544 23.1453C56.6369 23.1453 5.86813 21.9122 5.86813 21.9122C2.91241 21.9122 0.652161 23.916 0.652161 26.5362V231.379C0.652161 233.999 3.08628 236.157 5.86813 236.157C5.86813 236.157 56.6369 237.698 88.4544 237.698C120.272 237.698 171.041 236.157 171.041 236.157C173.996 236.003 176.256 233.845 176.256 231.379V26.5362C176.256 23.916 173.996 21.9122 171.041 21.9122Z" fill="white"/>
<path d="M17.9276 50.098C17.7836 50.098 17.6316 49.906 17.4716 49.522C17.3276 49.122 17.2076 48.602 17.1116 47.962C17.0156 47.322 16.9676 46.65 16.9676 45.946C16.9676 45.034 17.0396 44.25 17.1836 43.594C16.6396 44.346 16.0716 44.898 15.4796 45.25C14.9036 45.586 14.0876 45.754 13.0316 45.754C11.9596 45.754 11.1756 45.362 10.6796 44.578C10.1996 43.794 9.9596 42.786 9.9596 41.554C9.9596 40.578 10.0396 39.706 10.1996 38.938C10.3756 38.17 10.6636 37.226 11.0636 36.106C11.0956 35.946 11.1916 35.826 11.3516 35.746C11.5116 35.65 11.6876 35.602 11.8796 35.602C12.0556 35.602 12.1996 35.642 12.3116 35.722C12.4236 35.786 12.4716 35.874 12.4556 35.986C11.6076 38.194 11.1836 40.162 11.1836 41.89C11.1836 42.818 11.3356 43.482 11.6396 43.882C11.9596 44.282 12.5036 44.482 13.2716 44.482C14.4396 44.482 15.3916 43.946 16.1276 42.874C16.8636 41.802 17.3516 40.946 17.5916 40.306C17.8476 39.666 17.9916 39.322 18.0236 39.274C18.3916 39.274 18.6396 39.33 18.7676 39.442C18.8956 39.554 18.9596 39.73 18.9596 39.97C18.9596 40.434 18.8396 41.178 18.5996 42.202C18.5836 42.314 18.5196 42.642 18.4076 43.186C18.2956 43.714 18.2396 44.162 18.2396 44.53C18.2396 45.106 18.3276 45.866 18.5036 46.81C18.6636 47.802 18.7436 48.522 18.7436 48.97C18.7436 49.722 18.4716 50.098 17.9276 50.098Z" fill="black"/>
<path d="M17.6526 57.1401C18.3401 58.3432 19.1917 59.6205 20.2073 60.9721C21.3792 62.5346 22.3245 63.7182 23.0432 64.5229C22.4651 65.1323 21.5198 66.312 20.2073 68.062C19.1448 69.4838 18.2932 70.7573 17.6526 71.8823C17.4417 71.476 17.1526 71.0034 16.7854 70.4643C16.1526 69.5268 15.3674 68.437 14.4299 67.1948C14.2268 66.9213 13.512 66.0307 12.2854 64.5229C13.0745 63.6245 14.0901 62.3432 15.3323 60.6791C16.2542 59.4448 17.0276 58.2651 17.6526 57.1401Z" fill="black"/>
<path d="M154.71 186.611C155.397 187.815 156.249 189.092 157.264 190.443C158.436 192.006 159.382 193.19 160.1 193.994C159.522 194.604 158.577 195.783 157.264 197.533C156.202 198.955 155.35 200.229 154.71 201.354C154.499 200.947 154.21 200.475 153.843 199.936C153.21 198.998 152.425 197.908 151.487 196.666C151.284 196.393 150.569 195.502 149.343 193.994C150.132 193.096 151.147 191.815 152.389 190.151C153.311 188.916 154.085 187.736 154.71 186.611Z" fill="black"/>
<path d="M55.786 150.95C58.536 155.763 61.9423 160.872 66.0048 166.278C70.6923 172.528 74.4735 177.263 77.3485 180.481C75.036 182.919 71.2548 187.638 66.0048 194.638C61.7548 200.325 58.3485 205.419 55.786 209.919C54.9423 208.294 53.786 206.403 52.3173 204.247C49.786 200.497 46.6454 196.138 42.8954 191.169C42.0829 190.075 39.2235 186.513 34.3173 180.481C37.4735 176.888 41.536 171.763 46.5048 165.106C50.1923 160.169 53.286 155.45 55.786 150.95Z" fill="black"/>
<path d="M116.786 152.95C119.536 157.763 122.942 162.872 127.005 168.278C131.692 174.528 135.474 179.263 138.349 182.481C136.036 184.919 132.255 189.638 127.005 196.638C122.755 202.325 119.349 207.419 116.786 211.919C115.942 210.294 114.786 208.403 113.317 206.247C110.786 202.497 107.645 198.138 103.895 193.169C103.083 192.075 100.224 188.513 95.3173 182.481C98.4735 178.888 102.536 173.763 107.505 167.106C111.192 162.169 114.286 157.45 116.786 152.95Z" fill="black"/>
<path d="M53.786 39.9501C56.536 44.7626 59.9423 49.872 64.0048 55.2783C68.6923 61.5283 72.4735 66.2626 75.3485 69.4814C73.036 71.9189 69.2548 76.6376 64.0048 83.6376C59.7548 89.3251 56.3485 94.4189 53.786 98.9189C52.9423 97.2939 51.786 95.4033 50.3173 93.247C47.786 89.497 44.6454 85.1376 40.8954 80.1689C40.0829 79.0751 37.2235 75.5126 32.3173 69.4814C35.4735 65.8876 39.536 60.7626 44.5048 54.1064C48.1923 49.1689 51.286 44.4501 53.786 39.9501Z" fill="black"/>
<path d="M116.786 39.9501C119.536 44.7626 122.942 49.872 127.005 55.2783C131.692 61.5283 135.474 66.2626 138.349 69.4814C136.036 71.9189 132.255 76.6376 127.005 83.6376C122.755 89.3251 119.349 94.4189 116.786 98.9189C115.942 97.2939 114.786 95.4033 113.317 93.247C110.786 89.497 107.645 85.1376 103.895 80.1689C103.083 79.0751 100.224 75.5126 95.3173 69.4814C98.4735 65.8876 102.536 60.7626 107.505 54.1064C111.192 49.1689 114.286 44.4501 116.786 39.9501Z" fill="black"/>
<path d="M156.429 207.466C156.573 207.466 156.725 207.658 156.886 208.041C157.03 208.441 157.151 208.961 157.248 209.601C157.344 210.241 157.393 210.913 157.394 211.617C157.395 212.529 157.324 213.313 157.181 213.969C157.724 213.217 158.292 212.664 158.883 212.311C159.459 211.975 160.274 211.806 161.33 211.805C162.402 211.804 163.187 212.195 163.684 212.978C164.165 213.762 164.406 214.77 164.408 216.002C164.409 216.978 164.33 217.85 164.171 218.618C163.996 219.386 163.709 220.33 163.311 221.451C163.279 221.611 163.183 221.731 163.023 221.811C162.863 221.907 162.687 221.955 162.495 221.956C162.319 221.956 162.175 221.916 162.063 221.836C161.951 221.772 161.903 221.684 161.919 221.572C162.764 219.363 163.186 217.395 163.183 215.667C163.182 214.739 163.029 214.075 162.725 213.675C162.404 213.276 161.86 213.076 161.092 213.077C159.924 213.078 158.973 213.615 158.238 214.688C157.504 215.761 157.017 216.617 156.777 217.258C156.522 217.898 156.379 218.242 156.347 218.29C155.979 218.29 155.731 218.235 155.603 218.123C155.474 218.011 155.41 217.835 155.41 217.595C155.409 217.131 155.528 216.387 155.767 215.363C155.783 215.251 155.846 214.922 155.958 214.378C156.069 213.85 156.124 213.402 156.124 213.034C156.123 212.458 156.034 211.698 155.857 210.754C155.696 209.763 155.615 209.043 155.614 208.595C155.613 207.843 155.885 207.466 156.429 207.466Z" fill="black"/>
</svg>
