<svg width="183" height="235" viewBox="0 0 183 235" fill="none" xmlns="http://www.w3.org/2000/svg">
<path d="M170.841 18.5541C170.841 18.5541 120.072 19.7871 88.2543 19.7871C56.4369 19.7871 5.66812 18.5541 5.66812 18.5541C2.7124 18.5541 0.452148 20.5578 0.452148 23.1781V228.02C0.452148 230.641 2.88627 232.798 5.66812 232.798C5.66812 232.798 56.4369 234.34 88.2543 234.34C120.072 234.34 170.841 232.798 170.841 232.798C173.796 232.644 176.056 230.486 176.056 228.02V23.1781C176.056 20.5578 173.796 18.5541 170.841 18.5541Z" fill="white"/>
<path d="M16.4076 47.1718C16.2156 47.1878 15.9276 47.1958 15.5436 47.1958C12.3276 47.1958 10.7196 46.0518 10.7196 43.7638C10.6876 43.3478 10.7276 42.9878 10.8396 42.6838C10.9676 42.3798 11.1116 42.2278 11.2716 42.2278C11.4316 42.2278 11.5516 42.3958 11.6316 42.7318C11.7276 43.0518 11.7596 43.5558 11.7276 44.2438C11.7276 44.7718 12.1116 45.1798 12.8796 45.4678C13.6636 45.7398 14.6156 45.8758 15.7356 45.8758C18.3916 45.8758 19.7196 44.6838 19.7196 42.2998C19.7196 41.0038 19.1836 40.0198 18.1116 39.3478C17.0556 38.6758 15.3276 38.2838 12.9276 38.1718C12.8156 38.0278 12.7436 37.9078 12.7116 37.8118C12.6796 37.7158 12.6716 37.6118 12.6876 37.4998C12.7996 36.8918 12.9676 36.2678 13.1916 35.6278C13.4156 34.9878 13.7356 34.1478 14.1516 33.1078L14.7516 31.4998C15.6156 31.3558 16.6076 31.2838 17.7276 31.2838C18.6876 31.2838 19.5836 31.3398 20.4156 31.4518C21.2636 31.5638 21.9036 31.7158 22.3356 31.9078C22.2396 32.2918 22.0476 32.6278 21.7596 32.9158C20.4476 32.7398 19.2396 32.6518 18.1356 32.6518C17.2236 32.6518 16.4156 32.6918 15.7116 32.7718C15.1196 34.0838 14.7116 35.4278 14.4876 36.8038C16.1996 37.1078 17.4796 37.4038 18.3276 37.6918C19.1756 37.9638 19.8716 38.4598 20.4156 39.1798C20.9596 39.8838 21.2476 40.9318 21.2796 42.3238C21.3116 43.7478 20.9036 44.8918 20.0556 45.7558C19.2236 46.6038 18.0076 47.0758 16.4076 47.1718Z" fill="black"/>
<path d="M17.4525 53.7819C18.14 54.985 18.9916 56.2624 20.0072 57.614C21.1791 59.1765 22.1244 60.36 22.8431 61.1647C22.265 61.7741 21.3197 62.9538 20.0072 64.7038C18.9447 66.1257 18.0931 67.3991 17.4525 68.5241C17.2416 68.1179 16.9525 67.6452 16.5853 67.1061C15.9525 66.1686 15.1674 65.0788 14.2299 63.8366C14.0267 63.5632 13.3119 62.6725 12.0853 61.1647C12.8744 60.2663 13.89 58.985 15.1322 57.321C16.0541 56.0866 16.8275 54.9069 17.4525 53.7819Z" fill="black"/>
<path d="M154.51 183.253C155.197 184.456 156.049 185.734 157.064 187.085C158.236 188.648 159.182 189.831 159.9 190.636C159.322 191.245 158.377 192.425 157.064 194.175C156.002 195.597 155.15 196.87 154.51 197.995C154.299 197.589 154.01 197.117 153.643 196.578C153.01 195.64 152.225 194.55 151.287 193.308C151.084 193.035 150.369 192.144 149.143 190.636C149.932 189.738 150.947 188.456 152.189 186.792C153.111 185.558 153.885 184.378 154.51 183.253Z" fill="black"/>
<path d="M85.5859 90.592C88.3359 95.4045 91.7422 100.514 95.8047 105.92C100.492 112.17 104.273 116.904 107.148 120.123C104.836 122.561 101.055 127.279 95.8047 134.279C91.5547 139.967 88.1484 145.061 85.5859 149.561C84.7422 147.936 83.5859 146.045 82.1172 143.889C79.5859 140.139 76.4453 135.779 72.6953 130.811C71.8828 129.717 69.0234 126.154 64.1172 120.123C67.2734 116.529 71.3359 111.404 76.3047 104.748C79.9922 99.8107 83.0859 95.092 85.5859 90.592Z" fill="black"/>
<path d="M54.5859 39.592C57.3359 44.4045 60.7422 49.5139 64.8047 54.9201C69.4922 61.1701 73.2734 65.9045 76.1484 69.1232C73.8359 71.5607 70.0547 76.2795 64.8047 83.2795C60.5547 88.967 57.1484 94.0607 54.5859 98.5607C53.7422 96.9357 52.5859 95.0451 51.1172 92.8889C48.5859 89.1389 45.4453 84.7795 41.6953 79.8107C40.8828 78.717 38.0234 75.1545 33.1172 69.1232C36.2734 65.5295 40.3359 60.4045 45.3047 53.7482C48.9922 48.8107 52.0859 44.092 54.5859 39.592Z" fill="black"/>
<path d="M115.586 39.592C118.336 44.4045 121.742 49.5139 125.805 54.9201C130.492 61.1701 134.273 65.9045 137.148 69.1232C134.836 71.5607 131.055 76.2795 125.805 83.2795C121.555 88.967 118.148 94.0607 115.586 98.5607C114.742 96.9357 113.586 95.0451 112.117 92.8889C109.586 89.1389 106.445 84.7795 102.695 79.8107C101.883 78.717 99.0234 75.1545 94.1172 69.1232C97.2734 65.5295 101.336 60.4045 106.305 53.7482C109.992 48.8107 113.086 44.092 115.586 39.592Z" fill="black"/>
<path d="M117.586 144.592C120.336 149.404 123.742 154.514 127.805 159.92C132.492 166.17 136.273 170.904 139.148 174.123C136.836 176.561 133.055 181.279 127.805 188.279C123.555 193.967 120.148 199.061 117.586 203.561C116.742 201.936 115.586 200.045 114.117 197.889C111.586 194.139 108.445 189.779 104.695 184.811C103.883 183.717 101.023 180.154 96.1172 174.123C99.2734 170.529 103.336 165.404 108.305 158.748C111.992 153.811 115.086 149.092 117.586 144.592Z" fill="black"/>
<path d="M54.5859 144.592C57.3359 149.404 60.7422 154.514 64.8047 159.92C69.4922 166.17 73.2734 170.904 76.1484 174.123C73.8359 176.561 70.0547 181.279 64.8047 188.279C60.5547 193.967 57.1484 199.061 54.5859 203.561C53.7422 201.936 52.5859 200.045 51.1172 197.889C48.5859 194.139 45.4453 189.779 41.6953 184.811C40.8828 183.717 38.0234 180.154 33.1172 174.123C36.2734 170.529 40.3359 165.404 45.3047 158.748C48.9922 153.811 52.0859 149.092 54.5859 144.592Z" fill="black"/>
<path d="M157.548 203.674C157.74 203.658 158.028 203.65 158.412 203.649C161.628 203.646 163.238 204.788 163.241 207.076C163.273 207.492 163.234 207.852 163.122 208.157C162.995 208.461 162.851 208.613 162.691 208.613C162.531 208.613 162.411 208.445 162.33 208.109C162.234 207.789 162.201 207.286 162.232 206.597C162.231 206.069 161.847 205.662 161.079 205.375C160.294 205.103 159.342 204.968 158.222 204.97C155.566 204.972 154.24 206.166 154.243 208.55C154.244 209.846 154.782 210.829 155.854 211.5C156.911 212.171 158.64 212.561 161.04 212.671C161.152 212.815 161.224 212.935 161.256 213.03C161.289 213.126 161.297 213.23 161.281 213.342C161.17 213.951 161.002 214.575 160.779 215.215C160.556 215.855 160.237 216.696 159.822 217.736L159.224 219.345C158.361 219.49 157.369 219.563 156.249 219.564C155.289 219.565 154.393 219.51 153.561 219.398C152.712 219.287 152.072 219.136 151.64 218.944C151.735 218.56 151.927 218.224 152.215 217.936C153.527 218.111 154.735 218.197 155.839 218.196C156.751 218.195 157.559 218.154 158.263 218.074C158.853 216.761 159.259 215.417 159.482 214.04C157.769 213.738 156.489 213.443 155.641 213.156C154.792 212.885 154.096 212.39 153.551 211.67C153.006 210.967 152.716 209.919 152.683 208.527C152.649 207.103 153.055 205.959 153.902 205.094C154.733 204.245 155.948 203.772 157.548 203.674Z" fill="black"/>
</svg>
