<svg width="183" height="217" viewBox="0 0 183 217" fill="none" xmlns="http://www.w3.org/2000/svg">
<path d="M171.239 0.691772C171.239 0.691772 120.47 1.92483 88.6529 1.92483C56.8355 1.92483 6.06668 0.691772 6.06668 0.691772C3.11096 0.691772 0.850708 2.6955 0.850708 5.31575V210.158C0.850708 212.778 3.28483 214.936 6.06668 214.936C6.06668 214.936 56.8355 216.477 88.6529 216.477C120.47 216.477 171.239 214.936 171.239 214.936C174.195 214.782 176.455 212.624 176.455 210.158V5.31575C176.455 2.6955 174.195 0.691772 171.239 0.691772Z" fill="white"/>
<path d="M14.6701 28.6855C13.1821 28.6855 12.0541 28.2615 11.2861 27.4135C10.5341 26.5655 10.1581 25.3815 10.1581 23.8615C10.1581 22.5655 10.4141 21.2055 10.9261 19.7815C11.4541 18.3415 12.1981 17.1175 13.1581 16.1095C14.1341 15.1015 15.2621 14.5495 16.5421 14.4535L17.0461 14.4295C17.8141 14.4295 18.4621 14.5495 18.9901 14.7895C19.5181 15.0135 19.7821 15.3095 19.7821 15.6775C19.7821 15.8695 19.7421 16.0055 19.6621 16.0855C19.5981 16.1495 19.4861 16.1815 19.3261 16.1815C19.1821 16.1815 18.9501 16.1415 18.6301 16.0615C17.9101 15.9015 17.3581 15.8215 16.9741 15.8215C16.7501 15.8215 16.5821 15.8295 16.4701 15.8455C15.7181 15.9415 14.9981 16.3015 14.3101 16.9255C13.6221 17.5495 13.0621 18.2855 12.6301 19.1335C12.2141 19.9655 12.0061 20.7175 12.0061 21.3895C12.9661 20.8135 13.9821 20.5255 15.0541 20.5255C15.8861 20.5255 16.6461 20.7095 17.3341 21.0775C18.0381 21.4295 18.5901 21.9415 18.9901 22.6135C19.4061 23.2695 19.6141 24.0295 19.6141 24.8935C19.6141 26.2215 19.1261 27.1895 18.1501 27.7975C17.1901 28.3895 16.0301 28.6855 14.6701 28.6855ZM14.5261 27.4375C15.1341 27.4855 15.7181 27.4135 16.2781 27.2215C16.8541 27.0295 17.3261 26.7175 17.6941 26.2855C18.0621 25.8375 18.2461 25.2775 18.2461 24.6055C18.2461 24.0295 18.0621 23.5335 17.6941 23.1175C17.3421 22.6855 16.8781 22.3575 16.3021 22.1335C15.7421 21.9095 15.1501 21.7975 14.5261 21.7975C13.6461 21.7975 12.9021 22.0215 12.2941 22.4695C11.7021 22.9015 11.4061 23.5335 11.4061 24.3655C11.4061 26.2535 12.4461 27.2775 14.5261 27.4375Z" fill="black"/>
<path d="M17.8512 35.9196C18.5387 37.1227 19.3903 38.4001 20.4059 39.7516C21.5778 41.3141 22.5231 42.4977 23.2418 43.3024C22.6637 43.9118 21.7184 45.0915 20.4059 46.8415C19.3434 48.2634 18.4918 49.5368 17.8512 50.6618C17.6403 50.2556 17.3512 49.7829 16.984 49.2438C16.3512 48.3063 15.566 47.2165 14.6285 45.9743C14.4254 45.7009 13.7106 44.8102 12.484 43.3024C13.2731 42.404 14.2887 41.1227 15.5309 39.4587C16.4528 38.2243 17.2262 37.0446 17.8512 35.9196Z" fill="black"/>
<path d="M154.908 165.391C155.596 166.594 156.447 167.871 157.463 169.223C158.635 170.786 159.58 171.969 160.299 172.774C159.721 173.383 158.776 174.563 157.463 176.313C156.401 177.735 155.549 179.008 154.908 180.133C154.697 179.727 154.408 179.254 154.041 178.715C153.408 177.778 152.623 176.688 151.686 175.446C151.483 175.172 150.768 174.282 149.541 172.774C150.33 171.875 151.346 170.594 152.588 168.93C153.51 167.696 154.283 166.516 154.908 165.391Z" fill="black"/>
<path d="M61.5001 31.0109C63.3335 34.2192 65.6043 37.6255 68.3126 41.2297C71.4376 45.3963 73.9585 48.5526 75.8751 50.6984C74.3335 52.3234 71.8126 55.4692 68.3126 60.1359C65.4793 63.9276 63.2085 67.3234 61.5001 70.3234C60.9376 69.2401 60.1668 67.9797 59.1876 66.5422C57.5001 64.0422 55.4064 61.1359 52.9064 57.8234C52.3647 57.0942 50.4585 54.7192 47.1876 50.6984C49.2918 48.3026 52.0001 44.8859 55.3126 40.4484C57.771 37.1567 59.8335 34.0109 61.5001 31.0109Z" fill="black"/>
<path d="M118.5 31.0109C120.333 34.2192 122.604 37.6255 125.313 41.2297C128.438 45.3963 130.958 48.5526 132.875 50.6984C131.333 52.3234 128.813 55.4692 125.313 60.1359C122.479 63.9276 120.208 67.3234 118.5 70.3234C117.938 69.2401 117.167 67.9797 116.188 66.5422C114.5 64.0422 112.406 61.1359 109.906 57.8234C109.365 57.0942 107.458 54.7192 104.188 50.6984C106.292 48.3026 109 44.8859 112.313 40.4484C114.771 37.1567 116.833 34.0109 118.5 31.0109Z" fill="black"/>
<path d="M61.5001 88.0109C63.3335 91.2192 65.6043 94.6255 68.3126 98.2297C71.4376 102.396 73.9585 105.553 75.8751 107.698C74.3335 109.323 71.8126 112.469 68.3126 117.136C65.4793 120.928 63.2085 124.323 61.5001 127.323C60.9376 126.24 60.1668 124.98 59.1876 123.542C57.5001 121.042 55.4064 118.136 52.9064 114.823C52.3647 114.094 50.4585 111.719 47.1876 107.698C49.2918 105.303 52.0001 101.886 55.3126 97.4484C57.771 94.1567 59.8335 91.0109 61.5001 88.0109Z" fill="black"/>
<path d="M118.5 88.0109C120.333 91.2192 122.604 94.6255 125.313 98.2297C128.438 102.396 130.958 105.553 132.875 107.698C131.333 109.323 128.813 112.469 125.313 117.136C122.479 120.928 120.208 124.323 118.5 127.323C117.938 126.24 117.167 124.98 116.188 123.542C114.5 121.042 112.406 118.136 109.906 114.823C109.365 114.094 107.458 111.719 104.188 107.698C106.292 105.303 109 101.886 112.313 97.4484C114.771 94.1567 116.833 91.0109 118.5 88.0109Z" fill="black"/>
<path d="M61.5001 145.011C63.3335 148.219 65.6043 151.625 68.3126 155.23C71.4376 159.396 73.9585 162.553 75.8751 164.698C74.3335 166.323 71.8126 169.469 68.3126 174.136C65.4793 177.928 63.2085 181.323 61.5001 184.323C60.9376 183.24 60.1668 181.98 59.1876 180.542C57.5001 178.042 55.4064 175.136 52.9064 171.823C52.3647 171.094 50.4585 168.719 47.1876 164.698C49.2918 162.303 52.0001 158.886 55.3126 154.448C57.771 151.157 59.8335 148.011 61.5001 145.011Z" fill="black"/>
<path d="M118.5 145.011C120.333 148.219 122.604 151.625 125.313 155.23C128.438 159.396 130.958 162.553 132.875 164.698C131.333 166.323 128.813 169.469 125.313 174.136C122.479 177.928 120.208 181.323 118.5 184.323C117.938 183.24 117.167 181.98 116.188 180.542C114.5 178.042 112.406 175.136 109.906 171.823C109.365 171.094 107.458 168.719 104.188 164.698C106.292 162.303 109 158.886 112.313 154.448C114.771 151.157 116.833 148.011 118.5 145.011Z" fill="black"/>
<path d="M160.084 186.434C161.572 186.432 162.7 186.855 163.469 187.702C164.222 188.55 164.6 189.733 164.602 191.253C164.604 192.549 164.349 193.909 163.839 195.334C163.313 196.774 162.571 197.999 161.612 199.008C160.637 200.017 159.51 200.57 158.23 200.668L157.726 200.692C156.958 200.693 156.31 200.574 155.782 200.334C155.253 200.111 154.989 199.815 154.988 199.447C154.988 199.255 155.028 199.119 155.108 199.039C155.172 198.975 155.284 198.943 155.444 198.943C155.588 198.942 155.82 198.982 156.14 199.062C156.86 199.221 157.412 199.301 157.796 199.3C158.02 199.3 158.188 199.292 158.3 199.276C159.052 199.179 159.772 198.818 160.459 198.193C161.146 197.569 161.705 196.832 162.136 195.984C162.551 195.151 162.758 194.399 162.757 193.727C161.798 194.304 160.782 194.593 159.71 194.594C158.878 194.595 158.118 194.412 157.429 194.045C156.725 193.693 156.172 193.182 155.772 192.51C155.355 191.855 155.146 191.095 155.145 190.231C155.143 188.903 155.63 187.934 156.605 187.325C157.564 186.732 158.724 186.435 160.084 186.434ZM160.229 187.682C159.621 187.634 159.037 187.707 158.478 187.899C157.902 188.092 157.43 188.405 157.063 188.837C156.695 189.285 156.512 189.846 156.513 190.518C156.514 191.094 156.698 191.589 157.067 192.005C157.419 192.437 157.884 192.764 158.46 192.988C159.02 193.211 159.613 193.322 160.237 193.322C161.117 193.321 161.86 193.096 162.468 192.647C163.059 192.215 163.354 191.582 163.353 190.75C163.351 188.862 162.31 187.84 160.229 187.682Z" fill="black"/>
</svg>
