<svg width="183" height="218" viewBox="0 0 183 218" fill="none" xmlns="http://www.w3.org/2000/svg">
<path d="M170.932 1.53571C170.932 1.53571 120.163 2.76876 88.3458 2.76876C56.5283 2.76876 5.75955 1.53571 5.75955 1.53571C2.80383 1.53571 0.543579 3.53943 0.543579 6.15969V211.002C0.543579 213.622 2.9777 215.78 5.75955 215.78C5.75955 215.78 56.5283 217.321 88.3458 217.321C120.163 217.321 170.932 215.78 170.932 215.78C173.888 215.626 176.148 213.468 176.148 211.002V6.15969C176.148 3.53943 173.888 1.53571 170.932 1.53571Z" fill="white"/>
<path d="M18.8751 23.5775C18.9551 23.6735 18.9951 23.7855 18.9951 23.9135C18.9951 24.0735 18.9311 24.2175 18.8031 24.3455C18.6911 24.4575 18.5631 24.5135 18.4191 24.5135C17.7471 24.3055 16.9871 24.1535 16.1391 24.0575C15.9151 25.4815 15.5471 27.2015 15.0351 29.2175C14.9391 29.5375 14.7071 29.6975 14.3391 29.6975C14.1631 29.6975 14.0271 29.6415 13.9311 29.5295C13.8511 29.4015 13.7711 29.2255 13.6911 29.0015C14.1871 27.0495 14.5551 25.3695 14.7951 23.9615C14.5391 23.9455 14.1311 23.9375 13.5711 23.9375C13.1551 23.9375 12.4191 23.9535 11.3631 23.9855C11.2991 23.7935 11.2671 23.6415 11.2671 23.5295C11.2671 23.3695 11.2991 23.2335 11.3631 23.1215C11.4271 22.9935 11.5151 22.9215 11.6271 22.9055C12.0591 22.8255 12.7951 22.7855 13.8351 22.7855C14.3311 22.7855 14.7071 22.7935 14.9631 22.8095C15.2031 21.1135 15.2991 19.5695 15.2511 18.1775C15.0111 18.1615 14.5471 18.1695 13.8591 18.2015C13.2511 18.2335 12.7711 18.2495 12.4191 18.2495C11.6991 18.2495 11.1231 18.1935 10.6911 18.0815C10.2751 17.9535 10.0671 17.7375 10.0671 17.4335C10.0671 17.2415 10.1311 17.0495 10.2591 16.8575C11.9231 17.0335 13.5391 17.1215 15.1071 17.1215C15.8111 17.1215 16.3071 17.1055 16.5951 17.0735C16.5951 19.3295 16.4991 21.2655 16.3071 22.8815C17.7631 22.9935 18.6191 23.2255 18.8751 23.5775Z" fill="black"/>
<path d="M17.544 36.7635C18.2315 37.9667 19.0831 39.244 20.0987 40.5956C21.2706 42.1581 22.2159 43.3417 22.9346 44.1464C22.3565 44.7557 21.4112 45.9354 20.0987 47.6854C19.0362 49.1073 18.1846 50.3807 17.544 51.5057C17.3331 51.0995 17.044 50.6268 16.6768 50.0878C16.044 49.1503 15.2589 48.0604 14.3214 46.8182C14.1182 46.5448 13.4034 45.6542 12.1768 44.1464C12.9659 43.2479 13.9815 41.9667 15.2237 40.3026C16.1456 39.0682 16.919 37.8885 17.544 36.7635Z" fill="black"/>
<path d="M154.601 166.235C155.289 167.438 156.14 168.715 157.156 170.067C158.328 171.629 159.273 172.813 159.992 173.618C159.414 174.227 158.468 175.407 157.156 177.157C156.093 178.579 155.242 179.852 154.601 180.977C154.39 180.571 154.101 180.098 153.734 179.559C153.101 178.622 152.316 177.532 151.378 176.29C151.175 176.016 150.461 175.126 149.234 173.618C150.023 172.719 151.039 171.438 152.281 169.774C153.203 168.54 153.976 167.36 154.601 166.235Z" fill="black"/>
<path d="M155.272 193.234C155.192 193.139 155.152 193.027 155.152 192.899C155.152 192.739 155.215 192.595 155.343 192.466C155.455 192.354 155.583 192.298 155.727 192.298C156.399 192.505 157.159 192.656 158.008 192.752C158.23 191.327 158.596 189.607 159.105 187.59C159.201 187.27 159.432 187.11 159.8 187.11C159.976 187.11 160.112 187.165 160.209 187.277C160.289 187.405 160.369 187.581 160.449 187.805C159.956 189.758 159.59 191.438 159.352 192.846C159.608 192.862 160.016 192.87 160.576 192.869C160.992 192.869 161.728 192.852 162.784 192.819C162.848 193.011 162.88 193.163 162.88 193.275C162.88 193.435 162.849 193.571 162.785 193.683C162.721 193.811 162.633 193.883 162.521 193.899C162.089 193.979 161.353 194.02 160.313 194.021C159.817 194.022 159.441 194.014 159.185 193.998C158.947 195.695 158.853 197.239 158.903 198.631C159.143 198.646 159.607 198.638 160.295 198.605C160.903 198.573 161.383 198.556 161.735 198.556C162.455 198.555 163.031 198.61 163.463 198.722C163.879 198.85 164.088 199.065 164.088 199.369C164.088 199.561 164.025 199.753 163.897 199.946C162.233 199.771 160.616 199.685 159.048 199.687C158.344 199.687 157.848 199.704 157.561 199.736C157.558 197.48 157.651 195.544 157.841 193.928C156.385 193.817 155.529 193.586 155.272 193.234Z" fill="black"/>
<path d="M56.5001 27.0109C58.3335 30.2193 60.6043 33.6255 63.3126 37.2297C66.4376 41.3963 68.9585 44.5526 70.8751 46.6984C69.3335 48.3234 66.8126 51.4693 63.3126 56.1359C60.4793 59.9276 58.2085 63.3234 56.5001 66.3234C55.9376 65.2401 55.1668 63.9797 54.1876 62.5422C52.5001 60.0422 50.4064 57.1359 47.9064 53.8234C47.3647 53.0943 45.4585 50.7193 42.1876 46.6984C44.2918 44.3026 47.0001 40.8859 50.3126 36.4484C52.771 33.1568 54.8335 30.0109 56.5001 27.0109Z" fill="black"/>
<path d="M94.5001 50.0109C96.3335 53.2193 98.6043 56.6255 101.313 60.2297C104.438 64.3963 106.958 67.5526 108.875 69.6984C107.333 71.3234 104.813 74.4693 101.313 79.1359C98.4793 82.9276 96.2085 86.3234 94.5001 89.3234C93.9376 88.2401 93.1668 86.9797 92.1876 85.5422C90.5001 83.0422 88.4064 80.1359 85.9064 76.8234C85.3647 76.0943 83.4585 73.7193 80.1876 69.6984C82.2918 67.3026 85.0001 63.8859 88.3126 59.4484C90.771 56.1568 92.8335 53.0109 94.5001 50.0109Z" fill="black"/>
<path d="M56.5001 131.011C58.3335 134.219 60.6043 137.626 63.3126 141.23C66.4376 145.396 68.9585 148.553 70.8751 150.698C69.3335 152.323 66.8126 155.469 63.3126 160.136C60.4793 163.928 58.2085 167.323 56.5001 170.323C55.9376 169.24 55.1668 167.98 54.1876 166.542C52.5001 164.042 50.4064 161.136 47.9064 157.823C47.3647 157.094 45.4585 154.719 42.1876 150.698C44.2918 148.303 47.0001 144.886 50.3126 140.448C52.771 137.157 54.8335 134.011 56.5001 131.011Z" fill="black"/>
<path d="M133.5 133.011C135.333 136.219 137.604 139.626 140.313 143.23C143.438 147.396 145.958 150.553 147.875 152.698C146.333 154.323 143.813 157.469 140.313 162.136C137.479 165.928 135.208 169.323 133.5 172.323C132.938 171.24 132.167 169.98 131.188 168.542C129.5 166.042 127.406 163.136 124.906 159.823C124.365 159.094 122.458 156.719 119.188 152.698C121.292 150.303 124 146.886 127.313 142.448C129.771 139.157 131.833 136.011 133.5 133.011Z" fill="black"/>
<path d="M132.5 27.0109C134.333 30.2193 136.604 33.6255 139.313 37.2297C142.438 41.3963 144.958 44.5526 146.875 46.6984C145.333 48.3234 142.813 51.4693 139.313 56.1359C136.479 59.9276 134.208 63.3234 132.5 66.3234C131.938 65.2401 131.167 63.9797 130.188 62.5422C128.5 60.0422 126.406 57.1359 123.906 53.8234C123.365 53.0943 121.458 50.7193 118.188 46.6984C120.292 44.3026 123 40.8859 126.313 36.4484C128.771 33.1568 130.833 30.0109 132.5 27.0109Z" fill="black"/>
<path d="M56.5001 78.0109C58.3335 81.2193 60.6043 84.6255 63.3126 88.2297C66.4376 92.3963 68.9585 95.5526 70.8751 97.6984C69.3335 99.3234 66.8126 102.469 63.3126 107.136C60.4793 110.928 58.2085 114.323 56.5001 117.323C55.9376 116.24 55.1668 114.98 54.1876 113.542C52.5001 111.042 50.4064 108.136 47.9064 104.823C47.3647 104.094 45.4585 101.719 42.1876 97.6984C44.2918 95.3026 47.0001 91.8859 50.3126 87.4484C52.771 84.1568 54.8335 81.0109 56.5001 78.0109Z" fill="black"/>
<path d="M132.5 76.0109C134.333 79.2193 136.604 82.6255 139.313 86.2297C142.438 90.3963 144.958 93.5526 146.875 95.6984C145.333 97.3234 142.813 100.469 139.313 105.136C136.479 108.928 134.208 112.323 132.5 115.323C131.938 114.24 131.167 112.98 130.188 111.542C128.5 109.042 126.406 106.136 123.906 102.823C123.365 102.094 121.458 99.7193 118.188 95.6984C120.292 93.3026 123 89.8859 126.313 85.4484C128.771 82.1568 130.833 79.0109 132.5 76.0109Z" fill="black"/>
</svg>
