<svg width="183" height="224" viewBox="0 0 183 224" fill="none" xmlns="http://www.w3.org/2000/svg">
<path d="M171.33 7.34286C171.33 7.34286 120.562 8.57592 88.7443 8.57592C56.9269 8.57592 6.15811 7.34286 6.15811 7.34286C3.20239 7.34286 0.942139 9.34659 0.942139 11.9668V216.809C0.942139 219.429 3.37626 221.587 6.15811 221.587C6.15811 221.587 56.9269 223.129 88.7443 223.129C120.562 223.129 171.33 221.587 171.33 221.587C174.286 221.433 176.546 219.275 176.546 216.809V11.9668C176.546 9.34659 174.286 7.34286 171.33 7.34286Z" fill="white"/>
<path d="M122.5 30.0109C124.333 33.2193 126.604 36.6255 129.313 40.2297C132.438 44.3963 134.958 47.5526 136.875 49.6984C135.333 51.3234 132.813 54.4693 129.313 59.1359C126.479 62.9276 124.208 66.3234 122.5 69.3234C121.938 68.2401 121.167 66.9797 120.188 65.5422C118.5 63.0422 116.406 60.1359 113.906 56.8234C113.365 56.0943 111.458 53.7193 108.188 49.6984C110.292 47.3026 113 43.8859 116.313 39.4484C118.771 36.1568 120.833 33.0109 122.5 30.0109Z" fill="black"/>
<path d="M121.5 76.0109C123.333 79.2193 125.604 82.6255 128.313 86.2297C131.438 90.3963 133.958 93.5526 135.875 95.6984C134.333 97.3234 131.813 100.469 128.313 105.136C125.479 108.928 123.208 112.323 121.5 115.323C120.938 114.24 120.167 112.98 119.188 111.542C117.5 109.042 115.406 106.136 112.906 102.823C112.365 102.094 110.458 99.7193 107.188 95.6984C109.292 93.3026 112 89.8859 115.313 85.4484C117.771 82.1568 119.833 79.0109 121.5 76.0109Z" fill="black"/>
<path d="M121.5 127.011C123.333 130.219 125.604 133.626 128.313 137.23C131.438 141.396 133.958 144.553 135.875 146.698C134.333 148.323 131.813 151.469 128.313 156.136C125.479 159.928 123.208 163.323 121.5 166.323C120.938 165.24 120.167 163.98 119.188 162.542C117.5 160.042 115.406 157.136 112.906 153.823C112.365 153.094 110.458 150.719 107.188 146.698C109.292 144.303 112 140.886 115.313 136.448C117.771 133.157 119.833 130.011 121.5 127.011Z" fill="black"/>
<path d="M121.5 174.011C123.333 177.219 125.604 180.626 128.313 184.23C131.438 188.396 133.958 191.553 135.875 193.698C134.333 195.323 131.813 198.469 128.313 203.136C125.479 206.928 123.208 210.323 121.5 213.323C120.938 212.24 120.167 210.98 119.188 209.542C117.5 207.042 115.406 204.136 112.906 200.823C112.365 200.094 110.458 197.719 107.188 193.698C109.292 191.303 112 187.886 115.313 183.448C117.771 180.157 119.833 177.011 121.5 174.011Z" fill="black"/>
<path d="M15.4336 35.5046C14.6176 35.5046 13.8736 35.3526 13.2016 35.0486C12.5456 34.7286 12.0256 34.2966 11.6416 33.7526C11.2736 33.1926 11.0896 32.5686 11.0896 31.8806C11.0896 30.6326 11.6656 29.4006 12.8176 28.1846C11.9856 27.7366 11.3776 27.3046 10.9936 26.8886C10.6096 26.4566 10.3616 25.9366 10.2496 25.3286C10.2176 25.1046 10.2016 24.9366 10.2016 24.8246C10.2016 24.2486 10.3696 23.7366 10.7056 23.2886C11.0416 22.8406 11.4896 22.4966 12.0496 22.2566C12.6096 22.0006 13.2016 21.8726 13.8256 21.8726C14.7856 21.8726 15.5136 22.0566 16.0096 22.4246C16.5216 22.7766 16.7776 23.2966 16.7776 23.9846C16.7776 24.7366 16.6496 25.3286 16.3936 25.7606C16.1536 26.1926 15.7536 26.6886 15.1936 27.2486C14.7936 27.6486 14.5536 27.8966 14.4736 27.9926C14.7616 28.2486 15.1216 28.5446 15.5536 28.8806C16.2576 29.4566 16.7696 29.9046 17.0896 30.2246C17.4256 30.5446 17.6816 30.9126 17.8576 31.3286C18.0496 31.7286 18.1456 32.2166 18.1456 32.7926C18.1456 33.6406 17.9056 34.3046 17.4256 34.7846C16.9456 35.2646 16.2816 35.5046 15.4336 35.5046ZM13.4896 27.5126C14.1456 27.0166 14.6576 26.4886 15.0256 25.9286C15.3936 25.3526 15.5776 24.8246 15.5776 24.3446C15.5776 23.9286 15.4256 23.5926 15.1216 23.3366C14.8336 23.0806 14.4016 22.9526 13.8256 22.9526C12.9776 22.9526 12.3536 23.1686 11.9536 23.6006C11.5536 24.0166 11.3536 24.5206 11.3536 25.1126C11.3536 25.6086 11.5216 26.0246 11.8576 26.3606C12.2096 26.6966 12.7536 27.0806 13.4896 27.5126ZM15.2896 34.4006C15.7856 34.4006 16.1936 34.2806 16.5136 34.0406C16.8336 33.8006 16.9936 33.4166 16.9936 32.8886C16.9936 32.4246 16.8896 32.0006 16.6816 31.6166C16.4736 31.2326 16.1536 30.8326 15.7216 30.4166C15.3056 30.0006 14.6576 29.4166 13.7776 28.6646C13.2816 29.1286 12.9056 29.6246 12.6496 30.1526C12.4096 30.6806 12.2896 31.1926 12.2896 31.6886C12.2896 32.4566 12.5536 33.1046 13.0816 33.6326C13.6256 34.1446 14.3616 34.4006 15.2896 34.4006Z" fill="black"/>
<path d="M17.9426 42.5707C18.6301 43.7738 19.4816 45.0512 20.4973 46.4027C21.6691 47.9652 22.6144 49.1488 23.3332 49.9535C22.7551 50.5629 21.8098 51.7426 20.4973 53.4926C19.4348 54.9144 18.5832 56.1879 17.9426 57.3129C17.7316 56.9066 17.4426 56.434 17.0754 55.8949C16.4426 54.9574 15.6574 53.8676 14.7199 52.6254C14.5168 52.3519 13.8019 51.4613 12.5754 49.9535C13.3644 49.0551 14.3801 47.7738 15.6223 46.1098C16.5441 44.8754 17.3176 43.6957 17.9426 42.5707Z" fill="black"/>
<path d="M155 172.042C155.687 173.245 156.539 174.523 157.554 175.874C158.726 177.437 159.672 178.62 160.39 179.425C159.812 180.034 158.867 181.214 157.554 182.964C156.492 184.386 155.64 185.659 155 186.784C154.789 186.378 154.5 185.905 154.133 185.366C153.5 184.429 152.715 183.339 151.777 182.097C151.574 181.823 150.859 180.933 149.633 179.425C150.422 178.526 151.437 177.245 152.679 175.581C153.601 174.347 154.375 173.167 155 172.042Z" fill="black"/>
<path d="M159.503 192.918C160.319 192.917 161.063 193.068 161.735 193.371C162.392 193.691 162.912 194.122 163.297 194.666C163.666 195.225 163.851 195.849 163.852 196.537C163.853 197.785 163.279 199.018 162.128 200.235C162.961 200.682 163.569 201.113 163.954 201.529C164.338 201.961 164.587 202.48 164.7 203.088C164.732 203.312 164.748 203.48 164.749 203.592C164.749 204.168 164.582 204.68 164.247 205.129C163.911 205.577 163.464 205.921 162.904 206.162C162.344 206.419 161.752 206.547 161.128 206.548C160.168 206.549 159.44 206.366 158.944 205.998C158.431 205.647 158.175 205.127 158.174 204.439C158.173 203.687 158.3 203.095 158.555 202.663C158.795 202.23 159.194 201.734 159.753 201.173C160.153 200.773 160.393 200.525 160.473 200.429C160.184 200.173 159.824 199.877 159.391 199.542C158.687 198.966 158.174 198.519 157.854 198.199C157.517 197.88 157.261 197.512 157.084 197.096C156.892 196.696 156.795 196.208 156.794 195.632C156.793 194.784 157.032 194.12 157.512 193.64C157.991 193.159 158.655 192.918 159.503 192.918ZM161.457 200.908C160.802 201.404 160.29 201.933 159.923 202.493C159.556 203.07 159.373 203.598 159.373 204.078C159.374 204.494 159.526 204.83 159.83 205.085C160.119 205.341 160.551 205.469 161.127 205.468C161.975 205.467 162.599 205.25 162.998 204.818C163.398 204.402 163.597 203.897 163.596 203.305C163.596 202.809 163.427 202.394 163.091 202.058C162.738 201.722 162.194 201.339 161.457 200.908ZM159.648 194.021C159.152 194.022 158.744 194.142 158.425 194.383C158.105 194.623 157.946 195.007 157.946 195.535C157.947 195.999 158.051 196.423 158.26 196.807C158.468 197.191 158.789 197.59 159.221 198.006C159.638 198.421 160.287 199.005 161.168 199.756C161.663 199.291 162.038 198.795 162.294 198.267C162.533 197.738 162.652 197.226 162.652 196.73C162.651 195.962 162.386 195.315 161.857 194.787C161.313 194.276 160.576 194.02 159.648 194.021Z" fill="black"/>
<path d="M51.5001 27.0109C53.3335 30.2193 55.6043 33.6255 58.3126 37.2297C61.4376 41.3963 63.9585 44.5526 65.8751 46.6984C64.3335 48.3234 61.8126 51.4693 58.3126 56.1359C55.4793 59.9276 53.2085 63.3234 51.5001 66.3234C50.9376 65.2401 50.1668 63.9797 49.1876 62.5422C47.5001 60.0422 45.4064 57.1359 42.9064 53.8234C42.3647 53.0943 40.4585 50.7193 37.1876 46.6984C39.2918 44.3026 42.0001 40.8859 45.3126 36.4484C47.771 33.1568 49.8335 30.0109 51.5001 27.0109Z" fill="black"/>
<path d="M51.5001 76.0109C53.3335 79.2193 55.6043 82.6255 58.3126 86.2297C61.4376 90.3963 63.9585 93.5526 65.8751 95.6984C64.3335 97.3234 61.8126 100.469 58.3126 105.136C55.4793 108.928 53.2085 112.323 51.5001 115.323C50.9376 114.24 50.1668 112.98 49.1876 111.542C47.5001 109.042 45.4064 106.136 42.9064 102.823C42.3647 102.094 40.4585 99.7193 37.1876 95.6984C39.2918 93.3026 42.0001 89.8859 45.3126 85.4484C47.771 82.1568 49.8335 79.0109 51.5001 76.0109Z" fill="black"/>
<path d="M51.5001 126.011C53.3335 129.219 55.6043 132.626 58.3126 136.23C61.4376 140.396 63.9585 143.553 65.8751 145.698C64.3335 147.323 61.8126 150.469 58.3126 155.136C55.4793 158.928 53.2085 162.323 51.5001 165.323C50.9376 164.24 50.1668 162.98 49.1876 161.542C47.5001 159.042 45.4064 156.136 42.9064 152.823C42.3647 152.094 40.4585 149.719 37.1876 145.698C39.2918 143.303 42.0001 139.886 45.3126 135.448C47.771 132.157 49.8335 129.011 51.5001 126.011Z" fill="black"/>
<path d="M51.5001 174.011C53.3335 177.219 55.6043 180.626 58.3126 184.23C61.4376 188.396 63.9585 191.553 65.8751 193.698C64.3335 195.323 61.8126 198.469 58.3126 203.136C55.4793 206.928 53.2085 210.323 51.5001 213.323C50.9376 212.24 50.1668 210.98 49.1876 209.542C47.5001 207.042 45.4064 204.136 42.9064 200.823C42.3647 200.094 40.4585 197.719 37.1876 193.698C39.2918 191.303 42.0001 187.886 45.3126 183.448C47.771 180.157 49.8335 177.011 51.5001 174.011Z" fill="black"/>
</svg>
