<svg width="182" height="229" viewBox="0 0 182 229" fill="none" xmlns="http://www.w3.org/2000/svg">
<path d="M170.388 13C170.388 13 119.62 14.2331 87.8022 14.2331C55.9848 14.2331 5.21597 13 5.21597 13C2.26025 13 0 15.0037 0 17.624V222.466C0 225.087 2.43412 227.244 5.21597 227.244C5.21597 227.244 55.9848 228.786 87.8022 228.786C119.62 228.786 170.388 227.244 170.388 227.244C173.344 227.09 175.604 224.932 175.604 222.466V17.624C175.604 15.0037 173.344 13 170.388 13Z" fill="white"/>
<path d="M12.4994 25.7138C13.0274 25.7138 13.5474 25.8338 14.0594 26.0738C14.5874 26.2978 15.0194 26.6258 15.3554 27.0578C15.6914 27.4738 15.8594 27.9378 15.8594 28.4498C15.8594 28.6898 15.8274 28.9058 15.7634 29.0978C15.4914 30.0738 15.2994 31.2178 15.1874 32.5298C15.0754 33.8418 15.0194 35.1538 15.0194 36.4658C15.0194 38.2098 15.0834 39.2338 15.2114 39.5378C15.2114 39.7138 15.1314 39.8338 14.9714 39.8978C14.8274 39.9458 14.6034 39.9698 14.2994 39.9698C13.7554 39.9858 13.4834 39.1698 13.4834 37.5218C13.4834 36.2738 13.6194 34.7778 13.8914 33.0338C13.3154 33.0978 12.9234 33.1298 12.7154 33.1298C11.4674 33.1298 10.5474 32.8258 9.95544 32.2178C9.37944 31.5938 9.09144 30.7218 9.09144 29.6018C9.09144 28.5138 9.39544 27.5938 10.0034 26.8418C10.6274 26.0898 11.4594 25.7138 12.4994 25.7138ZM12.7874 32.1698C13.2834 32.1698 13.7154 32.0578 14.0834 31.8338C14.2434 30.8738 14.4194 30.0098 14.6114 29.2418C14.6754 28.5378 14.5154 27.9778 14.1314 27.5618C13.7634 27.1298 13.3074 26.9138 12.7634 26.9138C12.1714 26.9138 11.6274 27.1298 11.1314 27.5618C10.6514 27.9778 10.4114 28.5858 10.4114 29.3858C10.4114 30.2338 10.6194 30.9138 11.0354 31.4258C11.4514 31.9218 12.0354 32.1698 12.7874 32.1698Z" fill="black"/>
<path d="M17.0004 47.2279C17.6879 48.431 18.5394 49.7083 19.5551 51.0599C20.7269 52.6224 21.6722 53.806 22.391 54.6107C21.8129 55.22 20.8676 56.3997 19.5551 58.1497C18.4926 59.5716 17.641 60.845 17.0004 61.97C16.7894 61.5638 16.5004 61.0911 16.1332 60.5521C15.5004 59.6146 14.7152 58.5247 13.7777 57.2825C13.5746 57.0091 12.8597 56.1185 11.6332 54.6107C12.4222 53.7122 13.4379 52.431 14.6801 50.7669C15.6019 49.5325 16.3754 48.3529 17.0004 47.2279Z" fill="black"/>
<path d="M154.057 176.699C154.745 177.902 155.597 179.18 156.612 180.531C157.784 182.094 158.729 183.277 159.448 184.082C158.87 184.691 157.925 185.871 156.612 187.621C155.55 189.043 154.698 190.316 154.057 191.441C153.847 191.035 153.557 190.563 153.19 190.023C152.557 189.086 151.772 187.996 150.835 186.754C150.632 186.48 149.917 185.59 148.69 184.082C149.479 183.184 150.495 181.902 151.737 180.238C152.659 179.004 153.432 177.824 154.057 176.699Z" fill="black"/>
<path d="M160.571 212.021C160.043 212.021 159.523 211.902 159.011 211.662C158.482 211.439 158.05 211.111 157.714 210.68C157.377 210.264 157.208 209.8 157.208 209.288C157.207 209.048 157.239 208.832 157.303 208.64C157.574 207.664 157.764 206.52 157.874 205.207C157.985 203.895 158.039 202.583 158.037 201.271C158.035 199.527 157.97 198.503 157.841 198.2C157.841 198.024 157.921 197.903 158.081 197.839C158.225 197.791 158.449 197.767 158.753 197.767C159.297 197.75 159.57 198.566 159.572 200.214C159.574 201.462 159.44 202.958 159.17 204.702C159.746 204.638 160.138 204.605 160.346 204.605C161.594 204.604 162.514 204.907 163.107 205.514C163.684 206.137 163.973 207.009 163.974 208.129C163.976 209.217 163.673 210.137 163.066 210.89C162.443 211.643 161.611 212.02 160.571 212.021ZM160.275 205.565C159.779 205.566 159.347 205.678 158.979 205.902C158.821 206.863 158.646 207.727 158.455 208.495C158.392 209.199 158.552 209.759 158.937 210.174C159.305 210.606 159.762 210.822 160.306 210.821C160.898 210.82 161.441 210.604 161.937 210.171C162.416 209.755 162.656 209.147 162.655 208.347C162.653 207.499 162.445 206.819 162.028 206.307C161.611 205.812 161.027 205.564 160.275 205.565Z" fill="black"/>
<path d="M119.5 27.0109C121.333 30.2193 123.604 33.6255 126.313 37.2297C129.438 41.3963 131.958 44.5526 133.875 46.6984C132.333 48.3234 129.813 51.4693 126.313 56.1359C123.479 59.9276 121.208 63.3234 119.5 66.3234C118.938 65.2401 118.167 63.9797 117.188 62.5422C115.5 60.0422 113.406 57.1359 110.906 53.8234C110.365 53.0943 108.458 50.7193 105.188 46.6984C107.292 44.3026 110 40.8859 113.313 36.4484C115.771 33.1568 117.833 30.0109 119.5 27.0109Z" fill="black"/>
<path d="M60.5001 27.0109C62.3335 30.2193 64.6043 33.6255 67.3126 37.2297C70.4376 41.3963 72.9585 44.5526 74.8751 46.6984C73.3335 48.3234 70.8126 51.4693 67.3126 56.1359C64.4793 59.9276 62.2085 63.3234 60.5001 66.3234C59.9376 65.2401 59.1668 63.9797 58.1876 62.5422C56.5001 60.0422 54.4064 57.1359 51.9064 53.8234C51.3647 53.0943 49.4585 50.7193 46.1876 46.6984C48.2918 44.3026 51.0001 40.8859 54.3126 36.4484C56.771 33.1568 58.8335 30.0109 60.5001 27.0109Z" fill="black"/>
<path d="M94.5001 96.0109C96.3335 99.2193 98.6043 102.626 101.313 106.23C104.438 110.396 106.958 113.553 108.875 115.698C107.333 117.323 104.813 120.469 101.313 125.136C98.4793 128.928 96.2085 132.323 94.5001 135.323C93.9376 134.24 93.1668 132.98 92.1876 131.542C90.5001 129.042 88.4064 126.136 85.9064 122.823C85.3647 122.094 83.4585 119.719 80.1876 115.698C82.2918 113.303 85.0001 109.886 88.3126 105.448C90.771 102.157 92.8335 99.0109 94.5001 96.0109Z" fill="black"/>
<path d="M62.5001 72.0109C64.3335 75.2193 66.6043 78.6255 69.3126 82.2297C72.4376 86.3963 74.9585 89.5526 76.8751 91.6984C75.3335 93.3234 72.8126 96.4693 69.3126 101.136C66.4793 104.928 64.2085 108.323 62.5001 111.323C61.9376 110.24 61.1668 108.98 60.1876 107.542C58.5001 105.042 56.4064 102.136 53.9064 98.8234C53.3647 98.0943 51.4585 95.7193 48.1876 91.6984C50.2918 89.3026 53.0001 85.8859 56.3126 81.4484C58.771 78.1568 60.8335 75.0109 62.5001 72.0109Z" fill="black"/>
<path d="M61.5001 122.011C63.3335 125.219 65.6043 128.626 68.3126 132.23C71.4376 136.396 73.9585 139.553 75.8751 141.698C74.3335 143.323 71.8126 146.469 68.3126 151.136C65.4793 154.928 63.2085 158.323 61.5001 161.323C60.9376 160.24 60.1668 158.98 59.1876 157.542C57.5001 155.042 55.4064 152.136 52.9064 148.823C52.3647 148.094 50.4585 145.719 47.1876 141.698C49.2918 139.303 52.0001 135.886 55.3126 131.448C57.771 128.157 59.8335 125.011 61.5001 122.011Z" fill="black"/>
<path d="M62.5001 164.011C64.3335 167.219 66.6043 170.626 69.3126 174.23C72.4376 178.396 74.9585 181.553 76.8751 183.698C75.3335 185.323 72.8126 188.469 69.3126 193.136C66.4793 196.928 64.2085 200.323 62.5001 203.323C61.9376 202.24 61.1668 200.98 60.1876 199.542C58.5001 197.042 56.4064 194.136 53.9064 190.823C53.3647 190.094 51.4585 187.719 48.1876 183.698C50.2918 181.303 53.0001 177.886 56.3126 173.448C58.771 170.157 60.8335 167.011 62.5001 164.011Z" fill="black"/>
<path d="M120.5 72.0109C122.333 75.2193 124.604 78.6255 127.313 82.2297C130.438 86.3963 132.958 89.5526 134.875 91.6984C133.333 93.3234 130.813 96.4693 127.313 101.136C124.479 104.928 122.208 108.323 120.5 111.323C119.938 110.24 119.167 108.98 118.188 107.542C116.5 105.042 114.406 102.136 111.906 98.8234C111.365 98.0943 109.458 95.7193 106.188 91.6984C108.292 89.3026 111 85.8859 114.313 81.4484C116.771 78.1568 118.833 75.0109 120.5 72.0109Z" fill="black"/>
<path d="M121.5 122.011C123.333 125.219 125.604 128.626 128.313 132.23C131.438 136.396 133.958 139.553 135.875 141.698C134.333 143.323 131.813 146.469 128.313 151.136C125.479 154.928 123.208 158.323 121.5 161.323C120.938 160.24 120.167 158.98 119.188 157.542C117.5 155.042 115.406 152.136 112.906 148.823C112.365 148.094 110.458 145.719 107.188 141.698C109.292 139.303 112 135.886 115.313 131.448C117.771 128.157 119.833 125.011 121.5 122.011Z" fill="black"/>
<path d="M123.5 166.011C125.333 169.219 127.604 172.626 130.313 176.23C133.438 180.396 135.958 183.553 137.875 185.698C136.333 187.323 133.813 190.469 130.313 195.136C127.479 198.928 125.208 202.323 123.5 205.323C122.938 204.24 122.167 202.98 121.188 201.542C119.5 199.042 117.406 196.136 114.906 192.823C114.365 192.094 112.458 189.719 109.188 185.698C111.292 183.303 114 179.886 117.313 175.448C119.771 172.157 121.833 169.011 123.5 166.011Z" fill="black"/>
</svg>
