<svg width="182" height="217" viewBox="0 0 182 217" fill="none" xmlns="http://www.w3.org/2000/svg">
<path d="M170.52 0.416321C170.52 0.416321 119.752 1.64937 87.9343 1.64937C56.1169 1.64937 5.34811 0.416321 5.34811 0.416321C2.3924 0.416321 0.132141 2.42005 0.132141 5.0403V209.883C0.132141 212.503 2.56626 214.661 5.34811 214.661C5.34811 214.661 56.1169 216.202 87.9343 216.202C119.752 216.202 170.52 214.661 170.52 214.661C173.476 214.507 175.736 212.349 175.736 209.883V5.0403C175.736 2.42005 173.476 0.416321 170.52 0.416321Z" fill="white"/>
<path d="M21.2236 28.5781C21.0316 28.5781 20.8956 28.5301 20.8156 28.4341C20.7516 28.3381 20.7196 28.2021 20.7196 28.0261C20.7196 27.6741 20.7996 27.1301 20.9596 26.3941C21.1356 25.7221 21.2236 25.1701 21.2236 24.7381C21.2236 23.4901 21.1276 22.5381 20.9356 21.8821H20.1916C19.5356 21.8821 18.6796 21.8661 17.6236 21.8341L15.3676 21.8101H12.1276L12.1756 22.7461C12.1756 23.4821 12.2956 24.4021 12.5356 25.5061C12.6156 25.9541 12.6876 26.4101 12.7516 26.8741C12.8316 27.3221 12.8716 27.7301 12.8716 28.0981V28.3141C12.7116 28.4741 12.5436 28.5541 12.3676 28.5541C11.9516 28.5541 11.6236 28.0661 11.3836 27.0901C11.1436 26.0981 11.0236 24.9061 11.0236 23.5141C11.0236 22.9541 11.0476 22.4021 11.0956 21.8581C10.7436 21.8421 10.5036 21.7861 10.3756 21.6901C10.2476 21.5781 10.1836 21.4101 10.1836 21.1861C10.1836 21.0101 10.2316 20.8901 10.3276 20.8261C10.4396 20.7621 10.6316 20.7141 10.9036 20.6821L10.8796 20.0341L10.9516 18.9301C11.0636 17.1221 11.2316 15.6501 11.4556 14.5141C11.6796 13.3781 12.1596 12.3941 12.8956 11.5621C13.6316 10.7301 14.7356 10.3141 16.2076 10.3141C17.8876 10.3141 19.1996 11.2181 20.1436 13.0261C21.0876 14.8341 21.7276 16.8501 22.0636 19.0741C22.3996 21.2981 22.5676 23.2101 22.5676 24.8101C22.5676 25.3861 22.5516 25.8901 22.5196 26.3221C22.4876 26.7381 22.4236 27.2581 22.3276 27.8821C21.9596 28.3461 21.5916 28.5781 21.2236 28.5781ZM20.8396 20.9461C20.5356 17.9861 19.9916 15.6661 19.2076 13.9861C18.4236 12.2901 17.2476 11.4421 15.6796 11.4421C14.5116 11.4421 13.6476 11.9861 13.0876 13.0741C12.5436 14.1461 12.2156 15.2981 12.1036 16.5301C11.9916 17.7621 11.9356 19.1461 11.9356 20.6821L20.8396 20.9461Z" fill="black"/>
<path d="M17.1326 35.6442C17.8201 36.8473 18.6716 38.1246 19.6873 39.4762C20.8591 41.0387 21.8044 42.2223 22.5232 43.027C21.9451 43.6364 20.9998 44.816 19.6873 46.566C18.6248 47.9879 17.7732 49.2614 17.1326 50.3864C16.9216 49.9801 16.6326 49.5074 16.2654 48.9684C15.6326 48.0309 14.8474 46.941 13.9099 45.6989C13.7068 45.4254 12.9919 44.5348 11.7654 43.027C12.5544 42.1285 13.5701 40.8473 14.8123 39.1832C15.7341 37.9489 16.5076 36.7692 17.1326 35.6442Z" fill="black"/>
<path d="M154.19 165.116C154.877 166.319 155.729 167.596 156.744 168.948C157.916 170.51 158.862 171.694 159.58 172.498C159.002 173.108 158.057 174.287 156.744 176.037C155.682 177.459 154.83 178.733 154.19 179.858C153.979 179.451 153.69 178.979 153.323 178.44C152.69 177.502 151.905 176.412 150.967 175.17C150.764 174.897 150.049 174.006 148.823 172.498C149.612 171.6 150.627 170.319 151.869 168.655C152.791 167.42 153.565 166.241 154.19 165.116Z" fill="black"/>
<path d="M85.266 72.4542C88.016 77.2667 91.4222 82.3761 95.4847 87.7823C100.172 94.0323 103.953 98.7667 106.828 101.985C104.516 104.423 100.735 109.142 95.4847 116.142C91.2347 121.829 87.8285 126.923 85.266 131.423C84.4222 129.798 83.266 127.907 81.7972 125.751C79.266 122.001 76.1254 117.642 72.3754 112.673C71.5629 111.579 68.7035 108.017 63.7972 101.985C66.9535 98.3917 71.016 93.2667 75.9847 86.6104C79.6722 81.6729 82.766 76.9542 85.266 72.4542Z" fill="black"/>
<path d="M152.093 185.998C152.285 185.998 152.421 186.046 152.501 186.141C152.565 186.237 152.597 186.373 152.598 186.549C152.598 186.901 152.519 187.445 152.36 188.182C152.185 188.854 152.097 189.406 152.098 189.838C152.099 191.086 152.197 192.038 152.389 192.694L153.133 192.693C153.789 192.692 154.646 192.707 155.702 192.738L157.958 192.76L161.198 192.756L161.148 191.82C161.147 191.085 161.026 190.165 160.785 189.061C160.704 188.613 160.632 188.157 160.567 187.693C160.487 187.245 160.446 186.837 160.446 186.469L160.445 186.253C160.605 186.093 160.773 186.013 160.949 186.013C161.365 186.012 161.694 186.5 161.935 187.476C162.176 188.467 162.298 189.659 162.299 191.051C162.3 191.611 162.277 192.163 162.23 192.707C162.582 192.723 162.822 192.779 162.95 192.875C163.078 192.986 163.142 193.154 163.142 193.378C163.143 193.554 163.095 193.674 162.999 193.739C162.887 193.803 162.695 193.851 162.423 193.883L162.448 194.531L162.377 195.635C162.268 197.443 162.101 198.916 161.879 200.052C161.656 201.188 161.178 202.172 160.443 203.005C159.708 203.838 158.604 204.255 157.132 204.257C155.452 204.258 154.139 203.356 153.193 201.549C152.247 199.742 151.604 197.726 151.265 195.503C150.926 193.279 150.756 191.367 150.754 189.767C150.753 189.191 150.768 188.687 150.8 188.255C150.831 187.839 150.895 187.319 150.99 186.695C151.357 186.231 151.725 185.998 152.093 185.998ZM152.487 193.629C152.794 196.589 153.341 198.909 154.128 200.588C154.914 202.283 156.091 203.13 157.659 203.128C158.827 203.127 159.69 202.582 160.249 201.493C160.791 200.421 161.118 199.269 161.228 198.036C161.339 196.804 161.393 195.42 161.391 193.884L152.487 193.629Z" fill="black"/>
</svg>
