<svg width="189" height="217" viewBox="0 0 189 217" fill="none" xmlns="http://www.w3.org/2000/svg">
<path d="M177.322 0.598969C177.322 0.598969 126.553 1.83202 94.7358 1.83202C62.9184 1.83202 12.1496 0.598969 12.1496 0.598969C9.19385 0.598969 6.93359 2.60269 6.93359 5.22295V210.065C6.93359 212.685 9.36771 214.843 12.1496 214.843C12.1496 214.843 62.9184 216.385 94.7358 216.385C126.553 216.385 177.322 214.843 177.322 214.843C180.278 214.689 182.538 212.531 182.538 210.065V5.22295C182.538 2.60269 180.278 0.598969 177.322 0.598969Z" fill="white"/>
<path d="M22.673 28.7607C20.465 28.7447 18.849 28.2487 17.825 27.2727C16.801 26.2967 16.289 25.0407 16.289 23.5047C16.289 22.1287 16.665 21.4407 17.417 21.4407C17.561 21.5047 17.633 21.5767 17.633 21.6567C17.633 21.7207 17.601 21.8087 17.537 21.9207C17.489 22.0327 17.449 22.1367 17.417 22.2327C17.337 22.5207 17.297 22.7927 17.297 23.0487C17.297 23.7527 17.537 24.4407 18.017 25.1127C18.497 25.7847 19.145 26.3367 19.961 26.7687C20.777 27.1847 21.649 27.3927 22.577 27.3927C23.265 27.3927 23.801 27.0887 24.185 26.4807C24.585 25.8727 24.785 24.9367 24.785 23.6727C24.785 22.9047 24.721 22.1127 24.593 21.2967L23.297 12.5127C23.473 12.2727 23.625 12.1527 23.753 12.1527C24.153 12.1527 24.497 12.8727 24.785 14.3127C25.073 15.7367 25.409 17.9367 25.793 20.9127L25.889 21.7047C26.001 22.6327 26.057 23.3607 26.057 23.8887C26.057 25.4727 25.769 26.6807 25.193 27.5127C24.617 28.3447 23.777 28.7607 22.673 28.7607Z" fill="black"/>
<path d="M23.934 35.8268C24.6215 37.0299 25.473 38.3073 26.4886 39.6589C27.6605 41.2214 28.6058 42.4049 29.3246 43.2096C28.7465 43.819 27.8011 44.9987 26.4886 46.7487C25.4261 48.1706 24.5746 49.444 23.934 50.569C23.723 50.1628 23.434 49.6901 23.0668 49.151C22.434 48.2135 21.6488 47.1237 20.7113 45.8815C20.5082 45.6081 19.7933 44.7174 18.5668 43.2096C19.3558 42.3112 20.3715 41.0299 21.6136 39.3659C22.5355 38.1315 23.309 36.9518 23.934 35.8268Z" fill="black"/>
<path d="M160.991 165.298C161.679 166.501 162.53 167.779 163.546 169.13C164.718 170.693 165.663 171.876 166.382 172.681C165.804 173.29 164.858 174.47 163.546 176.22C162.483 177.642 161.632 178.915 160.991 180.04C160.78 179.634 160.491 179.161 160.124 178.622C159.491 177.685 158.706 176.595 157.768 175.353C157.565 175.079 156.85 174.189 155.624 172.681C156.413 171.783 157.429 170.501 158.671 168.837C159.593 167.603 160.366 166.423 160.991 165.298Z" fill="black"/>
<path d="M164.246 186.175C166.454 186.189 168.071 186.683 169.096 187.658C170.121 188.633 170.635 189.888 170.637 191.424C170.639 192.8 170.264 193.489 169.512 193.49C169.368 193.426 169.295 193.354 169.295 193.274C169.295 193.21 169.327 193.122 169.391 193.01C169.439 192.898 169.479 192.794 169.511 192.698C169.59 192.409 169.63 192.137 169.63 191.881C169.629 191.177 169.388 190.49 168.907 189.818C168.426 189.147 167.777 188.595 166.961 188.164C166.144 187.749 165.272 187.542 164.344 187.543C163.656 187.544 163.12 187.848 162.737 188.457C162.338 189.065 162.139 190.001 162.141 191.265C162.142 192.033 162.207 192.825 162.336 193.641L163.643 202.424C163.467 202.664 163.316 202.784 163.188 202.784C162.788 202.785 162.443 202.065 162.153 200.625C161.863 199.201 161.524 197.002 161.136 194.026L161.039 193.234C160.926 192.306 160.869 191.579 160.869 191.051C160.867 189.467 161.153 188.258 161.728 187.426C162.303 186.593 163.142 186.176 164.246 186.175Z" fill="black"/>
<path d="M139.5 121C139.5 147.191 117.605 168.5 90.5 168.5C63.3951 168.5 41.5 147.191 41.5 121C41.5 94.8088 63.3951 73.5 90.5 73.5C117.605 73.5 139.5 94.8088 139.5 121Z" fill="white" stroke="black" stroke-width="3"/>
<path d="M72.888 96.024C70.68 96.008 69.064 95.512 68.04 94.536C67.016 93.56 66.504 92.304 66.504 90.768C66.504 89.392 66.88 88.704 67.632 88.704C67.776 88.768 67.848 88.84 67.848 88.92C67.848 88.984 67.816 89.072 67.752 89.184C67.704 89.296 67.664 89.4 67.632 89.496C67.552 89.784 67.512 90.056 67.512 90.312C67.512 91.016 67.752 91.704 68.232 92.376C68.712 93.048 69.36 93.6 70.176 94.032C70.992 94.448 71.864 94.656 72.792 94.656C73.48 94.656 74.016 94.352 74.4 93.744C74.8 93.136 75 92.2 75 90.936C75 90.168 74.936 89.376 74.808 88.56L73.512 79.776C73.688 79.536 73.84 79.416 73.968 79.416C74.368 79.416 74.712 80.136 75 81.576C75.288 83 75.624 85.2 76.008 88.176L76.104 88.968C76.216 89.896 76.272 90.624 76.272 91.152C76.272 92.736 75.984 93.944 75.408 94.776C74.832 95.608 73.992 96.024 72.888 96.024ZM84.8468 96C83.1828 96 81.7348 95.712 80.5028 95.136C79.2868 94.544 78.6788 93.512 78.6788 92.04C78.6788 91.512 78.8388 91 79.1588 90.504C79.4788 90.008 79.9508 89.608 80.5748 89.304C81.1988 88.984 81.9588 88.824 82.8548 88.824C83.5428 88.824 84.1267 88.856 84.6068 88.92C85.0868 88.984 85.6388 89.16 86.2628 89.448C86.8868 89.736 87.5348 90.192 88.2068 90.816C87.9508 89.712 87.5668 88.744 87.0548 87.912C86.5428 87.08 85.9668 86.44 85.3268 85.992C84.7028 85.528 84.0868 85.296 83.4788 85.296C83.1908 85.296 82.9188 85.352 82.6628 85.464C82.4228 85.56 82.1268 85.704 81.7748 85.896C81.3748 86.152 81.0788 86.28 80.8867 86.28C80.8068 86.28 80.7348 86.256 80.6708 86.208C80.6228 86.144 80.5988 86.072 80.5988 85.992C80.5988 85.352 80.8788 84.856 81.4388 84.504C82.0148 84.152 82.7108 83.992 83.5268 84.024C84.6468 84.088 85.6708 84.568 86.5988 85.464C87.5268 86.344 88.2548 87.44 88.7828 88.752C89.3268 90.064 89.5988 91.352 89.5988 92.616C89.5988 92.824 89.5828 93.12 89.5508 93.504L88.7828 93.456C88.1748 92.224 87.3908 91.352 86.4308 90.84C85.4868 90.312 84.5348 90.048 83.5748 90.048C82.3428 90.048 81.4628 90.232 80.9348 90.6C80.4068 90.968 80.1428 91.504 80.1428 92.208C80.1428 92.944 80.5108 93.536 81.2467 93.984C81.9828 94.432 82.9268 94.656 84.0788 94.656C84.7188 94.656 85.2308 94.624 85.6148 94.56C85.9988 94.48 86.3988 94.376 86.8148 94.248C87.1508 94.136 87.4468 94.056 87.7028 94.008C87.9588 93.96 88.2868 93.936 88.6868 93.936C89.1348 93.936 89.4148 93.968 89.5268 94.032C89.6548 94.096 89.7188 94.24 89.7188 94.464C89.7188 94.624 89.3908 94.824 88.7348 95.064C88.0788 95.304 87.3428 95.52 86.5268 95.712C85.7108 95.904 85.1508 96 84.8468 96ZM97.5437 96.024C95.6717 96.024 94.2157 95.6 93.1757 94.752C92.1517 93.888 91.6397 92.56 91.6397 90.768C91.6397 89.856 91.8637 88.992 92.3117 88.176C92.7757 87.344 93.3917 86.68 94.1597 86.184C94.9437 85.672 95.7837 85.416 96.6797 85.416C97.5917 85.416 98.3677 85.616 99.0077 86.016C99.6477 86.4 99.9677 86.96 99.9677 87.696C99.9677 88.208 99.8717 88.576 99.6797 88.8C99.5037 89.008 99.3037 89.112 99.0797 89.112C99.0797 88.344 98.8717 87.72 98.4557 87.24C98.0397 86.76 97.4477 86.52 96.6797 86.52C95.9117 86.52 95.2477 86.728 94.6877 87.144C94.1277 87.544 93.6957 88.08 93.3917 88.752C93.1037 89.408 92.9597 90.096 92.9597 90.816C92.9597 92.336 93.4717 93.368 94.4957 93.912C95.5357 94.456 96.9037 94.728 98.5997 94.728C99.1757 94.728 99.9277 94.696 100.856 94.632C100.888 94.632 100.96 94.664 101.072 94.728C101.184 94.792 101.272 94.832 101.336 94.848V94.992C101.336 95.456 100.928 95.744 100.112 95.856C99.2957 95.968 98.4397 96.024 97.5437 96.024ZM104.104 96.024C103.704 96.024 103.504 95.792 103.504 95.328C103.504 95.232 103.536 95.032 103.6 94.728C103.68 94.424 103.72 94.088 103.72 93.72V92.544V90.816C103.64 89.68 103.44 88.296 103.12 86.664C102.768 84.872 102.496 83.208 102.304 81.672C102.352 81.4 102.48 81.264 102.688 81.264C102.96 81.264 103.288 81.984 103.672 83.424C104.056 84.848 104.448 87.208 104.848 90.504C105.168 89.704 105.608 88.896 106.168 88.08C106.728 87.248 107.32 86.56 107.944 86.016C108.568 85.472 109.112 85.2 109.576 85.2C109.768 85.2 109.888 85.256 109.936 85.368C110 85.48 110.024 85.64 110.008 85.848C109.064 86.68 108.112 87.648 107.152 88.752C106.192 89.856 105.712 90.712 105.712 91.32C105.712 91.688 106.016 92.112 106.624 92.592C107.232 93.056 107.984 93.472 108.88 93.84C109.776 94.192 110.616 94.392 111.4 94.44C111.704 94.488 111.856 94.672 111.856 94.992C111.856 95.536 111.344 95.808 110.32 95.808C109.504 95.808 108.608 95.48 107.632 94.824C106.672 94.168 105.84 93.48 105.136 92.76C105.088 93.032 105.056 93.272 105.04 93.48C105.024 93.672 105.008 93.84 104.992 93.984C104.928 94.688 104.84 95.208 104.728 95.544C104.632 95.864 104.424 96.024 104.104 96.024Z" fill="black"/>
<line x1="65.3402" y1="122.366" x2="51.3402" y2="135.366" stroke="black"/>
<line x1="98.2451" y1="125.564" x2="114.245" y2="134.564" stroke="black"/>
<path d="M40.7729 130.674C40.7729 138.92 38.5872 146.981 38.5872 154.717C38.5872 163.349 26.1106 162.55 23.287 156.903" stroke="white" stroke-width="3" stroke-linecap="round"/>
<path d="M38.5871 128.488C38.5871 138.688 38.5871 148.888 38.5871 159.089C38.5871 169.246 26.0695 167.832 18.9154 167.832" stroke="black" stroke-width="3" stroke-linecap="round"/>
<path d="M136.946 124.117C136.946 132.131 136.946 140.145 136.946 148.16C136.946 158.222 143.461 161.107 145.689 170.017" stroke="white" stroke-width="3" stroke-linecap="round"/>
<path d="M139.131 132.86C139.131 138.552 136.268 158.819 143.017 159.088C152.413 159.464 165.126 155.654 167.546 145.974" stroke="black" stroke-width="3" stroke-linecap="round"/>
<path d="M71.3733 145.974H91.045" stroke="black" stroke-width="3" stroke-linecap="round"/>
<path d="M118.001 170.222C120.662 170.222 122.826 170.508 125.388 169.939C127.685 169.428 130.262 169.622 132.709 169.622C135.658 169.622 138.462 169.637 141.231 170.489C143.635 171.229 146.499 170.964 148.618 172.023" stroke="black" stroke-linecap="round"/>
<path d="M56.7732 175.776C54.322 175.47 54.0671 175.034 51.6855 175.714C49.9509 176.21 47.1482 177.924 45.6052 178.01C40.2033 178.31 35.0098 179.127 29.4116 179.127C24.1226 179.127 0.933105 176.865 0.933105 183.594" stroke="black" stroke-linecap="round"/>
<line x1="59.4993" y1="155.026" x2="58.4993" y2="174.026" stroke="black"/>
<line x1="118.5" y1="159" x2="118.5" y2="170" stroke="black"/>
<path d="M118.301 169.622H123.104" stroke="white" stroke-linecap="round"/>
</svg>
