<svg width="185" height="217" viewBox="0 0 185 217" fill="none" xmlns="http://www.w3.org/2000/svg">
<path d="M172.853 0.79184C172.853 0.79184 122.084 2.02489 90.2664 2.02489C58.449 2.02489 7.68021 0.79184 7.68021 0.79184C4.72449 0.79184 2.46423 2.79556 2.46423 5.41582V210.258C2.46423 212.878 4.89835 215.036 7.68021 215.036C7.68021 215.036 58.449 216.578 90.2664 216.578C122.084 216.578 172.853 215.036 172.853 215.036C175.808 214.882 178.069 212.724 178.069 210.258V5.41582C178.069 2.79556 175.808 0.79184 172.853 0.79184Z" fill="white"/>
<path d="M14.5078 28.9776C14.1718 28.9776 13.9398 28.5936 13.8118 27.8256C13.6998 27.0416 13.6038 25.6656 13.5238 23.6976L13.4518 21.9456C13.4198 21.3376 13.3078 20.4016 13.1158 19.1376C13.0998 18.9776 13.0358 18.4896 12.9238 17.6736C12.8118 16.8576 12.7558 16.1376 12.7558 15.5136C12.7558 15.4176 12.8038 15.2976 12.8998 15.1536C12.9958 14.9936 13.1158 14.9136 13.2598 14.9136C13.4678 14.9136 13.6038 15.0096 13.6678 15.2016C13.7478 15.3936 13.7958 15.5856 13.8118 15.7776C13.8438 15.9536 13.8598 16.0656 13.8598 16.1136C13.9558 16.3856 14.0278 16.7616 14.0758 17.2416C14.1238 17.7056 14.1638 18.2016 14.1958 18.7296C14.2598 19.7696 14.3238 20.5136 14.3878 20.9616L15.1318 19.9056C16.1718 18.3696 17.1078 17.1376 17.9398 16.2096C18.7878 15.2816 19.6118 14.8336 20.4118 14.8656C20.4758 14.9296 20.5078 15.0096 20.5078 15.1056C20.5078 15.2656 20.4278 15.4496 20.2678 15.6576C20.1078 15.8656 19.8678 16.1376 19.5478 16.4736L19.0438 17.0016C18.8678 17.2096 18.3318 17.8016 17.4358 18.7776C16.8118 19.4336 16.2998 19.9936 15.8998 20.4576C15.4998 20.9216 15.1958 21.3456 14.9878 21.7296C15.6918 22.7056 16.5238 23.5696 17.4838 24.3216C18.4598 25.0736 19.7318 25.9616 21.2998 26.9856L22.0198 27.4416C22.3078 27.5536 22.5318 27.7056 22.6918 27.8976C22.8678 28.0736 22.9558 28.2576 22.9558 28.4496C22.9558 28.5456 22.9318 28.6416 22.8838 28.7376C22.7718 28.9296 22.6358 29.0256 22.4758 29.0256C22.2998 29.0256 21.9878 28.9136 21.5398 28.6896L20.2438 27.7776C18.8358 26.8496 17.6358 25.9856 16.6438 25.1856C15.6518 24.3856 14.9638 23.6256 14.5798 22.9056L14.7238 24.7056C14.8678 26.3536 14.9398 27.4576 14.9398 28.0176C14.9398 28.4176 14.9078 28.6816 14.8438 28.8096C14.7798 28.9216 14.6678 28.9776 14.5078 28.9776Z" fill="black"/>
<path d="M19.4647 36.0197C20.1522 37.2228 21.0038 38.5001 22.0194 39.8517C23.1913 41.4142 24.1366 42.5978 24.8553 43.4025C24.2772 44.0119 23.3319 45.1916 22.0194 46.9416C20.9569 48.3634 20.1053 49.6369 19.4647 50.7619C19.2538 50.3556 18.9647 49.883 18.5975 49.3439C17.9647 48.4064 17.1796 47.3166 16.2421 46.0744C16.0389 45.8009 15.3241 44.9103 14.0975 43.4025C14.8866 42.5041 15.9022 41.2228 17.1444 39.5587C18.0663 38.3244 18.8397 37.1447 19.4647 36.0197Z" fill="black"/>
<path d="M156.522 165.491C157.209 166.694 158.061 167.972 159.077 169.323C160.248 170.886 161.194 172.069 161.912 172.874C161.334 173.483 160.389 174.663 159.077 176.413C158.014 177.835 157.162 179.108 156.522 180.233C156.311 179.827 156.022 179.354 155.655 178.815C155.022 177.878 154.237 176.788 153.299 175.546C153.096 175.272 152.381 174.382 151.155 172.874C151.944 171.975 152.959 170.694 154.202 169.03C155.123 167.796 155.897 166.616 156.522 165.491Z" fill="black"/>
<path d="M163.473 186.34C163.809 186.34 164.042 186.723 164.17 187.491C164.283 188.275 164.381 189.651 164.464 191.619L164.538 193.371C164.571 193.979 164.684 194.915 164.878 196.179C164.894 196.339 164.958 196.827 165.072 197.642C165.185 198.458 165.241 199.178 165.242 199.802C165.242 199.898 165.195 200.018 165.099 200.162C165.003 200.322 164.883 200.403 164.739 200.403C164.531 200.403 164.395 200.307 164.331 200.115C164.25 199.923 164.202 199.731 164.186 199.539C164.154 199.363 164.138 199.251 164.138 199.203C164.041 198.931 163.969 198.556 163.92 198.076C163.871 197.612 163.831 197.116 163.798 196.588C163.733 195.548 163.668 194.804 163.603 194.356L162.861 195.413C161.823 196.95 160.888 198.183 160.057 199.112C159.211 200.04 158.387 200.489 157.587 200.458C157.523 200.394 157.491 200.314 157.491 200.218C157.491 200.058 157.57 199.874 157.73 199.666C157.89 199.458 158.129 199.186 158.449 198.849L158.952 198.321C159.128 198.113 159.663 197.52 160.558 196.543C161.181 195.886 161.693 195.326 162.092 194.861C162.491 194.397 162.795 193.973 163.002 193.589C162.297 192.613 161.464 191.75 160.503 190.999C159.526 190.248 158.253 189.361 156.684 188.339L155.963 187.884C155.675 187.772 155.451 187.62 155.29 187.429C155.114 187.253 155.026 187.069 155.026 186.877C155.026 186.781 155.049 186.685 155.097 186.589C155.209 186.397 155.345 186.3 155.505 186.3C155.681 186.3 155.993 186.412 156.441 186.635L157.739 187.546C159.148 188.473 160.349 189.335 161.342 190.134C162.335 190.933 163.024 191.693 163.409 192.412L163.262 190.612C163.116 188.964 163.043 187.86 163.042 187.3C163.042 186.9 163.073 186.636 163.137 186.508C163.201 186.396 163.313 186.34 163.473 186.34Z" fill="black"/>
<path d="M142.5 109C142.5 135.191 120.605 156.5 93.5 156.5C66.3951 156.5 44.5 135.191 44.5 109C44.5 82.8088 66.3951 61.5 93.5 61.5C120.605 61.5 142.5 82.8088 142.5 109Z" fill="white" stroke="black" stroke-width="3"/>
<path d="M70.192 87.048C69.856 87.048 69.624 86.664 69.496 85.896C69.384 85.112 69.288 83.736 69.208 81.768L69.136 80.016C69.104 79.408 68.992 78.472 68.8 77.208C68.784 77.048 68.72 76.56 68.608 75.744C68.496 74.928 68.44 74.208 68.44 73.584C68.44 73.488 68.488 73.368 68.584 73.224C68.68 73.064 68.8 72.984 68.944 72.984C69.152 72.984 69.288 73.08 69.352 73.272C69.432 73.464 69.48 73.656 69.496 73.848C69.528 74.024 69.544 74.136 69.544 74.184C69.64 74.456 69.712 74.832 69.76 75.312C69.808 75.776 69.848 76.272 69.88 76.8C69.944 77.84 70.008 78.584 70.072 79.032L70.816 77.976C71.856 76.44 72.792 75.208 73.624 74.28C74.472 73.352 75.296 72.904 76.096 72.936C76.16 73 76.192 73.08 76.192 73.176C76.192 73.336 76.112 73.52 75.952 73.728C75.792 73.936 75.552 74.208 75.232 74.544L74.728 75.072C74.552 75.28 74.016 75.872 73.12 76.848C72.496 77.504 71.984 78.064 71.584 78.528C71.184 78.992 70.88 79.416 70.672 79.8C71.376 80.776 72.208 81.64 73.168 82.392C74.144 83.144 75.416 84.032 76.984 85.056L77.704 85.512C77.992 85.624 78.216 85.776 78.376 85.968C78.552 86.144 78.64 86.328 78.64 86.52C78.64 86.616 78.616 86.712 78.568 86.808C78.456 87 78.32 87.096 78.16 87.096C77.984 87.096 77.672 86.984 77.224 86.76L75.928 85.848C74.52 84.92 73.32 84.056 72.328 83.256C71.336 82.456 70.648 81.696 70.264 80.976L70.408 82.776C70.552 84.424 70.624 85.528 70.624 86.088C70.624 86.488 70.592 86.752 70.528 86.88C70.464 86.992 70.352 87.048 70.192 87.048ZM81.2164 87.024C80.8484 87.024 80.5524 86.488 80.3284 85.416C80.1044 84.328 79.9604 83.392 79.8964 82.608C79.8324 81.824 79.7444 80.584 79.6324 78.888C79.6164 78.616 79.6084 78.264 79.6084 77.832C79.6084 77.288 79.6484 76.912 79.7284 76.704C79.8244 76.496 79.9764 76.392 80.1844 76.392C80.3604 76.392 80.4964 76.432 80.5924 76.512C80.7044 76.576 80.8004 76.688 80.8804 76.848L80.8564 77.808C80.8564 78.832 80.9044 79.8 81.0004 80.712C81.1124 81.624 81.2804 82.848 81.5044 84.384C81.6324 85.056 81.7204 85.608 81.7684 86.04C81.8004 86.264 81.7604 86.488 81.6484 86.712C81.5364 86.92 81.3924 87.024 81.2164 87.024ZM80.6164 73.824C80.2644 73.824 80.0004 73.688 79.8244 73.416C79.6644 73.144 79.5844 72.808 79.5844 72.408C79.5844 72.232 79.5924 72.104 79.6084 72.024C79.5924 71.768 79.7364 71.64 80.0404 71.64C80.2644 71.64 80.4884 71.696 80.7124 71.808C80.9524 71.904 81.0244 71.976 80.9284 72.024C81.0884 72.44 81.1684 72.768 81.1684 73.008C81.1684 73.216 81.1204 73.384 81.0244 73.512C80.9284 73.624 80.7924 73.728 80.6164 73.824ZM86.2009 87.096C85.9769 87.16 85.8489 87.192 85.8169 87.192C85.6889 87.192 85.5529 87.128 85.4089 87C84.8809 86.216 84.4969 84.848 84.2569 82.896C84.0329 80.944 83.9209 79.264 83.9209 77.856C83.9209 77.632 84.0809 77.52 84.4009 77.52C84.8809 77.52 85.1209 77.784 85.1209 78.312C85.1209 78.456 85.1129 78.576 85.0969 78.672C85.2409 78.336 85.5129 77.992 85.9129 77.64C86.3129 77.288 86.7769 76.992 87.3049 76.752C87.8329 76.512 88.3689 76.392 88.9129 76.392C90.6249 76.392 91.8729 77.152 92.6569 78.672C93.4409 80.176 93.8329 82.048 93.8329 84.288C93.8329 85.056 93.7529 85.672 93.5929 86.136C93.4329 86.584 93.2169 86.808 92.9449 86.808C92.6569 86.808 92.5129 86.72 92.5129 86.544C92.6249 85.696 92.6809 84.864 92.6809 84.048C92.6809 81.984 92.3209 80.424 91.6009 79.368C90.8809 78.296 89.9289 77.76 88.7449 77.76C88.1689 77.76 87.6089 77.904 87.0649 78.192C86.5369 78.48 86.1049 78.88 85.7689 79.392C85.4489 79.904 85.2889 80.488 85.2889 81.144C85.2889 81.88 85.3289 82.52 85.4089 83.064C85.4889 83.608 85.6169 84.264 85.7929 85.032C85.9849 85.784 86.1209 86.472 86.2009 87.096ZM99.7889 98.712C98.4449 98.712 97.3169 98.328 96.4049 97.56C95.5089 96.808 94.9729 95.536 94.7969 93.744C94.7809 93.472 94.8209 93.264 94.9169 93.12C95.0289 92.976 95.1729 92.904 95.3489 92.904C95.5409 92.904 95.7089 92.976 95.8529 93.12C95.9969 93.28 96.0609 93.488 96.0449 93.744C96.0449 94.8 96.4049 95.632 97.1249 96.24C97.8609 96.864 98.7969 97.176 99.9329 97.176C100.589 97.176 101.165 96.936 101.661 96.456C102.173 95.976 102.565 95.304 102.837 94.44C103.109 93.592 103.245 92.616 103.245 91.512C103.245 89.576 103.269 87.696 103.317 85.872L103.341 84.648C102.717 85.304 102.149 85.784 101.637 86.088C101.141 86.392 100.541 86.544 99.8369 86.544C98.6049 86.544 97.6929 86.216 97.1009 85.56C96.5249 84.888 96.2369 83.864 96.2369 82.488C96.2369 81.704 96.4449 80.888 96.8609 80.04C97.2929 79.176 97.8769 78.456 98.6129 77.88C99.3649 77.304 100.213 77.016 101.157 77.016C101.477 77.016 101.773 77.048 102.045 77.112C103.069 77.336 103.757 78.288 104.109 79.968C104.461 81.648 104.637 83.824 104.637 86.496C104.637 87.232 104.621 88.208 104.589 89.424L104.565 91.704C104.565 92.616 104.421 93.608 104.133 94.68C103.845 95.768 103.341 96.712 102.621 97.512C101.901 98.312 100.957 98.712 99.7889 98.712ZM99.4769 84.96C100.661 84.96 101.557 84.68 102.165 84.12C102.773 83.544 103.077 82.704 103.077 81.6C103.077 81.456 103.061 81.208 103.029 80.856C102.949 80.12 102.757 79.544 102.453 79.128C102.165 78.696 101.709 78.48 101.085 78.48C100.429 78.48 99.8289 78.712 99.2849 79.176C98.7409 79.64 98.3169 80.216 98.0129 80.904C97.7089 81.576 97.5569 82.208 97.5569 82.8C97.5569 83.392 97.7329 83.904 98.0849 84.336C98.4369 84.752 98.9009 84.96 99.4769 84.96Z" fill="black"/>
<line x1="74.2704" y1="109.421" x2="60.2704" y2="118.421" stroke="black"/>
<line x1="100.322" y1="107.618" x2="119.322" y2="123.618" stroke="black"/>
<path d="M75.9449 125.221C75.9449 130.289 72.191 135.822 67.5068 138.499C65.392 139.707 60.9729 133.23 61.4885 131.426C61.734 130.566 67.8267 133.951 62.5433 135.272" stroke="black" stroke-linecap="round"/>
<path d="M96.0473 125.221C96.0473 134.799 95.872 138.944 102.5 145.572C106.651 149.723 111.959 142.65 108.27 142.035C106.424 141.728 105.543 140.856 103.617 140.856C100.854 140.856 103.806 141.973 104.982 141.973" stroke="black" stroke-linecap="round"/>
<line x1="60.5" y1="143" x2="60.5" y2="165" stroke="black"/>
<line x1="122.491" y1="149.092" x2="119.491" y2="165.092" stroke="black"/>
<path d="M37.9736 116.287C37.9736 122.132 31.3022 129.359 28.4187 134.714C24.4972 141.997 19.6959 145.732 14.5208 150.908" stroke="black" stroke-width="3" stroke-linecap="round"/>
<path d="M144.07 110.703C144.07 120.681 144.359 127.672 149.406 136.389C151.536 140.069 153.717 144.928 156.913 147.619C159.104 149.465 161.533 151.743 163.552 153.762C165.069 155.279 168.173 157.608 166.406 157.608" stroke="black" stroke-width="3" stroke-linecap="round"/>
<path d="M138.486 134.156C138.486 139.905 138.486 145.654 138.486 151.404C138.486 152.204 141.356 156.47 142.084 157.36C143.91 159.592 146.058 160.468 147.42 163.192" stroke="black" stroke-width="3" stroke-linecap="round"/>
<path d="M26.1111 157.813C25.0795 157.916 20.5293 159.798 20.4475 157.671C20.4191 156.933 19.8994 156.324 19.8994 155.478C19.8994 154.517 19.7167 153.572 19.7167 152.596C19.7167 151.953 20.8232 151.388 21.2594 150.951C21.9499 150.261 22.9472 150.218 23.9187 150.129C24.7265 150.056 25.9019 149.309 26.1009 150.403C26.2208 151.063 26.1111 151.844 26.1111 152.514" stroke="black" stroke-width="3" stroke-linecap="round"/>
<path d="M146.327 161.292C148.744 161.594 148.897 163.001 150.632 160.616C151.865 158.921 152.399 156.219 150.878 154.528C150.504 154.113 146.226 149.107 145.344 149.794C143.495 151.232 143.622 153.928 144.667 155.758" stroke="black" stroke-width="3" stroke-linecap="round"/>
<path d="M165.697 157.418C167.604 157.657 168.958 158.264 170.37 156.189C171.552 154.45 172.676 151.259 171.661 149.117C170.82 147.342 167.073 144.03 165.143 144.137C163.871 144.207 164.036 148.688 164.036 149.671" stroke="black" stroke-width="3" stroke-linecap="round"/>
<path d="M12.7742 141.37C13.803 141.37 14.0963 142.117 15.068 142.294C16.362 142.529 15.4405 143.928 14.6011 143.928" stroke="black" stroke-width="3" stroke-linecap="round"/>
<path d="M43.5577 121.871C43.5577 129.853 43.2612 137.531 42.4409 145.324C41.813 151.288 39.4261 150.339 35.7401 153.637C33.4359 155.699 26.7166 155.553 25.6888 157.608" stroke="black" stroke-width="3" stroke-linecap="round"/>
<path d="M59.3296 165.481C54.5515 165.481 50.2739 166.343 45.4959 166.527C43.4036 166.607 31.6052 168.355 31.0809 169.666C30.2997 171.619 17.0395 172.804 14.806 172.804C11.2097 172.804 1.56081 172.659 0.739746 175.943" stroke="black" stroke-linecap="round"/>
<path d="M120.012 165.481C124.963 165.481 129.264 167.573 134.136 167.573C137.351 167.573 145.432 167.768 146.168 170.712" stroke="black" stroke-linecap="round"/>
</svg>
