<svg width="176" height="231" viewBox="0 0 176 231" fill="none" xmlns="http://www.w3.org/2000/svg">
<path d="M170.388 14.4266C170.388 14.4266 119.62 15.6596 87.8022 15.6596C55.9848 15.6596 5.21597 14.4266 5.21597 14.4266C2.26025 14.4266 0 16.4303 0 19.0506V223.893C0 226.513 2.43412 228.671 5.21597 228.671C5.21597 228.671 55.9848 230.212 87.8022 230.212C119.62 230.212 170.388 228.671 170.388 228.671C173.344 228.517 175.604 226.359 175.604 223.893V19.0506C175.604 16.4303 173.344 14.4266 170.388 14.4266Z" fill="white"/>
<path d="M13.8196 43.5483C13.6596 43.5483 13.5236 43.5163 13.4116 43.4523C13.2996 43.3883 13.1316 43.2603 12.9076 43.0683L13.1236 41.7963C13.4116 40.0203 13.6356 38.5403 13.7956 37.3563C13.9556 36.1563 14.0676 34.9243 14.1316 33.6603C13.5876 34.1403 12.8516 34.9243 11.9236 36.0123C11.3796 36.6523 10.9556 37.1243 10.6516 37.4283C10.3636 37.7163 10.1396 37.8603 9.97956 37.8603C9.85156 37.8443 9.73156 37.7723 9.61956 37.6443C9.52356 37.5003 9.47556 37.3323 9.47556 37.1403C9.47556 36.9163 9.55556 36.7163 9.71556 36.5403L13.9396 32.0283C14.0836 31.8683 14.1956 31.6523 14.2756 31.3803C14.3556 31.1083 14.4356 30.7323 14.5156 30.2523C14.6116 29.6443 14.7236 29.1883 14.8516 28.8843C14.9796 28.5643 15.1876 28.4043 15.4756 28.4043C15.6036 28.4043 15.6996 28.4203 15.7636 28.4523C15.8276 28.4683 15.8836 28.5243 15.9316 28.6203L15.9556 29.4123C15.9556 29.7003 15.8116 31.1003 15.5236 33.6123C15.2516 36.1083 14.9556 38.3883 14.6356 40.4523C14.3156 42.5163 14.0436 43.5483 13.8196 43.5483ZM22.0602 42.5883C21.0842 42.5883 20.2042 42.3883 19.4202 41.9883C18.6522 41.5723 18.0442 40.9723 17.5962 40.1883C17.1642 39.3883 16.9482 38.4363 16.9482 37.3323C16.9482 36.4203 17.1882 35.5723 17.6682 34.7883C18.1482 33.9883 18.7642 33.3563 19.5162 32.8923C20.2682 32.4283 21.0282 32.1963 21.7962 32.1963C22.5002 32.1963 23.1882 32.4603 23.8602 32.9883C24.5482 33.5163 25.1082 34.1963 25.5402 35.0283C25.9722 35.8603 26.1882 36.7163 26.1882 37.5963C26.1882 39.0683 25.8282 40.2683 25.1082 41.1963C24.4042 42.1243 23.3882 42.5883 22.0602 42.5883ZM21.7002 41.2203C23.7962 41.2203 24.8442 40.0843 24.8442 37.8123C24.8442 37.0763 24.7162 36.3803 24.4602 35.7243C24.2042 35.0683 23.8282 34.5403 23.3322 34.1403C22.8522 33.7403 22.2922 33.5403 21.6522 33.5403C20.6762 33.5403 19.8602 33.8603 19.2042 34.5003C18.5642 35.1403 18.1802 36.0283 18.0522 37.1643C18.0362 37.2923 18.0282 37.4763 18.0282 37.7163C18.0282 38.8203 18.3722 39.6843 19.0602 40.3083C19.7642 40.9163 20.6442 41.2203 21.7002 41.2203Z" fill="black"/>
<path d="M17.0356 64.3966C16.7935 63.4747 16.4458 62.6114 15.9927 61.8067C15.5474 60.9942 14.6802 59.7364 13.3911 58.0333C12.4458 56.7833 11.8638 55.9903 11.645 55.6544C11.2856 55.1075 11.0239 54.6075 10.8599 54.1544C10.7036 53.6935 10.6255 53.2286 10.6255 52.7599C10.6255 51.8927 10.9146 51.1661 11.4927 50.5802C12.0708 49.9942 12.7739 49.6974 13.6021 49.6896C14.4849 49.6974 15.2427 50.006 15.8755 50.6153C16.3521 51.0685 16.7388 51.7442 17.0356 52.6427C17.2856 51.7677 17.645 51.0997 18.1138 50.6388C18.7622 50.006 19.5083 49.6896 20.3521 49.6896C21.2036 49.6896 21.9224 49.9786 22.5083 50.5567C23.1021 51.1349 23.3989 51.8224 23.3989 52.6192C23.3989 53.3302 23.2271 54.0646 22.8833 54.8224C22.5474 55.5802 21.8833 56.5841 20.8911 57.8341C19.6099 59.4513 18.6763 60.7794 18.0903 61.8185C17.6294 62.6388 17.2778 63.4982 17.0356 64.3966Z" fill="black"/>
<path d="M156.511 180.714C156.753 181.636 157.101 182.499 157.554 183.304C157.999 184.117 158.866 185.375 160.155 187.078C161.1 188.328 161.682 189.121 161.901 189.457C162.26 190.004 162.522 190.504 162.686 190.957C162.842 191.418 162.92 191.883 162.92 192.352C162.92 193.219 162.631 193.945 162.052 194.531C161.474 195.117 160.771 195.414 159.943 195.422C159.06 195.414 158.302 195.105 157.67 194.495C157.193 194.042 156.806 193.366 156.51 192.468C156.26 193.343 155.9 194.011 155.431 194.472C154.783 195.104 154.037 195.421 153.193 195.421C152.341 195.421 151.623 195.131 151.037 194.553C150.443 193.975 150.146 193.287 150.146 192.491C150.146 191.78 150.318 191.045 150.662 190.288C150.998 189.53 151.662 188.526 152.655 187.276C153.936 185.659 154.87 184.331 155.456 183.292C155.917 182.472 156.269 181.612 156.511 180.714Z" fill="black"/>
<path d="M159.232 199.041C159.392 199.04 159.528 199.072 159.64 199.136C159.752 199.2 159.92 199.328 160.144 199.52L159.93 200.792C159.644 202.568 159.422 204.048 159.264 205.233C159.105 206.433 158.995 207.665 158.932 208.929C159.476 208.448 160.211 207.664 161.137 206.575C161.681 205.934 162.104 205.462 162.408 205.157C162.695 204.869 162.919 204.725 163.079 204.725C163.207 204.74 163.327 204.812 163.439 204.94C163.535 205.084 163.584 205.252 163.584 205.444C163.584 205.668 163.504 205.868 163.345 206.044L159.126 210.561C158.983 210.721 158.871 210.937 158.791 211.209C158.712 211.481 158.632 211.857 158.553 212.337C158.458 212.945 158.346 213.402 158.219 213.706C158.091 214.026 157.883 214.186 157.595 214.186C157.467 214.186 157.371 214.171 157.307 214.139C157.243 214.123 157.187 214.067 157.139 213.971L157.114 213.179C157.113 212.891 157.256 211.491 157.54 208.978C157.809 206.482 158.102 204.202 158.42 202.137C158.737 200.073 159.008 199.041 159.232 199.041ZM150.992 200.009C151.968 200.008 152.849 200.207 153.633 200.606C154.402 201.022 155.01 201.621 155.459 202.405C155.892 203.204 156.11 204.156 156.111 205.26C156.112 206.172 155.873 207.02 155.394 207.805C154.915 208.605 154.3 209.238 153.549 209.702C152.797 210.167 152.038 210.4 151.27 210.401C150.566 210.402 149.877 210.138 149.205 209.611C148.516 209.084 147.955 208.404 147.522 207.573C147.089 206.741 146.872 205.885 146.871 205.005C146.869 203.533 147.227 202.333 147.946 201.404C148.649 200.476 149.664 200.011 150.992 200.009ZM151.354 201.377C149.258 201.379 148.212 202.516 148.214 204.788C148.215 205.524 148.344 206.22 148.601 206.876C148.858 207.531 149.235 208.059 149.731 208.458C150.212 208.858 150.772 209.057 151.412 209.057C152.388 209.056 153.204 208.735 153.859 208.094C154.498 207.454 154.881 206.565 155.007 205.429C155.023 205.301 155.031 205.117 155.031 204.877C155.029 203.773 154.684 202.909 153.995 202.286C153.29 201.679 152.41 201.376 151.354 201.377Z" fill="black"/>
<path d="M120.594 65.75C119.948 63.2917 119.021 60.9896 117.812 58.8438C116.625 56.6771 114.312 53.3229 110.875 48.7812C108.354 45.4479 106.802 43.3333 106.219 42.4375C105.26 40.9792 104.562 39.6458 104.125 38.4375C103.708 37.2083 103.5 35.9688 103.5 34.7188C103.5 32.4062 104.271 30.4688 105.812 28.9062C107.354 27.3438 109.229 26.5521 111.438 26.5312C113.792 26.5521 115.812 27.375 117.5 29C118.771 30.2083 119.802 32.0104 120.594 34.4062C121.26 32.0729 122.219 30.2917 123.469 29.0625C125.198 27.375 127.188 26.5312 129.438 26.5312C131.708 26.5312 133.625 27.3021 135.188 28.8438C136.771 30.3854 137.562 32.2188 137.562 34.3438C137.562 36.2396 137.104 38.1979 136.188 40.2188C135.292 42.2396 133.521 44.9167 130.875 48.25C127.458 52.5625 124.969 56.1042 123.406 58.875C122.177 61.0625 121.24 63.3542 120.594 65.75Z" fill="black"/>
<path d="M121.594 105.75C120.948 103.292 120.021 100.99 118.812 98.8438C117.625 96.6771 115.312 93.3229 111.875 88.7812C109.354 85.4479 107.802 83.3333 107.219 82.4375C106.26 80.9792 105.562 79.6458 105.125 78.4375C104.708 77.2083 104.5 75.9688 104.5 74.7188C104.5 72.4062 105.271 70.4688 106.812 68.9062C108.354 67.3438 110.229 66.5521 112.438 66.5312C114.792 66.5521 116.812 67.375 118.5 69C119.771 70.2083 120.802 72.0104 121.594 74.4062C122.26 72.0729 123.219 70.2917 124.469 69.0625C126.198 67.375 128.188 66.5312 130.438 66.5312C132.708 66.5312 134.625 67.3021 136.188 68.8438C137.771 70.3854 138.562 72.2188 138.562 74.3438C138.562 76.2396 138.104 78.1979 137.188 80.2188C136.292 82.2396 134.521 84.9167 131.875 88.25C128.458 92.5625 125.969 96.1042 124.406 98.875C123.177 101.062 122.24 103.354 121.594 105.75Z" fill="black"/>
<path d="M121.733 113.214C122.379 115.673 123.306 117.975 124.514 120.121C125.702 122.287 128.014 125.641 131.452 130.183C133.972 133.516 135.525 135.631 136.108 136.527C137.066 137.985 137.764 139.318 138.202 140.527C138.618 141.756 138.827 142.996 138.827 144.246C138.827 146.558 138.056 148.496 136.514 150.058C134.972 151.621 133.097 152.412 130.889 152.433C128.535 152.412 126.514 151.589 124.827 149.964C123.556 148.756 122.525 146.954 121.733 144.558C121.066 146.891 120.108 148.673 118.858 149.902C117.129 151.589 115.139 152.433 112.889 152.433C110.618 152.433 108.702 151.662 107.139 150.121C105.556 148.579 104.764 146.746 104.764 144.621C104.764 142.725 105.222 140.766 106.139 138.746C107.035 136.725 108.806 134.048 111.452 130.714C114.868 126.402 117.358 122.86 118.92 120.089C120.15 117.902 121.087 115.61 121.733 113.214Z" fill="black"/>
<path d="M120.733 157.214C121.379 159.673 122.306 161.975 123.514 164.121C124.702 166.287 127.014 169.641 130.452 174.183C132.972 177.516 134.525 179.631 135.108 180.527C136.066 181.985 136.764 183.318 137.202 184.527C137.618 185.756 137.827 186.996 137.827 188.246C137.827 190.558 137.056 192.496 135.514 194.058C133.972 195.621 132.097 196.412 129.889 196.433C127.535 196.412 125.514 195.589 123.827 193.964C122.556 192.756 121.525 190.954 120.733 188.558C120.066 190.891 119.108 192.673 117.858 193.902C116.129 195.589 114.139 196.433 111.889 196.433C109.618 196.433 107.702 195.662 106.139 194.121C104.556 192.579 103.764 190.746 103.764 188.621C103.764 186.725 104.222 184.766 105.139 182.746C106.035 180.725 107.806 178.048 110.452 174.714C113.868 170.402 116.358 166.86 117.92 164.089C119.15 161.902 120.087 159.61 120.733 157.214Z" fill="black"/>
<path d="M58.5938 67.75C57.9479 65.2917 57.0208 62.9896 55.8125 60.8438C54.625 58.6771 52.3125 55.3229 48.875 50.7812C46.3542 47.4479 44.8021 45.3333 44.2188 44.4375C43.2604 42.9792 42.5625 41.6458 42.125 40.4375C41.7083 39.2083 41.5 37.9688 41.5 36.7188C41.5 34.4062 42.2708 32.4688 43.8125 30.9062C45.3542 29.3438 47.2292 28.5521 49.4375 28.5312C51.7917 28.5521 53.8125 29.375 55.5 31C56.7708 32.2083 57.8021 34.0104 58.5938 36.4062C59.2604 34.0729 60.2188 32.2917 61.4688 31.0625C63.1979 29.375 65.1875 28.5312 67.4375 28.5312C69.7083 28.5312 71.625 29.3021 73.1875 30.8438C74.7708 32.3854 75.5625 34.2188 75.5625 36.3438C75.5625 38.2396 75.1042 40.1979 74.1875 42.2188C73.2917 44.2396 71.5208 46.9167 68.875 50.25C65.4583 54.5625 62.9688 58.1042 61.4062 60.875C60.1771 63.0625 59.2396 65.3542 58.5938 67.75Z" fill="black"/>
<path d="M88.5938 87.75C87.9479 85.2917 87.0208 82.9896 85.8125 80.8438C84.625 78.6771 82.3125 75.3229 78.875 70.7812C76.3542 67.4479 74.8021 65.3333 74.2188 64.4375C73.2604 62.9792 72.5625 61.6458 72.125 60.4375C71.7083 59.2083 71.5 57.9688 71.5 56.7188C71.5 54.4062 72.2708 52.4688 73.8125 50.9062C75.3542 49.3438 77.2292 48.5521 79.4375 48.5312C81.7917 48.5521 83.8125 49.375 85.5 51C86.7708 52.2083 87.8021 54.0104 88.5938 56.4062C89.2604 54.0729 90.2188 52.2917 91.4688 51.0625C93.1979 49.375 95.1875 48.5312 97.4375 48.5312C99.7083 48.5312 101.625 49.3021 103.188 50.8438C104.771 52.3854 105.562 54.2188 105.562 56.3438C105.562 58.2396 105.104 60.1979 104.188 62.2188C103.292 64.2396 101.521 66.9167 98.875 70.25C95.4583 74.5625 92.9688 78.1042 91.4062 80.875C90.1771 83.0625 89.2396 85.3542 88.5938 87.75Z" fill="black"/>
<path d="M59.5938 108.75C58.9479 106.292 58.0208 103.99 56.8125 101.844C55.625 99.6771 53.3125 96.3229 49.875 91.7812C47.3542 88.4479 45.8021 86.3333 45.2188 85.4375C44.2604 83.9792 43.5625 82.6458 43.125 81.4375C42.7083 80.2083 42.5 78.9688 42.5 77.7188C42.5 75.4062 43.2708 73.4688 44.8125 71.9062C46.3542 70.3438 48.2292 69.5521 50.4375 69.5312C52.7917 69.5521 54.8125 70.375 56.5 72C57.7708 73.2083 58.8021 75.0104 59.5938 77.4062C60.2604 75.0729 61.2188 73.2917 62.4688 72.0625C64.1979 70.375 66.1875 69.5312 68.4375 69.5312C70.7083 69.5312 72.625 70.3021 74.1875 71.8438C75.7708 73.3854 76.5625 75.2188 76.5625 77.3438C76.5625 79.2396 76.1042 81.1979 75.1875 83.2188C74.2917 85.2396 72.5208 87.9167 69.875 91.25C66.4583 95.5625 63.9688 99.1042 62.4062 101.875C61.1771 104.062 60.2396 106.354 59.5938 108.75Z" fill="black"/>
<path d="M89.7329 134.214C90.3787 136.673 91.3058 138.975 92.5142 141.121C93.7017 143.287 96.0142 146.641 99.4517 151.183C101.972 154.516 103.525 156.631 104.108 157.527C105.066 158.985 105.764 160.318 106.202 161.527C106.618 162.756 106.827 163.996 106.827 165.246C106.827 167.558 106.056 169.496 104.514 171.058C102.972 172.621 101.097 173.412 98.8892 173.433C96.535 173.412 94.5142 172.589 92.8267 170.964C91.5558 169.756 90.5246 167.954 89.7329 165.558C89.0662 167.891 88.1079 169.673 86.8579 170.902C85.1287 172.589 83.1392 173.433 80.8892 173.433C78.6183 173.433 76.7017 172.662 75.1392 171.121C73.5558 169.579 72.7642 167.746 72.7642 165.621C72.7642 163.725 73.2225 161.766 74.1392 159.746C75.035 157.725 76.8058 155.048 79.4517 151.714C82.8683 147.402 85.3579 143.86 86.9204 141.089C88.1496 138.902 89.0871 136.61 89.7329 134.214Z" fill="black"/>
<path d="M59.7329 113.214C60.3787 115.673 61.3058 117.975 62.5142 120.121C63.7017 122.287 66.0142 125.641 69.4517 130.183C71.9725 133.516 73.5246 135.631 74.1079 136.527C75.0662 137.985 75.7642 139.318 76.2017 140.527C76.6183 141.756 76.8267 142.996 76.8267 144.246C76.8267 146.558 76.0558 148.496 74.5142 150.058C72.9725 151.621 71.0975 152.412 68.8892 152.433C66.535 152.412 64.5142 151.589 62.8267 149.964C61.5558 148.756 60.5246 146.954 59.7329 144.558C59.0662 146.891 58.1079 148.673 56.8579 149.902C55.1287 151.589 53.1392 152.433 50.8892 152.433C48.6183 152.433 46.7017 151.662 45.1392 150.121C43.5558 148.579 42.7642 146.746 42.7642 144.621C42.7642 142.725 43.2225 140.766 44.1392 138.746C45.035 136.725 46.8058 134.048 49.4517 130.714C52.8683 126.402 55.3579 122.86 56.9204 120.089C58.1496 117.902 59.0871 115.61 59.7329 113.214Z" fill="black"/>
<path d="M58.7329 158.214C59.3787 160.673 60.3058 162.975 61.5142 165.121C62.7017 167.287 65.0142 170.641 68.4517 175.183C70.9725 178.516 72.5246 180.631 73.1079 181.527C74.0662 182.985 74.7642 184.318 75.2017 185.527C75.6183 186.756 75.8267 187.996 75.8267 189.246C75.8267 191.558 75.0558 193.496 73.5142 195.058C71.9725 196.621 70.0975 197.412 67.8892 197.433C65.535 197.412 63.5142 196.589 61.8267 194.964C60.5558 193.756 59.5246 191.954 58.7329 189.558C58.0662 191.891 57.1079 193.673 55.8579 194.902C54.1287 196.589 52.1392 197.433 49.8892 197.433C47.6183 197.433 45.7017 196.662 44.1392 195.121C42.5558 193.579 41.7642 191.746 41.7642 189.621C41.7642 187.725 42.2225 185.766 43.1392 183.746C44.035 181.725 45.8058 179.048 48.4517 175.714C51.8683 171.402 54.3579 167.86 55.9204 165.089C57.1496 162.902 58.0871 160.61 58.7329 158.214Z" fill="black"/>
</svg>
