<svg width="177" height="255" viewBox="0 0 177 255" fill="none" xmlns="http://www.w3.org/2000/svg">
<path d="M170.919 26.5459C170.919 26.5459 120.15 27.779 88.333 27.779C56.5155 27.779 5.74673 26.5459 5.74673 26.5459C2.79102 26.5459 0.530762 28.5496 0.530762 31.1699V236.012C0.530762 238.632 2.96488 240.79 5.74673 240.79C5.74673 240.79 56.5155 242.332 88.333 242.332C120.15 242.332 170.919 240.79 170.919 240.79C173.875 240.636 176.135 238.478 176.135 236.012V31.1699C176.135 28.5496 173.875 26.5459 170.919 26.5459Z" fill="white"/>
<path d="M19.9422 54.6837C19.6382 54.6837 19.3102 54.6517 18.9582 54.5877C18.6222 54.5077 18.2862 54.4277 17.9502 54.3477C17.1182 54.1077 16.4462 53.9877 15.9342 53.9877C15.4542 53.9877 14.9182 54.0277 14.3262 54.1077C13.4462 54.1877 12.8942 54.2277 12.6702 54.2277C11.7102 54.2277 10.9742 54.0517 10.4622 53.6997C9.9662 53.3477 9.6862 52.8437 9.6222 52.1877C9.5902 51.7877 9.7022 51.5077 9.9582 51.3477C10.2142 51.1717 10.6222 51.0837 11.1822 51.0837C11.5022 51.0837 11.7982 51.1317 12.0702 51.2277C12.3582 51.3077 12.7262 51.4357 13.1742 51.6117C13.6222 51.8037 14.0222 51.9477 14.3742 52.0437C14.7262 52.1397 15.1022 52.1877 15.5022 52.1877C15.9342 52.1877 16.3742 51.9157 16.8222 51.3717C17.2862 50.8277 17.6622 50.1157 17.9502 49.2357C18.2542 48.3557 18.4062 47.4357 18.4062 46.4757C18.4062 45.2917 18.2382 44.3797 17.9022 43.7397C17.5822 43.0837 16.9742 42.7557 16.0782 42.7557C14.3822 42.7557 13.1582 43.7397 12.4062 45.7077C12.1182 45.5957 11.9102 45.4517 11.7822 45.2757C11.6702 45.0837 11.6142 44.8277 11.6142 44.5077C11.6142 44.0437 11.7902 43.5957 12.1422 43.1637C12.5102 42.7157 13.0222 42.3557 13.6782 42.0837C14.3502 41.7957 15.1262 41.6517 16.0062 41.6517C17.2702 41.6517 18.2142 42.0837 18.8382 42.9477C19.4782 43.8117 19.7982 44.9477 19.7982 46.3557C19.7982 47.7637 19.5022 49.0357 18.9102 50.1717C18.3342 51.2917 17.6302 52.1797 16.7982 52.8357C17.1982 52.9957 17.5822 53.0997 17.9502 53.1477C18.3342 53.1957 18.7502 53.2197 19.1982 53.2197C19.7422 53.2357 20.1182 53.2917 20.3262 53.3877C20.5502 53.4677 20.6622 53.6757 20.6622 54.0117C20.6622 54.1557 20.5902 54.3077 20.4462 54.4677C20.3022 54.6117 20.1342 54.6837 19.9422 54.6837Z" fill="black"/>
<path d="M15.8984 74.2812C15.6562 73.3594 15.3086 72.4961 14.8555 71.6914C14.4102 70.8789 13.543 69.6211 12.2539 67.918C11.3086 66.668 10.7266 65.875 10.5078 65.5391C10.1484 64.9922 9.88672 64.4922 9.72266 64.0391C9.56641 63.5781 9.48828 63.1133 9.48828 62.6445C9.48828 61.7773 9.77734 61.0508 10.3555 60.4648C10.9336 59.8789 11.6367 59.582 12.4648 59.5742C13.3477 59.582 14.1055 59.8906 14.7383 60.5C15.2148 60.9531 15.6016 61.6289 15.8984 62.5273C16.1484 61.6523 16.5078 60.9844 16.9766 60.5234C17.625 59.8906 18.3711 59.5742 19.2148 59.5742C20.0664 59.5742 20.7852 59.8633 21.3711 60.4414C21.9648 61.0195 22.2617 61.707 22.2617 62.5039C22.2617 63.2148 22.0898 63.9492 21.7461 64.707C21.4102 65.4648 20.7461 66.4688 19.7539 67.7188C18.4727 69.3359 17.5391 70.6641 16.9531 71.7031C16.4922 72.5234 16.1406 73.3828 15.8984 74.2812Z" fill="black"/>
<path d="M158.727 193.959C158.961 194.883 159.3 195.75 159.746 196.558C160.184 197.375 161.04 198.64 162.314 200.355C163.247 201.614 163.822 202.412 164.038 202.75C164.392 203.3 164.65 203.802 164.81 204.257C164.962 204.719 165.036 205.185 165.031 205.653C165.023 206.521 164.728 207.244 164.144 207.825C163.561 208.406 162.855 208.696 162.027 208.697C161.144 208.681 160.389 208.365 159.762 207.75C159.29 207.293 158.909 206.614 158.62 205.713C158.362 206.585 157.997 207.25 157.524 207.707C156.87 208.334 156.121 208.643 155.277 208.636C154.426 208.628 153.71 208.332 153.129 207.749C152.541 207.165 152.25 206.475 152.257 205.678C152.264 204.967 152.442 204.235 152.793 203.48C153.135 202.725 153.809 201.727 154.812 200.486C156.108 198.881 157.053 197.561 157.649 196.528C158.117 195.711 158.476 194.855 158.727 193.959Z" fill="black"/>
<path d="M85.8052 98.5526C84.8364 94.8651 83.4458 91.4119 81.6333 88.1932C79.8521 84.9432 76.3833 79.9119 71.2271 73.0994C67.4458 68.0994 65.1177 64.9276 64.2427 63.5838C62.8052 61.3963 61.7583 59.3963 61.1021 57.5838C60.4771 55.7401 60.1646 53.8807 60.1646 52.0057C60.1646 48.5369 61.3208 45.6307 63.6333 43.2869C65.9458 40.9432 68.7583 39.7557 72.0708 39.7244C75.6021 39.7557 78.6333 40.9901 81.1646 43.4276C83.0708 45.2401 84.6177 47.9432 85.8052 51.5369C86.8052 48.0369 88.2427 45.3651 90.1177 43.5213C92.7114 40.9901 95.6958 39.7244 99.0708 39.7244C102.477 39.7244 105.352 40.8807 107.696 43.1932C110.071 45.5057 111.258 48.2557 111.258 51.4432C111.258 54.2869 110.571 57.2244 109.196 60.2557C107.852 63.2869 105.196 67.3026 101.227 72.3026C96.1021 78.7713 92.3677 84.0838 90.0239 88.2401C88.1802 91.5213 86.7739 94.9588 85.8052 98.5526Z" fill="black"/>
<path d="M84.8818 156.267C85.8506 159.954 87.2412 163.407 89.0537 166.626C90.835 169.876 94.3037 174.907 99.46 181.72C103.241 186.72 105.569 189.892 106.444 191.236C107.882 193.423 108.929 195.423 109.585 197.236C110.21 199.079 110.522 200.939 110.522 202.814C110.522 206.282 109.366 209.189 107.054 211.532C104.741 213.876 101.929 215.064 98.6162 215.095C95.085 215.064 92.0537 213.829 89.5225 211.392C87.6162 209.579 86.0693 206.876 84.8818 203.282C83.8818 206.782 82.4443 209.454 80.5693 211.298C77.9756 213.829 74.9912 215.095 71.6162 215.095C68.21 215.095 65.335 213.939 62.9912 211.626C60.6162 209.314 59.4287 206.564 59.4287 203.376C59.4287 200.532 60.1162 197.595 61.4912 194.564C62.835 191.532 65.4912 187.517 69.46 182.517C74.585 176.048 78.3193 170.736 80.6631 166.579C82.5068 163.298 83.9131 159.861 84.8818 156.267Z" fill="black"/>
<path d="M154.171 212.15C154.475 212.149 154.804 212.181 155.156 212.245C155.492 212.324 155.828 212.404 156.164 212.484C156.996 212.723 157.668 212.842 158.18 212.842C158.66 212.841 159.196 212.801 159.788 212.72C160.668 212.639 161.22 212.598 161.444 212.598C162.404 212.597 163.14 212.772 163.653 213.124C164.149 213.475 164.43 213.979 164.495 214.635C164.527 215.035 164.416 215.315 164.16 215.475C163.904 215.652 163.496 215.74 162.936 215.741C162.616 215.741 162.32 215.693 162.048 215.598C161.76 215.518 161.392 215.39 160.943 215.215C160.495 215.023 160.095 214.88 159.743 214.784C159.391 214.688 159.015 214.641 158.615 214.641C158.183 214.642 157.743 214.914 157.296 215.459C156.832 216.003 156.457 216.715 156.17 217.596C155.868 218.476 155.717 219.396 155.718 220.356C155.72 221.54 155.889 222.452 156.226 223.092C156.546 223.747 157.155 224.075 158.051 224.074C159.747 224.072 160.97 223.087 161.719 221.118C162.007 221.23 162.215 221.373 162.344 221.549C162.456 221.741 162.512 221.997 162.513 222.317C162.513 222.781 162.338 223.229 161.986 223.662C161.619 224.11 161.107 224.471 160.452 224.743C159.78 225.032 159.004 225.177 158.124 225.178C156.86 225.179 155.916 224.748 155.291 223.885C154.649 223.021 154.328 221.886 154.326 220.478C154.324 219.07 154.619 217.797 155.209 216.661C155.784 215.54 156.487 214.651 157.318 213.994C156.918 213.835 156.534 213.731 156.165 213.684C155.781 213.636 155.365 213.613 154.917 213.613C154.373 213.598 153.997 213.542 153.789 213.446C153.565 213.366 153.453 213.159 153.452 212.823C153.452 212.679 153.524 212.526 153.668 212.366C153.812 212.222 153.979 212.15 154.171 212.15Z" fill="black"/>
</svg>
