<svg width="177" height="259" viewBox="0 0 177 259" fill="none" xmlns="http://www.w3.org/2000/svg">
<path d="M171.318 28.7663C171.318 28.7663 120.549 29.9994 88.7314 29.9994C56.914 29.9994 6.14517 28.7663 6.14517 28.7663C3.18945 28.7663 0.929199 30.7701 0.929199 33.3903V238.233C0.929199 240.853 3.36332 243.011 6.14517 243.011C6.14517 243.011 56.914 244.552 88.7314 244.552C120.549 244.552 171.318 243.011 171.318 243.011C174.273 242.857 176.534 240.699 176.534 238.233V33.3903C176.534 30.7701 174.273 28.7663 171.318 28.7663Z" fill="white"/>
<path d="M14.8984 75.2812C14.6562 74.3594 14.3086 73.4961 13.8555 72.6914C13.4102 71.8789 12.543 70.6211 11.2539 68.918C10.3086 67.668 9.72656 66.875 9.50781 66.5391C9.14844 65.9922 8.88672 65.4922 8.72266 65.0391C8.56641 64.5781 8.48828 64.1133 8.48828 63.6445C8.48828 62.7773 8.77734 62.0508 9.35547 61.4648C9.93359 60.8789 10.6367 60.582 11.4648 60.5742C12.3477 60.582 13.1055 60.8906 13.7383 61.5C14.2148 61.9531 14.6016 62.6289 14.8984 63.5273C15.1484 62.6523 15.5078 61.9844 15.9766 61.5234C16.625 60.8906 17.3711 60.5742 18.2148 60.5742C19.0664 60.5742 19.7852 60.8633 20.3711 61.4414C20.9648 62.0195 21.2617 62.707 21.2617 63.5039C21.2617 64.2148 21.0898 64.9492 20.7461 65.707C20.4102 66.4648 19.7461 67.4688 18.7539 68.7188C17.4727 70.3359 16.5391 71.6641 15.9531 72.7031C15.4922 73.5234 15.1406 74.3828 14.8984 75.2812Z" fill="black"/>
<path d="M15.5408 56.9281C14.8688 56.8801 14.3328 56.8161 13.9328 56.7361C13.5328 56.6561 13.0208 56.4481 12.3968 56.1121C11.7728 55.7601 10.9808 55.2081 10.0208 54.4561V54.2641C10.0208 53.9761 10.0928 53.7521 10.2368 53.5921C10.3808 53.4161 10.5888 53.3281 10.8608 53.3281C10.9088 53.3281 10.9968 53.3921 11.1248 53.5201C11.2688 53.6321 11.3568 53.7041 11.3888 53.7361C11.9168 54.2481 12.4848 54.6801 13.0928 55.0321C13.7008 55.3841 14.4448 55.5601 15.3248 55.5601C15.8848 55.5601 16.3728 55.3761 16.7888 55.0081C17.2208 54.6401 17.4368 54.1041 17.4368 53.4001C17.4368 52.4081 17.0448 51.6641 16.2608 51.1681C15.4928 50.6561 14.3648 50.4161 12.8768 50.4481C12.7808 50.2721 12.7328 50.0881 12.7328 49.8961C12.7328 49.7361 12.7568 49.6001 12.8048 49.4881C12.8528 49.3601 12.9168 49.2801 12.9968 49.2481C14.0688 49.1521 14.8848 48.8721 15.4448 48.4081C16.0208 47.9441 16.3088 47.3201 16.3088 46.5361C16.3088 46.0561 16.0288 45.6721 15.4688 45.3841C14.9248 45.0801 14.1968 44.9281 13.2848 44.9281C12.6288 44.9281 12.1408 45.0081 11.8208 45.1681C11.5168 45.3121 11.3648 45.5441 11.3648 45.8641V46.3921C11.0768 46.3921 10.8448 46.3281 10.6688 46.2001C10.5088 46.0561 10.4288 45.8481 10.4288 45.5761C10.4288 44.9841 10.6768 44.5201 11.1728 44.1841C11.6688 43.8321 12.3968 43.6561 13.3568 43.6561C14.6208 43.6561 15.6128 43.9281 16.3328 44.4721C17.0688 45.0001 17.4368 45.7761 17.4368 46.8001C17.4368 47.6481 17.1968 48.2881 16.7168 48.7201C16.2528 49.1361 15.5488 49.4561 14.6048 49.6801C15.9968 49.8561 17.0368 50.2401 17.7248 50.8321C18.4288 51.4081 18.7808 52.2161 18.7808 53.2561C18.7808 54.0721 18.6208 54.7601 18.3008 55.3201C17.9808 55.8641 17.5728 56.2721 17.0768 56.5441C16.5808 56.8001 16.0688 56.9281 15.5408 56.9281Z" fill="black"/>
<path d="M159.82 196.777C160.078 197.695 160.44 198.552 160.907 199.349C161.366 200.154 162.255 201.397 163.573 203.078C164.539 204.311 165.135 205.094 165.359 205.426C165.728 205.967 165.998 206.462 166.17 206.913C166.334 207.371 166.42 207.834 166.428 208.303C166.443 209.17 166.166 209.901 165.598 210.497C165.03 211.093 164.332 211.402 163.505 211.424C162.622 211.431 161.859 211.135 161.216 210.537C160.731 210.092 160.333 209.423 160.021 208.53C159.786 209.409 159.438 210.083 158.977 210.552C158.34 211.195 157.599 211.525 156.756 211.539C155.904 211.554 155.181 211.277 154.585 210.709C153.981 210.141 153.673 209.459 153.659 208.662C153.647 207.951 153.806 207.214 154.137 206.45C154.46 205.687 155.107 204.672 156.077 203.405C157.331 201.766 158.242 200.422 158.81 199.373C159.257 198.545 159.593 197.68 159.82 196.777Z" fill="black"/>
<path d="M86.2036 159.773C85.2349 156.085 83.8442 152.632 82.0317 149.414C80.2505 146.164 76.7817 141.132 71.6255 134.32C67.8442 129.32 65.5161 126.148 64.6411 124.804C63.2036 122.617 62.1567 120.617 61.5005 118.804C60.8755 116.96 60.563 115.101 60.563 113.226C60.563 109.757 61.7192 106.851 64.0317 104.507C66.3442 102.164 69.1567 100.976 72.4692 100.945C76.0005 100.976 79.0317 102.21 81.563 104.648C83.4692 106.46 85.0161 109.164 86.2036 112.757C87.2036 109.257 88.6411 106.585 90.5161 104.742C93.1099 102.21 96.0942 100.945 99.4692 100.945C102.875 100.945 105.75 102.101 108.094 104.414C110.469 106.726 111.657 109.476 111.657 112.664C111.657 115.507 110.969 118.445 109.594 121.476C108.25 124.507 105.594 128.523 101.625 133.523C96.5005 139.992 92.7661 145.304 90.4224 149.46C88.5786 152.742 87.1724 156.179 86.2036 159.773Z" fill="black"/>
<path d="M86.2803 160.487C87.249 164.175 88.6396 167.628 90.4521 170.847C92.2334 174.097 95.7021 179.128 100.858 185.94C104.64 190.94 106.968 194.112 107.843 195.456C109.28 197.643 110.327 199.643 110.983 201.456C111.608 203.3 111.921 205.159 111.921 207.034C111.921 210.503 110.765 213.409 108.452 215.753C106.14 218.097 103.327 219.284 100.015 219.315C96.4834 219.284 93.4521 218.05 90.9209 215.612C89.0146 213.8 87.4678 211.097 86.2803 207.503C85.2803 211.003 83.8428 213.675 81.9678 215.518C79.374 218.05 76.3896 219.315 73.0146 219.315C69.6084 219.315 66.7334 218.159 64.3896 215.847C62.0146 213.534 60.8271 210.784 60.8271 207.597C60.8271 204.753 61.5146 201.815 62.8896 198.784C64.2334 195.753 66.8896 191.737 70.8584 186.737C75.9834 180.268 79.7178 174.956 82.0615 170.8C83.9053 167.518 85.3115 164.081 86.2803 160.487Z" fill="black"/>
<path d="M87.5938 98.125C86.625 94.4375 85.2344 90.9844 83.4219 87.7656C81.6406 84.5156 78.1719 79.4844 73.0156 72.6719C69.2344 67.6719 66.9062 64.5 66.0312 63.1562C64.5938 60.9688 63.5469 58.9688 62.8906 57.1562C62.2656 55.3125 61.9531 53.4531 61.9531 51.5781C61.9531 48.1094 63.1094 45.2031 65.4219 42.8594C67.7344 40.5156 70.5469 39.3281 73.8594 39.2969C77.3906 39.3281 80.4219 40.5625 82.9531 43C84.8594 44.8125 86.4062 47.5156 87.5938 51.1094C88.5938 47.6094 90.0312 44.9375 91.9062 43.0938C94.5 40.5625 97.4844 39.2969 100.859 39.2969C104.266 39.2969 107.141 40.4531 109.484 42.7656C111.859 45.0781 113.047 47.8281 113.047 51.0156C113.047 53.8594 112.359 56.7969 110.984 59.8281C109.641 62.8594 106.984 66.875 103.016 71.875C97.8906 78.3438 94.1562 83.6562 91.8125 87.8125C89.9688 91.0938 88.5625 94.5312 87.5938 98.125Z" fill="black"/>
<path d="M159.37 214.341C160.042 214.388 160.578 214.452 160.978 214.532C161.378 214.611 161.891 214.819 162.515 215.154C163.139 215.505 163.932 216.056 164.893 216.807L164.893 216.999C164.894 217.287 164.822 217.512 164.678 217.672C164.534 217.848 164.327 217.936 164.055 217.936C164.007 217.936 163.918 217.872 163.79 217.745C163.646 217.633 163.558 217.561 163.526 217.529C162.997 217.017 162.429 216.586 161.82 216.235C161.212 215.883 160.468 215.708 159.588 215.709C159.028 215.71 158.54 215.894 158.124 216.262C157.693 216.631 157.478 217.167 157.478 217.871C157.48 218.863 157.873 219.607 158.657 220.102C159.426 220.613 160.554 220.852 162.042 220.818C162.138 220.994 162.187 221.178 162.187 221.37C162.187 221.53 162.163 221.666 162.115 221.778C162.068 221.906 162.004 221.986 161.924 222.019C160.852 222.116 160.036 222.396 159.477 222.861C158.901 223.326 158.614 223.95 158.615 224.734C158.616 225.214 158.896 225.598 159.457 225.885C160.001 226.189 160.729 226.34 161.641 226.339C162.297 226.338 162.785 226.258 163.105 226.097C163.409 225.953 163.56 225.721 163.56 225.401L163.559 224.873C163.847 224.873 164.079 224.936 164.256 225.064C164.416 225.208 164.496 225.416 164.496 225.688C164.497 226.28 164.25 226.744 163.754 227.081C163.259 227.433 162.531 227.61 161.571 227.611C160.307 227.612 159.315 227.341 158.594 226.798C157.857 226.271 157.488 225.495 157.487 224.471C157.486 223.623 157.725 222.983 158.204 222.55C158.668 222.134 159.371 221.813 160.315 221.588C158.923 221.414 157.882 221.031 157.194 220.439C156.489 219.864 156.136 219.057 156.135 218.017C156.134 217.201 156.293 216.512 156.612 215.952C156.931 215.408 157.339 214.999 157.834 214.727C158.33 214.47 158.842 214.342 159.37 214.341Z" fill="black"/>
</svg>
