<svg width="177" height="249" viewBox="0 0 177 249" fill="none" xmlns="http://www.w3.org/2000/svg">
<path d="M171.04 21.9122C171.04 21.9122 120.272 23.1453 88.4543 23.1453C56.6369 23.1453 5.86807 21.9122 5.86807 21.9122C2.91235 21.9122 0.6521 23.916 0.6521 26.5362V231.379C0.6521 233.999 3.08622 236.157 5.86807 236.157C5.86807 236.157 56.6369 237.698 88.4543 237.698C120.272 237.698 171.04 236.157 171.04 236.157C173.996 236.003 176.256 233.845 176.256 231.379V26.5362C176.256 23.916 173.996 21.9122 171.04 21.9122Z" fill="white"/>
<path d="M17.9277 50.098C17.7837 50.098 17.6317 49.906 17.4717 49.522C17.3277 49.122 17.2077 48.602 17.1117 47.962C17.0157 47.322 16.9677 46.65 16.9677 45.946C16.9677 45.034 17.0397 44.25 17.1837 43.594C16.6397 44.346 16.0717 44.898 15.4797 45.25C14.9037 45.586 14.0877 45.754 13.0317 45.754C11.9597 45.754 11.1757 45.362 10.6797 44.578C10.1997 43.794 9.95966 42.786 9.95966 41.554C9.95966 40.578 10.0397 39.706 10.1997 38.938C10.3757 38.17 10.6637 37.226 11.0637 36.106C11.0957 35.946 11.1917 35.826 11.3517 35.746C11.5117 35.65 11.6877 35.602 11.8797 35.602C12.0557 35.602 12.1997 35.642 12.3117 35.722C12.4237 35.786 12.4717 35.874 12.4557 35.986C11.6077 38.194 11.1837 40.162 11.1837 41.89C11.1837 42.818 11.3357 43.482 11.6397 43.882C11.9597 44.282 12.5037 44.482 13.2717 44.482C14.4397 44.482 15.3917 43.946 16.1277 42.874C16.8637 41.802 17.3517 40.946 17.5917 40.306C17.8477 39.666 17.9917 39.322 18.0237 39.274C18.3917 39.274 18.6397 39.33 18.7677 39.442C18.8957 39.554 18.9597 39.73 18.9597 39.97C18.9597 40.434 18.8397 41.178 18.5997 42.202C18.5837 42.314 18.5197 42.642 18.4077 43.186C18.2957 43.714 18.2397 44.162 18.2397 44.53C18.2397 45.106 18.3277 45.866 18.5037 46.81C18.6637 47.802 18.7437 48.522 18.7437 48.97C18.7437 49.722 18.4717 50.098 17.9277 50.098Z" fill="black"/>
<path d="M17.6877 71.8823C17.4456 70.9604 17.0979 70.0971 16.6448 69.2924C16.1995 68.4799 15.3323 67.2221 14.0432 65.519C13.0979 64.269 12.5159 63.476 12.2971 63.1401C11.9377 62.5932 11.676 62.0932 11.512 61.6401C11.3557 61.1791 11.2776 60.7143 11.2776 60.2455C11.2776 59.3784 11.5667 58.6518 12.1448 58.0659C12.7229 57.4799 13.426 57.183 14.2542 57.1752C15.137 57.183 15.8948 57.4916 16.5276 58.101C17.0042 58.5541 17.3909 59.2299 17.6877 60.1284C17.9377 59.2534 18.2971 58.5854 18.7659 58.1245C19.4143 57.4916 20.1604 57.1752 21.0042 57.1752C21.8557 57.1752 22.5745 57.4643 23.1604 58.0424C23.7542 58.6205 24.051 59.308 24.051 60.1049C24.051 60.8159 23.8792 61.5502 23.5354 62.308C23.1995 63.0659 22.5354 64.0698 21.5432 65.3198C20.262 66.937 19.3284 68.2651 18.7424 69.3041C18.2815 70.1245 17.9299 70.9838 17.6877 71.8823Z" fill="black"/>
<path d="M158.653 188.801C158.905 189.72 159.263 190.579 159.725 191.378C160.18 192.186 161.062 193.433 162.37 195.122C163.33 196.361 163.921 197.147 164.144 197.48C164.509 198.023 164.777 198.52 164.946 198.971C165.107 199.43 165.191 199.894 165.196 200.363C165.206 201.23 164.926 201.96 164.354 202.552C163.783 203.145 163.083 203.45 162.255 203.467C161.372 203.47 160.611 203.17 159.971 202.568C159.49 202.12 159.095 201.449 158.788 200.554C158.548 201.432 158.196 202.104 157.733 202.57C157.092 203.21 156.349 203.535 155.506 203.545C154.654 203.555 153.932 203.274 153.34 202.703C152.739 202.131 152.435 201.447 152.425 200.65C152.417 199.94 152.581 199.203 152.916 198.442C153.243 197.68 153.895 196.668 154.873 195.407C156.135 193.775 157.054 192.437 157.628 191.391C158.079 190.565 158.421 189.702 158.653 188.801Z" fill="black"/>
<path d="M54.0034 149.633C54.9722 153.321 56.3628 156.774 58.1753 159.993C59.9565 163.243 63.4253 168.274 68.5815 175.086C72.3628 180.086 74.6909 183.258 75.5659 184.602C77.0034 186.789 78.0503 188.789 78.7065 190.602C79.3315 192.446 79.644 194.305 79.644 196.18C79.644 199.649 78.4878 202.555 76.1753 204.899C73.8628 207.243 71.0503 208.43 67.7378 208.461C64.2065 208.43 61.1753 207.196 58.644 204.758C56.7378 202.946 55.1909 200.243 54.0034 196.649C53.0034 200.149 51.5659 202.821 49.6909 204.664C47.0972 207.196 44.1128 208.461 40.7378 208.461C37.3315 208.461 34.4565 207.305 32.1128 204.993C29.7378 202.68 28.5503 199.93 28.5503 196.743C28.5503 193.899 29.2378 190.961 30.6128 187.93C31.9565 184.899 34.6128 180.883 38.5815 175.883C43.7065 169.414 47.4409 164.102 49.7847 159.946C51.6284 156.664 53.0347 153.227 54.0034 149.633Z" fill="black"/>
<path d="M118.003 150.633C118.972 154.321 120.363 157.774 122.175 160.993C123.957 164.243 127.425 169.274 132.582 176.086C136.363 181.086 138.691 184.258 139.566 185.602C141.003 187.789 142.05 189.789 142.707 191.602C143.332 193.446 143.644 195.305 143.644 197.18C143.644 200.649 142.488 203.555 140.175 205.899C137.863 208.243 135.05 209.43 131.738 209.461C128.207 209.43 125.175 208.196 122.644 205.758C120.738 203.946 119.191 201.243 118.003 197.649C117.003 201.149 115.566 203.821 113.691 205.664C111.097 208.196 108.113 209.461 104.738 209.461C101.332 209.461 98.4565 208.305 96.1128 205.993C93.7378 203.68 92.5503 200.93 92.5503 197.743C92.5503 194.899 93.2378 191.961 94.6128 188.93C95.9565 185.899 98.6128 181.883 102.582 176.883C107.707 170.414 111.441 165.102 113.785 160.946C115.628 157.664 117.035 154.227 118.003 150.633Z" fill="black"/>
<path d="M53.9265 98.9189C52.9578 95.2314 51.5671 91.7783 49.7546 88.5595C47.9734 85.3095 44.5046 80.2783 39.3484 73.4658C35.5671 68.4658 33.239 65.2939 32.364 63.9501C30.9265 61.7626 29.8796 59.7626 29.2234 57.9501C28.5984 56.1064 28.2859 54.247 28.2859 52.372C28.2859 48.9033 29.4421 45.997 31.7546 43.6533C34.0671 41.3095 36.8796 40.122 40.1921 40.0908C43.7234 40.122 46.7546 41.3564 49.2859 43.7939C51.1921 45.6064 52.739 48.3095 53.9265 51.9033C54.9265 48.4033 56.364 45.7314 58.239 43.8876C60.8328 41.3564 63.8171 40.0908 67.1921 40.0908C70.5984 40.0908 73.4734 41.247 75.8171 43.5595C78.1921 45.872 79.3796 48.622 79.3796 51.8095C79.3796 54.6533 78.6921 57.5908 77.3171 60.622C75.9734 63.6533 73.3171 67.6689 69.3484 72.6689C64.2234 79.1376 60.489 84.4501 58.1453 88.6064C56.3015 91.8876 54.8953 95.3251 53.9265 98.9189Z" fill="black"/>
<path d="M116.927 98.9189C115.958 95.2314 114.567 91.7783 112.755 88.5595C110.973 85.3095 107.505 80.2783 102.348 73.4658C98.5671 68.4658 96.239 65.2939 95.364 63.9501C93.9265 61.7626 92.8796 59.7626 92.2234 57.9501C91.5984 56.1064 91.2859 54.247 91.2859 52.372C91.2859 48.9033 92.4421 45.997 94.7546 43.6533C97.0671 41.3095 99.8796 40.122 103.192 40.0908C106.723 40.122 109.755 41.3564 112.286 43.7939C114.192 45.6064 115.739 48.3095 116.927 51.9033C117.927 48.4033 119.364 45.7314 121.239 43.8876C123.833 41.3564 126.817 40.0908 130.192 40.0908C133.598 40.0908 136.473 41.247 138.817 43.5595C141.192 45.872 142.38 48.622 142.38 51.8095C142.38 54.6533 141.692 57.5908 140.317 60.622C138.973 63.6533 136.317 67.6689 132.348 72.6689C127.223 79.1376 123.489 84.4501 121.145 88.6064C119.302 91.8876 117.895 95.3251 116.927 98.9189Z" fill="black"/>
<path d="M156.429 207.466C156.573 207.466 156.725 207.658 156.885 208.041C157.03 208.441 157.151 208.961 157.248 209.601C157.344 210.241 157.393 210.913 157.394 211.617C157.395 212.529 157.324 213.313 157.181 213.969C157.724 213.217 158.291 212.664 158.883 212.311C159.459 211.975 160.274 211.806 161.33 211.805C162.402 211.804 163.187 212.195 163.684 212.978C164.165 213.762 164.406 214.77 164.408 216.002C164.409 216.978 164.33 217.85 164.171 218.618C163.996 219.386 163.709 220.33 163.311 221.451C163.279 221.611 163.183 221.731 163.023 221.811C162.863 221.907 162.687 221.955 162.495 221.956C162.319 221.956 162.175 221.916 162.063 221.836C161.951 221.772 161.903 221.684 161.919 221.572C162.764 219.363 163.186 217.395 163.183 215.667C163.182 214.739 163.029 214.075 162.725 213.675C162.404 213.276 161.86 213.076 161.092 213.077C159.924 213.078 158.973 213.615 158.238 214.688C157.503 215.761 157.017 216.617 156.777 217.258C156.522 217.898 156.379 218.242 156.347 218.29C155.979 218.29 155.731 218.235 155.602 218.123C155.474 218.011 155.41 217.835 155.41 217.595C155.409 217.131 155.528 216.387 155.767 215.363C155.783 215.251 155.846 214.922 155.958 214.378C156.069 213.85 156.124 213.402 156.124 213.034C156.123 212.458 156.034 211.698 155.857 210.754C155.696 209.763 155.615 209.043 155.614 208.595C155.613 207.843 155.885 207.466 156.429 207.466Z" fill="black"/>
</svg>
