<svg width="177" height="244" viewBox="0 0 177 244" fill="none" xmlns="http://www.w3.org/2000/svg">
<path d="M170.841 18.5541C170.841 18.5541 120.072 19.7871 88.2543 19.7871C56.4369 19.7871 5.66812 18.5541 5.66812 18.5541C2.7124 18.5541 0.452148 20.5578 0.452148 23.1781V228.02C0.452148 230.641 2.88627 232.798 5.66812 232.798C5.66812 232.798 56.4369 234.34 88.2543 234.34C120.072 234.34 170.841 232.798 170.841 232.798C173.796 232.644 176.056 230.486 176.056 228.02V23.1781C176.056 20.5578 173.796 18.5541 170.841 18.5541Z" fill="white"/>
<path d="M16.4077 47.1718C16.2157 47.1878 15.9277 47.1958 15.5437 47.1958C12.3277 47.1958 10.7197 46.0518 10.7197 43.7638C10.6877 43.3478 10.7277 42.9878 10.8397 42.6838C10.9677 42.3798 11.1117 42.2278 11.2717 42.2278C11.4317 42.2278 11.5517 42.3958 11.6317 42.7318C11.7277 43.0518 11.7597 43.5558 11.7277 44.2438C11.7277 44.7718 12.1117 45.1798 12.8797 45.4678C13.6637 45.7398 14.6157 45.8758 15.7357 45.8758C18.3917 45.8758 19.7197 44.6838 19.7197 42.2998C19.7197 41.0038 19.1837 40.0198 18.1117 39.3478C17.0557 38.6758 15.3277 38.2838 12.9277 38.1718C12.8157 38.0278 12.7437 37.9078 12.7117 37.8118C12.6797 37.7158 12.6717 37.6118 12.6877 37.4998C12.7997 36.8918 12.9677 36.2678 13.1917 35.6278C13.4157 34.9878 13.7357 34.1478 14.1517 33.1078L14.7517 31.4998C15.6157 31.3558 16.6077 31.2838 17.7277 31.2838C18.6877 31.2838 19.5837 31.3398 20.4157 31.4518C21.2637 31.5638 21.9037 31.7158 22.3357 31.9078C22.2397 32.2918 22.0477 32.6278 21.7597 32.9158C20.4477 32.7398 19.2397 32.6518 18.1357 32.6518C17.2237 32.6518 16.4157 32.6918 15.7117 32.7718C15.1197 34.0838 14.7117 35.4278 14.4877 36.8038C16.1997 37.1078 17.4797 37.4038 18.3277 37.6918C19.1757 37.9638 19.8717 38.4598 20.4157 39.1798C20.9597 39.8838 21.2477 40.9318 21.2797 42.3238C21.3117 43.7478 20.9037 44.8918 20.0557 45.7558C19.2237 46.6038 18.0077 47.0758 16.4077 47.1718Z" fill="black"/>
<path d="M17.4878 68.5241C17.2456 67.6022 16.8979 66.739 16.4448 65.9343C15.9995 65.1218 15.1323 63.864 13.8433 62.1608C12.8979 60.9108 12.3159 60.1179 12.0972 59.7819C11.7378 59.235 11.4761 58.735 11.312 58.2819C11.1558 57.821 11.0776 57.3561 11.0776 56.8874C11.0776 56.0202 11.3667 55.2936 11.9448 54.7077C12.5229 54.1218 13.2261 53.8249 14.0542 53.8171C14.937 53.8249 15.6948 54.1335 16.3276 54.7429C16.8042 55.196 17.1909 55.8718 17.4878 56.7702C17.7378 55.8952 18.0972 55.2272 18.5659 54.7663C19.2144 54.1335 19.9604 53.8171 20.8042 53.8171C21.6558 53.8171 22.3745 54.1061 22.9604 54.6843C23.5542 55.2624 23.8511 55.9499 23.8511 56.7468C23.8511 57.4577 23.6792 58.1921 23.3354 58.9499C22.9995 59.7077 22.3354 60.7116 21.3433 61.9616C20.062 63.5788 19.1284 64.9069 18.5425 65.946C18.0815 66.7663 17.73 67.6257 17.4878 68.5241Z" fill="black"/>
<path d="M157.964 184.231C158.189 185.157 158.52 186.027 158.958 186.84C159.388 187.661 160.231 188.935 161.487 190.662C162.409 191.93 162.976 192.734 163.188 193.074C163.537 193.627 163.789 194.132 163.944 194.588C164.092 195.052 164.161 195.519 164.152 195.987C164.136 196.854 163.833 197.575 163.244 198.15C162.655 198.725 161.946 199.008 161.118 199C160.235 198.976 159.484 198.653 158.863 198.032C158.395 197.57 158.021 196.887 157.741 195.983C157.475 196.853 157.103 197.514 156.625 197.966C155.965 198.586 155.213 198.888 154.369 198.872C153.518 198.856 152.805 198.553 152.23 197.964C151.647 197.375 151.363 196.682 151.379 195.885C151.392 195.174 151.578 194.443 151.936 193.692C152.286 192.941 152.969 191.95 153.985 190.719C155.297 189.126 156.255 187.816 156.861 186.788C157.337 185.977 157.705 185.124 157.964 184.231Z" fill="black"/>
<path d="M85.7266 149.561C84.7578 145.873 83.3672 142.42 81.5547 139.201C79.7734 135.951 76.3047 130.92 71.1484 124.108C67.3672 119.108 65.0391 115.936 64.1641 114.592C62.7266 112.404 61.6797 110.404 61.0234 108.592C60.3984 106.748 60.0859 104.889 60.0859 103.014C60.0859 99.5451 61.2422 96.6388 63.5547 94.2951C65.8672 91.9513 68.6797 90.7638 71.9922 90.7326C75.5234 90.7638 78.5547 91.9982 81.0859 94.4357C82.9922 96.2482 84.5391 98.9513 85.7266 102.545C86.7266 99.0451 88.1641 96.3732 90.0391 94.5295C92.6328 91.9982 95.6172 90.7326 98.9922 90.7326C102.398 90.7326 105.273 91.8888 107.617 94.2013C109.992 96.5138 111.18 99.2638 111.18 102.451C111.18 105.295 110.492 108.233 109.117 111.264C107.773 114.295 105.117 118.311 101.148 123.311C96.0234 129.779 92.2891 135.092 89.9453 139.248C88.1016 142.529 86.6953 145.967 85.7266 149.561Z" fill="black"/>
<path d="M53.9265 98.9189C52.9578 95.2314 51.5671 91.7783 49.7546 88.5595C47.9734 85.3095 44.5046 80.2783 39.3484 73.4658C35.5671 68.4658 33.239 65.2939 32.364 63.9501C30.9265 61.7626 29.8796 59.7626 29.2234 57.9501C28.5984 56.1064 28.2859 54.247 28.2859 52.372C28.2859 48.9033 29.4421 45.997 31.7546 43.6533C34.0671 41.3095 36.8796 40.122 40.1921 40.0908C43.7234 40.122 46.7546 41.3564 49.2859 43.7939C51.1921 45.6064 52.739 48.3095 53.9265 51.9033C54.9265 48.4033 56.364 45.7314 58.239 43.8876C60.8328 41.3564 63.8171 40.0908 67.1921 40.0908C70.5984 40.0908 73.4734 41.247 75.8171 43.5595C78.1921 45.872 79.3796 48.622 79.3796 51.8095C79.3796 54.6533 78.6921 57.5908 77.3171 60.622C75.9734 63.6533 73.3171 67.6689 69.3484 72.6689C64.2234 79.1376 60.489 84.4501 58.1453 88.6064C56.3015 91.8876 54.8953 95.3251 53.9265 98.9189Z" fill="black"/>
<path d="M54.7266 98.5607C53.7578 94.8732 52.3672 91.4201 50.5547 88.2014C48.7734 84.9514 45.3047 79.9201 40.1484 73.1076C36.3672 68.1076 34.0391 64.9357 33.1641 63.592C31.7266 61.4045 30.6797 59.4045 30.0234 57.592C29.3984 55.7482 29.0859 53.8889 29.0859 52.0139C29.0859 48.5451 30.2422 45.6389 32.5547 43.2951C34.8672 40.9514 37.6797 39.7639 40.9922 39.7326C44.5234 39.7639 47.5547 40.9982 50.0859 43.4357C51.9922 45.2482 53.5391 47.9514 54.7266 51.5451C55.7266 48.0451 57.1641 45.3732 59.0391 43.5295C61.6328 40.9982 64.6172 39.7326 67.9922 39.7326C71.3984 39.7326 74.2734 40.8889 76.6172 43.2014C78.9922 45.5139 80.1797 48.2639 80.1797 51.4514C80.1797 54.2951 79.4922 57.2326 78.1172 60.2639C76.7734 63.2951 74.1172 67.3107 70.1484 72.3107C65.0234 78.7795 61.2891 84.092 58.9453 88.2482C57.1016 91.5295 55.6953 94.967 54.7266 98.5607Z" fill="black"/>
<path d="M115.727 98.5607C114.758 94.8732 113.367 91.4201 111.555 88.2014C109.773 84.9514 106.305 79.9201 101.148 73.1076C97.3672 68.1076 95.0391 64.9357 94.1641 63.592C92.7266 61.4045 91.6797 59.4045 91.0234 57.592C90.3984 55.7482 90.0859 53.8889 90.0859 52.0139C90.0859 48.5451 91.2422 45.6389 93.5547 43.2951C95.8672 40.9514 98.6797 39.7639 101.992 39.7326C105.523 39.7639 108.555 40.9982 111.086 43.4357C112.992 45.2482 114.539 47.9514 115.727 51.5451C116.727 48.0451 118.164 45.3732 120.039 43.5295C122.633 40.9982 125.617 39.7326 128.992 39.7326C132.398 39.7326 135.273 40.8889 137.617 43.2014C139.992 45.5139 141.18 48.2639 141.18 51.4514C141.18 54.2951 140.492 57.2326 139.117 60.2639C137.773 63.2951 135.117 67.3107 131.148 72.3107C126.023 78.7795 122.289 84.092 119.945 88.2482C118.102 91.5295 116.695 94.967 115.727 98.5607Z" fill="black"/>
<path d="M115.803 145.275C116.772 148.962 118.163 152.416 119.975 155.634C121.756 158.884 125.225 163.916 130.381 170.728C134.163 175.728 136.491 178.9 137.366 180.244C138.803 182.431 139.85 184.431 140.506 186.244C141.131 188.087 141.444 189.947 141.444 191.822C141.444 195.291 140.288 198.197 137.975 200.541C135.663 202.884 132.85 204.072 129.538 204.103C126.006 204.072 122.975 202.837 120.444 200.4C118.538 198.587 116.991 195.884 115.803 192.291C114.803 195.791 113.366 198.462 111.491 200.306C108.897 202.837 105.913 204.103 102.538 204.103C99.1313 204.103 96.2563 202.947 93.9126 200.634C91.5376 198.322 90.3501 195.572 90.3501 192.384C90.3501 189.541 91.0376 186.603 92.4126 183.572C93.7563 180.541 96.4126 176.525 100.381 171.525C105.506 165.056 109.241 159.744 111.584 155.587C113.428 152.306 114.834 148.869 115.803 145.275Z" fill="black"/>
<path d="M54.6707 145.839C55.6394 149.527 57.03 152.98 58.8425 156.199C60.6238 159.449 64.0925 164.48 69.2488 171.292C73.03 176.292 75.3582 179.464 76.2332 180.808C77.6707 182.996 78.7175 184.996 79.3738 186.808C79.9988 188.652 80.3113 190.511 80.3113 192.386C80.3113 195.855 79.155 198.761 76.8425 201.105C74.53 203.449 71.7175 204.636 68.405 204.667C64.8738 204.636 61.8425 203.402 59.3113 200.964C57.405 199.152 55.8582 196.449 54.6707 192.855C53.6707 196.355 52.2332 199.027 50.3582 200.871C47.7644 203.402 44.78 204.667 41.405 204.667C37.9988 204.667 35.1238 203.511 32.78 201.199C30.405 198.886 29.2175 196.136 29.2175 192.949C29.2175 190.105 29.905 187.167 31.28 184.136C32.6238 181.105 35.28 177.089 39.2488 172.089C44.3738 165.621 48.1082 160.308 50.4519 156.152C52.2957 152.871 53.7019 149.433 54.6707 145.839Z" fill="black"/>
<path d="M157.548 203.674C157.74 203.658 158.028 203.65 158.412 203.649C161.628 203.646 163.238 204.788 163.241 207.076C163.273 207.492 163.234 207.852 163.122 208.157C162.994 208.461 162.851 208.613 162.691 208.613C162.531 208.613 162.41 208.445 162.33 208.109C162.234 207.789 162.201 207.286 162.232 206.597C162.231 206.069 161.847 205.662 161.078 205.375C160.294 205.103 159.342 204.968 158.222 204.97C155.566 204.972 154.239 206.166 154.243 208.55C154.244 209.846 154.781 210.829 155.854 211.5C156.911 212.171 158.64 212.561 161.04 212.671C161.152 212.815 161.224 212.935 161.256 213.03C161.288 213.126 161.297 213.23 161.281 213.342C161.169 213.951 161.002 214.575 160.779 215.215C160.556 215.855 160.237 216.696 159.822 217.736L159.224 219.345C158.361 219.49 157.369 219.563 156.249 219.564C155.289 219.565 154.393 219.51 153.56 219.398C152.712 219.287 152.072 219.136 151.64 218.944C151.735 218.56 151.927 218.224 152.215 217.936C153.527 218.111 154.735 218.197 155.839 218.196C156.751 218.195 157.559 218.154 158.263 218.074C158.853 216.761 159.259 215.417 159.482 214.04C157.769 213.738 156.489 213.443 155.64 213.156C154.792 212.885 154.095 212.39 153.551 211.67C153.006 210.967 152.716 209.919 152.682 208.527C152.649 207.103 153.055 205.959 153.902 205.094C154.733 204.245 155.948 203.772 157.548 203.674Z" fill="black"/>
</svg>
