<svg width="190" height="225" viewBox="0 0 190 225" fill="none" xmlns="http://www.w3.org/2000/svg">
<path d="M184.239 8.69177C184.239 8.69177 133.47 9.92483 101.653 9.92483C69.8354 9.92483 19.0666 8.69177 19.0666 8.69177C16.1108 8.69177 13.8506 10.6955 13.8506 13.3158V218.158C13.8506 220.778 16.2847 222.936 19.0666 222.936C19.0666 222.936 69.8354 224.477 101.653 224.477C133.47 224.477 184.239 222.936 184.239 222.936C187.195 222.782 189.455 220.624 189.455 218.158V13.3158C189.455 10.6955 187.195 8.69177 184.239 8.69177Z" fill="white"/>
<path d="M27.6701 36.6855C26.1821 36.6855 25.0541 36.2615 24.2861 35.4135C23.5341 34.5655 23.1581 33.3815 23.1581 31.8615C23.1581 30.5655 23.4141 29.2055 23.9261 27.7815C24.4541 26.3415 25.1981 25.1175 26.1581 24.1095C27.1341 23.1015 28.2621 22.5495 29.5421 22.4535L30.0461 22.4295C30.8141 22.4295 31.4621 22.5495 31.9901 22.7895C32.5181 23.0135 32.7821 23.3095 32.7821 23.6775C32.7821 23.8695 32.7421 24.0055 32.6621 24.0855C32.5981 24.1495 32.4861 24.1815 32.3261 24.1815C32.1821 24.1815 31.9501 24.1415 31.6301 24.0615C30.9101 23.9015 30.3581 23.8215 29.9741 23.8215C29.7501 23.8215 29.5821 23.8295 29.4701 23.8455C28.7181 23.9415 27.9981 24.3015 27.3101 24.9255C26.6221 25.5495 26.0621 26.2855 25.6301 27.1335C25.2141 27.9655 25.0061 28.7175 25.0061 29.3895C25.9661 28.8135 26.9821 28.5255 28.0541 28.5255C28.8861 28.5255 29.6461 28.7095 30.3341 29.0775C31.0381 29.4295 31.5901 29.9415 31.9901 30.6135C32.4061 31.2695 32.6141 32.0295 32.6141 32.8935C32.6141 34.2215 32.1261 35.1895 31.1501 35.7975C30.1901 36.3895 29.0301 36.6855 27.6701 36.6855ZM27.5261 35.4375C28.1341 35.4855 28.7181 35.4135 29.2781 35.2215C29.8541 35.0295 30.3261 34.7175 30.6941 34.2855C31.0621 33.8375 31.2461 33.2775 31.2461 32.6055C31.2461 32.0295 31.0621 31.5335 30.6941 31.1175C30.3421 30.6855 29.8781 30.3575 29.3021 30.1335C28.7421 29.9095 28.1501 29.7975 27.5261 29.7975C26.6461 29.7975 25.9021 30.0215 25.2941 30.4695C24.7021 30.9015 24.4061 31.5335 24.4061 32.3655C24.4061 34.2535 25.4461 35.2775 27.5261 35.4375Z" fill="black"/>
<path d="M30.8862 58.6618C30.644 57.7399 30.2964 56.8766 29.8433 56.072C29.3979 55.2595 28.5308 54.0016 27.2417 52.2985C26.2964 51.0485 25.7144 50.2556 25.4956 49.9196C25.1362 49.3727 24.8745 48.8727 24.7104 48.4196C24.5542 47.9587 24.4761 47.4938 24.4761 47.0251C24.4761 46.1579 24.7651 45.4313 25.3433 44.8454C25.9214 44.2595 26.6245 43.9626 27.4526 43.9548C28.3354 43.9626 29.0933 44.2712 29.7261 44.8806C30.2026 45.3337 30.5894 46.0095 30.8862 46.9079C31.1362 46.0329 31.4956 45.3649 31.9644 44.904C32.6128 44.2712 33.3589 43.9548 34.2026 43.9548C35.0542 43.9548 35.7729 44.2438 36.3589 44.822C36.9526 45.4001 37.2495 46.0876 37.2495 46.8845C37.2495 47.5954 37.0776 48.3298 36.7339 49.0876C36.3979 49.8454 35.7339 50.8493 34.7417 52.0993C33.4604 53.7165 32.5269 55.0446 31.9409 56.0837C31.48 56.904 31.1284 57.7634 30.8862 58.6618Z" fill="black"/>
<path d="M172.71 175.94C172.944 176.864 173.285 177.73 173.731 178.538C174.17 179.354 175.026 180.619 176.301 182.333C177.236 183.591 177.811 184.389 178.027 184.727C178.382 185.277 178.64 185.779 178.8 186.233C178.952 186.695 179.027 187.161 179.023 187.63C179.015 188.497 178.72 189.221 178.137 189.802C177.554 190.383 176.849 190.674 176.021 190.675C175.138 190.66 174.383 190.345 173.755 189.73C173.282 189.273 172.901 188.594 172.612 187.693C172.354 188.566 171.989 189.231 171.517 189.688C170.863 190.315 170.114 190.626 169.271 190.619C168.419 190.612 167.703 190.316 167.122 189.733C166.533 189.15 166.242 188.46 166.248 187.664C166.254 186.953 166.432 186.22 166.782 185.465C167.125 184.71 167.797 183.712 168.8 182.47C170.094 180.863 171.039 179.543 171.634 178.509C172.101 177.693 172.46 176.836 172.71 175.94Z" fill="black"/>
<path d="M74.5938 78.3234C73.9479 75.8651 73.0208 73.563 71.8125 71.4172C70.625 69.2505 68.3125 65.8963 64.875 61.3547C62.3542 58.0213 60.8021 55.9067 60.2188 55.0109C59.2604 53.5526 58.5625 52.2192 58.125 51.0109C57.7083 49.7817 57.5 48.5422 57.5 47.2922C57.5 44.9797 58.2708 43.0422 59.8125 41.4797C61.3542 39.9172 63.2292 39.1255 65.4375 39.1047C67.7917 39.1255 69.8125 39.9484 71.5 41.5734C72.7708 42.7817 73.8021 44.5838 74.5938 46.9797C75.2604 44.6463 76.2188 42.8651 77.4688 41.6359C79.1979 39.9484 81.1875 39.1047 83.4375 39.1047C85.7083 39.1047 87.625 39.8755 89.1875 41.4172C90.7708 42.9588 91.5625 44.7922 91.5625 46.9172C91.5625 48.813 91.1042 50.7713 90.1875 52.7922C89.2917 54.813 87.5208 57.4901 84.875 60.8234C81.4583 65.1359 78.9688 68.6776 77.4062 71.4484C76.1771 73.6359 75.2396 75.9276 74.5938 78.3234Z" fill="black"/>
<path d="M131.594 78.3234C130.948 75.8651 130.021 73.563 128.812 71.4172C127.625 69.2505 125.312 65.8963 121.875 61.3547C119.354 58.0213 117.802 55.9067 117.219 55.0109C116.26 53.5526 115.562 52.2192 115.125 51.0109C114.708 49.7817 114.5 48.5422 114.5 47.2922C114.5 44.9797 115.271 43.0422 116.812 41.4797C118.354 39.9172 120.229 39.1255 122.438 39.1047C124.792 39.1255 126.812 39.9484 128.5 41.5734C129.771 42.7817 130.802 44.5838 131.594 46.9797C132.26 44.6463 133.219 42.8651 134.469 41.6359C136.198 39.9484 138.188 39.1047 140.438 39.1047C142.708 39.1047 144.625 39.8755 146.188 41.4172C147.771 42.9588 148.562 44.7922 148.562 46.9172C148.562 48.813 148.104 50.7713 147.188 52.7922C146.292 54.813 144.521 57.4901 141.875 60.8234C138.458 65.1359 135.969 68.6776 134.406 71.4484C133.177 73.6359 132.24 75.9276 131.594 78.3234Z" fill="black"/>
<path d="M74.5938 135.323C73.9479 132.865 73.0208 130.563 71.8125 128.417C70.625 126.25 68.3125 122.896 64.875 118.355C62.3542 115.021 60.8021 112.907 60.2188 112.011C59.2604 110.553 58.5625 109.219 58.125 108.011C57.7083 106.782 57.5 105.542 57.5 104.292C57.5 101.98 58.2708 100.042 59.8125 98.4797C61.3542 96.9172 63.2292 96.1255 65.4375 96.1047C67.7917 96.1255 69.8125 96.9484 71.5 98.5734C72.7708 99.7817 73.8021 101.584 74.5938 103.98C75.2604 101.646 76.2188 99.8651 77.4688 98.6359C79.1979 96.9484 81.1875 96.1047 83.4375 96.1047C85.7083 96.1047 87.625 96.8755 89.1875 98.4172C90.7708 99.9588 91.5625 101.792 91.5625 103.917C91.5625 105.813 91.1042 107.771 90.1875 109.792C89.2917 111.813 87.5208 114.49 84.875 117.823C81.4583 122.136 78.9688 125.678 77.4062 128.448C76.1771 130.636 75.2396 132.928 74.5938 135.323Z" fill="black"/>
<path d="M131.594 135.323C130.948 132.865 130.021 130.563 128.812 128.417C127.625 126.25 125.312 122.896 121.875 118.355C119.354 115.021 117.802 112.907 117.219 112.011C116.26 110.553 115.562 109.219 115.125 108.011C114.708 106.782 114.5 105.542 114.5 104.292C114.5 101.98 115.271 100.042 116.812 98.4797C118.354 96.9172 120.229 96.1255 122.438 96.1047C124.792 96.1255 126.812 96.9484 128.5 98.5734C129.771 99.7817 130.802 101.584 131.594 103.98C132.26 101.646 133.219 99.8651 134.469 98.6359C136.198 96.9484 138.188 96.1047 140.438 96.1047C142.708 96.1047 144.625 96.8755 146.188 98.4172C147.771 99.9588 148.562 101.792 148.562 103.917C148.562 105.813 148.104 107.771 147.188 109.792C146.292 111.813 144.521 114.49 141.875 117.823C138.458 122.136 135.969 125.678 134.406 128.448C133.177 130.636 132.24 132.928 131.594 135.323Z" fill="black"/>
<path d="M74.5938 192.323C73.9479 189.865 73.0208 187.563 71.8125 185.417C70.625 183.25 68.3125 179.896 64.875 175.355C62.3542 172.021 60.8021 169.907 60.2188 169.011C59.2604 167.553 58.5625 166.219 58.125 165.011C57.7083 163.782 57.5 162.542 57.5 161.292C57.5 158.98 58.2708 157.042 59.8125 155.48C61.3542 153.917 63.2292 153.125 65.4375 153.105C67.7917 153.125 69.8125 153.948 71.5 155.573C72.7708 156.782 73.8021 158.584 74.5938 160.98C75.2604 158.646 76.2188 156.865 77.4688 155.636C79.1979 153.948 81.1875 153.105 83.4375 153.105C85.7083 153.105 87.625 153.875 89.1875 155.417C90.7708 156.959 91.5625 158.792 91.5625 160.917C91.5625 162.813 91.1042 164.771 90.1875 166.792C89.2917 168.813 87.5208 171.49 84.875 174.823C81.4583 179.136 78.9688 182.678 77.4062 185.448C76.1771 187.636 75.2396 189.928 74.5938 192.323Z" fill="black"/>
<path d="M131.594 192.323C130.948 189.865 130.021 187.563 128.812 185.417C127.625 183.25 125.312 179.896 121.875 175.355C119.354 172.021 117.802 169.907 117.219 169.011C116.26 167.553 115.562 166.219 115.125 165.011C114.708 163.782 114.5 162.542 114.5 161.292C114.5 158.98 115.271 157.042 116.812 155.48C118.354 153.917 120.229 153.125 122.438 153.105C124.792 153.125 126.812 153.948 128.5 155.573C129.771 156.782 130.802 158.584 131.594 160.98C132.26 158.646 133.219 156.865 134.469 155.636C136.198 153.948 138.188 153.105 140.438 153.105C142.708 153.105 144.625 153.875 146.188 155.417C147.771 156.959 148.562 158.792 148.562 160.917C148.562 162.813 148.104 164.771 147.188 166.792C146.292 168.813 144.521 171.49 141.875 174.823C138.458 179.136 135.969 182.678 134.406 185.448C133.177 187.636 132.24 189.928 131.594 192.323Z" fill="black"/>
<path d="M173.083 194.434C174.571 194.432 175.7 194.855 176.469 195.702C177.222 196.55 177.6 197.733 177.602 199.253C177.603 200.549 177.349 201.909 176.839 203.334C176.313 204.774 175.57 205.999 174.612 207.008C173.637 208.017 172.51 208.57 171.23 208.668L170.726 208.692C169.958 208.693 169.31 208.574 168.781 208.334C168.253 208.111 167.989 207.815 167.988 207.447C167.988 207.255 168.028 207.119 168.108 207.039C168.172 206.975 168.284 206.943 168.444 206.943C168.588 206.942 168.82 206.982 169.14 207.062C169.86 207.221 170.412 207.301 170.796 207.3C171.02 207.3 171.188 207.292 171.3 207.276C172.052 207.179 172.771 206.818 173.459 206.193C174.146 205.569 174.705 204.832 175.136 203.984C175.551 203.151 175.758 202.399 175.757 201.727C174.798 202.304 173.782 202.593 172.71 202.594C171.878 202.595 171.118 202.412 170.429 202.045C169.725 201.693 169.172 201.182 168.771 200.51C168.354 199.855 168.145 199.095 168.144 198.231C168.143 196.903 168.629 195.934 169.605 195.325C170.564 194.732 171.723 194.435 173.083 194.434ZM173.229 195.682C172.621 195.634 172.037 195.707 171.477 195.899C170.902 196.092 170.43 196.405 170.063 196.837C169.695 197.285 169.512 197.846 169.513 198.518C169.513 199.094 169.698 199.589 170.067 200.005C170.419 200.437 170.884 200.764 171.46 200.988C172.02 201.211 172.612 201.322 173.236 201.322C174.116 201.321 174.86 201.096 175.467 200.647C176.059 200.215 176.354 199.582 176.353 198.75C176.351 196.862 175.309 195.84 173.229 195.682Z" fill="black"/>
</svg>
