<svg width="177" height="218" viewBox="0 0 177 218" fill="none" xmlns="http://www.w3.org/2000/svg">
<path d="M170.932 1.53571C170.932 1.53571 120.163 2.76876 88.3458 2.76876C56.5283 2.76876 5.75955 1.53571 5.75955 1.53571C2.80383 1.53571 0.543579 3.53943 0.543579 6.15969V211.002C0.543579 213.622 2.9777 215.78 5.75955 215.78C5.75955 215.78 56.5283 217.321 88.3458 217.321C120.163 217.321 170.932 215.78 170.932 215.78C173.888 215.626 176.148 213.468 176.148 211.002V6.15969C176.148 3.53943 173.888 1.53571 170.932 1.53571Z" fill="white"/>
<path d="M18.875 23.5775C18.955 23.6735 18.995 23.7855 18.995 23.9135C18.995 24.0735 18.931 24.2175 18.803 24.3455C18.691 24.4575 18.563 24.5135 18.419 24.5135C17.747 24.3055 16.987 24.1535 16.139 24.0575C15.915 25.4815 15.547 27.2015 15.035 29.2175C14.939 29.5375 14.707 29.6975 14.339 29.6975C14.163 29.6975 14.027 29.6415 13.931 29.5295C13.851 29.4015 13.771 29.2255 13.691 29.0015C14.187 27.0495 14.555 25.3695 14.795 23.9615C14.539 23.9455 14.131 23.9375 13.571 23.9375C13.155 23.9375 12.419 23.9535 11.363 23.9855C11.299 23.7935 11.267 23.6415 11.267 23.5295C11.267 23.3695 11.299 23.2335 11.363 23.1215C11.427 22.9935 11.515 22.9215 11.627 22.9055C12.059 22.8255 12.795 22.7855 13.835 22.7855C14.331 22.7855 14.707 22.7935 14.963 22.8095C15.203 21.1135 15.299 19.5695 15.251 18.1775C15.011 18.1615 14.547 18.1695 13.859 18.2015C13.251 18.2335 12.771 18.2495 12.419 18.2495C11.699 18.2495 11.123 18.1935 10.691 18.0815C10.275 17.9535 10.067 17.7375 10.067 17.4335C10.067 17.2415 10.131 17.0495 10.259 16.8575C11.923 17.0335 13.539 17.1215 15.107 17.1215C15.811 17.1215 16.307 17.1055 16.595 17.0735C16.595 19.3295 16.499 21.2655 16.307 22.8815C17.763 22.9935 18.619 23.2255 18.875 23.5775Z" fill="black"/>
<path d="M17.5791 51.5057C17.3369 50.5839 16.9893 49.7206 16.5361 48.9159C16.0908 48.1034 15.2236 46.8456 13.9346 45.1425C12.9893 43.8925 12.4072 43.0995 12.1885 42.7635C11.8291 42.2167 11.5674 41.7167 11.4033 41.2635C11.2471 40.8026 11.1689 40.3378 11.1689 39.869C11.1689 39.0018 11.458 38.2753 12.0361 37.6893C12.6143 37.1034 13.3174 36.8065 14.1455 36.7987C15.0283 36.8065 15.7861 37.1151 16.4189 37.7245C16.8955 38.1776 17.2822 38.8534 17.5791 39.7518C17.8291 38.8768 18.1885 38.2089 18.6572 37.7479C19.3057 37.1151 20.0518 36.7987 20.8955 36.7987C21.7471 36.7987 22.4658 37.0878 23.0518 37.6659C23.6455 38.244 23.9424 38.9315 23.9424 39.7284C23.9424 40.4393 23.7705 41.1737 23.4268 41.9315C23.0908 42.6893 22.4268 43.6932 21.4346 44.9432C20.1533 46.5604 19.2197 47.8885 18.6338 48.9276C18.1729 49.7479 17.8213 50.6073 17.5791 51.5057Z" fill="black"/>
<path d="M157.905 167.96C158.177 168.873 158.552 169.725 159.031 170.514C159.502 171.312 160.41 172.541 161.753 174.202C162.739 175.42 163.346 176.194 163.576 176.523C163.952 177.058 164.23 177.549 164.409 177.997C164.58 178.452 164.673 178.914 164.688 179.383C164.716 180.249 164.451 180.985 163.892 181.589C163.333 182.194 162.64 182.513 161.813 182.548C160.93 182.568 160.163 182.285 159.51 181.696C159.019 181.259 158.611 180.596 158.285 179.707C158.064 180.59 157.726 181.269 157.272 181.745C156.645 182.398 155.909 182.739 155.066 182.766C154.215 182.794 153.487 182.528 152.883 181.969C152.271 181.411 151.952 180.733 151.926 179.937C151.903 179.226 152.051 178.486 152.37 177.718C152.681 176.95 153.313 175.925 154.264 174.643C155.492 172.986 156.382 171.628 156.934 170.57C157.368 169.736 157.692 168.865 157.905 167.96Z" fill="black"/>
<path d="M155.272 193.234C155.192 193.139 155.152 193.027 155.152 192.899C155.152 192.739 155.215 192.594 155.343 192.466C155.455 192.354 155.583 192.298 155.727 192.298C156.399 192.505 157.16 192.656 158.008 192.752C158.23 191.327 158.596 189.607 159.105 187.59C159.201 187.27 159.432 187.11 159.8 187.11C159.976 187.11 160.112 187.165 160.209 187.277C160.289 187.405 160.369 187.581 160.449 187.805C159.956 189.758 159.59 191.438 159.352 192.846C159.608 192.862 160.016 192.87 160.576 192.869C160.992 192.868 161.728 192.852 162.784 192.819C162.848 193.011 162.88 193.163 162.88 193.275C162.881 193.435 162.849 193.571 162.785 193.683C162.721 193.811 162.633 193.883 162.521 193.899C162.089 193.979 161.353 194.02 160.313 194.021C159.817 194.022 159.441 194.014 159.185 193.998C158.947 195.695 158.853 197.239 158.903 198.631C159.143 198.646 159.607 198.638 160.295 198.605C160.903 198.573 161.383 198.556 161.735 198.556C162.455 198.555 163.031 198.61 163.463 198.722C163.879 198.849 164.088 199.065 164.088 199.369C164.088 199.561 164.025 199.753 163.897 199.945C162.233 199.771 160.617 199.685 159.049 199.687C158.345 199.687 157.849 199.704 157.561 199.736C157.558 197.48 157.651 195.544 157.841 193.928C156.385 193.817 155.529 193.586 155.272 193.234Z" fill="black"/>
<path d="M56.5939 66.3234C55.948 63.8651 55.021 61.563 53.8126 59.4172C52.6251 57.2505 50.3126 53.8963 46.8751 49.3547C44.3543 46.0213 42.8022 43.9068 42.2189 43.0109C41.2605 41.5526 40.5626 40.2193 40.1251 39.0109C39.7085 37.7818 39.5001 36.5422 39.5001 35.2922C39.5001 32.9797 40.271 31.0422 41.8126 29.4797C43.3543 27.9172 45.2293 27.1255 47.4376 27.1047C49.7918 27.1255 51.8126 27.9484 53.5001 29.5734C54.771 30.7818 55.8022 32.5838 56.5939 34.9797C57.2605 32.6463 58.2189 30.8651 59.4689 29.6359C61.198 27.9484 63.1876 27.1047 65.4376 27.1047C67.7085 27.1047 69.6251 27.8755 71.1876 29.4172C72.771 30.9588 73.5626 32.7922 73.5626 34.9172C73.5626 36.813 73.1043 38.7713 72.1876 40.7922C71.2918 42.813 69.521 45.4901 66.8751 48.8234C63.4585 53.1359 60.9689 56.6776 59.4064 59.4484C58.1772 61.6359 57.2397 63.9276 56.5939 66.3234Z" fill="black"/>
<path d="M94.5939 89.3234C93.948 86.8651 93.021 84.563 91.8126 82.4172C90.6251 80.2505 88.3126 76.8963 84.8751 72.3547C82.3543 69.0213 80.8022 66.9068 80.2189 66.0109C79.2605 64.5526 78.5626 63.2193 78.1251 62.0109C77.7085 60.7818 77.5001 59.5422 77.5001 58.2922C77.5001 55.9797 78.271 54.0422 79.8126 52.4797C81.3543 50.9172 83.2293 50.1255 85.4376 50.1047C87.7918 50.1255 89.8126 50.9484 91.5001 52.5734C92.771 53.7818 93.8022 55.5838 94.5939 57.9797C95.2605 55.6463 96.2189 53.8651 97.4689 52.6359C99.198 50.9484 101.188 50.1047 103.438 50.1047C105.708 50.1047 107.625 50.8755 109.188 52.4172C110.771 53.9588 111.563 55.7922 111.563 57.9172C111.563 59.813 111.104 61.7713 110.188 63.7922C109.292 65.813 107.521 68.4901 104.875 71.8234C101.458 76.1359 98.9689 79.6776 97.4064 82.4484C96.1772 84.6359 95.2397 86.9276 94.5939 89.3234Z" fill="black"/>
<path d="M55.7332 133.788C56.379 136.246 57.3061 138.548 58.5144 140.694C59.7019 142.861 62.0144 146.215 65.4519 150.756C67.9727 154.09 69.5248 156.204 70.1082 157.1C71.0665 158.559 71.7644 159.892 72.2019 161.1C72.6186 162.329 72.8269 163.569 72.8269 164.819C72.8269 167.131 72.0561 169.069 70.5144 170.631C68.9727 172.194 67.0977 172.986 64.8894 173.006C62.5352 172.986 60.5144 172.163 58.8269 170.538C57.5561 169.329 56.5248 167.527 55.7332 165.131C55.0665 167.465 54.1082 169.246 52.8582 170.475C51.129 172.163 49.1394 173.006 46.8894 173.006C44.6186 173.006 42.7019 172.236 41.1394 170.694C39.5561 169.152 38.7644 167.319 38.7644 165.194C38.7644 163.298 39.2227 161.34 40.1394 159.319C41.0352 157.298 42.8061 154.621 45.4519 151.288C48.8686 146.975 51.3582 143.434 52.9207 140.663C54.1498 138.475 55.0873 136.184 55.7332 133.788Z" fill="black"/>
<path d="M129.733 133.788C130.379 136.246 131.306 138.548 132.514 140.694C133.702 142.861 136.014 146.215 139.452 150.756C141.973 154.09 143.525 156.204 144.108 157.1C145.066 158.559 145.764 159.892 146.202 161.1C146.619 162.329 146.827 163.569 146.827 164.819C146.827 167.131 146.056 169.069 144.514 170.631C142.973 172.194 141.098 172.986 138.889 173.006C136.535 172.986 134.514 172.163 132.827 170.538C131.556 169.329 130.525 167.527 129.733 165.131C129.066 167.465 128.108 169.246 126.858 170.475C125.129 172.163 123.139 173.006 120.889 173.006C118.619 173.006 116.702 172.236 115.139 170.694C113.556 169.152 112.764 167.319 112.764 165.194C112.764 163.298 113.223 161.34 114.139 159.319C115.035 157.298 116.806 154.621 119.452 151.288C122.869 146.975 125.358 143.434 126.921 140.663C128.15 138.475 129.087 136.184 129.733 133.788Z" fill="black"/>
<path d="M132.594 66.3234C131.948 63.8651 131.021 61.563 129.813 59.4172C128.625 57.2505 126.313 53.8963 122.875 49.3547C120.354 46.0213 118.802 43.9068 118.219 43.0109C117.261 41.5526 116.563 40.2193 116.125 39.0109C115.708 37.7818 115.5 36.5422 115.5 35.2922C115.5 32.9797 116.271 31.0422 117.813 29.4797C119.354 27.9172 121.229 27.1255 123.438 27.1047C125.792 27.1255 127.813 27.9484 129.5 29.5734C130.771 30.7818 131.802 32.5838 132.594 34.9797C133.261 32.6463 134.219 30.8651 135.469 29.6359C137.198 27.9484 139.188 27.1047 141.438 27.1047C143.708 27.1047 145.625 27.8755 147.188 29.4172C148.771 30.9588 149.563 32.7922 149.563 34.9172C149.563 36.813 149.104 38.7713 148.188 40.7922C147.292 42.813 145.521 45.4901 142.875 48.8234C139.458 53.1359 136.969 56.6776 135.406 59.4484C134.177 61.6359 133.24 63.9276 132.594 66.3234Z" fill="black"/>
<path d="M56.5939 117.323C55.948 114.865 55.021 112.563 53.8126 110.417C52.6251 108.251 50.3126 104.896 46.8751 100.355C44.3543 97.0213 42.8022 94.9068 42.2189 94.0109C41.2605 92.5526 40.5626 91.2193 40.1251 90.0109C39.7085 88.7818 39.5001 87.5422 39.5001 86.2922C39.5001 83.9797 40.271 82.0422 41.8126 80.4797C43.3543 78.9172 45.2293 78.1255 47.4376 78.1047C49.7918 78.1255 51.8126 78.9484 53.5001 80.5734C54.771 81.7818 55.8022 83.5838 56.5939 85.9797C57.2605 83.6463 58.2189 81.8651 59.4689 80.6359C61.198 78.9484 63.1876 78.1047 65.4376 78.1047C67.7085 78.1047 69.6251 78.8755 71.1876 80.4172C72.771 81.9588 73.5626 83.7922 73.5626 85.9172C73.5626 87.813 73.1043 89.7713 72.1876 91.7922C71.2918 93.813 69.521 96.4901 66.8751 99.8234C63.4585 104.136 60.9689 107.678 59.4064 110.448C58.1772 112.636 57.2397 114.928 56.5939 117.323Z" fill="black"/>
<path d="M132.594 115.323C131.948 112.865 131.021 110.563 129.813 108.417C128.625 106.251 126.313 102.896 122.875 98.3547C120.354 95.0213 118.802 92.9068 118.219 92.0109C117.261 90.5526 116.563 89.2193 116.125 88.0109C115.708 86.7818 115.5 85.5422 115.5 84.2922C115.5 81.9797 116.271 80.0422 117.813 78.4797C119.354 76.9172 121.229 76.1255 123.438 76.1047C125.792 76.1255 127.813 76.9484 129.5 78.5734C130.771 79.7818 131.802 81.5838 132.594 83.9797C133.261 81.6463 134.219 79.8651 135.469 78.6359C137.198 76.9484 139.188 76.1047 141.438 76.1047C143.708 76.1047 145.625 76.8755 147.188 78.4172C148.771 79.9588 149.563 81.7922 149.563 83.9172C149.563 85.813 149.104 87.7713 148.188 89.7922C147.292 91.813 145.521 94.4901 142.875 97.8234C139.458 102.136 136.969 105.678 135.406 108.448C134.177 110.636 133.24 112.928 132.594 115.323Z" fill="black"/>
</svg>
