<svg width="176" height="235" viewBox="0 0 176 235" fill="none" xmlns="http://www.w3.org/2000/svg">
<path d="M170.388 6.76944C170.388 6.76944 119.62 8.00249 87.8022 8.00249C55.9848 8.00249 5.21597 6.76944 5.21597 6.76944C2.26025 6.76944 0 8.77316 0 11.3934V216.236C0 218.856 2.43412 221.014 5.21597 221.014C5.21597 221.014 55.9848 222.555 87.8022 222.555C119.62 222.555 170.388 221.014 170.388 221.014C173.344 220.86 175.604 218.702 175.604 216.236V11.3934C175.604 8.77316 173.344 6.76944 170.388 6.76944Z" fill="white"/>
<path d="M121.652 68.75C121.006 66.2917 120.079 63.9896 118.871 61.8438C117.683 59.6771 115.371 56.3229 111.933 51.7812C109.412 48.4479 107.86 46.3333 107.277 45.4375C106.319 43.9792 105.621 42.6458 105.183 41.4375C104.766 40.2083 104.558 38.9688 104.558 37.7188C104.558 35.4062 105.329 33.4688 106.871 31.9062C108.412 30.3438 110.287 29.5521 112.496 29.5312C114.85 29.5521 116.871 30.375 118.558 32C119.829 33.2083 120.86 35.0104 121.652 37.4062C122.319 35.0729 123.277 33.2917 124.527 32.0625C126.256 30.375 128.246 29.5312 130.496 29.5312C132.766 29.5312 134.683 30.3021 136.246 31.8438C137.829 33.3854 138.621 35.2188 138.621 37.3438C138.621 39.2396 138.162 41.1979 137.246 43.2188C136.35 45.2396 134.579 47.9167 131.933 51.25C128.516 55.5625 126.027 59.1042 124.464 61.875C123.235 64.0625 122.298 66.3542 121.652 68.75Z" fill="black"/>
<path d="M120.652 114.75C120.006 112.292 119.079 109.99 117.871 107.844C116.683 105.677 114.371 102.323 110.933 97.7812C108.412 94.4479 106.86 92.3333 106.277 91.4375C105.319 89.9792 104.621 88.6458 104.183 87.4375C103.766 86.2083 103.558 84.9688 103.558 83.7188C103.558 81.4062 104.329 79.4688 105.871 77.9062C107.412 76.3438 109.287 75.5521 111.496 75.5312C113.85 75.5521 115.871 76.375 117.558 78C118.829 79.2083 119.86 81.0104 120.652 83.4062C121.319 81.0729 122.277 79.2917 123.527 78.0625C125.256 76.375 127.246 75.5312 129.496 75.5312C131.766 75.5312 133.683 76.3021 135.246 77.8438C136.829 79.3854 137.621 81.2188 137.621 83.3438C137.621 85.2396 137.162 87.1979 136.246 89.2188C135.35 91.2396 133.579 93.9167 130.933 97.25C127.516 101.562 125.027 105.104 123.464 107.875C122.235 110.062 121.298 112.354 120.652 114.75Z" fill="black"/>
<path d="M119.791 122.214C120.437 124.673 121.364 126.975 122.572 129.121C123.76 131.287 126.072 134.641 129.51 139.183C132.031 142.516 133.583 144.631 134.166 145.527C135.124 146.985 135.822 148.318 136.26 149.527C136.676 150.756 136.885 151.996 136.885 153.246C136.885 155.558 136.114 157.496 134.572 159.058C133.031 160.621 131.156 161.412 128.947 161.433C126.593 161.412 124.572 160.589 122.885 158.964C121.614 157.756 120.583 155.954 119.791 153.558C119.124 155.891 118.166 157.673 116.916 158.902C115.187 160.589 113.197 161.433 110.947 161.433C108.676 161.433 106.76 160.662 105.197 159.121C103.614 157.579 102.822 155.746 102.822 153.621C102.822 151.725 103.281 149.766 104.197 147.746C105.093 145.725 106.864 143.048 109.51 139.714C112.926 135.402 115.416 131.86 116.979 129.089C118.208 126.902 119.145 124.61 119.791 122.214Z" fill="black"/>
<path d="M119.791 168.214C120.437 170.673 121.364 172.975 122.572 175.121C123.76 177.287 126.072 180.641 129.51 185.183C132.031 188.516 133.583 190.631 134.166 191.527C135.124 192.985 135.822 194.318 136.26 195.527C136.676 196.756 136.885 197.996 136.885 199.246C136.885 201.558 136.114 203.496 134.572 205.058C133.031 206.621 131.156 207.412 128.947 207.433C126.593 207.412 124.572 206.589 122.885 204.964C121.614 203.756 120.583 201.954 119.791 199.558C119.124 201.891 118.166 203.673 116.916 204.902C115.187 206.589 113.197 207.433 110.947 207.433C108.676 207.433 106.76 206.662 105.197 205.121C103.614 203.579 102.822 201.746 102.822 199.621C102.822 197.725 103.281 195.766 104.197 193.746C105.093 191.725 106.864 189.048 109.51 185.714C112.926 181.402 115.416 177.86 116.979 175.089C118.208 172.902 119.145 170.61 119.791 168.214Z" fill="black"/>
<path d="M14.4916 34.9312C13.6756 34.9312 12.9316 34.7792 12.2596 34.4752C11.6036 34.1552 11.0836 33.7232 10.6996 33.1792C10.3316 32.6192 10.1476 31.9952 10.1476 31.3072C10.1476 30.0592 10.7236 28.8272 11.8756 27.6112C11.0436 27.1632 10.4356 26.7312 10.0516 26.3152C9.66756 25.8832 9.41956 25.3632 9.30756 24.7552C9.27556 24.5312 9.25956 24.3632 9.25956 24.2512C9.25956 23.6752 9.42756 23.1632 9.76356 22.7152C10.0996 22.2672 10.5476 21.9232 11.1076 21.6832C11.6676 21.4272 12.2596 21.2992 12.8836 21.2992C13.8436 21.2992 14.5716 21.4832 15.0676 21.8512C15.5796 22.2032 15.8356 22.7232 15.8356 23.4112C15.8356 24.1632 15.7076 24.7552 15.4516 25.1872C15.2116 25.6192 14.8116 26.1152 14.2516 26.6752C13.8516 27.0752 13.6116 27.3232 13.5316 27.4192C13.8196 27.6752 14.1796 27.9712 14.6116 28.3072C15.3156 28.8832 15.8276 29.3312 16.1476 29.6512C16.4836 29.9712 16.7396 30.3392 16.9156 30.7552C17.1076 31.1552 17.2036 31.6432 17.2036 32.2192C17.2036 33.0672 16.9636 33.7312 16.4836 34.2112C16.0036 34.6912 15.3396 34.9312 14.4916 34.9312ZM12.5476 26.9392C13.2036 26.4432 13.7156 25.9152 14.0836 25.3552C14.4516 24.7792 14.6356 24.2512 14.6356 23.7712C14.6356 23.3552 14.4836 23.0192 14.1796 22.7632C13.8916 22.5072 13.4596 22.3792 12.8836 22.3792C12.0356 22.3792 11.4116 22.5952 11.0116 23.0272C10.6116 23.4432 10.4116 23.9472 10.4116 24.5392C10.4116 25.0352 10.5796 25.4512 10.9156 25.7872C11.2676 26.1232 11.8116 26.5072 12.5476 26.9392ZM14.3476 33.8272C14.8436 33.8272 15.2516 33.7072 15.5716 33.4672C15.8916 33.2272 16.0516 32.8432 16.0516 32.3152C16.0516 31.8512 15.9476 31.4272 15.7396 31.0432C15.5316 30.6592 15.2116 30.2592 14.7796 29.8432C14.3636 29.4272 13.7156 28.8432 12.8356 28.0912C12.3396 28.5552 11.9636 29.0512 11.7076 29.5792C11.4676 30.1072 11.3476 30.6192 11.3476 31.1152C11.3476 31.8832 11.6116 32.5312 12.1396 33.0592C12.6836 33.5712 13.4196 33.8272 14.3476 33.8272Z" fill="black"/>
<path d="M17.0356 56.7395C16.7935 55.8176 16.4458 54.9543 15.9927 54.1496C15.5474 53.3371 14.6802 52.0793 13.3911 50.3762C12.4458 49.1262 11.8638 48.3332 11.645 47.9973C11.2856 47.4504 11.0239 46.9504 10.8599 46.4973C10.7036 46.0363 10.6255 45.5715 10.6255 45.1027C10.6255 44.2355 10.9146 43.509 11.4927 42.923C12.0708 42.3371 12.7739 42.0402 13.6021 42.0324C14.4849 42.0402 15.2427 42.3488 15.8755 42.9582C16.3521 43.4113 16.7388 44.0871 17.0356 44.9855C17.2856 44.1105 17.645 43.4426 18.1138 42.9816C18.7622 42.3488 19.5083 42.0324 20.3521 42.0324C21.2036 42.0324 21.9224 42.3215 22.5083 42.8996C23.1021 43.4777 23.3989 44.1652 23.3989 44.9621C23.3989 45.673 23.2271 46.4074 22.8833 47.1652C22.5474 47.923 21.8833 48.927 20.8911 50.177C19.6099 51.7941 18.6763 53.1223 18.0903 54.1613C17.6294 54.9816 17.2778 55.841 17.0356 56.7395Z" fill="black"/>
<path d="M161.017 173.291C161.239 174.218 161.569 175.089 162.005 175.903C162.433 176.724 163.273 178 164.526 179.73C165.444 181 166.009 181.805 166.221 182.146C166.569 182.7 166.82 183.206 166.974 183.662C167.12 184.126 167.189 184.593 167.179 185.061C167.16 185.928 166.856 186.649 166.266 187.222C165.675 187.796 164.966 188.078 164.138 188.068C163.255 188.041 162.504 187.717 161.884 187.094C161.418 186.631 161.045 185.947 160.768 185.043C160.499 185.912 160.126 186.572 159.647 187.023C158.985 187.642 158.233 187.943 157.389 187.925C156.538 187.907 155.825 187.602 155.252 187.012C154.671 186.421 154.388 185.728 154.405 184.931C154.42 184.22 154.608 183.49 154.967 182.739C155.319 181.989 156.005 180.999 157.023 179.771C158.338 178.181 159.3 176.873 159.908 175.846C160.386 175.036 160.756 174.184 161.017 173.291Z" fill="black"/>
<path d="M158.561 192.344C159.377 192.343 160.121 192.495 160.793 192.798C161.45 193.117 161.97 193.549 162.355 194.092C162.724 194.652 162.908 195.276 162.909 195.964C162.911 197.212 162.337 198.444 161.186 199.661C162.019 200.109 162.627 200.54 163.012 200.956C163.396 201.387 163.645 201.907 163.758 202.515C163.79 202.739 163.806 202.907 163.806 203.019C163.807 203.595 163.64 204.107 163.304 204.555C162.969 205.004 162.521 205.348 161.962 205.589C161.402 205.845 160.81 205.974 160.186 205.975C159.226 205.975 158.498 205.792 158.001 205.425C157.489 205.073 157.232 204.554 157.231 203.866C157.231 203.114 157.358 202.521 157.613 202.089C157.853 201.657 158.252 201.161 158.811 200.6C159.211 200.2 159.45 199.951 159.53 199.855C159.242 199.599 158.882 199.304 158.449 198.968C157.744 198.393 157.232 197.946 156.911 197.626C156.575 197.306 156.319 196.939 156.142 196.523C155.95 196.123 155.853 195.635 155.852 195.059C155.851 194.211 156.09 193.547 156.57 193.066C157.049 192.586 157.713 192.345 158.561 192.344ZM160.515 200.334C159.86 200.831 159.348 201.359 158.981 201.92C158.614 202.496 158.43 203.024 158.431 203.504C158.432 203.92 158.584 204.256 158.888 204.512C159.177 204.768 159.609 204.895 160.185 204.895C161.033 204.894 161.657 204.677 162.056 204.245C162.455 203.828 162.655 203.324 162.654 202.732C162.653 202.236 162.485 201.82 162.148 201.484C161.796 201.149 161.251 200.765 160.515 200.334ZM158.706 193.448C158.21 193.449 157.802 193.569 157.483 193.809C157.163 194.05 157.003 194.434 157.004 194.962C157.005 195.426 157.109 195.85 157.318 196.233C157.526 196.617 157.847 197.017 158.279 197.432C158.696 197.848 159.344 198.431 160.225 199.182C160.721 198.718 161.096 198.222 161.352 197.693C161.591 197.165 161.71 196.653 161.71 196.157C161.709 195.389 161.444 194.741 160.915 194.214C160.37 193.702 159.634 193.447 158.706 193.448Z" fill="black"/>
<path d="M50.6519 65.75C50.006 63.2917 49.0789 60.9896 47.8706 58.8438C46.6831 56.6771 44.3706 53.3229 40.9331 48.7812C38.4123 45.4479 36.8602 43.3333 36.2769 42.4375C35.3185 40.9792 34.6206 39.6458 34.1831 38.4375C33.7664 37.2083 33.5581 35.9688 33.5581 34.7188C33.5581 32.4062 34.3289 30.4688 35.8706 28.9062C37.4123 27.3438 39.2873 26.5521 41.4956 26.5312C43.8498 26.5521 45.8706 27.375 47.5581 29C48.8289 30.2083 49.8602 32.0104 50.6519 34.4062C51.3185 32.0729 52.2769 30.2917 53.5269 29.0625C55.256 27.375 57.2456 26.5312 59.4956 26.5312C61.7664 26.5312 63.6831 27.3021 65.2456 28.8438C66.8289 30.3854 67.6206 32.2188 67.6206 34.3438C67.6206 36.2396 67.1623 38.1979 66.2456 40.2188C65.3498 42.2396 63.5789 44.9167 60.9331 48.25C57.5164 52.5625 55.0269 56.1042 53.4644 58.875C52.2352 61.0625 51.2977 63.3542 50.6519 65.75Z" fill="black"/>
<path d="M50.6519 114.75C50.006 112.292 49.0789 109.99 47.8706 107.844C46.6831 105.677 44.3706 102.323 40.9331 97.7812C38.4123 94.4479 36.8602 92.3333 36.2769 91.4375C35.3185 89.9792 34.6206 88.6458 34.1831 87.4375C33.7664 86.2083 33.5581 84.9688 33.5581 83.7188C33.5581 81.4062 34.3289 79.4688 35.8706 77.9062C37.4123 76.3438 39.2873 75.5521 41.4956 75.5312C43.8498 75.5521 45.8706 76.375 47.5581 78C48.8289 79.2083 49.8602 81.0104 50.6519 83.4062C51.3185 81.0729 52.2769 79.2917 53.5269 78.0625C55.256 76.375 57.2456 75.5312 59.4956 75.5312C61.7664 75.5312 63.6831 76.3021 65.2456 77.8438C66.8289 79.3854 67.6206 81.2188 67.6206 83.3438C67.6206 85.2396 67.1623 87.1979 66.2456 89.2188C65.3498 91.2396 63.5789 93.9167 60.9331 97.25C57.5164 101.562 55.0269 105.104 53.4644 107.875C52.2352 110.062 51.2977 112.354 50.6519 114.75Z" fill="black"/>
<path d="M49.7913 120.214C50.4371 122.673 51.3642 124.975 52.5725 127.121C53.76 129.287 56.0725 132.641 59.51 137.183C62.0308 140.516 63.5829 142.631 64.1663 143.527C65.1246 144.985 65.8225 146.318 66.26 147.527C66.6767 148.756 66.885 149.996 66.885 151.246C66.885 153.558 66.1142 155.496 64.5725 157.058C63.0308 158.621 61.1558 159.412 58.9475 159.433C56.5933 159.412 54.5725 158.589 52.885 156.964C51.6142 155.756 50.5829 153.954 49.7913 151.558C49.1246 153.891 48.1663 155.673 46.9163 156.902C45.1871 158.589 43.1975 159.433 40.9475 159.433C38.6767 159.433 36.76 158.662 35.1975 157.121C33.6142 155.579 32.8225 153.746 32.8225 151.621C32.8225 149.725 33.2808 147.766 34.1975 145.746C35.0933 143.725 36.8642 141.048 39.51 137.714C42.9267 133.402 45.4163 129.86 46.9788 127.089C48.2079 124.902 49.1454 122.61 49.7913 120.214Z" fill="black"/>
<path d="M49.7913 169.214C50.4371 171.673 51.3642 173.975 52.5725 176.121C53.76 178.287 56.0725 181.641 59.51 186.183C62.0308 189.516 63.5829 191.631 64.1663 192.527C65.1246 193.985 65.8225 195.318 66.26 196.527C66.6767 197.756 66.885 198.996 66.885 200.246C66.885 202.558 66.1142 204.496 64.5725 206.058C63.0308 207.621 61.1558 208.412 58.9475 208.433C56.5933 208.412 54.5725 207.589 52.885 205.964C51.6142 204.756 50.5829 202.954 49.7913 200.558C49.1246 202.891 48.1663 204.673 46.9163 205.902C45.1871 207.589 43.1975 208.433 40.9475 208.433C38.6767 208.433 36.76 207.662 35.1975 206.121C33.6142 204.579 32.8225 202.746 32.8225 200.621C32.8225 198.725 33.2808 196.766 34.1975 194.746C35.0933 192.725 36.8642 190.048 39.51 186.714C42.9267 182.402 45.4163 178.86 46.9788 176.089C48.2079 173.902 49.1454 171.61 49.7913 169.214Z" fill="black"/>
</svg>
