<svg width="176" height="231" viewBox="0 0 176 231" fill="none" xmlns="http://www.w3.org/2000/svg">
<path d="M170.388 13C170.388 13 119.62 14.2331 87.8022 14.2331C55.9848 14.2331 5.21597 13 5.21597 13C2.26025 13 0 15.0037 0 17.624V222.466C0 225.087 2.43412 227.244 5.21597 227.244C5.21597 227.244 55.9848 228.786 87.8022 228.786C119.62 228.786 170.388 227.244 170.388 227.244C173.344 227.09 175.604 224.932 175.604 222.466V17.624C175.604 15.0037 173.344 13 170.388 13Z" fill="white"/>
<path d="M12.4993 25.7138C13.0273 25.7138 13.5473 25.8338 14.0593 26.0738C14.5873 26.2978 15.0193 26.6258 15.3553 27.0578C15.6913 27.4738 15.8593 27.9378 15.8593 28.4498C15.8593 28.6898 15.8273 28.9058 15.7633 29.0978C15.4913 30.0738 15.2993 31.2178 15.1873 32.5298C15.0753 33.8418 15.0193 35.1538 15.0193 36.4658C15.0193 38.2098 15.0833 39.2338 15.2113 39.5378C15.2113 39.7138 15.1313 39.8338 14.9713 39.8978C14.8273 39.9458 14.6033 39.9698 14.2993 39.9698C13.7553 39.9858 13.4833 39.1698 13.4833 37.5218C13.4833 36.2738 13.6193 34.7778 13.8913 33.0338C13.3153 33.0978 12.9233 33.1298 12.7153 33.1298C11.4673 33.1298 10.5473 32.8258 9.95532 32.2178C9.37932 31.5938 9.09132 30.7218 9.09132 29.6018C9.09132 28.5138 9.39532 27.5938 10.0033 26.8418C10.6273 26.0898 11.4593 25.7138 12.4993 25.7138ZM12.7873 32.1698C13.2833 32.1698 13.7153 32.0578 14.0833 31.8338C14.2433 30.8738 14.4193 30.0098 14.6113 29.2418C14.6753 28.5378 14.5153 27.9778 14.1313 27.5618C13.7633 27.1298 13.3073 26.9138 12.7633 26.9138C12.1713 26.9138 11.6273 27.1298 11.1313 27.5618C10.6513 27.9778 10.4113 28.5858 10.4113 29.3858C10.4113 30.2338 10.6193 30.9138 11.0353 31.4258C11.4513 31.9218 12.0353 32.1698 12.7873 32.1698Z" fill="black"/>
<path d="M17.0356 61.97C16.7935 61.0482 16.4458 60.1849 15.9927 59.3802C15.5474 58.5677 14.6802 57.3099 13.3911 55.6068C12.4458 54.3568 11.8638 53.5638 11.645 53.2279C11.2856 52.681 11.0239 52.181 10.8599 51.7279C10.7036 51.2669 10.6255 50.8021 10.6255 50.3333C10.6255 49.4661 10.9146 48.7396 11.4927 48.1536C12.0708 47.5677 12.7739 47.2708 13.6021 47.263C14.4849 47.2708 15.2427 47.5794 15.8755 48.1888C16.3521 48.6419 16.7388 49.3177 17.0356 50.2161C17.2856 49.3411 17.645 48.6732 18.1138 48.2122C18.7622 47.5794 19.5083 47.263 20.3521 47.263C21.2036 47.263 21.9224 47.5521 22.5083 48.1302C23.1021 48.7083 23.3989 49.3958 23.3989 50.1927C23.3989 50.9036 23.2271 51.638 22.8833 52.3958C22.5474 53.1536 21.8833 54.1575 20.8911 55.4075C19.6099 57.0247 18.6763 58.3529 18.0903 59.3919C17.6294 60.2122 17.2778 61.0716 17.0356 61.97Z" fill="black"/>
<path d="M159.712 180.838C159.969 181.756 160.331 182.613 160.797 183.41C161.256 184.215 162.143 185.459 163.46 187.141C164.425 188.375 165.02 189.159 165.245 189.491C165.613 190.032 165.883 190.527 166.054 190.978C166.218 191.436 166.304 191.9 166.311 192.368C166.325 193.235 166.048 193.967 165.48 194.562C164.911 195.157 164.213 195.466 163.385 195.487C162.502 195.493 161.74 195.197 161.097 194.598C160.613 194.153 160.215 193.484 159.904 192.59C159.668 193.469 159.32 194.143 158.859 194.611C158.221 195.255 157.48 195.583 156.636 195.597C155.785 195.611 155.061 195.334 154.466 194.765C153.863 194.197 153.555 193.514 153.542 192.718C153.53 192.007 153.69 191.27 154.021 190.506C154.345 189.743 154.993 188.729 155.964 187.462C157.219 185.825 158.131 184.481 158.699 183.433C159.147 182.605 159.484 181.74 159.712 180.838Z" fill="black"/>
<path d="M160.571 212.021C160.043 212.021 159.523 211.902 159.011 211.662C158.482 211.439 158.05 211.111 157.714 210.68C157.377 210.264 157.208 209.8 157.208 209.288C157.207 209.048 157.239 208.832 157.303 208.64C157.574 207.664 157.764 206.52 157.874 205.207C157.985 203.895 158.039 202.583 158.037 201.271C158.035 199.527 157.97 198.503 157.841 198.2C157.841 198.024 157.921 197.903 158.081 197.839C158.225 197.791 158.449 197.767 158.753 197.767C159.297 197.75 159.57 198.566 159.572 200.214C159.574 201.462 159.44 202.958 159.17 204.702C159.746 204.638 160.138 204.605 160.346 204.605C161.594 204.604 162.514 204.907 163.107 205.514C163.684 206.137 163.973 207.009 163.974 208.129C163.976 209.217 163.673 210.137 163.066 210.89C162.443 211.643 161.611 212.02 160.571 212.021ZM160.275 205.565C159.779 205.566 159.347 205.678 158.979 205.902C158.821 206.863 158.646 207.727 158.455 208.495C158.392 209.199 158.552 209.759 158.937 210.174C159.305 210.606 159.762 210.822 160.306 210.821C160.898 210.82 161.441 210.604 161.937 210.171C162.416 209.755 162.656 209.147 162.655 208.347C162.653 207.499 162.445 206.819 162.028 206.307C161.611 205.812 161.027 205.564 160.275 205.565Z" fill="black"/>
<path d="M119.594 66.3234C118.948 63.8651 118.021 61.563 116.812 59.4172C115.625 57.2505 113.312 53.8963 109.875 49.3547C107.354 46.0213 105.802 43.9068 105.219 43.0109C104.26 41.5526 103.562 40.2193 103.125 39.0109C102.708 37.7818 102.5 36.5422 102.5 35.2922C102.5 32.9797 103.271 31.0422 104.812 29.4797C106.354 27.9172 108.229 27.1255 110.438 27.1047C112.792 27.1255 114.812 27.9484 116.5 29.5734C117.771 30.7818 118.802 32.5838 119.594 34.9797C120.26 32.6463 121.219 30.8651 122.469 29.6359C124.198 27.9484 126.188 27.1047 128.438 27.1047C130.708 27.1047 132.625 27.8755 134.188 29.4172C135.771 30.9588 136.562 32.7922 136.562 34.9172C136.562 36.813 136.104 38.7713 135.188 40.7922C134.292 42.813 132.521 45.4901 129.875 48.8234C126.458 53.1359 123.969 56.6776 122.406 59.4484C121.177 61.6359 120.24 63.9276 119.594 66.3234Z" fill="black"/>
<path d="M60.5938 66.3234C59.9479 63.8651 59.0208 61.563 57.8125 59.4172C56.625 57.2505 54.3125 53.8963 50.875 49.3547C48.3542 46.0213 46.8021 43.9068 46.2188 43.0109C45.2604 41.5526 44.5625 40.2193 44.125 39.0109C43.7083 37.7818 43.5 36.5422 43.5 35.2922C43.5 32.9797 44.2708 31.0422 45.8125 29.4797C47.3542 27.9172 49.2292 27.1255 51.4375 27.1047C53.7917 27.1255 55.8125 27.9484 57.5 29.5734C58.7708 30.7818 59.8021 32.5838 60.5938 34.9797C61.2604 32.6463 62.2188 30.8651 63.4688 29.6359C65.1979 27.9484 67.1875 27.1047 69.4375 27.1047C71.7083 27.1047 73.625 27.8755 75.1875 29.4172C76.7708 30.9588 77.5625 32.7922 77.5625 34.9172C77.5625 36.813 77.1042 38.7713 76.1875 40.7922C75.2917 42.813 73.5208 45.4901 70.875 48.8234C67.4583 53.1359 64.9688 56.6776 63.4062 59.4484C62.1771 61.6359 61.2396 63.9276 60.5938 66.3234Z" fill="black"/>
<path d="M94.5938 135.323C93.9479 132.865 93.0208 130.563 91.8125 128.417C90.625 126.251 88.3125 122.896 84.875 118.355C82.3542 115.021 80.8021 112.907 80.2188 112.011C79.2604 110.553 78.5625 109.219 78.125 108.011C77.7083 106.782 77.5 105.542 77.5 104.292C77.5 101.98 78.2708 100.042 79.8125 98.4797C81.3542 96.9172 83.2292 96.1255 85.4375 96.1047C87.7917 96.1255 89.8125 96.9484 91.5 98.5734C92.7708 99.7818 93.8021 101.584 94.5938 103.98C95.2604 101.646 96.2188 99.8651 97.4688 98.6359C99.1979 96.9484 101.188 96.1047 103.438 96.1047C105.708 96.1047 107.625 96.8755 109.188 98.4172C110.771 99.9588 111.562 101.792 111.562 103.917C111.562 105.813 111.104 107.771 110.188 109.792C109.292 111.813 107.521 114.49 104.875 117.823C101.458 122.136 98.9688 125.678 97.4062 128.448C96.1771 130.636 95.2396 132.928 94.5938 135.323Z" fill="black"/>
<path d="M62.5938 111.323C61.9479 108.865 61.0208 106.563 59.8125 104.417C58.625 102.251 56.3125 98.8963 52.875 94.3547C50.3542 91.0213 48.8021 88.9068 48.2188 88.0109C47.2604 86.5526 46.5625 85.2193 46.125 84.0109C45.7083 82.7818 45.5 81.5422 45.5 80.2922C45.5 77.9797 46.2708 76.0422 47.8125 74.4797C49.3542 72.9172 51.2292 72.1255 53.4375 72.1047C55.7917 72.1255 57.8125 72.9484 59.5 74.5734C60.7708 75.7818 61.8021 77.5838 62.5938 79.9797C63.2604 77.6463 64.2188 75.8651 65.4688 74.6359C67.1979 72.9484 69.1875 72.1047 71.4375 72.1047C73.7083 72.1047 75.625 72.8755 77.1875 74.4172C78.7708 75.9588 79.5625 77.7922 79.5625 79.9172C79.5625 81.813 79.1042 83.7713 78.1875 85.7922C77.2917 87.813 75.5208 90.4901 72.875 93.8234C69.4583 98.1359 66.9688 101.678 65.4062 104.448C64.1771 106.636 63.2396 108.928 62.5938 111.323Z" fill="black"/>
<path d="M60.7329 122.788C61.3787 125.246 62.3058 127.548 63.5142 129.694C64.7017 131.861 67.0142 135.215 70.4517 139.756C72.9725 143.09 74.5246 145.204 75.1079 146.1C76.0662 147.559 76.7642 148.892 77.2017 150.1C77.6183 151.329 77.8267 152.569 77.8267 153.819C77.8267 156.131 77.0558 158.069 75.5142 159.631C73.9725 161.194 72.0975 161.986 69.8892 162.006C67.535 161.986 65.5142 161.163 63.8267 159.538C62.5558 158.329 61.5246 156.527 60.7329 154.131C60.0662 156.465 59.1079 158.246 57.8579 159.475C56.1287 161.163 54.1392 162.006 51.8892 162.006C49.6183 162.006 47.7017 161.236 46.1392 159.694C44.5558 158.152 43.7642 156.319 43.7642 154.194C43.7642 152.298 44.2225 150.34 45.1392 148.319C46.035 146.298 47.8058 143.621 50.4517 140.288C53.8683 135.975 56.3579 132.434 57.9204 129.663C59.1496 127.475 60.0871 125.184 60.7329 122.788Z" fill="black"/>
<path d="M60.7329 164.788C61.3787 167.246 62.3058 169.548 63.5142 171.694C64.7017 173.861 67.0142 177.215 70.4517 181.756C72.9725 185.09 74.5246 187.204 75.1079 188.1C76.0662 189.559 76.7642 190.892 77.2017 192.1C77.6183 193.329 77.8267 194.569 77.8267 195.819C77.8267 198.131 77.0558 200.069 75.5142 201.631C73.9725 203.194 72.0975 203.986 69.8892 204.006C67.535 203.986 65.5142 203.163 63.8267 201.538C62.5558 200.329 61.5246 198.527 60.7329 196.131C60.0662 198.465 59.1079 200.246 57.8579 201.475C56.1287 203.163 54.1392 204.006 51.8892 204.006C49.6183 204.006 47.7017 203.236 46.1392 201.694C44.5558 200.152 43.7642 198.319 43.7642 196.194C43.7642 194.298 44.2225 192.34 45.1392 190.319C46.035 188.298 47.8058 185.621 50.4517 182.288C53.8683 177.975 56.3579 174.434 57.9204 171.663C59.1496 169.475 60.0871 167.184 60.7329 164.788Z" fill="black"/>
<path d="M120.594 111.323C119.948 108.865 119.021 106.563 117.812 104.417C116.625 102.251 114.312 98.8963 110.875 94.3547C108.354 91.0213 106.802 88.9068 106.219 88.0109C105.26 86.5526 104.562 85.2193 104.125 84.0109C103.708 82.7818 103.5 81.5422 103.5 80.2922C103.5 77.9797 104.271 76.0422 105.812 74.4797C107.354 72.9172 109.229 72.1255 111.438 72.1047C113.792 72.1255 115.812 72.9484 117.5 74.5734C118.771 75.7818 119.802 77.5838 120.594 79.9797C121.26 77.6463 122.219 75.8651 123.469 74.6359C125.198 72.9484 127.188 72.1047 129.438 72.1047C131.708 72.1047 133.625 72.8755 135.188 74.4172C136.771 75.9588 137.562 77.7922 137.562 79.9172C137.562 81.813 137.104 83.7713 136.188 85.7922C135.292 87.813 133.521 90.4901 130.875 93.8234C127.458 98.1359 124.969 101.678 123.406 104.448C122.177 106.636 121.24 108.928 120.594 111.323Z" fill="black"/>
<path d="M120.733 121.788C121.379 124.246 122.306 126.548 123.514 128.694C124.702 130.861 127.014 134.215 130.452 138.756C132.972 142.09 134.525 144.204 135.108 145.1C136.066 146.559 136.764 147.892 137.202 149.1C137.618 150.329 137.827 151.569 137.827 152.819C137.827 155.131 137.056 157.069 135.514 158.631C133.972 160.194 132.097 160.986 129.889 161.006C127.535 160.986 125.514 160.163 123.827 158.538C122.556 157.329 121.525 155.527 120.733 153.131C120.066 155.465 119.108 157.246 117.858 158.475C116.129 160.163 114.139 161.006 111.889 161.006C109.618 161.006 107.702 160.236 106.139 158.694C104.556 157.152 103.764 155.319 103.764 153.194C103.764 151.298 104.222 149.34 105.139 147.319C106.035 145.298 107.806 142.621 110.452 139.288C113.868 134.975 116.358 131.434 117.92 128.663C119.15 126.475 120.087 124.184 120.733 121.788Z" fill="black"/>
<path d="M121.733 162.788C122.379 165.246 123.306 167.548 124.514 169.694C125.702 171.861 128.014 175.215 131.452 179.756C133.972 183.09 135.525 185.204 136.108 186.1C137.066 187.559 137.764 188.892 138.202 190.1C138.618 191.329 138.827 192.569 138.827 193.819C138.827 196.131 138.056 198.069 136.514 199.631C134.972 201.194 133.097 201.986 130.889 202.006C128.535 201.986 126.514 201.163 124.827 199.538C123.556 198.329 122.525 196.527 121.733 194.131C121.066 196.465 120.108 198.246 118.858 199.475C117.129 201.163 115.139 202.006 112.889 202.006C110.618 202.006 108.702 201.236 107.139 199.694C105.556 198.152 104.764 196.319 104.764 194.194C104.764 192.298 105.222 190.34 106.139 188.319C107.035 186.298 108.806 183.621 111.452 180.288C114.868 175.975 117.358 172.434 118.92 169.663C120.15 167.475 121.087 165.184 121.733 162.788Z" fill="black"/>
</svg>
