<svg width="176" height="217" viewBox="0 0 176 217" fill="none" xmlns="http://www.w3.org/2000/svg">
<path d="M170.521 0.416321C170.521 0.416321 119.752 1.64938 87.9344 1.64938C56.117 1.64938 5.34817 0.416321 5.34817 0.416321C2.39246 0.416321 0.132202 2.42005 0.132202 5.0403V209.883C0.132202 212.503 2.56632 214.661 5.34817 214.661C5.34817 214.661 56.117 216.202 87.9344 216.202C119.752 216.202 170.521 214.661 170.521 214.661C173.476 214.507 175.737 212.349 175.737 209.883V5.0403C175.737 2.42005 173.476 0.416321 170.521 0.416321Z" fill="white"/>
<path d="M21.2236 28.5781C21.0316 28.5781 20.8956 28.5301 20.8156 28.4341C20.7516 28.3381 20.7196 28.2021 20.7196 28.0261C20.7196 27.6741 20.7996 27.1301 20.9596 26.3941C21.1356 25.7221 21.2236 25.1701 21.2236 24.7381C21.2236 23.4901 21.1276 22.5381 20.9356 21.8821H20.1916C19.5356 21.8821 18.6796 21.8661 17.6236 21.8341L15.3676 21.8101H12.1276L12.1756 22.7461C12.1756 23.4821 12.2956 24.4021 12.5356 25.5061C12.6156 25.9541 12.6876 26.4101 12.7516 26.8741C12.8316 27.3221 12.8716 27.7301 12.8716 28.0981V28.3141C12.7116 28.4741 12.5436 28.5541 12.3676 28.5541C11.9516 28.5541 11.6236 28.0661 11.3836 27.0901C11.1436 26.0981 11.0236 24.9061 11.0236 23.5141C11.0236 22.9541 11.0476 22.4021 11.0956 21.8581C10.7436 21.8421 10.5036 21.7861 10.3756 21.6901C10.2476 21.5781 10.1836 21.4101 10.1836 21.1861C10.1836 21.0101 10.2316 20.8901 10.3276 20.8261C10.4396 20.7621 10.6316 20.7141 10.9036 20.6821L10.8796 20.0341L10.9516 18.9301C11.0636 17.1221 11.2316 15.6501 11.4556 14.5141C11.6796 13.3781 12.1596 12.3941 12.8956 11.5621C13.6316 10.7301 14.7356 10.3141 16.2076 10.3141C17.8876 10.3141 19.1996 11.2181 20.1436 13.0261C21.0876 14.8341 21.7276 16.8501 22.0636 19.0741C22.3996 21.2981 22.5676 23.2101 22.5676 24.8101C22.5676 25.3861 22.5516 25.8901 22.5196 26.3221C22.4876 26.7381 22.4236 27.2581 22.3276 27.8821C21.9596 28.3461 21.5916 28.5781 21.2236 28.5781ZM20.8396 20.9461C20.5356 17.9861 19.9916 15.6661 19.2076 13.9861C18.4236 12.2901 17.2476 11.4421 15.6796 11.4421C14.5116 11.4421 13.6476 11.9861 13.0876 13.0741C12.5436 14.1461 12.2156 15.2981 12.1036 16.5301C11.9916 17.7621 11.9356 19.1461 11.9356 20.6821L20.8396 20.9461Z" fill="black"/>
<path d="M17.1677 50.3864C16.9255 49.4645 16.5779 48.6012 16.1248 47.7965C15.6794 46.984 14.8123 45.7262 13.5232 44.0231C12.5779 42.7731 11.9958 41.9801 11.7771 41.6442C11.4177 41.0973 11.156 40.5973 10.9919 40.1442C10.8357 39.6832 10.7576 39.2184 10.7576 38.7496C10.7576 37.8824 11.0466 37.1559 11.6248 36.5699C12.2029 35.984 12.906 35.6871 13.7341 35.6793C14.6169 35.6871 15.3748 35.9957 16.0076 36.6051C16.4841 37.0582 16.8708 37.734 17.1677 38.6324C17.4177 37.7574 17.7771 37.0895 18.2458 36.6285C18.8943 35.9957 19.6404 35.6793 20.4841 35.6793C21.3357 35.6793 22.0544 35.9684 22.6404 36.5465C23.2341 37.1246 23.531 37.8121 23.531 38.609C23.531 39.3199 23.3591 40.0543 23.0154 40.8121C22.6794 41.5699 22.0154 42.5739 21.0232 43.8239C19.7419 45.441 18.8083 46.7692 18.2224 47.8082C17.7615 48.6285 17.4099 49.4879 17.1677 50.3864Z" fill="black"/>
<path d="M156.719 166.842C156.977 167.76 157.339 168.617 157.806 169.414C158.265 170.219 159.153 171.462 160.471 173.143C161.437 174.377 162.032 175.16 162.257 175.492C162.625 176.033 162.895 176.528 163.067 176.979C163.231 177.437 163.317 177.9 163.325 178.369C163.34 179.236 163.063 179.967 162.495 180.563C161.927 181.159 161.229 181.467 160.401 181.489C159.518 181.496 158.755 181.201 158.112 180.602C157.628 180.157 157.23 179.488 156.918 178.595C156.683 179.474 156.335 180.148 155.874 180.616C155.236 181.26 154.496 181.589 153.652 181.603C152.8 181.618 152.077 181.341 151.481 180.773C150.878 180.205 150.569 179.522 150.556 178.726C150.544 178.015 150.703 177.278 151.034 176.514C151.357 175.751 152.004 174.736 152.975 173.469C154.229 171.831 155.14 170.487 155.708 169.438C156.155 168.61 156.492 167.745 156.719 166.842Z" fill="black"/>
<path d="M85.4066 131.423C84.4379 127.735 83.0472 124.282 81.2347 121.064C79.4535 117.814 75.9847 112.782 70.8285 105.97C67.0472 100.97 64.7191 97.7979 63.8441 96.4542C62.4066 94.2667 61.3597 92.2667 60.7035 90.4542C60.0785 88.6104 59.766 86.7511 59.766 84.8761C59.766 81.4073 60.9222 78.5011 63.2347 76.1573C65.5472 73.8136 68.3597 72.6261 71.6722 72.5948C75.2035 72.6261 78.2347 73.8604 80.766 76.2979C82.6722 78.1104 84.2191 80.8136 85.4066 84.4073C86.4066 80.9073 87.8441 78.2354 89.7191 76.3917C92.3129 73.8604 95.2972 72.5948 98.6722 72.5948C102.078 72.5948 104.953 73.7511 107.297 76.0636C109.672 78.3761 110.86 81.1261 110.86 84.3136C110.86 87.1573 110.172 90.0948 108.797 93.1261C107.453 96.1573 104.797 100.173 100.828 105.173C95.7035 111.642 91.9691 116.954 89.6254 121.11C87.7816 124.392 86.3754 127.829 85.4066 131.423Z" fill="black"/>
<path d="M152.295 186.253C152.487 186.261 152.621 186.315 152.696 186.415C152.756 186.514 152.782 186.651 152.774 186.827C152.758 187.178 152.654 187.718 152.461 188.446C152.256 189.11 152.143 189.657 152.124 190.089C152.068 191.336 152.122 192.291 152.284 192.955L153.028 192.988C153.683 193.018 154.538 193.072 155.591 193.151L157.844 193.276L161.08 193.421L161.074 192.484C161.107 191.749 161.028 190.824 160.837 189.711C160.777 189.26 160.726 188.801 160.683 188.334C160.623 187.883 160.601 187.474 160.617 187.106L160.627 186.89C160.794 186.738 160.965 186.665 161.141 186.673C161.557 186.692 161.863 187.194 162.059 188.18C162.254 189.182 162.321 190.378 162.259 191.768C162.234 192.328 162.186 192.878 162.114 193.42C162.464 193.451 162.702 193.518 162.825 193.62C162.948 193.737 163.005 193.908 162.995 194.132C162.987 194.308 162.934 194.425 162.835 194.485C162.72 194.544 162.526 194.583 162.253 194.603L162.248 195.251L162.127 196.351C161.935 198.152 161.701 199.615 161.427 200.74C161.152 201.865 160.629 202.827 159.857 203.625C159.084 204.423 157.963 204.789 156.493 204.723C154.814 204.648 153.544 203.686 152.681 201.838C151.819 199.989 151.269 197.947 151.033 195.71C150.796 193.473 150.713 191.555 150.785 189.957C150.81 189.381 150.849 188.879 150.9 188.448C150.95 188.034 151.037 187.518 151.161 186.899C151.549 186.452 151.927 186.236 152.295 186.253ZM152.339 193.894C152.511 196.865 152.951 199.207 153.659 200.921C154.367 202.65 155.504 203.55 157.07 203.62C158.237 203.672 159.124 203.168 159.732 202.106C160.324 201.059 160.703 199.923 160.869 198.697C161.036 197.471 161.154 196.091 161.222 194.557L152.339 193.894Z" fill="black"/>
</svg>
