<svg width="183" height="216" viewBox="0 0 183 216" fill="none" xmlns="http://www.w3.org/2000/svg">
<path d="M177.389 0C177.389 0 126.62 1.23305 94.8027 1.23305C62.9853 1.23305 12.2165 0 12.2165 0C9.26074 0 7.00049 2.00372 7.00049 4.62398V209.466C7.00049 212.087 9.43461 214.244 12.2165 214.244C12.2165 214.244 62.9853 215.786 94.8027 215.786C126.62 215.786 177.389 214.244 177.389 214.244C180.345 214.09 182.605 211.932 182.605 209.466V4.62398C182.605 2.00372 180.345 0 177.389 0Z" fill="white"/>
<path d="M22.7401 28.1618C20.5321 28.1458 18.9161 27.6498 17.8921 26.6738C16.8681 25.6978 16.3561 24.4418 16.3561 22.9058C16.3561 21.5298 16.7321 20.8418 17.4841 20.8418C17.6281 20.9058 17.7001 20.9778 17.7001 21.0578C17.7001 21.1218 17.6681 21.2098 17.6041 21.3218C17.5561 21.4338 17.5161 21.5378 17.4841 21.6338C17.4041 21.9218 17.3641 22.1938 17.3641 22.4498C17.3641 23.1538 17.6041 23.8418 18.0841 24.5138C18.5641 25.1858 19.2121 25.7378 20.0281 26.1698C20.8441 26.5858 21.7161 26.7938 22.6441 26.7938C23.3321 26.7938 23.8681 26.4898 24.2521 25.8818C24.6521 25.2738 24.8521 24.3378 24.8521 23.0738C24.8521 22.3058 24.7881 21.5138 24.6601 20.6978L23.3641 11.9138C23.5401 11.6738 23.6921 11.5538 23.8201 11.5538C24.2201 11.5538 24.5641 12.2738 24.8521 13.7138C25.1401 15.1378 25.4761 17.3378 25.8601 20.3138L25.9561 21.1058C26.0681 22.0338 26.1241 22.7618 26.1241 23.2898C26.1241 24.8738 25.8361 26.0818 25.2601 26.9138C24.6841 27.7458 23.8441 28.1618 22.7401 28.1618Z" fill="black"/>
<path d="M24.0361 49.97C23.7939 49.0482 23.4463 48.1849 22.9932 47.3802C22.5479 46.5677 21.6807 45.3099 20.3916 43.6068C19.4463 42.3568 18.8643 41.5638 18.6455 41.2278C18.2861 40.681 18.0244 40.181 17.8604 39.7278C17.7041 39.2669 17.626 38.8021 17.626 38.3333C17.626 37.4661 17.915 36.7396 18.4932 36.1536C19.0713 35.5677 19.7744 35.2708 20.6025 35.263C21.4854 35.2708 22.2432 35.5794 22.876 36.1888C23.3525 36.6419 23.7393 37.3177 24.0361 38.2161C24.2861 37.3411 24.6455 36.6732 25.1143 36.2122C25.7627 35.5794 26.5088 35.263 27.3525 35.263C28.2041 35.263 28.9229 35.5521 29.5088 36.1302C30.1025 36.7083 30.3994 37.3958 30.3994 38.1927C30.3994 38.9036 30.2275 39.638 29.8838 40.3958C29.5479 41.1536 28.8838 42.1575 27.8916 43.4075C26.6104 45.0247 25.6768 46.3528 25.0908 47.3919C24.6299 48.2122 24.2783 49.0716 24.0361 49.97Z" fill="black"/>
<path d="M166.703 167.871C166.945 168.793 167.293 169.656 167.746 170.461C168.191 171.273 169.058 172.531 170.347 174.234C171.293 175.484 171.875 176.277 172.094 176.613C172.453 177.16 172.715 177.66 172.879 178.113C173.035 178.574 173.113 179.039 173.113 179.507C173.113 180.375 172.824 181.101 172.246 181.687C171.668 182.273 170.965 182.57 170.136 182.578C169.254 182.57 168.496 182.261 167.863 181.652C167.386 181.199 167 180.523 166.703 179.625C166.453 180.5 166.094 181.168 165.625 181.629C164.976 182.261 164.23 182.578 163.386 182.578C162.535 182.578 161.816 182.289 161.23 181.711C160.636 181.132 160.34 180.445 160.34 179.648C160.34 178.937 160.511 178.203 160.855 177.445C161.191 176.687 161.855 175.683 162.847 174.433C164.129 172.816 165.062 171.488 165.648 170.449C166.109 169.629 166.461 168.769 166.703 167.871Z" fill="black"/>
<path d="M164.313 185.576C166.521 185.59 168.138 186.084 169.163 187.059C170.188 188.034 170.702 189.289 170.704 190.825C170.706 192.201 170.331 192.89 169.579 192.891C169.434 192.827 169.362 192.755 169.362 192.675C169.362 192.611 169.394 192.523 169.458 192.411C169.506 192.299 169.546 192.195 169.578 192.099C169.657 191.81 169.697 191.538 169.697 191.282C169.696 190.578 169.455 189.891 168.974 189.219C168.493 188.548 167.844 187.996 167.028 187.565C166.211 187.15 165.339 186.943 164.411 186.944C163.723 186.945 163.187 187.249 162.804 187.858C162.405 188.466 162.206 189.402 162.208 190.666C162.209 191.434 162.274 192.226 162.403 193.042L163.71 201.825C163.534 202.065 163.382 202.185 163.254 202.185C162.854 202.186 162.51 201.466 162.22 200.026C161.93 198.603 161.591 196.403 161.203 193.427L161.106 192.635C160.993 191.707 160.936 190.98 160.935 190.452C160.933 188.868 161.22 187.659 161.795 186.827C162.37 185.994 163.209 185.577 164.313 185.576Z" fill="black"/>
<path d="M139.567 120.401C139.567 146.592 117.672 167.901 90.5669 167.901C63.462 167.901 41.5669 146.592 41.5669 120.401C41.5669 94.2098 63.462 72.901 90.5669 72.901C117.672 72.901 139.567 94.2098 139.567 120.401Z" fill="white" stroke="black" stroke-width="3"/>
<path d="M72.9549 95.425C70.7469 95.409 69.1309 94.913 68.1069 93.937C67.0829 92.961 66.5709 91.705 66.5709 90.169C66.5709 88.793 66.9469 88.105 67.6989 88.105C67.8429 88.169 67.9149 88.241 67.9149 88.321C67.9149 88.385 67.8829 88.473 67.8189 88.585C67.7709 88.697 67.7309 88.801 67.6989 88.897C67.6189 89.185 67.5789 89.457 67.5789 89.713C67.5789 90.417 67.8189 91.105 68.2989 91.777C68.7789 92.449 69.4269 93.001 70.2429 93.433C71.0589 93.849 71.9309 94.057 72.8589 94.057C73.5469 94.057 74.0829 93.753 74.4669 93.145C74.8669 92.537 75.0669 91.601 75.0669 90.337C75.0669 89.569 75.0029 88.777 74.8749 87.961L73.5789 79.177C73.7549 78.937 73.9069 78.817 74.0349 78.817C74.4349 78.817 74.7789 79.537 75.0669 80.977C75.3549 82.401 75.6909 84.601 76.0749 87.577L76.1709 88.369C76.2829 89.297 76.3389 90.025 76.3389 90.553C76.3389 92.137 76.0509 93.345 75.4749 94.177C74.8989 95.009 74.0589 95.425 72.9549 95.425ZM84.9136 95.401C83.2496 95.401 81.8016 95.113 80.5696 94.537C79.3536 93.945 78.7456 92.913 78.7456 91.441C78.7456 90.913 78.9056 90.401 79.2256 89.905C79.5456 89.409 80.0176 89.009 80.6416 88.705C81.2656 88.385 82.0256 88.225 82.9216 88.225C83.6096 88.225 84.1936 88.257 84.6736 88.321C85.1536 88.385 85.7056 88.561 86.3296 88.849C86.9536 89.137 87.6016 89.593 88.2736 90.217C88.0176 89.113 87.6336 88.145 87.1216 87.313C86.6096 86.481 86.0336 85.841 85.3936 85.393C84.7696 84.929 84.1536 84.697 83.5456 84.697C83.2576 84.697 82.9856 84.753 82.7296 84.865C82.4896 84.961 82.1936 85.105 81.8416 85.297C81.4416 85.553 81.1456 85.681 80.9536 85.681C80.8736 85.681 80.8016 85.657 80.7376 85.609C80.6896 85.545 80.6656 85.473 80.6656 85.393C80.6656 84.753 80.9456 84.257 81.5056 83.905C82.0816 83.553 82.7776 83.393 83.5936 83.425C84.7136 83.489 85.7376 83.969 86.6656 84.865C87.5936 85.745 88.3216 86.841 88.8496 88.153C89.3936 89.465 89.6656 90.753 89.6656 92.017C89.6656 92.225 89.6496 92.521 89.6176 92.905L88.8496 92.857C88.2416 91.625 87.4576 90.753 86.4976 90.241C85.5536 89.713 84.6016 89.449 83.6416 89.449C82.4096 89.449 81.5296 89.633 81.0016 90.001C80.4736 90.369 80.2096 90.905 80.2096 91.609C80.2096 92.345 80.5776 92.937 81.3136 93.385C82.0496 93.833 82.9936 94.057 84.1456 94.057C84.7856 94.057 85.2976 94.025 85.6816 93.961C86.0656 93.881 86.4656 93.777 86.8816 93.649C87.2176 93.537 87.5136 93.457 87.7696 93.409C88.0256 93.361 88.3536 93.337 88.7536 93.337C89.2016 93.337 89.4816 93.369 89.5936 93.433C89.7216 93.497 89.7856 93.641 89.7856 93.865C89.7856 94.025 89.4576 94.225 88.8016 94.465C88.1456 94.705 87.4096 94.921 86.5936 95.113C85.7776 95.305 85.2176 95.401 84.9136 95.401ZM97.6106 95.425C95.7386 95.425 94.2826 95.001 93.2426 94.153C92.2186 93.289 91.7066 91.961 91.7066 90.169C91.7066 89.257 91.9306 88.393 92.3786 87.577C92.8426 86.745 93.4586 86.081 94.2266 85.585C95.0106 85.073 95.8506 84.817 96.7466 84.817C97.6586 84.817 98.4346 85.017 99.0746 85.417C99.7146 85.801 100.035 86.361 100.035 87.097C100.035 87.609 99.9386 87.977 99.7466 88.201C99.5706 88.409 99.3706 88.513 99.1466 88.513C99.1466 87.745 98.9386 87.121 98.5226 86.641C98.1066 86.161 97.5146 85.921 96.7466 85.921C95.9786 85.921 95.3146 86.129 94.7546 86.545C94.1946 86.945 93.7626 87.481 93.4586 88.153C93.1706 88.809 93.0266 89.497 93.0266 90.217C93.0266 91.737 93.5386 92.769 94.5626 93.313C95.6026 93.857 96.9706 94.129 98.6666 94.129C99.2426 94.129 99.9946 94.097 100.923 94.033C100.955 94.033 101.027 94.065 101.139 94.129C101.251 94.193 101.339 94.233 101.403 94.249V94.393C101.403 94.857 100.995 95.145 100.179 95.257C99.3626 95.369 98.5066 95.425 97.6106 95.425ZM104.171 95.425C103.771 95.425 103.571 95.193 103.571 94.729C103.571 94.633 103.603 94.433 103.667 94.129C103.747 93.825 103.787 93.489 103.787 93.121V91.945V90.217C103.707 89.081 103.507 87.697 103.187 86.065C102.835 84.273 102.563 82.609 102.371 81.073C102.419 80.801 102.547 80.665 102.755 80.665C103.027 80.665 103.355 81.385 103.739 82.825C104.123 84.249 104.515 86.609 104.915 89.905C105.235 89.105 105.675 88.297 106.235 87.481C106.795 86.649 107.387 85.961 108.011 85.417C108.635 84.873 109.179 84.601 109.643 84.601C109.835 84.601 109.955 84.657 110.003 84.769C110.067 84.881 110.091 85.041 110.075 85.249C109.131 86.081 108.179 87.049 107.219 88.153C106.259 89.257 105.779 90.113 105.779 90.721C105.779 91.089 106.083 91.513 106.691 91.993C107.299 92.457 108.051 92.873 108.947 93.241C109.843 93.593 110.683 93.793 111.467 93.841C111.771 93.889 111.923 94.073 111.923 94.393C111.923 94.937 111.411 95.209 110.387 95.209C109.571 95.209 108.675 94.881 107.699 94.225C106.739 93.569 105.907 92.881 105.203 92.161C105.155 92.433 105.123 92.673 105.107 92.881C105.091 93.073 105.075 93.241 105.059 93.385C104.995 94.089 104.907 94.609 104.795 94.945C104.699 95.265 104.491 95.425 104.171 95.425Z" fill="black"/>
<line x1="65.4071" y1="121.767" x2="51.4071" y2="134.767" stroke="black"/>
<line x1="98.312" y1="124.965" x2="114.312" y2="133.965" stroke="black"/>
<path d="M40.84 130.075C40.84 138.321 38.6542 146.382 38.6542 154.118C38.6542 162.75 26.1776 161.951 23.354 156.304" stroke="white" stroke-width="3" stroke-linecap="round"/>
<path d="M38.6541 127.889C38.6541 138.089 38.6541 148.289 38.6541 158.49C38.6541 168.647 26.1365 167.233 18.9824 167.233" stroke="black" stroke-width="3" stroke-linecap="round"/>
<path d="M137.013 123.518C137.013 131.532 137.013 139.546 137.013 147.561C137.013 157.623 143.528 160.508 145.756 169.418" stroke="white" stroke-width="3" stroke-linecap="round"/>
<path d="M139.198 132.261C139.198 137.953 136.335 158.22 143.084 158.49C152.48 158.865 165.193 155.055 167.613 145.375" stroke="black" stroke-width="3" stroke-linecap="round"/>
<path d="M71.4402 145.375H91.1119" stroke="black" stroke-width="3" stroke-linecap="round"/>
<path d="M118.067 169.623C120.728 169.623 122.892 169.909 125.455 169.34C127.752 168.829 130.329 169.023 132.776 169.023C135.725 169.023 138.529 169.038 141.297 169.89C143.701 170.63 146.565 170.365 148.685 171.424" stroke="black" stroke-linecap="round"/>
<path d="M56.8401 175.177C54.3889 174.871 54.134 174.435 51.7524 175.115C50.0178 175.611 47.2151 177.325 45.6721 177.411C40.2702 177.711 35.0767 178.528 29.4784 178.528C24.1895 178.528 1 176.266 1 182.995" stroke="black" stroke-linecap="round"/>
<line x1="59.5662" y1="154.427" x2="58.5662" y2="173.427" stroke="black"/>
<line x1="118.567" y1="158.401" x2="118.567" y2="169.401" stroke="black"/>
<path d="M118.368 169.023H123.17" stroke="white" stroke-linecap="round"/>
</svg>
