<svg width="179" height="216" viewBox="0 0 179 216" fill="none" xmlns="http://www.w3.org/2000/svg">
<path d="M173.113 0C173.113 0 122.344 1.23305 90.5268 1.23305C58.7094 1.23305 7.94058 0 7.94058 0C4.98486 0 2.72461 2.00372 2.72461 4.62398V209.466C2.72461 212.087 5.15873 214.244 7.94058 214.244C7.94058 214.244 58.7094 215.786 90.5268 215.786C122.344 215.786 173.113 214.244 173.113 214.244C176.069 214.09 178.329 211.932 178.329 209.466V4.62398C178.329 2.00372 176.069 0 173.113 0Z" fill="white"/>
<path d="M14.7679 28.1857C14.4319 28.1857 14.1999 27.8017 14.0719 27.0337C13.9599 26.2497 13.8639 24.8737 13.7839 22.9057L13.7119 21.1537C13.6799 20.5457 13.5679 19.6097 13.3759 18.3457C13.3599 18.1857 13.2959 17.6977 13.1839 16.8817C13.0719 16.0657 13.0159 15.3457 13.0159 14.7217C13.0159 14.6257 13.0639 14.5057 13.1599 14.3617C13.2559 14.2017 13.3759 14.1217 13.5199 14.1217C13.7279 14.1217 13.8639 14.2177 13.9279 14.4097C14.0079 14.6017 14.0559 14.7937 14.0719 14.9857C14.1039 15.1617 14.1199 15.2737 14.1199 15.3217C14.2159 15.5937 14.2879 15.9697 14.3359 16.4497C14.3839 16.9137 14.4239 17.4097 14.4559 17.9377C14.5199 18.9777 14.5839 19.7217 14.6479 20.1697L15.3919 19.1137C16.4319 17.5777 17.3679 16.3457 18.1999 15.4177C19.0479 14.4897 19.8719 14.0417 20.6719 14.0737C20.7359 14.1377 20.7679 14.2177 20.7679 14.3137C20.7679 14.4737 20.6879 14.6577 20.5279 14.8657C20.3679 15.0737 20.1279 15.3457 19.8079 15.6817L19.3039 16.2097C19.1279 16.4177 18.5919 17.0097 17.6959 17.9857C17.0719 18.6417 16.5599 19.2017 16.1599 19.6657C15.7599 20.1297 15.4559 20.5537 15.2479 20.9377C15.9519 21.9137 16.7839 22.7777 17.7439 23.5297C18.7199 24.2817 19.9919 25.1697 21.5599 26.1937L22.2799 26.6497C22.5679 26.7617 22.7919 26.9137 22.9519 27.1057C23.1279 27.2817 23.2159 27.4657 23.2159 27.6577C23.2159 27.7537 23.1919 27.8497 23.1439 27.9457C23.0319 28.1377 22.8959 28.2337 22.7359 28.2337C22.5599 28.2337 22.2479 28.1217 21.7999 27.8977L20.5039 26.9857C19.0959 26.0577 17.8959 25.1937 16.9039 24.3937C15.9119 23.5937 15.2239 22.8337 14.8399 22.1137L14.9839 23.9137C15.1279 25.5617 15.1999 26.6657 15.1999 27.2257C15.1999 27.6257 15.1679 27.8897 15.1039 28.0177C15.0399 28.1297 14.9279 28.1857 14.7679 28.1857Z" fill="black"/>
<path d="M19.76 49.97C19.5178 49.0481 19.1702 48.1849 18.717 47.3802C18.2717 46.5677 17.4045 45.3099 16.1155 43.6067C15.1702 42.3567 14.5881 41.5638 14.3694 41.2278C14.01 40.681 13.7483 40.181 13.5842 39.7278C13.428 39.2669 13.3499 38.8021 13.3499 38.3333C13.3499 37.4661 13.6389 36.7396 14.217 36.1536C14.7952 35.5677 15.4983 35.2708 16.3264 35.263C17.2092 35.2708 17.967 35.5794 18.5999 36.1888C19.0764 36.6419 19.4631 37.3177 19.76 38.2161C20.01 37.3411 20.3694 36.6731 20.8381 36.2122C21.4866 35.5794 22.2327 35.263 23.0764 35.263C23.928 35.263 24.6467 35.5521 25.2327 36.1302C25.8264 36.7083 26.1233 37.3958 26.1233 38.1927C26.1233 38.9036 25.9514 39.638 25.6077 40.3958C25.2717 41.1536 24.6077 42.1575 23.6155 43.4075C22.3342 45.0247 21.4006 46.3528 20.8147 47.3919C20.3538 48.2122 20.0022 49.0716 19.76 49.97Z" fill="black"/>
<path d="M160.427 166.871C160.669 167.793 161.017 168.656 161.47 169.461C161.915 170.273 162.782 171.531 164.072 173.234C165.017 174.484 165.599 175.277 165.818 175.613C166.177 176.16 166.439 176.66 166.603 177.113C166.759 177.574 166.837 178.039 166.837 178.507C166.837 179.375 166.548 180.101 165.97 180.687C165.392 181.273 164.689 181.57 163.861 181.578C162.978 181.57 162.22 181.261 161.587 180.652C161.111 180.199 160.724 179.523 160.427 178.625C160.177 179.5 159.818 180.168 159.349 180.629C158.7 181.261 157.954 181.578 157.111 181.578C156.259 181.578 155.54 181.289 154.954 180.711C154.361 180.132 154.064 179.445 154.064 178.648C154.064 177.937 154.236 177.203 154.579 176.445C154.915 175.687 155.579 174.683 156.572 173.433C157.853 171.816 158.786 170.488 159.372 169.449C159.833 168.629 160.185 167.769 160.427 166.871Z" fill="black"/>
<path d="M163.733 185.548C164.069 185.548 164.302 185.932 164.431 186.699C164.544 187.483 164.642 188.859 164.724 190.827L164.798 192.579C164.831 193.187 164.944 194.123 165.138 195.387C165.154 195.547 165.219 196.035 165.332 196.851C165.445 197.666 165.502 198.386 165.503 199.01C165.503 199.106 165.455 199.226 165.359 199.37C165.263 199.531 165.143 199.611 164.999 199.611C164.791 199.611 164.655 199.515 164.591 199.323C164.511 199.131 164.462 198.939 164.446 198.747C164.414 198.571 164.398 198.459 164.398 198.411C164.301 198.14 164.229 197.764 164.18 197.284C164.132 196.82 164.091 196.324 164.058 195.796C163.993 194.756 163.928 194.012 163.864 193.564L163.121 194.621C162.083 196.158 161.148 197.391 160.318 198.32C159.471 199.249 158.647 199.697 157.847 199.666C157.783 199.602 157.751 199.522 157.751 199.426C157.751 199.266 157.831 199.082 157.99 198.874C158.15 198.666 158.39 198.394 158.709 198.057L159.213 197.529C159.388 197.321 159.924 196.728 160.818 195.751C161.442 195.095 161.953 194.534 162.352 194.07C162.752 193.605 163.055 193.181 163.263 192.797C162.557 191.821 161.724 190.958 160.763 190.207C159.786 189.456 158.513 188.57 156.944 187.547L156.223 187.092C155.935 186.98 155.711 186.828 155.551 186.637C155.374 186.461 155.286 186.277 155.286 186.085C155.286 185.989 155.31 185.893 155.358 185.797C155.469 185.605 155.605 185.509 155.765 185.508C155.941 185.508 156.253 185.62 156.702 185.843L157.999 186.754C159.408 187.681 160.609 188.543 161.602 189.342C162.595 190.141 163.284 190.901 163.669 191.62L163.523 189.82C163.377 188.173 163.303 187.069 163.302 186.509C163.302 186.109 163.334 185.845 163.397 185.717C163.461 185.604 163.573 185.548 163.733 185.548Z" fill="black"/>
<path d="M142.76 108.208C142.76 134.399 120.865 155.708 93.7603 155.708C66.6553 155.708 44.7603 134.399 44.7603 108.208C44.7603 82.0169 66.6553 60.7082 93.7603 60.7082C120.865 60.7082 142.76 82.0169 142.76 108.208Z" fill="white" stroke="black" stroke-width="3"/>
<path d="M70.4523 86.2562C70.1163 86.2562 69.8843 85.8722 69.7563 85.1042C69.6443 84.3202 69.5483 82.9442 69.4683 80.9762L69.3963 79.2242C69.3643 78.6162 69.2523 77.6802 69.0603 76.4162C69.0443 76.2562 68.9803 75.7682 68.8683 74.9522C68.7563 74.1362 68.7003 73.4162 68.7003 72.7922C68.7003 72.6962 68.7483 72.5762 68.8443 72.4322C68.9403 72.2722 69.0603 72.1922 69.2043 72.1922C69.4123 72.1922 69.5483 72.2882 69.6123 72.4802C69.6923 72.6722 69.7403 72.8642 69.7563 73.0562C69.7883 73.2322 69.8043 73.3442 69.8043 73.3922C69.9003 73.6642 69.9723 74.0402 70.0203 74.5202C70.0683 74.9842 70.1083 75.4802 70.1403 76.0082C70.2043 77.0482 70.2683 77.7922 70.3323 78.2402L71.0763 77.1842C72.1163 75.6482 73.0523 74.4162 73.8843 73.4882C74.7323 72.5602 75.5563 72.1122 76.3563 72.1442C76.4203 72.2082 76.4523 72.2882 76.4523 72.3842C76.4523 72.5442 76.3723 72.7282 76.2123 72.9362C76.0523 73.1442 75.8123 73.4162 75.4923 73.7522L74.9883 74.2802C74.8123 74.4882 74.2763 75.0802 73.3803 76.0562C72.7563 76.7122 72.2443 77.2722 71.8443 77.7362C71.4443 78.2002 71.1403 78.6242 70.9323 79.0082C71.6363 79.9842 72.4683 80.8482 73.4283 81.6002C74.4043 82.3522 75.6763 83.2402 77.2443 84.2642L77.9643 84.7202C78.2523 84.8322 78.4763 84.9842 78.6363 85.1762C78.8123 85.3522 78.9003 85.5362 78.9003 85.7282C78.9003 85.8242 78.8763 85.9202 78.8283 86.0162C78.7163 86.2082 78.5803 86.3042 78.4203 86.3042C78.2443 86.3042 77.9323 86.1922 77.4843 85.9682L76.1883 85.0562C74.7803 84.1282 73.5803 83.2642 72.5883 82.4642C71.5963 81.6642 70.9083 80.9042 70.5243 80.1842L70.6683 81.9842C70.8123 83.6322 70.8843 84.7362 70.8843 85.2962C70.8843 85.6962 70.8523 85.9602 70.7883 86.0882C70.7243 86.2002 70.6123 86.2562 70.4523 86.2562ZM81.4767 86.2322C81.1087 86.2322 80.8127 85.6962 80.5887 84.6242C80.3647 83.5362 80.2207 82.6002 80.1567 81.8162C80.0927 81.0322 80.0047 79.7922 79.8927 78.0962C79.8767 77.8242 79.8687 77.4722 79.8687 77.0402C79.8687 76.4962 79.9087 76.1202 79.9887 75.9122C80.0847 75.7042 80.2367 75.6002 80.4447 75.6002C80.6207 75.6002 80.7567 75.6402 80.8527 75.7202C80.9647 75.7842 81.0607 75.8962 81.1407 76.0562L81.1167 77.0162C81.1167 78.0402 81.1647 79.0082 81.2607 79.9202C81.3727 80.8322 81.5407 82.0562 81.7647 83.5922C81.8927 84.2642 81.9807 84.8162 82.0287 85.2482C82.0607 85.4722 82.0207 85.6962 81.9087 85.9202C81.7967 86.1282 81.6527 86.2322 81.4767 86.2322ZM80.8767 73.0322C80.5247 73.0322 80.2607 72.8962 80.0847 72.6242C79.9247 72.3522 79.8447 72.0162 79.8447 71.6162C79.8447 71.4402 79.8527 71.3122 79.8687 71.2322C79.8527 70.9762 79.9967 70.8482 80.3007 70.8482C80.5247 70.8482 80.7487 70.9042 80.9727 71.0162C81.2127 71.1122 81.2847 71.1842 81.1887 71.2322C81.3487 71.6482 81.4287 71.9762 81.4287 72.2162C81.4287 72.4242 81.3807 72.5922 81.2847 72.7202C81.1887 72.8322 81.0527 72.9362 80.8767 73.0322ZM86.4612 86.3042C86.2372 86.3682 86.1092 86.4002 86.0772 86.4002C85.9492 86.4002 85.8132 86.3362 85.6692 86.2082C85.1412 85.4242 84.7572 84.0562 84.5172 82.1042C84.2932 80.1522 84.1812 78.4722 84.1812 77.0642C84.1812 76.8402 84.3412 76.7282 84.6612 76.7282C85.1412 76.7282 85.3812 76.9922 85.3812 77.5202C85.3812 77.6642 85.3732 77.7842 85.3572 77.8802C85.5012 77.5442 85.7732 77.2002 86.1732 76.8482C86.5732 76.4962 87.0372 76.2002 87.5652 75.9602C88.0932 75.7202 88.6292 75.6002 89.1732 75.6002C90.8852 75.6002 92.1332 76.3602 92.9172 77.8802C93.7012 79.3842 94.0932 81.2562 94.0932 83.4962C94.0932 84.2642 94.0132 84.8802 93.8532 85.3442C93.6932 85.7922 93.4772 86.0162 93.2052 86.0162C92.9172 86.0162 92.7732 85.9282 92.7732 85.7522C92.8852 84.9042 92.9412 84.0722 92.9412 83.2562C92.9412 81.1922 92.5812 79.6322 91.8612 78.5762C91.1412 77.5042 90.1892 76.9682 89.0052 76.9682C88.4292 76.9682 87.8692 77.1122 87.3252 77.4002C86.7972 77.6882 86.3652 78.0882 86.0292 78.6002C85.7092 79.1122 85.5492 79.6962 85.5492 80.3522C85.5492 81.0882 85.5892 81.7282 85.6692 82.2722C85.7492 82.8162 85.8772 83.4722 86.0532 84.2402C86.2452 84.9922 86.3812 85.6802 86.4612 86.3042ZM100.049 97.9202C98.7051 97.9202 97.5771 97.5362 96.6651 96.7682C95.7691 96.0162 95.2331 94.7442 95.0571 92.9522C95.0411 92.6802 95.0811 92.4722 95.1771 92.3282C95.2891 92.1842 95.4331 92.1122 95.6091 92.1122C95.8011 92.1122 95.9691 92.1842 96.1131 92.3282C96.2571 92.4882 96.3211 92.6962 96.3051 92.9522C96.3051 94.0082 96.6651 94.8402 97.3851 95.4482C98.1211 96.0722 99.0571 96.3842 100.193 96.3842C100.849 96.3842 101.425 96.1442 101.921 95.6642C102.433 95.1842 102.825 94.5122 103.097 93.6482C103.369 92.8002 103.505 91.8242 103.505 90.7202C103.505 88.7842 103.529 86.9042 103.577 85.0802L103.601 83.8562C102.977 84.5122 102.409 84.9922 101.897 85.2962C101.401 85.6002 100.801 85.7522 100.097 85.7522C98.8651 85.7522 97.9531 85.4242 97.3611 84.7682C96.7851 84.0962 96.4971 83.0722 96.4971 81.6962C96.4971 80.9122 96.7051 80.0962 97.1211 79.2482C97.5531 78.3842 98.1371 77.6642 98.8731 77.0882C99.6251 76.5122 100.473 76.2242 101.417 76.2242C101.737 76.2242 102.033 76.2562 102.305 76.3202C103.329 76.5442 104.017 77.4962 104.369 79.1762C104.721 80.8562 104.897 83.0322 104.897 85.7042C104.897 86.4402 104.881 87.4162 104.849 88.6322L104.825 90.9122C104.825 91.8242 104.681 92.8162 104.393 93.8882C104.105 94.9762 103.601 95.9202 102.881 96.7202C102.161 97.5202 101.217 97.9202 100.049 97.9202ZM99.7371 84.1682C100.921 84.1682 101.817 83.8882 102.425 83.3282C103.033 82.7522 103.337 81.9122 103.337 80.8082C103.337 80.6642 103.321 80.4162 103.289 80.0642C103.209 79.3282 103.017 78.7522 102.713 78.3362C102.425 77.9042 101.969 77.6882 101.345 77.6882C100.689 77.6882 100.089 77.9202 99.5451 78.3842C99.0011 78.8482 98.5771 79.4242 98.2731 80.1122C97.9691 80.7842 97.8171 81.4162 97.8171 82.0082C97.8171 82.6002 97.9931 83.1122 98.3451 83.5442C98.6971 83.9602 99.1611 84.1682 99.7371 84.1682Z" fill="black"/>
<line x1="74.5306" y1="108.629" x2="60.5306" y2="117.629" stroke="black"/>
<line x1="100.582" y1="106.826" x2="119.582" y2="122.826" stroke="black"/>
<path d="M76.2052 124.429C76.2052 129.497 72.4512 135.03 67.7671 137.707C65.6522 138.915 61.2332 132.438 61.7488 130.634C61.9942 129.775 68.0869 133.16 62.8035 134.48" stroke="black" stroke-linecap="round"/>
<path d="M96.3076 124.429C96.3076 134.007 96.1322 138.152 102.76 144.78C106.911 148.931 112.219 141.858 108.53 141.243C106.685 140.936 105.804 140.064 103.877 140.064C101.114 140.064 104.066 141.181 105.242 141.181" stroke="black" stroke-linecap="round"/>
<line x1="60.7603" y1="142.208" x2="60.7603" y2="164.208" stroke="black"/>
<line x1="122.752" y1="148.3" x2="119.752" y2="164.3" stroke="black"/>
<path d="M38.2338 115.495C38.2338 121.341 31.5624 128.567 28.679 133.922C24.7574 141.205 19.9561 144.941 14.781 150.116" stroke="black" stroke-width="3" stroke-linecap="round"/>
<path d="M144.33 109.911C144.33 119.889 144.619 126.88 149.666 135.597C151.797 139.278 153.977 144.136 157.173 146.827C159.365 148.673 161.793 150.951 163.812 152.97C165.329 154.487 168.433 156.817 166.666 156.817" stroke="black" stroke-width="3" stroke-linecap="round"/>
<path d="M138.746 133.364C138.746 139.113 138.746 144.863 138.746 150.612C138.746 151.412 141.616 155.678 142.345 156.568C144.171 158.8 146.318 159.676 147.681 162.401" stroke="black" stroke-width="3" stroke-linecap="round"/>
<path d="M26.3714 157.021C25.3398 157.124 20.7897 159.006 20.7078 156.879C20.6795 156.141 20.1597 155.533 20.1597 154.686C20.1597 153.725 19.9771 152.78 19.9771 151.804C19.9771 151.162 21.0835 150.596 21.5198 150.16C22.2103 149.469 23.2076 149.426 24.1791 149.337C24.9869 149.264 26.1623 148.517 26.3613 149.611C26.4812 150.271 26.3714 151.052 26.3714 151.723" stroke="black" stroke-width="3" stroke-linecap="round"/>
<path d="M146.588 160.5C149.004 160.802 149.157 162.209 150.892 159.824C152.125 158.129 152.66 155.427 151.138 153.737C150.764 153.321 146.487 148.315 145.604 149.002C143.755 150.44 143.882 153.136 144.927 154.966" stroke="black" stroke-width="3" stroke-linecap="round"/>
<path d="M165.957 156.627C167.864 156.865 169.219 157.472 170.63 155.397C171.812 153.658 172.936 150.468 171.921 148.326C171.08 146.551 167.334 143.238 165.403 143.345C164.131 143.416 164.297 147.896 164.297 148.879" stroke="black" stroke-width="3" stroke-linecap="round"/>
<path d="M13.0344 140.578C14.0633 140.578 14.3566 141.325 15.3283 141.502C16.6223 141.737 15.7007 143.136 14.8614 143.136" stroke="black" stroke-width="3" stroke-linecap="round"/>
<path d="M43.818 121.079C43.818 129.062 43.5215 136.739 42.7012 144.532C42.0734 150.496 39.6864 149.548 36.0004 152.846C33.6963 154.907 26.9769 154.761 25.9492 156.816" stroke="black" stroke-width="3" stroke-linecap="round"/>
<path d="M59.5898 164.689C54.8117 164.689 50.5341 165.551 45.7561 165.735C43.6638 165.816 31.8655 167.563 31.3412 168.874C30.5599 170.827 17.2997 172.013 15.0662 172.013C11.47 172.013 1.82107 171.867 1 175.151" stroke="black" stroke-linecap="round"/>
<path d="M120.272 164.689C125.224 164.689 129.524 166.781 134.397 166.781C137.611 166.781 145.692 166.976 146.428 169.92" stroke="black" stroke-linecap="round"/>
</svg>
