<svg width="176" height="216" viewBox="0 0 176 216" fill="none" xmlns="http://www.w3.org/2000/svg">
<path d="M170.388 0C170.388 0 119.62 1.23305 87.8022 1.23305C55.9848 1.23305 5.21597 0 5.21597 0C2.26025 0 0 2.00372 0 4.62398V209.466C0 212.087 2.43412 214.244 5.21597 214.244C5.21597 214.244 55.9848 215.786 87.8022 215.786C119.62 215.786 170.388 214.244 170.388 214.244C173.344 214.09 175.604 211.932 175.604 209.466V4.62398C175.604 2.00372 173.344 0 170.388 0Z" fill="white"/>
<path d="M17.0356 49.97C16.7935 49.0482 16.4458 48.1849 15.9927 47.3802C15.5474 46.5677 14.6802 45.3099 13.3911 43.6068C12.4458 42.3568 11.8638 41.5638 11.645 41.2278C11.2856 40.681 11.0239 40.181 10.8599 39.7278C10.7036 39.2669 10.6255 38.8021 10.6255 38.3333C10.6255 37.4661 10.9146 36.7396 11.4927 36.1536C12.0708 35.5677 12.7739 35.2708 13.6021 35.263C14.4849 35.2708 15.2427 35.5794 15.8755 36.1888C16.3521 36.6419 16.7388 37.3177 17.0356 38.2161C17.2856 37.3411 17.645 36.6732 18.1138 36.2122C18.7622 35.5794 19.5083 35.263 20.3521 35.263C21.2036 35.263 21.9224 35.5521 22.5083 36.1302C23.1021 36.7083 23.3989 37.3958 23.3989 38.1927C23.3989 38.9036 23.2271 39.638 22.8833 40.3958C22.5474 41.1536 21.8833 42.1575 20.8911 43.4075C19.6099 45.0247 18.6763 46.3528 18.0903 47.3919C17.6294 48.2122 17.2778 49.0716 17.0356 49.97Z" fill="black"/>
<path d="M24.696 25.232C24.44 25.472 24.16 25.592 23.856 25.592C23.408 25.592 22.888 25.368 22.296 24.92C21.704 24.472 20.792 23.68 19.56 22.544C19.384 22.576 19.136 22.616 18.816 22.664C18.512 22.712 18.2 22.76 17.88 22.808L16.776 22.976C16.648 22.992 16.456 23 16.2 23C14.984 23 13.872 22.704 12.864 22.112C11.856 21.504 11.056 20.696 10.464 19.688C9.872 18.68 9.576 17.6 9.576 16.448C9.576 15.344 9.792 14.344 10.224 13.448C10.656 12.552 11.232 11.856 11.952 11.36C12.688 10.848 13.48 10.592 14.328 10.592C15.96 10.592 17.504 10.992 18.96 11.792C20.416 12.576 21.584 13.584 22.464 14.816C23.344 16.032 23.784 17.248 23.784 18.464C23.784 19.152 23.512 19.792 22.968 20.384C22.44 20.976 21.736 21.512 20.856 21.992C21.496 22.536 22.184 23.056 22.92 23.552C23.464 23.904 23.872 24.2 24.144 24.44C24.416 24.68 24.6 24.944 24.696 25.232ZM16.032 21.44C16.4 21.44 16.744 21.424 17.064 21.392C17.384 21.36 17.768 21.304 18.216 21.224C17.528 20.472 17.008 19.848 16.656 19.352C16.32 18.84 16.152 18.416 16.152 18.08C16.152 17.808 16.272 17.592 16.512 17.432C16.784 17.432 17.072 17.608 17.376 17.96C17.696 18.312 18.096 18.84 18.576 19.544C18.992 20.2 19.312 20.64 19.536 20.864C20.464 20.624 21.208 20.288 21.768 19.856C22.344 19.424 22.632 18.912 22.632 18.32C22.632 17.344 22.296 16.36 21.624 15.368C20.952 14.376 20 13.552 18.768 12.896C17.552 12.224 16.168 11.888 14.616 11.888C13.464 11.888 12.56 12.32 11.904 13.184C11.248 14.032 10.92 15.12 10.92 16.448C10.856 17.392 11.048 18.248 11.496 19.016C11.96 19.768 12.592 20.36 13.392 20.792C14.208 21.224 15.088 21.44 16.032 21.44Z" fill="black"/>
<path d="M155.914 166.173C156.14 167.099 156.473 167.968 156.913 168.78C157.344 169.6 158.19 170.872 159.45 172.597C160.374 173.862 160.943 174.665 161.156 175.005C161.506 175.557 161.759 176.062 161.916 176.518C162.064 176.981 162.134 177.447 162.127 177.916C162.112 178.783 161.811 179.504 161.223 180.081C160.635 180.657 159.927 180.942 159.099 180.936C158.216 180.913 157.464 180.591 156.841 179.972C156.372 179.51 155.997 178.828 155.715 177.925C155.451 178.796 155.08 179.457 154.604 179.91C153.945 180.532 153.193 180.836 152.35 180.822C151.498 180.807 150.784 180.506 150.208 179.918C149.624 179.33 149.339 178.638 149.353 177.841C149.365 177.13 149.549 176.399 149.905 175.647C150.254 174.895 150.935 173.902 151.948 172.669C153.256 171.074 154.212 169.762 154.816 168.733C155.29 167.92 155.656 167.067 155.914 166.173Z" fill="black"/>
<path d="M148.502 183.377C148.758 183.137 149.038 183.017 149.342 183.016C149.79 183.016 150.31 183.239 150.902 183.687C151.495 184.134 152.408 184.925 153.641 186.06C153.817 186.028 154.065 185.987 154.385 185.939C154.689 185.891 155.001 185.842 155.321 185.794L156.425 185.625C156.553 185.609 156.745 185.601 157.001 185.6C158.217 185.599 159.329 185.894 160.338 186.485C161.347 187.092 162.148 187.899 162.741 188.906C163.334 189.914 163.632 190.993 163.633 192.145C163.635 193.249 163.42 194.25 162.989 195.146C162.558 196.043 161.983 196.739 161.264 197.236C160.528 197.749 159.737 198.005 158.889 198.006C157.257 198.008 155.712 197.61 154.255 196.811C152.798 196.029 151.629 195.022 150.747 193.791C149.866 192.576 149.424 191.36 149.423 190.144C149.422 189.456 149.693 188.816 150.236 188.223C150.763 187.631 151.467 187.094 152.346 186.613C151.705 186.07 151.017 185.551 150.28 185.055C149.736 184.704 149.327 184.408 149.055 184.169C148.783 183.929 148.598 183.665 148.502 183.377ZM157.171 187.16C156.803 187.161 156.459 187.177 156.139 187.209C155.819 187.242 155.435 187.298 154.987 187.378C155.676 188.13 156.197 188.753 156.55 189.249C156.886 189.76 157.055 190.184 157.055 190.52C157.056 190.792 156.936 191.008 156.696 191.169C156.424 191.169 156.136 190.993 155.831 190.642C155.511 190.29 155.11 189.762 154.629 189.059C154.212 188.403 153.892 187.964 153.668 187.74C152.74 187.981 151.996 188.318 151.437 188.75C150.861 189.183 150.574 189.695 150.575 190.287C150.576 191.263 150.913 192.247 151.587 193.238C152.26 194.229 153.213 195.052 154.446 195.707C155.663 196.378 157.047 196.712 158.599 196.711C159.751 196.709 160.655 196.277 161.309 195.412C161.964 194.563 162.291 193.475 162.289 192.147C162.352 191.203 162.159 190.347 161.71 189.579C161.245 188.828 160.612 188.237 159.812 187.805C158.995 187.374 158.115 187.159 157.171 187.16Z" fill="black"/>
<path d="M131.5 112C131.5 138.191 109.605 159.5 82.5 159.5C55.3951 159.5 33.5 138.191 33.5 112C33.5 85.8088 55.3951 64.5 82.5 64.5C109.605 64.5 131.5 85.8088 131.5 112Z" fill="white" stroke="black" stroke-width="3"/>
<path d="M67.696 89.232C67.44 89.472 67.16 89.592 66.856 89.592C66.408 89.592 65.888 89.368 65.296 88.92C64.704 88.472 63.792 87.68 62.56 86.544C62.384 86.576 62.136 86.616 61.816 86.664C61.512 86.712 61.2 86.76 60.88 86.808L59.776 86.976C59.648 86.992 59.456 87 59.2 87C57.984 87 56.872 86.704 55.864 86.112C54.856 85.504 54.056 84.696 53.464 83.688C52.872 82.68 52.576 81.6 52.576 80.448C52.576 79.344 52.792 78.344 53.224 77.448C53.656 76.552 54.232 75.856 54.952 75.36C55.688 74.848 56.48 74.592 57.328 74.592C58.96 74.592 60.504 74.992 61.96 75.792C63.416 76.576 64.584 77.584 65.464 78.816C66.344 80.032 66.784 81.248 66.784 82.464C66.784 83.152 66.512 83.792 65.968 84.384C65.44 84.976 64.736 85.512 63.856 85.992C64.496 86.536 65.184 87.056 65.92 87.552C66.464 87.904 66.872 88.2 67.144 88.44C67.416 88.68 67.6 88.944 67.696 89.232ZM59.032 85.44C59.4 85.44 59.744 85.424 60.064 85.392C60.384 85.36 60.768 85.304 61.216 85.224C60.528 84.472 60.008 83.848 59.656 83.352C59.32 82.84 59.152 82.416 59.152 82.08C59.152 81.808 59.272 81.592 59.512 81.432C59.784 81.432 60.072 81.608 60.376 81.96C60.696 82.312 61.096 82.84 61.576 83.544C61.992 84.2 62.312 84.64 62.536 84.864C63.464 84.624 64.208 84.288 64.768 83.856C65.344 83.424 65.632 82.912 65.632 82.32C65.632 81.344 65.296 80.36 64.624 79.368C63.952 78.376 63 77.552 61.768 76.896C60.552 76.224 59.168 75.888 57.616 75.888C56.464 75.888 55.56 76.32 54.904 77.184C54.248 78.032 53.92 79.12 53.92 80.448C53.856 81.392 54.048 82.248 54.496 83.016C54.96 83.768 55.592 84.36 56.392 84.792C57.208 85.224 58.088 85.44 59.032 85.44ZM79.4219 86.88C79.1339 86.88 78.9019 86.76 78.7259 86.52C78.5659 86.264 78.4219 85.88 78.2939 85.368C78.1659 84.84 77.9659 83.928 77.6939 82.632C77.4219 83.704 76.9099 84.56 76.1579 85.2C75.4059 85.824 74.4859 86.136 73.3979 86.136C72.4059 86.136 71.5659 85.792 70.8779 85.104C70.2059 84.4 69.7019 83.48 69.3659 82.344C69.0299 81.192 68.8619 79.952 68.8619 78.624C68.8619 78.016 68.9179 77.496 69.0299 77.064C69.1579 76.616 69.3099 76.28 69.4859 76.056C69.6779 75.832 69.8619 75.728 70.0379 75.744C70.2299 75.744 70.3259 75.872 70.3259 76.128C70.3259 76.336 70.2699 76.664 70.1579 77.112C70.0459 77.608 69.9899 78.176 69.9899 78.816C69.9899 79.776 70.1259 80.712 70.3979 81.624C70.6859 82.536 71.1019 83.288 71.6459 83.88C72.2059 84.456 72.8619 84.744 73.6139 84.744C74.2379 84.744 74.8059 84.56 75.3179 84.192C75.8299 83.824 76.2299 83.36 76.5179 82.8C76.8219 82.24 76.9739 81.688 76.9739 81.144V77.328C77.1499 76.992 77.3899 76.824 77.6939 76.824C77.9659 76.824 78.1499 77.056 78.2459 77.52C78.3419 77.984 78.3899 78.64 78.3899 79.488C78.3899 80.208 78.3819 80.76 78.3659 81.144C78.4619 81.672 78.6059 82.208 78.7979 82.752C79.0059 83.296 79.2619 83.912 79.5659 84.6C79.9339 85.448 80.1179 85.968 80.1179 86.16C80.1179 86.64 79.8859 86.88 79.4219 86.88ZM87.7099 87C86.6859 87 85.7419 86.8 84.8779 86.4C84.0139 86 83.3259 85.432 82.8139 84.696C82.3019 83.96 82.0459 83.112 82.0459 82.152C82.0459 81.08 82.2459 80.08 82.6459 79.152C83.0459 78.208 83.6299 77.456 84.3979 76.896C85.1819 76.32 86.0939 76.032 87.1339 76.032C88.2219 76.032 89.0459 76.384 89.6059 77.088C90.1659 77.776 90.4299 78.648 90.3979 79.704C90.3979 80.648 90.0219 81.368 89.2699 81.864C88.5339 82.36 87.5899 82.608 86.4379 82.608C86.2619 82.608 85.9979 82.592 85.6459 82.56C85.0699 82.496 84.6619 82.408 84.4219 82.296C84.1819 82.184 84.0619 81.96 84.0619 81.624C84.0619 81.512 84.0939 81.432 84.1579 81.384C84.2219 81.32 84.3499 81.288 84.5419 81.288C84.7499 81.288 85.1179 81.336 85.6459 81.432C86.1579 81.528 86.6139 81.576 87.0139 81.576C88.4859 81.576 89.2219 80.936 89.2219 79.656C89.2219 78.888 89.0779 78.28 88.7899 77.832C88.5179 77.384 88.0299 77.16 87.3259 77.16C86.5579 77.16 85.8699 77.368 85.2619 77.784C84.6539 78.184 84.1819 78.712 83.8459 79.368C83.5259 80.024 83.3659 80.72 83.3659 81.456C83.3659 82.72 83.7179 83.76 84.4219 84.576C85.1259 85.376 86.2139 85.776 87.6859 85.776C87.8619 85.776 88.1579 85.76 88.5739 85.728C88.7499 85.712 88.9659 85.664 89.2219 85.584C89.4779 85.504 89.6619 85.448 89.7739 85.416C90.4619 85.176 90.9659 85.056 91.2859 85.056C91.5259 85.056 91.7099 85.12 91.8379 85.248C91.4379 85.856 90.8379 86.304 90.0379 86.592C89.2539 86.864 88.4779 87 87.7099 87ZM98.4678 87C97.4438 87 96.4998 86.8 95.6358 86.4C94.7718 86 94.0838 85.432 93.5718 84.696C93.0598 83.96 92.8038 83.112 92.8038 82.152C92.8038 81.08 93.0038 80.08 93.4038 79.152C93.8038 78.208 94.3878 77.456 95.1558 76.896C95.9398 76.32 96.8518 76.032 97.8918 76.032C98.9798 76.032 99.8038 76.384 100.364 77.088C100.924 77.776 101.188 78.648 101.156 79.704C101.156 80.648 100.78 81.368 100.028 81.864C99.2918 82.36 98.3478 82.608 97.1958 82.608C97.0198 82.608 96.7558 82.592 96.4038 82.56C95.8278 82.496 95.4198 82.408 95.1798 82.296C94.9398 82.184 94.8198 81.96 94.8198 81.624C94.8198 81.512 94.8518 81.432 94.9158 81.384C94.9798 81.32 95.1078 81.288 95.2998 81.288C95.5078 81.288 95.8758 81.336 96.4038 81.432C96.9158 81.528 97.3718 81.576 97.7718 81.576C99.2438 81.576 99.9798 80.936 99.9798 79.656C99.9798 78.888 99.8358 78.28 99.5478 77.832C99.2758 77.384 98.7878 77.16 98.0838 77.16C97.3158 77.16 96.6278 77.368 96.0198 77.784C95.4118 78.184 94.9398 78.712 94.6038 79.368C94.2838 80.024 94.1238 80.72 94.1238 81.456C94.1238 82.72 94.4758 83.76 95.1798 84.576C95.8838 85.376 96.9718 85.776 98.4438 85.776C98.6198 85.776 98.9158 85.76 99.3318 85.728C99.5078 85.712 99.7238 85.664 99.9798 85.584C100.236 85.504 100.42 85.448 100.532 85.416C101.22 85.176 101.724 85.056 102.044 85.056C102.284 85.056 102.468 85.12 102.596 85.248C102.196 85.856 101.596 86.304 100.796 86.592C100.012 86.864 99.2358 87 98.4678 87ZM105.842 87.096C105.618 87.16 105.49 87.192 105.458 87.192C105.33 87.192 105.194 87.128 105.05 87C104.522 86.216 104.138 84.848 103.898 82.896C103.674 80.944 103.562 79.264 103.562 77.856C103.562 77.632 103.722 77.52 104.042 77.52C104.522 77.52 104.762 77.784 104.762 78.312C104.762 78.456 104.754 78.576 104.738 78.672C104.882 78.336 105.154 77.992 105.554 77.64C105.954 77.288 106.418 76.992 106.946 76.752C107.474 76.512 108.01 76.392 108.554 76.392C110.266 76.392 111.514 77.152 112.298 78.672C113.082 80.176 113.474 82.048 113.474 84.288C113.474 85.056 113.394 85.672 113.234 86.136C113.074 86.584 112.858 86.808 112.586 86.808C112.298 86.808 112.154 86.72 112.154 86.544C112.266 85.696 112.322 84.864 112.322 84.048C112.322 81.984 111.962 80.424 111.242 79.368C110.522 78.296 109.57 77.76 108.386 77.76C107.81 77.76 107.25 77.904 106.706 78.192C106.178 78.48 105.746 78.88 105.41 79.392C105.09 79.904 104.93 80.488 104.93 81.144C104.93 81.88 104.97 82.52 105.05 83.064C105.13 83.608 105.258 84.264 105.434 85.032C105.626 85.784 105.762 86.472 105.842 87.096Z" fill="black"/>
<path d="M62.7603 135.907H75.8747" stroke="black" stroke-width="3" stroke-linecap="round"/>
<line x1="58.323" y1="101.382" x2="45.323" y2="112.382" stroke="black"/>
<line x1="87.3089" y1="100.607" x2="101.309" y2="111.607" stroke="black"/>
<line x1="97.6" y1="108.7" x2="100.6" y2="104.7" stroke="black"/>
<line x1="94.584" y1="105.723" x2="96.584" y2="102.723" stroke="black"/>
<line x1="46.6464" y1="111.354" x2="44.6464" y2="109.354" stroke="black"/>
<line x1="47.6464" y1="110.354" x2="45.6464" y2="108.354" stroke="black"/>
<line x1="49.6464" y1="108.354" x2="47.6464" y2="106.354" stroke="black"/>
<path d="M31.749 103.26C31.749 105.253 31.1151 107.272 31.1151 109.282C31.1151 110.838 30.3051 111.972 30.2699 113.449C30.2567 114.002 30.1992 114.865 30.0469 115.398C29.8541 116.073 30.0281 116.858 29.8238 117.523C29.2348 119.437 29.4855 121.603 28.9551 123.592C28.7059 124.526 28.2533 125.423 28.1686 126.397C28.0735 127.491 28.0049 128.908 27.5112 129.895C27.0369 130.844 27.3024 131.818 26.8891 132.748C26.4947 133.635 26.2074 134.477 25.9969 135.424C25.5433 137.466 24.7148 139.545 24.0248 141.517C23.3904 143.33 22.9578 145.167 22.6161 147.046C22.4667 147.867 22.1707 148.732 21.9235 149.523C21.6592 150.369 21.5812 151.288 21.1839 152.082C20.7589 152.932 20.6644 154.022 20.3857 154.935C20.1088 155.841 19.5715 156.664 19.3292 157.611C19.1063 158.482 18.5111 159.317 18.2022 160.205C17.8355 161.26 17.1406 162.355 16.6527 163.375C16.0598 164.615 15.2987 165.742 14.6805 166.979C14.2086 167.923 13.6761 169.145 13.0605 169.984C12.218 171.133 11.6897 172.477 10.8301 173.623C9.93065 174.822 9.47754 176.381 8.51754 177.521C7.96509 178.177 7.89436 179.021 7.28495 179.704C6.83575 180.207 6.24344 181.292 5.97018 181.911C5.50557 182.962 4.65152 184.027 3.95108 184.928C3.62928 185.342 2.73489 186.757 2.37805 186.935" stroke="black" stroke-width="3" stroke-linecap="round"/>
<path d="M130.638 96.9206C130.638 99.1769 130.471 101.505 130.897 103.729C131.094 104.758 131.181 105.81 131.319 106.852C131.478 108.051 131.955 109.135 132.164 110.327C132.973 114.934 134.518 119.425 135.334 124.014C135.751 126.36 136.337 128.609 136.602 130.987C136.773 132.525 137.353 133.979 137.4 135.518C137.433 136.6 137.614 138.048 137.916 139.087C138.567 141.325 138.338 143.813 138.973 146.037C139.299 147.176 139.492 148.232 139.513 149.417C139.544 151.195 140.266 152.831 140.37 154.594C140.527 157.261 141.346 159.811 141.732 162.436C141.923 163.736 142.374 164.906 142.577 166.204C142.719 167.116 142.796 168.081 142.999 168.975C143.286 170.235 143.95 171.425 143.95 172.766C143.95 173.393 144.098 174.259 144.385 174.809C144.716 175.444 144.628 176.098 144.901 176.699C145.246 177.458 145.511 178.646 145.652 179.422C145.821 180.351 146.376 181.162 146.674 181.981C146.894 182.588 147.331 183.791 147.331 184.4C147.331 184.735 147.998 186.846 148.176 186.935" stroke="black" stroke-width="3" stroke-linecap="round"/>
</svg>
