<svg width="176" height="216" viewBox="0 0 176 216" fill="none" xmlns="http://www.w3.org/2000/svg">
<path d="M170.388 0C170.388 0 119.62 1.23305 87.8022 1.23305C55.9848 1.23305 5.21597 0 5.21597 0C2.26025 0 0 2.00372 0 4.62398V209.466C0 212.087 2.43412 214.244 5.21597 214.244C5.21597 214.244 55.9848 215.786 87.8022 215.786C119.62 215.786 170.388 214.244 170.388 214.244C173.344 214.09 175.604 211.932 175.604 209.466V4.62398C175.604 2.00372 173.344 0 170.388 0Z" fill="black"/>
<path d="M31.1745 60.4C30.6679 58.3733 30.2812 56.3333 30.0145 54.28C29.7479 52.2 29.5079 48.7867 29.2945 44.04C29.2945 43.72 29.4012 43.44 29.6145 43.2C29.8545 42.96 30.1212 42.84 30.4145 42.84H30.7745C30.9079 43.72 31.0012 45.1333 31.0545 47.08C31.0545 47.2933 31.0812 48.0133 31.1345 49.24C31.1879 50.44 31.3212 51.5733 31.5345 52.64C34.6279 52.3467 37.0945 51.7467 38.9345 50.84C40.8012 49.9333 41.7345 48.64 41.7345 46.96C41.7345 44.8533 40.8012 43.1333 38.9345 41.8C37.0679 40.4667 34.2545 39.8 30.4945 39.8C28.9212 39.8 27.5879 40.0933 26.4945 40.68C26.3079 40.76 26.1745 40.9333 26.0945 41.2C26.0145 41.44 25.9479 41.7867 25.8945 42.24C25.8412 42.72 25.7745 43.08 25.6945 43.32C25.6145 43.56 25.4679 43.68 25.2545 43.68C25.0145 43.68 24.8545 43.5067 24.7745 43.16C24.7212 42.7867 24.6945 41.9467 24.6945 40.64C24.6945 39.8933 25.2012 39.3067 26.2145 38.88C27.2279 38.4533 28.5345 38.24 30.1345 38.24C34.8012 38.24 38.2679 38.9733 40.5345 40.44C42.8012 41.9067 43.9345 44.16 43.9345 47.2C43.9345 48.8267 43.2812 50.1867 41.9745 51.28C40.6679 52.3733 39.0812 53.1867 37.2145 53.72C35.3479 54.2267 33.5612 54.48 31.8545 54.48C31.9079 54.8 31.9612 55.0933 32.0145 55.36C32.0679 55.6267 32.1079 55.8533 32.1345 56.04C32.5079 57.8533 32.6945 59.2533 32.6945 60.24C32.6945 60.8267 32.6145 61.2933 32.4545 61.64C32.3212 61.9867 32.0145 62.1067 31.5345 62L31.1745 60.4ZM48.4367 61.72C47.8501 58.8133 47.3967 55.3733 47.0767 51.4C46.7834 47.4 46.6367 43.5333 46.6367 39.8C46.6367 37.9333 46.6767 36.28 46.7567 34.84C46.7567 34.4933 47.0234 34.32 47.5567 34.32C47.9834 34.32 48.2501 34.4267 48.3567 34.64C48.4901 34.8533 48.5567 35.1867 48.5567 35.64C48.5567 39.96 48.6367 43.6533 48.7967 46.72C48.9567 49.76 49.1701 53.04 49.4367 56.56C49.5967 58.8267 49.7034 60.36 49.7567 61.16C49.7834 61.5867 49.5567 61.8 49.0767 61.8C48.9167 61.8 48.7034 61.7733 48.4367 61.72ZM63.2355 62C60.4621 62 58.0488 61.52 55.9955 60.56C53.9688 59.5733 52.9555 57.8533 52.9555 55.4C52.9555 54.52 53.2221 53.6667 53.7555 52.84C54.2888 52.0133 55.0755 51.3467 56.1155 50.84C57.1555 50.3067 58.4221 50.04 59.9155 50.04C61.0621 50.04 62.0355 50.0933 62.8355 50.2C63.6355 50.3067 64.5555 50.6 65.5955 51.08C66.6355 51.56 67.7155 52.32 68.8355 53.36C68.4088 51.52 67.7688 49.9067 66.9155 48.52C66.0621 47.1333 65.1021 46.0667 64.0355 45.32C62.9955 44.5467 61.9688 44.16 60.9555 44.16C60.4755 44.16 60.0221 44.2533 59.5955 44.44C59.1955 44.6 58.7021 44.84 58.1155 45.16C57.4488 45.5867 56.9555 45.8 56.6355 45.8C56.5021 45.8 56.3821 45.76 56.2755 45.68C56.1955 45.5733 56.1555 45.4533 56.1555 45.32C56.1555 44.2533 56.6221 43.4267 57.5555 42.84C58.5155 42.2533 59.6755 41.9867 61.0355 42.04C62.9021 42.1467 64.6088 42.9467 66.1555 44.44C67.7021 45.9067 68.9155 47.7333 69.7955 49.92C70.7021 52.1067 71.1555 54.2533 71.1555 56.36C71.1555 56.7067 71.1288 57.2 71.0755 57.84L69.7955 57.76C68.7821 55.7067 67.4755 54.2533 65.8755 53.4C64.3021 52.52 62.7155 52.08 61.1155 52.08C59.0621 52.08 57.5955 52.3867 56.7155 53C55.8355 53.6133 55.3955 54.5067 55.3955 55.68C55.3955 56.9067 56.0088 57.8933 57.2355 58.64C58.4621 59.3867 60.0355 59.76 61.9555 59.76C63.0221 59.76 63.8755 59.7067 64.5155 59.6C65.1555 59.4667 65.8221 59.2933 66.5155 59.08C67.0755 58.8933 67.5688 58.76 67.9955 58.68C68.4221 58.6 68.9688 58.56 69.6355 58.56C70.3821 58.56 70.8488 58.6133 71.0355 58.72C71.2488 58.8267 71.3555 59.0667 71.3555 59.44C71.3555 59.7067 70.8088 60.04 69.7155 60.44C68.6221 60.84 67.3955 61.2 66.0355 61.52C64.6755 61.84 63.7421 62 63.2355 62ZM85.517 80.92C83.7037 80.92 82.077 80.5333 80.637 79.76C79.2237 78.9867 78.0904 78.0933 77.237 77.08C76.3837 76.0667 75.9037 75.24 75.797 74.6C75.6904 74.0133 75.8237 73.56 76.197 73.24C76.597 72.92 77.0904 72.7867 77.677 72.84C78.5037 74.8133 79.4904 76.3333 80.637 77.4C81.7837 78.4667 83.4237 79.0267 85.557 79.08C87.0504 79.1067 88.237 78.1467 89.117 76.2C90.0237 74.28 90.6637 71.92 91.037 69.12C91.4104 66.3467 91.597 63.6133 91.597 60.92C91.597 59.5333 91.557 58.4 91.477 57.52C89.4504 60 86.8637 61.24 83.717 61.24C80.997 61.24 78.9037 59.9467 77.437 57.36C75.997 54.7733 75.0637 51.8533 74.637 48.6C74.5837 48.28 74.557 47.8267 74.557 47.24C74.557 45.56 75.1037 44.72 76.197 44.72C76.3037 44.72 76.4504 45.3867 76.637 46.72C76.9304 48.8267 77.2904 50.72 77.717 52.4C78.1437 54.08 78.8504 55.6133 79.837 57C80.8504 58.36 82.1837 59.04 83.837 59.04C85.1437 59.04 86.477 58.6133 87.837 57.76C89.2237 56.88 90.2237 55.9067 90.837 54.84C90.837 52.8133 90.5704 51 90.037 49.4C89.5304 47.7733 89.2637 46.9067 89.237 46.8C89.1837 46.2133 89.157 45.84 89.157 45.68C89.157 45.1467 89.237 44.76 89.397 44.52C89.5837 44.28 89.8504 44.16 90.197 44.16C90.5704 44.16 90.997 44.92 91.477 46.44C91.957 47.96 92.3837 49.9467 92.757 52.4C93.1304 54.8533 93.3837 57.4133 93.517 60.08C93.5704 61.4667 93.597 62.4933 93.597 63.16C93.597 68.28 92.957 72.52 91.677 75.88C90.4237 79.24 88.3704 80.92 85.517 80.92ZM99.4636 62.04C98.8503 62.04 98.3569 61.1467 97.9836 59.36C97.6103 57.5467 97.3703 55.9867 97.2636 54.68C97.1569 53.3733 97.0103 51.3067 96.8236 48.48C96.7969 48.0267 96.7836 47.44 96.7836 46.72C96.7836 45.8133 96.8503 45.1867 96.9836 44.84C97.1436 44.4933 97.3969 44.32 97.7436 44.32C98.0369 44.32 98.2636 44.3867 98.4236 44.52C98.6103 44.6267 98.7703 44.8133 98.9036 45.08L98.8636 46.68C98.8636 48.3867 98.9436 50 99.1036 51.52C99.2903 53.04 99.5703 55.08 99.9436 57.64C100.157 58.76 100.304 59.68 100.384 60.4C100.437 60.7733 100.37 61.1467 100.184 61.52C99.9969 61.8667 99.7569 62.04 99.4636 62.04ZM98.4636 40.04C97.8769 40.04 97.4369 39.8133 97.1436 39.36C96.8769 38.9067 96.7436 38.3467 96.7436 37.68C96.7436 37.3867 96.7569 37.1733 96.7836 37.04C96.7569 36.6133 96.9969 36.4 97.5036 36.4C97.8769 36.4 98.2503 36.4933 98.6236 36.68C99.0236 36.84 99.1436 36.96 98.9836 37.04C99.2503 37.7333 99.3836 38.28 99.3836 38.68C99.3836 39.0267 99.3036 39.3067 99.1436 39.52C98.9836 39.7067 98.7569 39.88 98.4636 40.04ZM107.771 62.16C107.398 62.2667 107.184 62.32 107.131 62.32C106.918 62.32 106.691 62.2133 106.451 62C105.571 60.6933 104.931 58.4133 104.531 55.16C104.158 51.9067 103.971 49.1067 103.971 46.76C103.971 46.3867 104.238 46.2 104.771 46.2C105.571 46.2 105.971 46.64 105.971 47.52C105.971 47.76 105.958 47.96 105.931 48.12C106.171 47.56 106.624 46.9867 107.291 46.4C107.958 45.8133 108.731 45.32 109.611 44.92C110.491 44.52 111.384 44.32 112.291 44.32C115.144 44.32 117.224 45.5867 118.531 48.12C119.838 50.6267 120.491 53.7467 120.491 57.48C120.491 58.76 120.358 59.7867 120.091 60.56C119.824 61.3067 119.464 61.68 119.011 61.68C118.531 61.68 118.291 61.5333 118.291 61.24C118.478 59.8267 118.571 58.44 118.571 57.08C118.571 53.64 117.971 51.04 116.771 49.28C115.571 47.4933 113.984 46.6 112.011 46.6C111.051 46.6 110.118 46.84 109.211 47.32C108.331 47.8 107.611 48.4667 107.051 49.32C106.518 50.1733 106.251 51.1467 106.251 52.24C106.251 53.4667 106.318 54.5333 106.451 55.44C106.584 56.3467 106.798 57.44 107.091 58.72C107.411 59.9733 107.638 61.12 107.771 62.16ZM130.418 81.52C128.178 81.52 126.298 80.88 124.778 79.6C123.284 78.3467 122.391 76.2267 122.098 73.24C122.071 72.7867 122.138 72.44 122.298 72.2C122.484 71.96 122.724 71.84 123.018 71.84C123.338 71.84 123.618 71.96 123.858 72.2C124.098 72.4667 124.204 72.8133 124.178 73.24C124.178 75 124.778 76.3867 125.978 77.4C127.204 78.44 128.764 78.96 130.658 78.96C131.751 78.96 132.711 78.56 133.538 77.76C134.391 76.96 135.044 75.84 135.498 74.4C135.951 72.9867 136.178 71.36 136.178 69.52C136.178 66.2933 136.218 63.16 136.298 60.12L136.338 58.08C135.298 59.1733 134.351 59.9733 133.498 60.48C132.671 60.9867 131.671 61.24 130.498 61.24C128.444 61.24 126.924 60.6933 125.938 59.6C124.978 58.48 124.498 56.7733 124.498 54.48C124.498 53.1733 124.844 51.8133 125.538 50.4C126.258 48.96 127.231 47.76 128.458 46.8C129.711 45.84 131.124 45.36 132.698 45.36C133.231 45.36 133.724 45.4133 134.178 45.52C135.884 45.8933 137.031 47.48 137.618 50.28C138.204 53.08 138.498 56.7067 138.498 61.16C138.498 62.3867 138.471 64.0133 138.418 66.04L138.378 69.84C138.378 71.36 138.138 73.0133 137.658 74.8C137.178 76.6133 136.338 78.1867 135.138 79.52C133.938 80.8533 132.364 81.52 130.418 81.52ZM129.898 58.6C131.871 58.6 133.364 58.1333 134.378 57.2C135.391 56.24 135.898 54.84 135.898 53C135.898 52.76 135.871 52.3467 135.818 51.76C135.684 50.5333 135.364 49.5733 134.858 48.88C134.378 48.16 133.618 47.8 132.578 47.8C131.484 47.8 130.484 48.1867 129.578 48.96C128.671 49.7333 127.964 50.6933 127.458 51.84C126.951 52.96 126.698 54.0133 126.698 55C126.698 55.9867 126.991 56.84 127.578 57.56C128.164 58.2533 128.938 58.6 129.898 58.6ZM58.5208 120.44C56.6808 120.44 55.1074 119.933 53.8008 118.92C52.4941 117.907 51.4941 116.52 50.8008 114.76C50.1341 113 49.8008 111 49.8008 108.76C49.8008 106.253 50.3874 103.88 51.5608 101.64C52.7341 99.3733 54.2674 97.56 56.1608 96.2C58.0808 94.8133 60.0674 94.12 62.1208 94.12C63.8541 94.12 65.1874 94.5067 66.1208 95.28C67.0541 96.0533 67.5208 96.96 67.5208 98C67.5208 98.6133 67.3341 99.1733 66.9608 99.68C66.6141 100.187 66.1074 100.573 65.4408 100.84C65.3608 100.68 65.3208 100.427 65.3208 100.08C65.3208 99.76 65.3608 99.44 65.4408 99.12C65.4941 98.6933 65.5208 98.3867 65.5208 98.2C65.5208 97.9333 65.4808 97.7067 65.4008 97.52C65.0274 96.5867 64.0141 96.12 62.3608 96.12C61.9074 96.12 61.3741 96.16 60.7608 96.24C59.3474 96.4267 57.9474 97.1333 56.5608 98.36C55.1741 99.56 54.0408 101.067 53.1608 102.88C52.2808 104.693 51.8408 106.547 51.8408 108.44C51.8408 110.093 52.1074 111.667 52.6408 113.16C53.2008 114.627 54.0008 115.813 55.0408 116.72C56.0808 117.627 57.3208 118.08 58.7608 118.08C60.6274 118.08 62.1741 117.853 63.4008 117.4C64.6541 116.947 65.8808 116.253 67.0808 115.32C67.2141 115.213 67.3608 115.16 67.5208 115.16C67.8141 115.16 68.0141 115.333 68.1208 115.68C68.2541 116.32 67.8274 117.013 66.8408 117.76C65.8541 118.507 64.5741 119.147 63.0008 119.68C61.4274 120.187 59.9341 120.44 58.5208 120.44ZM81.6339 120C78.8606 120 76.4472 119.52 74.3939 118.56C72.3672 117.573 71.3539 115.853 71.3539 113.4C71.3539 112.52 71.6206 111.667 72.1539 110.84C72.6872 110.013 73.4739 109.347 74.5139 108.84C75.5539 108.307 76.8206 108.04 78.3139 108.04C79.4606 108.04 80.4339 108.093 81.2339 108.2C82.0339 108.307 82.9539 108.6 83.9939 109.08C85.0339 109.56 86.1139 110.32 87.2339 111.36C86.8072 109.52 86.1672 107.907 85.3139 106.52C84.4606 105.133 83.5006 104.067 82.4339 103.32C81.3939 102.547 80.3672 102.16 79.3539 102.16C78.8739 102.16 78.4206 102.253 77.9939 102.44C77.5939 102.6 77.1006 102.84 76.5139 103.16C75.8472 103.587 75.3539 103.8 75.0339 103.8C74.9006 103.8 74.7806 103.76 74.6739 103.68C74.5939 103.573 74.5539 103.453 74.5539 103.32C74.5539 102.253 75.0206 101.427 75.9539 100.84C76.9139 100.253 78.0739 99.9867 79.4339 100.04C81.3006 100.147 83.0072 100.947 84.5539 102.44C86.1006 103.907 87.3139 105.733 88.1939 107.92C89.1006 110.107 89.5539 112.253 89.5539 114.36C89.5539 114.707 89.5272 115.2 89.4739 115.84L88.1939 115.76C87.1806 113.707 85.8739 112.253 84.2739 111.4C82.7006 110.52 81.1139 110.08 79.5139 110.08C77.4606 110.08 75.9939 110.387 75.1139 111C74.2339 111.613 73.7939 112.507 73.7939 113.68C73.7939 114.907 74.4072 115.893 75.6339 116.64C76.8606 117.387 78.4339 117.76 80.3539 117.76C81.4206 117.76 82.2739 117.707 82.9139 117.6C83.5539 117.467 84.2206 117.293 84.9139 117.08C85.4739 116.893 85.9672 116.76 86.3939 116.68C86.8206 116.6 87.3672 116.56 88.0339 116.56C88.7806 116.56 89.2472 116.613 89.4339 116.72C89.6472 116.827 89.7539 117.067 89.7539 117.44C89.7539 117.707 89.2072 118.04 88.1139 118.44C87.0206 118.84 85.7939 119.2 84.4339 119.52C83.0739 119.84 82.1406 120 81.6339 120ZM96.4755 120C95.3821 117.867 94.5155 115.36 93.8755 112.48C93.2621 109.6 92.9555 107.107 92.9555 105C92.9555 104.173 93.1421 103.64 93.5155 103.4C93.7288 103.267 93.8888 103.2 93.9955 103.2C94.1821 103.2 94.3155 103.347 94.3955 103.64C94.5021 103.933 94.6088 104.467 94.7155 105.24L94.9155 106.68C95.2088 105.24 95.7688 104.107 96.5955 103.28C97.4488 102.427 98.4888 102 99.7155 102C101.075 102 102.089 102.267 102.755 102.8C103.422 103.307 103.755 104.16 103.755 105.36C102.422 104.72 101.209 104.4 100.115 104.4C99.0755 104.4 98.1821 104.68 97.4355 105.24C96.6888 105.8 96.1688 106.627 95.8755 107.72C95.6355 108.467 95.5155 109.173 95.5155 109.84C95.5155 110.56 95.6088 111.24 95.7955 111.88C96.0088 112.493 96.3288 113.253 96.7555 114.16C97.1555 115.093 97.4621 115.893 97.6755 116.56C97.9155 117.227 98.0488 117.947 98.0755 118.72C98.0755 119.173 97.9155 119.507 97.5955 119.72C97.2755 119.907 96.9021 120 96.4755 120ZM112.178 119.96C110.925 119.96 109.832 119.533 108.898 118.68C107.992 117.827 107.298 116.72 106.818 115.36C106.365 114 106.138 112.587 106.138 111.12C106.138 108.56 106.672 106.4 107.738 104.64C108.832 102.88 110.485 102 112.698 102C114.032 102 115.192 102.24 116.178 102.72C117.192 103.173 118.512 103.947 120.138 105.04L121.178 105.76C121.045 104.88 120.845 103.867 120.578 102.72C120.312 101.573 120.138 100.787 120.058 100.36C119.605 98.28 119.272 96.7333 119.058 95.72C118.872 94.68 118.778 93.76 118.778 92.96C118.778 91.5467 119.178 90.84 119.978 90.84C120.272 91.48 120.618 92.8533 121.018 94.96C121.418 97.04 121.925 99.8933 122.538 103.52C123.178 107.36 123.738 110.493 124.218 112.92C124.698 115.347 125.098 116.867 125.418 117.48C125.418 118.093 124.965 118.4 124.058 118.4C123.365 118.4 122.885 118 122.618 117.2C122.378 116.4 122.232 115 122.178 113H121.858C120.738 115.027 119.285 116.693 117.498 118C115.712 119.307 113.938 119.96 112.178 119.96ZM112.698 118C113.792 118 114.965 117.547 116.218 116.64C117.498 115.707 118.578 114.587 119.458 113.28C120.338 111.947 120.778 110.747 120.778 109.68V108.48C118.032 105.6 115.498 104.16 113.178 104.16C111.552 104.16 110.298 104.76 109.418 105.96C108.538 107.133 108.098 108.68 108.098 110.6L108.138 111.44C108.298 113.467 108.752 115.067 109.498 116.24C110.245 117.413 111.312 118 112.698 118Z" fill="white"/>
</svg>
