<svg width="176" height="231" viewBox="0 0 176 231" fill="none" xmlns="http://www.w3.org/2000/svg">
<path d="M170.388 15C170.388 15 119.62 16.2331 87.8022 16.2331C55.9848 16.2331 5.21597 15 5.21597 15C2.26025 15 0 17.0037 0 19.624V224.466C0 227.087 2.43412 229.244 5.21597 229.244C5.21597 229.244 55.9848 230.786 87.8022 230.786C119.62 230.786 170.388 229.244 170.388 229.244C173.344 229.09 175.604 226.932 175.604 224.466V19.624C175.604 17.0037 173.344 15 170.388 15Z" fill="white"/>
<path d="M13.8196 44.1217C13.6596 44.1217 13.5236 44.0897 13.4116 44.0257C13.2996 43.9617 13.1316 43.8337 12.9076 43.6417L13.1236 42.3697C13.4116 40.5937 13.6356 39.1137 13.7956 37.9297C13.9556 36.7297 14.0676 35.4977 14.1316 34.2337C13.5876 34.7137 12.8516 35.4977 11.9236 36.5857C11.3796 37.2257 10.9556 37.6977 10.6516 38.0017C10.3636 38.2897 10.1396 38.4337 9.97956 38.4337C9.85156 38.4177 9.73156 38.3457 9.61956 38.2177C9.52356 38.0737 9.47556 37.9057 9.47556 37.7137C9.47556 37.4897 9.55556 37.2897 9.71556 37.1137L13.9396 32.6017C14.0836 32.4417 14.1956 32.2257 14.2756 31.9537C14.3556 31.6817 14.4356 31.3057 14.5156 30.8257C14.6116 30.2177 14.7236 29.7617 14.8516 29.4577C14.9796 29.1377 15.1876 28.9777 15.4756 28.9777C15.6036 28.9777 15.6996 28.9937 15.7636 29.0257C15.8276 29.0417 15.8836 29.0977 15.9316 29.1937L15.9556 29.9857C15.9556 30.2737 15.8116 31.6737 15.5236 34.1857C15.2516 36.6817 14.9556 38.9617 14.6356 41.0257C14.3156 43.0897 14.0436 44.1217 13.8196 44.1217ZM22.0602 43.1617C21.0842 43.1617 20.2042 42.9617 19.4202 42.5617C18.6522 42.1457 18.0442 41.5457 17.5962 40.7617C17.1642 39.9617 16.9482 39.0097 16.9482 37.9057C16.9482 36.9937 17.1882 36.1457 17.6682 35.3617C18.1482 34.5617 18.7642 33.9297 19.5162 33.4657C20.2682 33.0017 21.0282 32.7697 21.7962 32.7697C22.5002 32.7697 23.1882 33.0337 23.8602 33.5617C24.5482 34.0897 25.1082 34.7697 25.5402 35.6017C25.9722 36.4337 26.1882 37.2897 26.1882 38.1697C26.1882 39.6417 25.8282 40.8417 25.1082 41.7697C24.4042 42.6977 23.3882 43.1617 22.0602 43.1617ZM21.7002 41.7937C23.7962 41.7937 24.8442 40.6577 24.8442 38.3857C24.8442 37.6497 24.7162 36.9537 24.4602 36.2977C24.2042 35.6417 23.8282 35.1137 23.3322 34.7137C22.8522 34.3137 22.2922 34.1137 21.6522 34.1137C20.6762 34.1137 19.8602 34.4337 19.2042 35.0737C18.5642 35.7137 18.1802 36.6017 18.0522 37.7377C18.0362 37.8657 18.0282 38.0497 18.0282 38.2897C18.0282 39.3937 18.3722 40.2577 19.0602 40.8817C19.7642 41.4897 20.6442 41.7937 21.7002 41.7937Z" fill="black"/>
<path d="M17.0239 50.263C17.2271 51.1067 17.5396 51.8606 17.9614 52.5247C18.3833 53.1888 19.1333 54.013 20.2114 54.9974C21.2974 55.9739 21.9849 56.7278 22.2739 57.2591C22.563 57.7825 22.7075 58.3138 22.7075 58.8528C22.7075 59.595 22.4575 60.2161 21.9575 60.7161C21.4575 61.2161 20.856 61.4661 20.1528 61.4661C19.5122 61.4661 18.9106 61.2435 18.3481 60.7981C17.9263 60.47 17.5317 59.9505 17.1646 59.2395C17.1724 60.388 17.3208 61.302 17.6099 61.9817C17.9067 62.6536 18.3755 63.1849 19.0161 63.5755C19.6567 63.9583 20.5122 64.1849 21.5825 64.2552L21.6646 64.6888H12.3833L12.4653 64.2552C13.9028 64.2552 15.0161 63.8372 15.8052 63.0013C16.6021 62.1575 16.9849 60.9036 16.9536 59.2395C16.6021 59.9817 16.1646 60.5403 15.6411 60.9153C15.1255 61.2825 14.5435 61.4661 13.895 61.4661C13.1919 61.4661 12.5864 61.2122 12.0786 60.7044C11.5708 60.1966 11.3169 59.595 11.3169 58.8997C11.3169 58.3216 11.4419 57.802 11.6919 57.3411C12.0435 56.6927 12.6138 56.0442 13.4028 55.3958C14.1997 54.7474 14.7856 54.2122 15.1606 53.7903C15.7388 53.1419 16.1567 52.5638 16.4146 52.056C16.6802 51.5481 16.8833 50.9505 17.0239 50.263Z" fill="black"/>
<path d="M154.714 197.578C154.511 196.734 154.198 195.98 153.776 195.316C153.354 194.652 152.604 193.828 151.526 192.843C150.44 191.867 149.753 191.113 149.464 190.582C149.175 190.058 149.03 189.527 149.03 188.988C149.03 188.246 149.28 187.625 149.78 187.125C150.28 186.625 150.882 186.375 151.585 186.375C152.226 186.375 152.827 186.597 153.39 187.043C153.812 187.371 154.206 187.89 154.573 188.601C154.565 187.453 154.417 186.539 154.128 185.859C153.831 185.187 153.362 184.656 152.722 184.265C152.081 183.882 151.226 183.656 150.155 183.586L150.073 183.152H159.354L159.272 183.586C157.835 183.586 156.722 184.004 155.933 184.839C155.136 185.683 154.753 186.937 154.784 188.601C155.136 187.859 155.573 187.3 156.097 186.925C156.612 186.558 157.194 186.375 157.843 186.375C158.546 186.375 159.151 186.629 159.659 187.136C160.167 187.644 160.421 188.246 160.421 188.941C160.421 189.519 160.296 190.039 160.046 190.5C159.694 191.148 159.124 191.797 158.335 192.445C157.538 193.093 156.952 193.629 156.577 194.05C155.999 194.699 155.581 195.277 155.323 195.785C155.058 196.293 154.854 196.89 154.714 197.578Z" fill="black"/>
<path d="M159.232 199.614C159.392 199.614 159.528 199.646 159.64 199.71C159.752 199.773 159.92 199.901 160.144 200.093L159.93 201.365C159.644 203.142 159.422 204.622 159.264 205.806C159.105 207.006 158.995 208.238 158.932 209.502C159.476 209.022 160.211 208.237 161.137 207.148C161.681 206.507 162.104 206.035 162.408 205.731C162.695 205.442 162.919 205.298 163.079 205.298C163.207 205.314 163.327 205.386 163.439 205.514C163.535 205.658 163.584 205.825 163.584 206.017C163.584 206.241 163.504 206.442 163.345 206.618L159.126 211.134C158.983 211.294 158.871 211.51 158.791 211.782C158.712 212.055 158.632 212.431 158.553 212.911C158.458 213.519 158.346 213.975 158.219 214.279C158.091 214.599 157.883 214.759 157.595 214.76C157.467 214.76 157.371 214.744 157.307 214.712C157.243 214.696 157.187 214.64 157.139 214.544L157.114 213.752C157.113 213.464 157.256 212.064 157.54 209.552C157.809 207.055 158.102 204.775 158.42 202.711C158.737 200.647 159.008 199.614 159.232 199.614ZM150.992 200.583C151.968 200.582 152.849 200.781 153.633 201.18C154.402 201.595 155.01 202.194 155.459 202.978C155.892 203.777 156.11 204.729 156.111 205.833C156.112 206.745 155.873 207.594 155.394 208.378C154.915 209.179 154.3 209.811 153.549 210.276C152.797 210.741 152.038 210.973 151.27 210.974C150.566 210.975 149.877 210.712 149.205 210.184C148.516 209.657 147.955 208.978 147.522 208.146C147.089 207.315 146.872 206.459 146.871 205.579C146.869 204.107 147.227 202.906 147.946 201.978C148.649 201.049 149.664 200.584 150.992 200.583ZM151.354 201.95C149.258 201.952 148.212 203.089 148.214 205.361C148.215 206.097 148.344 206.793 148.601 207.449C148.858 208.105 149.235 208.632 149.731 209.032C150.212 209.431 150.772 209.631 151.412 209.63C152.388 209.629 153.204 209.308 153.859 208.668C154.498 208.027 154.881 207.139 155.007 206.002C155.023 205.874 155.031 205.69 155.031 205.45C155.029 204.346 154.684 203.483 153.995 202.859C153.29 202.252 152.41 201.949 151.354 201.95Z" fill="black"/>
<path d="M120.562 27.1047C121.104 29.3547 121.938 31.3651 123.062 33.1359C124.188 34.9068 126.188 37.1047 129.062 39.7297C131.958 42.3338 133.792 44.3443 134.562 45.7609C135.333 47.1568 135.719 48.5734 135.719 50.0109C135.719 51.9901 135.052 53.6463 133.719 54.9797C132.385 56.313 130.781 56.9797 128.906 56.9797C127.198 56.9797 125.594 56.3859 124.094 55.1984C122.969 54.3234 121.917 52.938 120.938 51.0422C120.958 54.1047 121.354 56.5422 122.125 58.3547C122.917 60.1463 124.167 61.563 125.875 62.6047C127.583 63.6255 129.865 64.2297 132.719 64.4172L132.938 65.5734H108.188L108.406 64.4172C112.24 64.4172 115.208 63.3026 117.312 61.0734C119.438 58.8234 120.458 55.4797 120.375 51.0422C119.438 53.0213 118.271 54.5109 116.875 55.5109C115.5 56.4901 113.948 56.9797 112.219 56.9797C110.344 56.9797 108.729 56.3026 107.375 54.9484C106.021 53.5943 105.344 51.9901 105.344 50.1359C105.344 48.5943 105.677 47.2088 106.344 45.9797C107.281 44.2505 108.802 42.5213 110.906 40.7922C113.031 39.063 114.594 37.6359 115.594 36.5109C117.135 34.7818 118.25 33.2401 118.938 31.8859C119.646 30.5318 120.188 28.938 120.562 27.1047Z" fill="black"/>
<path d="M121.562 67.1047C122.104 69.3547 122.938 71.3651 124.062 73.1359C125.188 74.9068 127.188 77.1047 130.062 79.7297C132.958 82.3338 134.792 84.3443 135.562 85.7609C136.333 87.1568 136.719 88.5734 136.719 90.0109C136.719 91.9901 136.052 93.6463 134.719 94.9797C133.385 96.313 131.781 96.9797 129.906 96.9797C128.198 96.9797 126.594 96.3859 125.094 95.1984C123.969 94.3234 122.917 92.938 121.938 91.0422C121.958 94.1047 122.354 96.5422 123.125 98.3547C123.917 100.146 125.167 101.563 126.875 102.605C128.583 103.626 130.865 104.23 133.719 104.417L133.938 105.573H109.188L109.406 104.417C113.24 104.417 116.208 103.303 118.312 101.073C120.438 98.8234 121.458 95.4797 121.375 91.0422C120.438 93.0213 119.271 94.5109 117.875 95.5109C116.5 96.4901 114.948 96.9797 113.219 96.9797C111.344 96.9797 109.729 96.3026 108.375 94.9484C107.021 93.5943 106.344 91.9901 106.344 90.1359C106.344 88.5943 106.677 87.2088 107.344 85.9797C108.281 84.2505 109.802 82.5213 111.906 80.7922C114.031 79.063 115.594 77.6359 116.594 76.5109C118.135 74.7818 119.25 73.2401 119.938 71.8859C120.646 70.5318 121.188 68.938 121.562 67.1047Z" fill="black"/>
<path d="M120.562 114.105C121.104 116.355 121.938 118.365 123.062 120.136C124.188 121.907 126.188 124.105 129.062 126.73C131.958 129.334 133.792 131.344 134.562 132.761C135.333 134.157 135.719 135.573 135.719 137.011C135.719 138.99 135.052 140.646 133.719 141.98C132.385 143.313 130.781 143.98 128.906 143.98C127.198 143.98 125.594 143.386 124.094 142.198C122.969 141.323 121.917 139.938 120.938 138.042C120.958 141.105 121.354 143.542 122.125 145.355C122.917 147.146 124.167 148.563 125.875 149.605C127.583 150.626 129.865 151.23 132.719 151.417L132.938 152.573H108.188L108.406 151.417C112.24 151.417 115.208 150.303 117.312 148.073C119.438 145.823 120.458 142.48 120.375 138.042C119.438 140.021 118.271 141.511 116.875 142.511C115.5 143.49 113.948 143.98 112.219 143.98C110.344 143.98 108.729 143.303 107.375 141.948C106.021 140.594 105.344 138.99 105.344 137.136C105.344 135.594 105.677 134.209 106.344 132.98C107.281 131.251 108.802 129.521 110.906 127.792C113.031 126.063 114.594 124.636 115.594 123.511C117.135 121.782 118.25 120.24 118.938 118.886C119.646 117.532 120.188 115.938 120.562 114.105Z" fill="black"/>
<path d="M120.5 201.042C119.958 198.792 119.125 196.782 118 195.011C116.875 193.24 114.875 191.042 112 188.417C109.104 185.813 107.271 183.803 106.5 182.386C105.729 180.99 105.344 179.573 105.344 178.136C105.344 176.157 106.01 174.501 107.344 173.167C108.677 171.834 110.281 171.167 112.156 171.167C113.865 171.167 115.469 171.761 116.969 172.948C118.094 173.823 119.146 175.209 120.125 177.105C120.104 174.042 119.708 171.605 118.938 169.792C118.146 168.001 116.896 166.584 115.188 165.542C113.479 164.521 111.198 163.917 108.344 163.73L108.125 162.573H132.875L132.656 163.73C128.823 163.73 125.854 164.844 123.75 167.073C121.625 169.323 120.604 172.667 120.688 177.105C121.625 175.126 122.792 173.636 124.188 172.636C125.562 171.657 127.115 171.167 128.844 171.167C130.719 171.167 132.333 171.844 133.688 173.198C135.042 174.553 135.719 176.157 135.719 178.011C135.719 179.553 135.385 180.938 134.719 182.167C133.781 183.896 132.26 185.626 130.156 187.355C128.031 189.084 126.469 190.511 125.469 191.636C123.927 193.365 122.812 194.907 122.125 196.261C121.417 197.615 120.875 199.209 120.5 201.042Z" fill="black"/>
<path d="M58.5625 29.1047C59.1042 31.3547 59.9375 33.3651 61.0625 35.1359C62.1875 36.9068 64.1875 39.1047 67.0625 41.7297C69.9583 44.3338 71.7917 46.3443 72.5625 47.7609C73.3333 49.1568 73.7188 50.5734 73.7188 52.0109C73.7188 53.9901 73.0521 55.6463 71.7188 56.9797C70.3854 58.313 68.7812 58.9797 66.9062 58.9797C65.1979 58.9797 63.5938 58.3859 62.0938 57.1984C60.9688 56.3234 59.9167 54.938 58.9375 53.0422C58.9583 56.1047 59.3542 58.5422 60.125 60.3547C60.9167 62.1463 62.1667 63.563 63.875 64.6047C65.5833 65.6255 67.8646 66.2297 70.7188 66.4172L70.9375 67.5734H46.1875L46.4062 66.4172C50.2396 66.4172 53.2083 65.3026 55.3125 63.0734C57.4375 60.8234 58.4583 57.4797 58.375 53.0422C57.4375 55.0213 56.2708 56.5109 54.875 57.5109C53.5 58.4901 51.9479 58.9797 50.2188 58.9797C48.3438 58.9797 46.7292 58.3026 45.375 56.9484C44.0208 55.5943 43.3438 53.9901 43.3438 52.1359C43.3438 50.5943 43.6771 49.2088 44.3438 47.9797C45.2812 46.2505 46.8021 44.5213 48.9062 42.7922C51.0312 41.063 52.5938 39.6359 53.5938 38.5109C55.1354 36.7818 56.25 35.2401 56.9375 33.8859C57.6458 32.5318 58.1875 30.938 58.5625 29.1047Z" fill="black"/>
<path d="M88.5625 49.1047C89.1042 51.3547 89.9375 53.3651 91.0625 55.1359C92.1875 56.9068 94.1875 59.1047 97.0625 61.7297C99.9583 64.3338 101.792 66.3443 102.562 67.7609C103.333 69.1568 103.719 70.5734 103.719 72.0109C103.719 73.9901 103.052 75.6463 101.719 76.9797C100.385 78.313 98.7812 78.9797 96.9062 78.9797C95.1979 78.9797 93.5938 78.3859 92.0938 77.1984C90.9688 76.3234 89.9167 74.938 88.9375 73.0422C88.9583 76.1047 89.3542 78.5422 90.125 80.3547C90.9167 82.1463 92.1667 83.563 93.875 84.6047C95.5833 85.6255 97.8646 86.2297 100.719 86.4172L100.938 87.5734H76.1875L76.4062 86.4172C80.2396 86.4172 83.2083 85.3026 85.3125 83.0734C87.4375 80.8234 88.4583 77.4797 88.375 73.0422C87.4375 75.0213 86.2708 76.5109 84.875 77.5109C83.5 78.4901 81.9479 78.9797 80.2188 78.9797C78.3438 78.9797 76.7292 78.3026 75.375 76.9484C74.0208 75.5943 73.3438 73.9901 73.3438 72.1359C73.3438 70.5943 73.6771 69.2088 74.3438 67.9797C75.2812 66.2505 76.8021 64.5213 78.9062 62.7922C81.0312 61.063 82.5938 59.6359 83.5938 58.5109C85.1354 56.7818 86.25 55.2401 86.9375 53.8859C87.6458 52.5318 88.1875 50.938 88.5625 49.1047Z" fill="black"/>
<path d="M59.5625 70.1047C60.1042 72.3547 60.9375 74.3651 62.0625 76.1359C63.1875 77.9068 65.1875 80.1047 68.0625 82.7297C70.9583 85.3338 72.7917 87.3443 73.5625 88.7609C74.3333 90.1568 74.7188 91.5734 74.7188 93.0109C74.7188 94.9901 74.0521 96.6463 72.7188 97.9797C71.3854 99.313 69.7812 99.9797 67.9062 99.9797C66.1979 99.9797 64.5938 99.3859 63.0938 98.1984C61.9688 97.3234 60.9167 95.938 59.9375 94.0422C59.9583 97.1047 60.3542 99.5422 61.125 101.355C61.9167 103.146 63.1667 104.563 64.875 105.605C66.5833 106.626 68.8646 107.23 71.7188 107.417L71.9375 108.573H47.1875L47.4062 107.417C51.2396 107.417 54.2083 106.303 56.3125 104.073C58.4375 101.823 59.4583 98.4797 59.375 94.0422C58.4375 96.0213 57.2708 97.5109 55.875 98.5109C54.5 99.4901 52.9479 99.9797 51.2188 99.9797C49.3438 99.9797 47.7292 99.3026 46.375 97.9484C45.0208 96.5943 44.3438 94.9901 44.3438 93.1359C44.3438 91.5943 44.6771 90.2088 45.3438 88.9797C46.2812 87.2505 47.8021 85.5213 49.9062 83.7922C52.0312 82.063 53.5938 80.6359 54.5938 79.5109C56.1354 77.7818 57.25 76.2401 57.9375 74.8859C58.6458 73.5318 59.1875 71.938 59.5625 70.1047Z" fill="black"/>
<path d="M87.7642 186.006C87.2225 183.756 86.3892 181.746 85.2642 179.975C84.1392 178.204 82.1392 176.006 79.2642 173.381C76.3683 170.777 74.535 168.767 73.7642 167.35C72.9933 165.954 72.6079 164.538 72.6079 163.1C72.6079 161.121 73.2746 159.465 74.6079 158.131C75.9412 156.798 77.5454 156.131 79.4204 156.131C81.1287 156.131 82.7329 156.725 84.2329 157.913C85.3579 158.788 86.41 160.173 87.3892 162.069C87.3683 159.006 86.9725 156.569 86.2017 154.756C85.41 152.965 84.16 151.548 82.4517 150.506C80.7433 149.486 78.4621 148.881 75.6079 148.694L75.3892 147.538H100.139L99.9204 148.694C96.0871 148.694 93.1183 149.809 91.0142 152.038C88.8892 154.288 87.8683 157.631 87.9517 162.069C88.8892 160.09 90.0558 158.6 91.4517 157.6C92.8267 156.621 94.3787 156.131 96.1079 156.131C97.9829 156.131 99.5975 156.809 100.952 158.163C102.306 159.517 102.983 161.121 102.983 162.975C102.983 164.517 102.65 165.902 101.983 167.131C101.045 168.861 99.5246 170.59 97.4204 172.319C95.2954 174.048 93.7329 175.475 92.7329 176.6C91.1912 178.329 90.0767 179.871 89.3892 181.225C88.6808 182.579 88.1392 184.173 87.7642 186.006Z" fill="black"/>
<path d="M56.7642 154.006C56.2225 151.756 55.3892 149.746 54.2642 147.975C53.1392 146.204 51.1392 144.006 48.2642 141.381C45.3683 138.777 43.535 136.767 42.7642 135.35C41.9933 133.954 41.6079 132.538 41.6079 131.1C41.6079 129.121 42.2746 127.465 43.6079 126.131C44.9412 124.798 46.5454 124.131 48.4204 124.131C50.1287 124.131 51.7329 124.725 53.2329 125.913C54.3579 126.788 55.41 128.173 56.3892 130.069C56.3683 127.006 55.9725 124.569 55.2017 122.756C54.41 120.965 53.16 119.548 51.4517 118.506C49.7433 117.486 47.4621 116.881 44.6079 116.694L44.3892 115.538H69.1392L68.9204 116.694C65.0871 116.694 62.1183 117.809 60.0142 120.038C57.8892 122.288 56.8683 125.631 56.9517 130.069C57.8892 128.09 59.0558 126.6 60.4517 125.6C61.8267 124.621 63.3787 124.131 65.1079 124.131C66.9829 124.131 68.5975 124.809 69.9517 126.163C71.3058 127.517 71.9829 129.121 71.9829 130.975C71.9829 132.517 71.6496 133.902 70.9829 135.131C70.0454 136.861 68.5246 138.59 66.4204 140.319C64.2954 142.048 62.7329 143.475 61.7329 144.6C60.1912 146.329 59.0767 147.871 58.3892 149.225C57.6808 150.579 57.1392 152.173 56.7642 154.006Z" fill="black"/>
<path d="M56.7642 202.006C56.2225 199.756 55.3892 197.746 54.2642 195.975C53.1392 194.204 51.1392 192.006 48.2642 189.381C45.3683 186.777 43.535 184.767 42.7642 183.35C41.9933 181.954 41.6079 180.538 41.6079 179.1C41.6079 177.121 42.2746 175.465 43.6079 174.131C44.9412 172.798 46.5454 172.131 48.4204 172.131C50.1287 172.131 51.7329 172.725 53.2329 173.913C54.3579 174.788 55.41 176.173 56.3892 178.069C56.3683 175.006 55.9725 172.569 55.2017 170.756C54.41 168.965 53.16 167.548 51.4517 166.506C49.7433 165.486 47.4621 164.881 44.6079 164.694L44.3892 163.538H69.1392L68.9204 164.694C65.0871 164.694 62.1183 165.809 60.0142 168.038C57.8892 170.288 56.8683 173.631 56.9517 178.069C57.8892 176.09 59.0558 174.6 60.4517 173.6C61.8267 172.621 63.3787 172.131 65.1079 172.131C66.9829 172.131 68.5975 172.809 69.9517 174.163C71.3058 175.517 71.9829 177.121 71.9829 178.975C71.9829 180.517 71.6496 181.902 70.9829 183.131C70.0454 184.861 68.5246 186.59 66.4204 188.319C64.2954 190.048 62.7329 191.475 61.7329 192.6C60.1912 194.329 59.0767 195.871 58.3892 197.225C57.6808 198.579 57.1392 200.173 56.7642 202.006Z" fill="black"/>
</svg>
