<svg width="176" height="278" viewBox="0 0 176 278" fill="none" xmlns="http://www.w3.org/2000/svg">
<path d="M170.388 32C170.388 32 119.62 33.2331 87.8022 33.2331C55.9848 33.2331 5.21597 32 5.21597 32C2.26025 32 0 34.0037 0 36.624V241.466C0 244.087 2.43412 246.244 5.21597 246.244C5.21597 246.244 55.9848 247.786 87.8022 247.786C119.62 247.786 170.388 246.244 170.388 246.244C173.344 246.09 175.604 243.932 175.604 241.466V36.624C175.604 34.0037 173.344 32 170.388 32Z" fill="white"/>
<path d="M19.9423 54.6837C19.6383 54.6837 19.3103 54.6517 18.9583 54.5877C18.6223 54.5077 18.2863 54.4277 17.9503 54.3477C17.1183 54.1077 16.4463 53.9877 15.9343 53.9877C15.4543 53.9877 14.9183 54.0277 14.3263 54.1077C13.4463 54.1877 12.8943 54.2277 12.6703 54.2277C11.7103 54.2277 10.9743 54.0517 10.4623 53.6997C9.96632 53.3477 9.68632 52.8437 9.62232 52.1877C9.59032 51.7877 9.70232 51.5077 9.95832 51.3477C10.2143 51.1717 10.6223 51.0837 11.1823 51.0837C11.5023 51.0837 11.7983 51.1317 12.0703 51.2277C12.3583 51.3077 12.7263 51.4357 13.1743 51.6117C13.6223 51.8037 14.0223 51.9477 14.3743 52.0437C14.7263 52.1397 15.1023 52.1877 15.5023 52.1877C15.9343 52.1877 16.3743 51.9157 16.8223 51.3717C17.2863 50.8277 17.6623 50.1157 17.9503 49.2357C18.2543 48.3557 18.4063 47.4357 18.4063 46.4757C18.4063 45.2917 18.2383 44.3797 17.9023 43.7397C17.5823 43.0837 16.9743 42.7557 16.0783 42.7557C14.3823 42.7557 13.1583 43.7397 12.4063 45.7077C12.1183 45.5957 11.9103 45.4517 11.7823 45.2757C11.6703 45.0837 11.6143 44.8277 11.6143 44.5077C11.6143 44.0437 11.7903 43.5957 12.1423 43.1637C12.5103 42.7157 13.0223 42.3557 13.6783 42.0837C14.3503 41.7957 15.1263 41.6517 16.0063 41.6517C17.2703 41.6517 18.2143 42.0837 18.8383 42.9477C19.4783 43.8117 19.7983 44.9477 19.7983 46.3557C19.7983 47.7637 19.5023 49.0357 18.9103 50.1717C18.3343 51.2917 17.6303 52.1797 16.7983 52.8357C17.1983 52.9957 17.5823 53.0997 17.9503 53.1477C18.3343 53.1957 18.7503 53.2197 19.1983 53.2197C19.7423 53.2357 20.1183 53.2917 20.3263 53.3877C20.5503 53.4677 20.6623 53.6757 20.6623 54.0117C20.6623 54.1557 20.5903 54.3077 20.4463 54.4677C20.3023 54.6117 20.1343 54.6837 19.9423 54.6837Z" fill="black"/>
<path d="M18.5547 61.8089C18.7578 62.6527 19.0703 63.4066 19.4922 64.0706C19.9141 64.7347 20.6641 65.5589 21.7422 66.5433C22.8281 67.5199 23.5156 68.2738 23.8047 68.805C24.0938 69.3284 24.2383 69.8597 24.2383 70.3988C24.2383 71.1409 23.9883 71.762 23.4883 72.262C22.9883 72.762 22.3867 73.012 21.6836 73.012C21.043 73.012 20.4414 72.7894 19.8789 72.3441C19.457 72.0159 19.0625 71.4964 18.6953 70.7855C18.7031 71.9339 18.8516 72.848 19.1406 73.5277C19.4375 74.1995 19.9062 74.7308 20.5469 75.1214C21.1875 75.5042 22.043 75.7308 23.1133 75.8011L23.1953 76.2347H13.9141L13.9961 75.8011C15.4336 75.8011 16.5469 75.3831 17.3359 74.5472C18.1328 73.7034 18.5156 72.4495 18.4844 70.7855C18.1328 71.5277 17.6953 72.0863 17.1719 72.4613C16.6562 72.8284 16.0742 73.012 15.4258 73.012C14.7227 73.012 14.1172 72.7581 13.6094 72.2503C13.1016 71.7425 12.8477 71.1409 12.8477 70.4456C12.8477 69.8675 12.9727 69.348 13.2227 68.887C13.5742 68.2386 14.1445 67.5902 14.9336 66.9417C15.7305 66.2933 16.3164 65.7581 16.6914 65.3363C17.2695 64.6878 17.6875 64.1097 17.9453 63.6019C18.2109 63.0941 18.4141 62.4964 18.5547 61.8089Z" fill="black"/>
<path d="M156.783 205.196C156.604 204.347 156.314 203.584 155.911 202.909C155.508 202.233 154.782 201.387 153.733 200.372C152.675 199.365 152.01 198.592 151.736 198.052C151.462 197.521 151.333 196.986 151.348 196.447C151.37 195.705 151.638 195.091 152.152 194.606C152.666 194.12 153.274 193.888 153.977 193.908C154.617 193.926 155.212 194.166 155.762 194.627C156.174 194.967 156.554 195.498 156.9 196.219C156.925 195.071 156.803 194.153 156.534 193.465C156.256 192.785 155.803 192.241 155.174 191.832C154.545 191.431 153.696 191.18 152.628 191.079L152.559 190.643L161.836 190.91L161.742 191.341C160.305 191.299 159.18 191.685 158.367 192.498C157.546 193.319 157.128 194.561 157.111 196.225C157.484 195.494 157.937 194.948 158.471 194.588C158.997 194.236 159.584 194.069 160.232 194.088C160.935 194.108 161.533 194.379 162.026 194.901C162.519 195.423 162.756 196.032 162.736 196.727C162.719 197.305 162.579 197.82 162.316 198.274C161.946 198.912 161.357 199.544 160.55 200.169C159.735 200.795 159.134 201.313 158.747 201.724C158.15 202.355 157.716 202.921 157.444 203.421C157.164 203.921 156.943 204.513 156.783 205.196Z" fill="black"/>
<path d="M85.7583 39.7244C86.5708 43.0994 87.8208 46.1151 89.5083 48.7713C91.1958 51.4276 94.1958 54.7244 98.5083 58.6619C102.852 62.5682 105.602 65.5838 106.758 67.7088C107.915 69.8026 108.493 71.9276 108.493 74.0838C108.493 77.0526 107.493 79.5369 105.493 81.5369C103.493 83.5369 101.086 84.5369 98.2739 84.5369C95.7114 84.5369 93.3052 83.6463 91.0552 81.8651C89.3677 80.5526 87.7896 78.4744 86.3208 75.6307C86.3521 80.2244 86.9458 83.8807 88.1021 86.5994C89.2896 89.2869 91.1646 91.4119 93.7271 92.9744C96.2896 94.5057 99.7114 95.4119 103.993 95.6932L104.321 97.4276H67.1958L67.5239 95.6932C73.2739 95.6932 77.7271 94.0213 80.8833 90.6776C84.0708 87.3026 85.6021 82.2869 85.4771 75.6307C84.0708 78.5994 82.3208 80.8338 80.2271 82.3338C78.1646 83.8026 75.8364 84.5369 73.2427 84.5369C70.4302 84.5369 68.0083 83.5213 65.9771 81.4901C63.9458 79.4588 62.9302 77.0526 62.9302 74.2713C62.9302 71.9588 63.4302 69.8807 64.4302 68.0369C65.8364 65.4432 68.1177 62.8494 71.2739 60.2557C74.4614 57.6619 76.8052 55.5213 78.3052 53.8338C80.6177 51.2401 82.2896 48.9276 83.3208 46.8963C84.3833 44.8651 85.1958 42.4744 85.7583 39.7244Z" fill="black"/>
<path d="M88.3355 238.255C87.523 234.88 86.273 231.865 84.5855 229.208C82.898 226.552 79.898 223.255 75.5855 219.318C71.2417 215.411 68.4917 212.396 67.3355 210.271C66.1792 208.177 65.6011 206.052 65.6011 203.896C65.6011 200.927 66.6011 198.443 68.6011 196.443C70.6011 194.443 73.0073 193.443 75.8198 193.443C78.3823 193.443 80.7886 194.333 83.0386 196.115C84.7261 197.427 86.3042 199.505 87.773 202.349C87.7417 197.755 87.148 194.099 85.9917 191.38C84.8042 188.693 82.9292 186.568 80.3667 185.005C77.8042 183.474 74.3823 182.568 70.1011 182.286L69.773 180.552H106.898L106.57 182.286C100.82 182.286 96.3667 183.958 93.2105 187.302C90.023 190.677 88.4917 195.693 88.6167 202.349C90.023 199.38 91.773 197.146 93.8667 195.646C95.9292 194.177 98.2573 193.443 100.851 193.443C103.664 193.443 106.085 194.458 108.117 196.49C110.148 198.521 111.164 200.927 111.164 203.708C111.164 206.021 110.664 208.099 109.664 209.943C108.257 212.536 105.976 215.13 102.82 217.724C99.6323 220.318 97.2886 222.458 95.7886 224.146C93.4761 226.74 91.8042 229.052 90.773 231.083C89.7105 233.115 88.898 235.505 88.3355 238.255Z" fill="black"/>
<path d="M154.171 212.15C154.475 212.149 154.804 212.181 155.156 212.245C155.492 212.324 155.828 212.404 156.164 212.484C156.996 212.723 157.668 212.842 158.18 212.842C158.66 212.841 159.196 212.801 159.788 212.72C160.668 212.639 161.22 212.598 161.444 212.598C162.404 212.597 163.14 212.772 163.653 213.124C164.149 213.475 164.43 213.979 164.495 214.635C164.527 215.035 164.416 215.315 164.16 215.475C163.904 215.652 163.496 215.74 162.936 215.741C162.616 215.741 162.32 215.693 162.048 215.598C161.76 215.518 161.392 215.39 160.943 215.215C160.495 215.023 160.095 214.88 159.743 214.784C159.391 214.688 159.015 214.641 158.615 214.641C158.183 214.642 157.743 214.914 157.296 215.459C156.832 216.003 156.457 216.715 156.17 217.596C155.868 218.476 155.717 219.396 155.718 220.356C155.72 221.54 155.889 222.452 156.226 223.092C156.546 223.747 157.155 224.075 158.051 224.074C159.747 224.072 160.97 223.087 161.719 221.118C162.007 221.23 162.215 221.373 162.344 221.549C162.456 221.741 162.512 221.997 162.513 222.317C162.513 222.781 162.338 223.229 161.986 223.662C161.619 224.11 161.107 224.471 160.452 224.743C159.78 225.032 159.004 225.177 158.124 225.178C156.86 225.179 155.916 224.748 155.291 223.885C154.649 223.021 154.328 221.886 154.326 220.478C154.324 219.07 154.619 217.797 155.209 216.661C155.784 215.54 156.487 214.651 157.318 213.994C156.918 213.835 156.534 213.731 156.165 213.684C155.781 213.636 155.365 213.613 154.917 213.613C154.373 213.598 153.997 213.542 153.789 213.446C153.565 213.366 153.453 213.159 153.452 212.823C153.452 212.679 153.524 212.526 153.668 212.366C153.812 212.222 153.979 212.15 154.171 212.15Z" fill="black"/>
</svg>
