<svg width="177" height="272" viewBox="0 0 177 272" fill="none" xmlns="http://www.w3.org/2000/svg">
<path d="M171.318 29.7663C171.318 29.7663 120.549 30.9994 88.7314 30.9994C56.914 30.9994 6.14517 29.7663 6.14517 29.7663C3.18945 29.7663 0.929199 31.7701 0.929199 34.3903V239.233C0.929199 241.853 3.36332 244.011 6.14517 244.011C6.14517 244.011 56.914 245.552 88.7314 245.552C120.549 245.552 171.318 244.011 171.318 244.011C174.273 243.857 176.534 241.699 176.534 239.233V34.3903C176.534 31.7701 174.273 29.7663 171.318 29.7663Z" fill="white"/>
<path d="M15.5408 57.9281C14.8688 57.8801 14.3328 57.8161 13.9328 57.7361C13.5328 57.6561 13.0208 57.4481 12.3968 57.1121C11.7728 56.7601 10.9808 56.2081 10.0208 55.4561V55.2641C10.0208 54.9761 10.0928 54.7521 10.2368 54.5921C10.3808 54.4161 10.5888 54.3281 10.8608 54.3281C10.9088 54.3281 10.9968 54.3921 11.1248 54.5201C11.2688 54.6321 11.3568 54.7041 11.3888 54.7361C11.9168 55.2481 12.4848 55.6801 13.0928 56.0321C13.7008 56.3841 14.4448 56.5601 15.3248 56.5601C15.8848 56.5601 16.3728 56.3761 16.7888 56.0081C17.2208 55.6401 17.4368 55.1041 17.4368 54.4001C17.4368 53.4081 17.0448 52.6641 16.2608 52.1681C15.4928 51.6561 14.3648 51.4161 12.8768 51.4481C12.7808 51.2721 12.7328 51.0881 12.7328 50.8961C12.7328 50.7361 12.7568 50.6001 12.8048 50.4881C12.8528 50.3601 12.9168 50.2801 12.9968 50.2481C14.0688 50.1521 14.8848 49.8721 15.4448 49.4081C16.0208 48.9441 16.3088 48.3201 16.3088 47.5361C16.3088 47.0561 16.0288 46.6721 15.4688 46.3841C14.9248 46.0801 14.1968 45.9281 13.2848 45.9281C12.6288 45.9281 12.1408 46.0081 11.8208 46.1681C11.5168 46.3121 11.3648 46.5441 11.3648 46.8641V47.3921C11.0768 47.3921 10.8448 47.3281 10.6688 47.2001C10.5088 47.0561 10.4288 46.8481 10.4288 46.5761C10.4288 45.9841 10.6768 45.5201 11.1728 45.1841C11.6688 44.8321 12.3968 44.6561 13.3568 44.6561C14.6208 44.6561 15.6128 44.9281 16.3328 45.4721C17.0688 46.0001 17.4368 46.7761 17.4368 47.8001C17.4368 48.6481 17.1968 49.2881 16.7168 49.7201C16.2528 50.1361 15.5488 50.4561 14.6048 50.6801C15.9968 50.8561 17.0368 51.2401 17.7248 51.8321C18.4288 52.4081 18.7808 53.2161 18.7808 54.2561C18.7808 55.0721 18.6208 55.7601 18.3008 56.3201C17.9808 56.8641 17.5728 57.2721 17.0768 57.5441C16.5808 57.8001 16.0688 57.9281 15.5408 57.9281Z" fill="black"/>
<path d="M17.9531 65.0293C18.1562 65.8731 18.4688 66.627 18.8906 67.291C19.3125 67.9551 20.0625 68.7793 21.1406 69.7637C22.2266 70.7403 22.9141 71.4942 23.2031 72.0254C23.4922 72.5489 23.6367 73.0801 23.6367 73.6192C23.6367 74.3614 23.3867 74.9825 22.8867 75.4825C22.3867 75.9825 21.7852 76.2325 21.082 76.2325C20.4414 76.2325 19.8398 76.0098 19.2773 75.5645C18.8555 75.2364 18.4609 74.7168 18.0938 74.0059C18.1016 75.1543 18.25 76.0684 18.5391 76.7481C18.8359 77.42 19.3047 77.9512 19.9453 78.3418C20.5859 78.7246 21.4414 78.9512 22.5117 79.0215L22.5938 79.4551H13.3125L13.3945 79.0215C14.832 79.0215 15.9453 78.6035 16.7344 77.7676C17.5312 76.9239 17.9141 75.67 17.8828 74.0059C17.5312 74.7481 17.0938 75.3067 16.5703 75.6817C16.0547 76.0489 15.4727 76.2325 14.8242 76.2325C14.1211 76.2325 13.5156 75.9785 13.0078 75.4707C12.5 74.9629 12.2461 74.3614 12.2461 73.666C12.2461 73.0879 12.3711 72.5684 12.6211 72.1075C12.9727 71.459 13.543 70.8106 14.332 70.1621C15.1289 69.5137 15.7148 68.9785 16.0898 68.5567C16.668 67.9082 17.0859 67.3301 17.3438 66.8223C17.6094 66.3145 17.8125 65.7168 17.9531 65.0293Z" fill="black"/>
<path d="M160.643 212.344C160.44 211.5 160.127 210.746 159.706 210.082C159.284 209.418 158.534 208.594 157.456 207.61C156.37 206.633 155.682 205.879 155.393 205.348C155.104 204.825 154.959 204.293 154.959 203.754C154.959 203.012 155.209 202.391 155.709 201.891C156.209 201.391 156.811 201.141 157.514 201.141C158.155 201.141 158.756 201.364 159.319 201.809C159.741 202.137 160.135 202.657 160.502 203.368C160.495 202.219 160.346 201.305 160.057 200.625C159.76 199.953 159.292 199.422 158.651 199.032C158.01 198.649 157.155 198.422 156.084 198.352L156.002 197.918H165.284L165.202 198.352C163.764 198.352 162.651 198.77 161.862 199.606C161.065 200.45 160.682 201.703 160.713 203.368C161.065 202.625 161.502 202.067 162.026 201.692C162.542 201.325 163.124 201.141 163.772 201.141C164.475 201.141 165.081 201.395 165.588 201.903C166.096 202.411 166.35 203.012 166.35 203.707C166.35 204.286 166.225 204.805 165.975 205.266C165.624 205.914 165.053 206.563 164.264 207.211C163.467 207.86 162.881 208.395 162.506 208.817C161.928 209.465 161.51 210.043 161.252 210.551C160.987 211.059 160.784 211.657 160.643 212.344Z" fill="black"/>
<path d="M86.1567 101.945C86.9692 105.32 88.2192 108.335 89.9067 110.992C91.5942 113.648 94.5942 116.945 98.9067 120.882C103.25 124.789 106 127.804 107.157 129.929C108.313 132.023 108.891 134.148 108.891 136.304C108.891 139.273 107.891 141.757 105.891 143.757C103.891 145.757 101.485 146.757 98.6724 146.757C96.1099 146.757 93.7036 145.867 91.4536 144.085C89.7661 142.773 88.188 140.695 86.7192 137.851C86.7505 142.445 87.3442 146.101 88.5005 148.82C89.688 151.507 91.563 153.632 94.1255 155.195C96.688 156.726 100.11 157.632 104.391 157.914L104.719 159.648H67.5942L67.9224 157.914C73.6724 157.914 78.1255 156.242 81.2817 152.898C84.4692 149.523 86.0005 144.507 85.8755 137.851C84.4692 140.82 82.7192 143.054 80.6255 144.554C78.563 146.023 76.2349 146.757 73.6411 146.757C70.8286 146.757 68.4067 145.742 66.3755 143.71C64.3442 141.679 63.3286 139.273 63.3286 136.492C63.3286 134.179 63.8286 132.101 64.8286 130.257C66.2349 127.664 68.5161 125.07 71.6724 122.476C74.8599 119.882 77.2036 117.742 78.7036 116.054C81.0161 113.46 82.688 111.148 83.7192 109.117C84.7817 107.085 85.5942 104.695 86.1567 101.945Z" fill="black"/>
<path d="M86.3271 232.315C85.5146 228.94 84.2646 225.925 82.5771 223.269C80.8896 220.612 77.8896 217.315 73.5771 213.378C69.2334 209.472 66.4834 206.456 65.3271 204.331C64.1709 202.237 63.5928 200.112 63.5928 197.956C63.5928 194.987 64.5928 192.503 66.5928 190.503C68.5928 188.503 70.999 187.503 73.8115 187.503C76.374 187.503 78.7803 188.394 81.0303 190.175C82.7178 191.487 84.2959 193.565 85.7646 196.409C85.7334 191.815 85.1396 188.159 83.9834 185.44C82.7959 182.753 80.9209 180.628 78.3584 179.065C75.7959 177.534 72.374 176.628 68.0928 176.347L67.7646 174.612H104.89L104.562 176.347C98.8115 176.347 94.3584 178.019 91.2021 181.362C88.0146 184.737 86.4834 189.753 86.6084 196.409C88.0146 193.44 89.7646 191.206 91.8584 189.706C93.9209 188.237 96.249 187.503 98.8428 187.503C101.655 187.503 104.077 188.519 106.108 190.55C108.14 192.581 109.155 194.987 109.155 197.769C109.155 200.081 108.655 202.159 107.655 204.003C106.249 206.597 103.968 209.19 100.812 211.784C97.624 214.378 95.2803 216.519 93.7803 218.206C91.4678 220.8 89.7959 223.112 88.7646 225.144C87.7021 227.175 86.8896 229.565 86.3271 232.315Z" fill="black"/>
<path d="M86.1567 39.9448C86.9692 43.3198 88.2192 46.3355 89.9067 48.9917C91.5942 51.648 94.5942 54.9448 98.9067 58.8823C103.25 62.7886 106 65.8042 107.157 67.9292C108.313 70.023 108.891 72.148 108.891 74.3042C108.891 77.273 107.891 79.7573 105.891 81.7573C103.891 83.7573 101.485 84.7573 98.6724 84.7573C96.1099 84.7573 93.7036 83.8667 91.4536 82.0855C89.7661 80.773 88.188 78.6948 86.7192 75.8511C86.7505 80.4448 87.3442 84.1011 88.5005 86.8198C89.688 89.5073 91.563 91.6323 94.1255 93.1948C96.688 94.7261 100.11 95.6323 104.391 95.9136L104.719 97.648H67.5942L67.9224 95.9136C73.6724 95.9136 78.1255 94.2417 81.2817 90.898C84.4692 87.523 86.0005 82.5073 85.8755 75.8511C84.4692 78.8198 82.7192 81.0542 80.6255 82.5542C78.563 84.023 76.2349 84.7573 73.6411 84.7573C70.8286 84.7573 68.4067 83.7417 66.3755 81.7105C64.3442 79.6792 63.3286 77.273 63.3286 74.4917C63.3286 72.1792 63.8286 70.1011 64.8286 68.2573C66.2349 65.6636 68.5161 63.0698 71.6724 60.4761C74.8599 57.8823 77.2036 55.7417 78.7036 54.0542C81.0161 51.4605 82.688 49.148 83.7192 47.1167C84.7817 45.0855 85.5942 42.6948 86.1567 39.9448Z" fill="black"/>
<path d="M159.37 215.341C160.042 215.388 160.578 215.452 160.978 215.532C161.378 215.611 161.891 215.819 162.515 216.154C163.14 216.505 163.932 217.056 164.893 217.807L164.894 217.999C164.894 218.287 164.822 218.512 164.678 218.672C164.535 218.848 164.327 218.936 164.055 218.936C164.007 218.936 163.919 218.872 163.791 218.745C163.646 218.633 163.558 218.561 163.526 218.529C162.998 218.017 162.429 217.586 161.821 217.235C161.212 216.883 160.468 216.708 159.588 216.709C159.028 216.71 158.54 216.894 158.125 217.262C157.693 217.631 157.478 218.167 157.479 218.871C157.48 219.863 157.873 220.607 158.658 221.102C159.426 221.613 160.554 221.852 162.042 221.818C162.139 221.994 162.187 222.178 162.187 222.37C162.187 222.53 162.164 222.666 162.116 222.778C162.068 222.906 162.004 222.986 161.924 223.019C160.852 223.116 160.036 223.396 159.477 223.861C158.902 224.326 158.614 224.95 158.615 225.734C158.616 226.214 158.897 226.598 159.457 226.885C160.001 227.189 160.73 227.34 161.642 227.339C162.298 227.338 162.785 227.258 163.105 227.097C163.409 226.953 163.561 226.721 163.56 226.401L163.56 225.873C163.848 225.873 164.08 225.936 164.256 226.064C164.416 226.208 164.496 226.416 164.497 226.688C164.497 227.28 164.25 227.744 163.754 228.081C163.259 228.433 162.531 228.61 161.571 228.611C160.307 228.612 159.315 228.341 158.594 227.798C157.857 227.271 157.488 226.495 157.487 225.471C157.486 224.623 157.725 223.983 158.205 223.55C158.668 223.134 159.372 222.813 160.315 222.588C158.923 222.414 157.883 222.031 157.194 221.439C156.489 220.864 156.136 220.057 156.135 219.017C156.134 218.201 156.293 217.512 156.612 216.952C156.931 216.408 157.339 215.999 157.835 215.727C158.33 215.47 158.842 215.342 159.37 215.341Z" fill="black"/>
</svg>
