<svg width="177" height="251" viewBox="0 0 177 251" fill="none" xmlns="http://www.w3.org/2000/svg">
<path d="M171.041 21.9122C171.041 21.9122 120.272 23.1453 88.4545 23.1453C56.6371 23.1453 5.86832 21.9122 5.86832 21.9122C2.9126 21.9122 0.652344 23.916 0.652344 26.5362V231.379C0.652344 233.999 3.08646 236.157 5.86832 236.157C5.86832 236.157 56.6371 237.698 88.4545 237.698C120.272 237.698 171.041 236.157 171.041 236.157C173.996 236.003 176.257 233.845 176.257 231.379V26.5362C176.257 23.916 173.996 21.9122 171.041 21.9122Z" fill="white"/>
<path d="M17.9279 50.098C17.7839 50.098 17.6319 49.906 17.4719 49.522C17.3279 49.122 17.2079 48.602 17.1119 47.962C17.0159 47.322 16.9679 46.65 16.9679 45.946C16.9679 45.034 17.0399 44.25 17.1839 43.594C16.6399 44.346 16.0719 44.898 15.4799 45.25C14.9039 45.586 14.0879 45.754 13.0319 45.754C11.9599 45.754 11.1759 45.362 10.6799 44.578C10.1999 43.794 9.95991 42.786 9.95991 41.554C9.95991 40.578 10.0399 39.706 10.1999 38.938C10.3759 38.17 10.6639 37.226 11.0639 36.106C11.0959 35.946 11.1919 35.826 11.3519 35.746C11.5119 35.65 11.6879 35.602 11.8799 35.602C12.0559 35.602 12.1999 35.642 12.3119 35.722C12.4239 35.786 12.4719 35.874 12.4559 35.986C11.6079 38.194 11.1839 40.162 11.1839 41.89C11.1839 42.818 11.3359 43.482 11.6399 43.882C11.9599 44.282 12.5039 44.482 13.2719 44.482C14.4399 44.482 15.3919 43.946 16.1279 42.874C16.8639 41.802 17.3519 40.946 17.5919 40.306C17.8479 39.666 17.9919 39.322 18.0239 39.274C18.3919 39.274 18.6399 39.33 18.7679 39.442C18.8959 39.554 18.9599 39.73 18.9599 39.97C18.9599 40.434 18.8399 41.178 18.5999 42.202C18.5839 42.314 18.5199 42.642 18.4079 43.186C18.2959 43.714 18.2399 44.162 18.2399 44.53C18.2399 45.106 18.3279 45.866 18.5039 46.81C18.6639 47.802 18.7439 48.522 18.7439 48.97C18.7439 49.722 18.4719 50.098 17.9279 50.098Z" fill="black"/>
<path d="M17.6763 57.1752C17.8794 58.019 18.1919 58.7729 18.6138 59.437C19.0356 60.101 19.7856 60.9252 20.8638 61.9096C21.9497 62.8862 22.6372 63.6401 22.9263 64.1713C23.2153 64.6948 23.3599 65.226 23.3599 65.7651C23.3599 66.5073 23.1099 67.1284 22.6099 67.6284C22.1099 68.1284 21.5083 68.3784 20.8052 68.3784C20.1646 68.3784 19.563 68.1557 19.0005 67.7104C18.5786 67.3823 18.1841 66.8627 17.8169 66.1518C17.8247 67.3002 17.9731 68.2143 18.2622 68.894C18.5591 69.5659 19.0278 70.0971 19.6685 70.4877C20.3091 70.8705 21.1646 71.0971 22.2349 71.1674L22.3169 71.601H13.0356L13.1177 71.1674C14.5552 71.1674 15.6685 70.7495 16.4575 69.9135C17.2544 69.0698 17.6372 67.8159 17.606 66.1518C17.2544 66.894 16.8169 67.4526 16.2935 67.8276C15.7778 68.1948 15.1958 68.3784 14.5474 68.3784C13.8442 68.3784 13.2388 68.1245 12.731 67.6166C12.2231 67.1088 11.9692 66.5073 11.9692 65.812C11.9692 65.2338 12.0942 64.7143 12.3442 64.2534C12.6958 63.6049 13.2661 62.9565 14.0552 62.308C14.8521 61.6596 15.438 61.1245 15.813 60.7026C16.3911 60.0541 16.8091 59.476 17.0669 58.9682C17.3325 58.4604 17.5356 57.8627 17.6763 57.1752Z" fill="black"/>
<path d="M159.366 206.49C159.163 205.646 158.851 204.892 158.429 204.228C158.007 203.564 157.257 202.74 156.179 201.756C155.093 200.779 154.405 200.025 154.116 199.494C153.827 198.97 153.683 198.439 153.683 197.9C153.683 197.158 153.933 196.537 154.433 196.037C154.933 195.537 155.534 195.287 156.237 195.287C156.878 195.287 157.479 195.51 158.042 195.955C158.464 196.283 158.858 196.803 159.226 197.513C159.218 196.365 159.069 195.451 158.78 194.771C158.483 194.099 158.015 193.568 157.374 193.178C156.733 192.795 155.878 192.568 154.808 192.498L154.726 192.064H164.007L163.925 192.498C162.487 192.498 161.374 192.916 160.585 193.752C159.788 194.595 159.405 195.849 159.437 197.513C159.788 196.771 160.226 196.213 160.749 195.838C161.265 195.47 161.847 195.287 162.495 195.287C163.198 195.287 163.804 195.541 164.312 196.049C164.819 196.556 165.073 197.158 165.073 197.853C165.073 198.431 164.948 198.951 164.698 199.412C164.347 200.06 163.776 200.709 162.987 201.357C162.19 202.006 161.604 202.541 161.229 202.963C160.651 203.611 160.233 204.189 159.976 204.697C159.71 205.205 159.507 205.803 159.366 206.49Z" fill="black"/>
<path d="M49.7173 210.667C48.9048 207.292 47.6548 204.277 45.9673 201.621C44.2798 198.964 41.2798 195.667 36.9673 191.73C32.6235 187.824 29.8735 184.808 28.7173 182.683C27.561 180.589 26.9829 178.464 26.9829 176.308C26.9829 173.339 27.9829 170.855 29.9829 168.855C31.9829 166.855 34.3892 165.855 37.2017 165.855C39.7642 165.855 42.1704 166.746 44.4204 168.527C46.1079 169.839 47.686 171.917 49.1548 174.761C49.1235 170.167 48.5298 166.511 47.3735 163.792C46.186 161.105 44.311 158.98 41.7485 157.417C39.186 155.886 35.7642 154.98 31.4829 154.699L31.1548 152.964H68.2798L67.9517 154.699C62.2017 154.699 57.7485 156.371 54.5923 159.714C51.4048 163.089 49.8735 168.105 49.9985 174.761C51.4048 171.792 53.1548 169.558 55.2485 168.058C57.311 166.589 59.6392 165.855 62.2329 165.855C65.0454 165.855 67.4673 166.871 69.4985 168.902C71.5298 170.933 72.5454 173.339 72.5454 176.121C72.5454 178.433 72.0454 180.511 71.0454 182.355C69.6392 184.949 67.3579 187.542 64.2017 190.136C61.0142 192.73 58.6704 194.871 57.1704 196.558C54.8579 199.152 53.186 201.464 52.1548 203.496C51.0923 205.527 50.2798 207.917 49.7173 210.667Z" fill="black"/>
<path d="M116.717 211.667C115.905 208.292 114.655 205.277 112.967 202.621C111.28 199.964 108.28 196.667 103.967 192.73C99.6235 188.824 96.8735 185.808 95.7173 183.683C94.561 181.589 93.9829 179.464 93.9829 177.308C93.9829 174.339 94.9829 171.855 96.9829 169.855C98.9829 167.855 101.389 166.855 104.202 166.855C106.764 166.855 109.17 167.746 111.42 169.527C113.108 170.839 114.686 172.917 116.155 175.761C116.124 171.167 115.53 167.511 114.374 164.792C113.186 162.105 111.311 159.98 108.749 158.417C106.186 156.886 102.764 155.98 98.4829 155.699L98.1548 153.964H135.28L134.952 155.699C129.202 155.699 124.749 157.371 121.592 160.714C118.405 164.089 116.874 169.105 116.999 175.761C118.405 172.792 120.155 170.558 122.249 169.058C124.311 167.589 126.639 166.855 129.233 166.855C132.045 166.855 134.467 167.871 136.499 169.902C138.53 171.933 139.545 174.339 139.545 177.121C139.545 179.433 139.045 181.511 138.045 183.355C136.639 185.949 134.358 188.542 131.202 191.136C128.014 193.73 125.67 195.871 124.17 197.558C121.858 200.152 120.186 202.464 119.155 204.496C118.092 206.527 117.28 208.917 116.717 211.667Z" fill="black"/>
<path d="M53.8799 40.0908C54.6924 43.4658 55.9424 46.4814 57.6299 49.1376C59.3174 51.7939 62.3174 55.0908 66.6299 59.0283C70.9736 62.9345 73.7236 65.9501 74.8799 68.0751C76.0361 70.1689 76.6143 72.2939 76.6143 74.4501C76.6143 77.4189 75.6143 79.9033 73.6143 81.9033C71.6143 83.9033 69.208 84.9033 66.3955 84.9033C63.833 84.9033 61.4268 84.0126 59.1768 82.2314C57.4893 80.9189 55.9111 78.8408 54.4424 75.997C54.4736 80.5908 55.0674 84.247 56.2236 86.9658C57.4111 89.6533 59.2861 91.7783 61.8486 93.3408C64.4111 94.872 67.833 95.7783 72.1143 96.0595L72.4424 97.7939H35.3174L35.6455 96.0595C41.3955 96.0595 45.8486 94.3876 49.0049 91.0439C52.1924 87.6689 53.7236 82.6533 53.5986 75.997C52.1924 78.9658 50.4424 81.2001 48.3486 82.7001C46.2861 84.1689 43.958 84.9033 41.3643 84.9033C38.5518 84.9033 36.1299 83.8876 34.0986 81.8564C32.0674 79.8251 31.0518 77.4189 31.0518 74.6376C31.0518 72.3251 31.5518 70.247 32.5518 68.4033C33.958 65.8095 36.2393 63.2158 39.3955 60.622C42.583 58.0283 44.9268 55.8876 46.4268 54.2001C48.7393 51.6064 50.4111 49.2939 51.4424 47.2626C52.5049 45.2314 53.3174 42.8408 53.8799 40.0908Z" fill="black"/>
<path d="M116.88 40.0908C117.692 43.4658 118.942 46.4814 120.63 49.1376C122.317 51.7939 125.317 55.0908 129.63 59.0283C133.974 62.9345 136.724 65.9501 137.88 68.0751C139.036 70.1689 139.614 72.2939 139.614 74.4501C139.614 77.4189 138.614 79.9033 136.614 81.9033C134.614 83.9033 132.208 84.9033 129.396 84.9033C126.833 84.9033 124.427 84.0126 122.177 82.2314C120.489 80.9189 118.911 78.8408 117.442 75.997C117.474 80.5908 118.067 84.247 119.224 86.9658C120.411 89.6533 122.286 91.7783 124.849 93.3408C127.411 94.872 130.833 95.7783 135.114 96.0595L135.442 97.7939H98.3174L98.6455 96.0595C104.396 96.0595 108.849 94.3876 112.005 91.0439C115.192 87.6689 116.724 82.6533 116.599 75.997C115.192 78.9658 113.442 81.2001 111.349 82.7001C109.286 84.1689 106.958 84.9033 104.364 84.9033C101.552 84.9033 99.1299 83.8876 97.0986 81.8564C95.0674 79.8251 94.0518 77.4189 94.0518 74.6376C94.0518 72.3251 94.5518 70.247 95.5518 68.4033C96.958 65.8095 99.2393 63.2158 102.396 60.622C105.583 58.0283 107.927 55.8876 109.427 54.2001C111.739 51.6064 113.411 49.2939 114.442 47.2626C115.505 45.2314 116.317 42.8408 116.88 40.0908Z" fill="black"/>
<path d="M156.429 207.466C156.573 207.466 156.725 207.658 156.886 208.041C157.031 208.441 157.151 208.961 157.248 209.601C157.345 210.241 157.394 210.913 157.395 211.617C157.396 212.529 157.325 213.313 157.182 213.969C157.725 213.217 158.292 212.664 158.883 212.311C159.459 211.975 160.275 211.806 161.331 211.805C162.403 211.804 163.187 212.195 163.684 212.978C164.165 213.762 164.407 214.77 164.408 216.002C164.409 216.978 164.331 217.85 164.172 218.618C163.997 219.386 163.71 220.33 163.311 221.451C163.279 221.611 163.184 221.731 163.024 221.811C162.864 221.907 162.688 221.955 162.496 221.956C162.32 221.956 162.176 221.916 162.064 221.836C161.952 221.772 161.903 221.684 161.919 221.572C162.765 219.363 163.186 217.395 163.184 215.667C163.183 214.739 163.03 214.075 162.725 213.675C162.405 213.276 161.86 213.076 161.092 213.077C159.924 213.078 158.973 213.615 158.239 214.688C157.504 215.761 157.017 216.617 156.778 217.258C156.523 217.898 156.379 218.242 156.347 218.29C155.979 218.29 155.731 218.235 155.603 218.123C155.475 218.011 155.411 217.835 155.41 217.595C155.41 217.131 155.529 216.387 155.767 215.363C155.783 215.251 155.847 214.922 155.958 214.378C156.069 213.85 156.125 213.402 156.124 213.034C156.124 212.458 156.035 211.698 155.857 210.754C155.696 209.763 155.615 209.043 155.615 208.595C155.614 207.843 155.885 207.466 156.429 207.466Z" fill="black"/>
</svg>
