<svg width="177" height="250" viewBox="0 0 177 250" fill="none" xmlns="http://www.w3.org/2000/svg">
<path d="M170.841 18.5541C170.841 18.5541 120.072 19.7871 88.2543 19.7871C56.4369 19.7871 5.66812 18.5541 5.66812 18.5541C2.7124 18.5541 0.452148 20.5578 0.452148 23.1781V228.02C0.452148 230.641 2.88627 232.798 5.66812 232.798C5.66812 232.798 56.4369 234.34 88.2543 234.34C120.072 234.34 170.841 232.798 170.841 232.798C173.796 232.644 176.056 230.486 176.056 228.02V23.1781C176.056 20.5578 173.796 18.5541 170.841 18.5541Z" fill="white"/>
<path d="M16.4077 47.1718C16.2157 47.1878 15.9277 47.1958 15.5437 47.1958C12.3277 47.1958 10.7197 46.0518 10.7197 43.7638C10.6877 43.3478 10.7277 42.9878 10.8397 42.6838C10.9677 42.3798 11.1117 42.2278 11.2717 42.2278C11.4317 42.2278 11.5517 42.3958 11.6317 42.7318C11.7277 43.0518 11.7597 43.5558 11.7277 44.2438C11.7277 44.7718 12.1117 45.1798 12.8797 45.4678C13.6637 45.7398 14.6157 45.8758 15.7357 45.8758C18.3917 45.8758 19.7197 44.6838 19.7197 42.2998C19.7197 41.0038 19.1837 40.0198 18.1117 39.3478C17.0557 38.6758 15.3277 38.2838 12.9277 38.1718C12.8157 38.0278 12.7437 37.9078 12.7117 37.8118C12.6797 37.7158 12.6717 37.6118 12.6877 37.4998C12.7997 36.8918 12.9677 36.2678 13.1917 35.6278C13.4157 34.9878 13.7357 34.1478 14.1517 33.1078L14.7517 31.4998C15.6157 31.3558 16.6077 31.2838 17.7277 31.2838C18.6877 31.2838 19.5837 31.3398 20.4157 31.4518C21.2637 31.5638 21.9037 31.7158 22.3357 31.9078C22.2397 32.2918 22.0477 32.6278 21.7597 32.9158C20.4477 32.7398 19.2397 32.6518 18.1357 32.6518C17.2237 32.6518 16.4157 32.6918 15.7117 32.7718C15.1197 34.0838 14.7117 35.4278 14.4877 36.8038C16.1997 37.1078 17.4797 37.4038 18.3277 37.6918C19.1757 37.9638 19.8717 38.4598 20.4157 39.1798C20.9597 39.8838 21.2477 40.9318 21.2797 42.3238C21.3117 43.7478 20.9037 44.8918 20.0557 45.7558C19.2237 46.6038 18.0077 47.0758 16.4077 47.1718Z" fill="black"/>
<path d="M17.4761 53.8171C17.6792 54.6608 17.9917 55.4147 18.4136 56.0788C18.8354 56.7429 19.5854 57.5671 20.6636 58.5515C21.7495 59.528 22.437 60.2819 22.7261 60.8132C23.0151 61.3366 23.1597 61.8679 23.1597 62.4069C23.1597 63.1491 22.9097 63.7702 22.4097 64.2702C21.9097 64.7702 21.3081 65.0202 20.605 65.0202C19.9644 65.0202 19.3628 64.7975 18.8003 64.3522C18.3784 64.0241 17.9839 63.5046 17.6167 62.7936C17.6245 63.9421 17.7729 64.8561 18.062 65.5358C18.3589 66.2077 18.8276 66.739 19.4683 67.1296C20.1089 67.5124 20.9644 67.739 22.0347 67.8093L22.1167 68.2429H12.8354L12.9175 67.8093C14.355 67.8093 15.4683 67.3913 16.2573 66.5554C17.0542 65.7116 17.437 64.4577 17.4058 62.7936C17.0542 63.5358 16.6167 64.0944 16.0933 64.4694C15.5776 64.8366 14.9956 65.0202 14.3472 65.0202C13.644 65.0202 13.0386 64.7663 12.5308 64.2585C12.0229 63.7507 11.769 63.1491 11.769 62.4538C11.769 61.8757 11.894 61.3561 12.144 60.8952C12.4956 60.2468 13.0659 59.5983 13.855 58.9499C14.6519 58.3015 15.2378 57.7663 15.6128 57.3444C16.1909 56.696 16.6089 56.1179 16.8667 55.61C17.1323 55.1022 17.3354 54.5046 17.4761 53.8171Z" fill="black"/>
<path d="M157.166 201.132C156.963 200.288 156.65 199.534 156.229 198.87C155.807 198.206 155.057 197.382 153.979 196.397C152.893 195.421 152.205 194.667 151.916 194.136C151.627 193.612 151.482 193.081 151.482 192.542C151.482 191.8 151.732 191.179 152.232 190.679C152.732 190.179 153.334 189.929 154.037 189.929C154.678 189.929 155.279 190.151 155.842 190.597C156.264 190.925 156.658 191.444 157.025 192.155C157.018 191.007 156.869 190.093 156.58 189.413C156.283 188.741 155.814 188.21 155.174 187.819C154.533 187.437 153.678 187.21 152.607 187.14L152.525 186.706H161.807L161.725 187.14C160.287 187.14 159.174 187.558 158.385 188.394C157.588 189.237 157.205 190.491 157.236 192.155C157.588 191.413 158.025 190.855 158.549 190.48C159.064 190.112 159.646 189.929 160.295 189.929C160.998 189.929 161.604 190.183 162.111 190.69C162.619 191.198 162.873 191.8 162.873 192.495C162.873 193.073 162.748 193.593 162.498 194.054C162.146 194.702 161.576 195.351 160.787 195.999C159.99 196.647 159.404 197.183 159.029 197.605C158.451 198.253 158.033 198.831 157.775 199.339C157.51 199.847 157.307 200.444 157.166 201.132Z" fill="black"/>
<path d="M85.6797 90.7326C86.4922 94.1076 87.7422 97.1232 89.4297 99.7795C91.1172 102.436 94.1172 105.733 98.4297 109.67C102.773 113.576 105.523 116.592 106.68 118.717C107.836 120.811 108.414 122.936 108.414 125.092C108.414 128.061 107.414 130.545 105.414 132.545C103.414 134.545 101.008 135.545 98.1953 135.545C95.6328 135.545 93.2266 134.654 90.9766 132.873C89.2891 131.561 87.7109 129.483 86.2422 126.639C86.2734 131.233 86.8672 134.889 88.0234 137.608C89.2109 140.295 91.0859 142.42 93.6484 143.983C96.2109 145.514 99.6328 146.42 103.914 146.701L104.242 148.436H67.1172L67.4453 146.701C73.1953 146.701 77.6484 145.029 80.8047 141.686C83.9922 138.311 85.5234 133.295 85.3984 126.639C83.9922 129.608 82.2422 131.842 80.1484 133.342C78.0859 134.811 75.7578 135.545 73.1641 135.545C70.3516 135.545 67.9297 134.529 65.8984 132.498C63.8672 130.467 62.8516 128.061 62.8516 125.279C62.8516 122.967 63.3516 120.889 64.3516 119.045C65.7578 116.451 68.0391 113.858 71.1953 111.264C74.3828 108.67 76.7266 106.529 78.2266 104.842C80.5391 102.248 82.2109 99.9357 83.2422 97.9045C84.3047 95.8732 85.1172 93.4826 85.6797 90.7326Z" fill="black"/>
<path d="M54.6797 39.7326C55.4922 43.1076 56.7422 46.1232 58.4297 48.7795C60.1172 51.4357 63.1172 54.7326 67.4297 58.6701C71.7734 62.5764 74.5234 65.592 75.6797 67.717C76.8359 69.8107 77.4141 71.9357 77.4141 74.092C77.4141 77.0607 76.4141 79.5451 74.4141 81.5451C72.4141 83.5451 70.0078 84.5451 67.1953 84.5451C64.6328 84.5451 62.2266 83.6545 59.9766 81.8732C58.2891 80.5607 56.7109 78.4826 55.2422 75.6389C55.2734 80.2326 55.8672 83.8889 57.0234 86.6076C58.2109 89.2951 60.0859 91.4201 62.6484 92.9826C65.2109 94.5139 68.6328 95.4201 72.9141 95.7014L73.2422 97.4357H36.1172L36.4453 95.7014C42.1953 95.7014 46.6484 94.0295 49.8047 90.6857C52.9922 87.3107 54.5234 82.2951 54.3984 75.6389C52.9922 78.6076 51.2422 80.842 49.1484 82.342C47.0859 83.8107 44.7578 84.5451 42.1641 84.5451C39.3516 84.5451 36.9297 83.5295 34.8984 81.4982C32.8672 79.467 31.8516 77.0607 31.8516 74.2795C31.8516 71.967 32.3516 69.8889 33.3516 68.0451C34.7578 65.4514 37.0391 62.8576 40.1953 60.2639C43.3828 57.6701 45.7266 55.5295 47.2266 53.842C49.5391 51.2482 51.2109 48.9357 52.2422 46.9045C53.3047 44.8732 54.1172 42.4826 54.6797 39.7326Z" fill="black"/>
<path d="M115.68 39.7326C116.492 43.1076 117.742 46.1232 119.43 48.7795C121.117 51.4357 124.117 54.7326 128.43 58.6701C132.773 62.5764 135.523 65.592 136.68 67.717C137.836 69.8107 138.414 71.9357 138.414 74.092C138.414 77.0607 137.414 79.5451 135.414 81.5451C133.414 83.5451 131.008 84.5451 128.195 84.5451C125.633 84.5451 123.227 83.6545 120.977 81.8732C119.289 80.5607 117.711 78.4826 116.242 75.6389C116.273 80.2326 116.867 83.8889 118.023 86.6076C119.211 89.2951 121.086 91.4201 123.648 92.9826C126.211 94.5139 129.633 95.4201 133.914 95.7014L134.242 97.4357H97.1172L97.4453 95.7014C103.195 95.7014 107.648 94.0295 110.805 90.6857C113.992 87.3107 115.523 82.2951 115.398 75.6389C113.992 78.6076 112.242 80.842 110.148 82.342C108.086 83.8107 105.758 84.5451 103.164 84.5451C100.352 84.5451 97.9297 83.5295 95.8984 81.4982C93.8672 79.467 92.8516 77.0607 92.8516 74.2795C92.8516 71.967 93.3516 69.8889 94.3516 68.0451C95.7578 65.4514 98.0391 62.8576 101.195 60.2639C104.383 57.6701 106.727 55.5295 108.227 53.842C110.539 51.2482 112.211 48.9357 113.242 46.9045C114.305 44.8732 115.117 42.4826 115.68 39.7326Z" fill="black"/>
<path d="M115.85 210.103C115.038 206.728 113.788 203.712 112.1 201.056C110.413 198.4 107.413 195.103 103.1 191.166C98.7563 187.259 96.0063 184.244 94.8501 182.119C93.6938 180.025 93.1157 177.9 93.1157 175.744C93.1157 172.775 94.1157 170.291 96.1157 168.291C98.1157 166.291 100.522 165.291 103.334 165.291C105.897 165.291 108.303 166.181 110.553 167.962C112.241 169.275 113.819 171.353 115.288 174.197C115.256 169.603 114.663 165.947 113.506 163.228C112.319 160.541 110.444 158.416 107.881 156.853C105.319 155.322 101.897 154.416 97.6157 154.134L97.2876 152.4H134.413L134.084 154.134C128.334 154.134 123.881 155.806 120.725 159.15C117.538 162.525 116.006 167.541 116.131 174.197C117.538 171.228 119.288 168.994 121.381 167.494C123.444 166.025 125.772 165.291 128.366 165.291C131.178 165.291 133.6 166.306 135.631 168.337C137.663 170.369 138.678 172.775 138.678 175.556C138.678 177.869 138.178 179.947 137.178 181.791C135.772 184.384 133.491 186.978 130.334 189.572C127.147 192.166 124.803 194.306 123.303 195.994C120.991 198.587 119.319 200.9 118.288 202.931C117.225 204.962 116.413 207.353 115.85 210.103Z" fill="black"/>
<path d="M53.8501 209.103C53.0376 205.728 51.7876 202.713 50.1001 200.056C48.4126 197.4 45.4126 194.103 41.1001 190.166C36.7563 186.259 34.0063 183.244 32.8501 181.119C31.6938 179.025 31.1157 176.9 31.1157 174.744C31.1157 171.775 32.1157 169.291 34.1157 167.291C36.1157 165.291 38.522 164.291 41.3345 164.291C43.897 164.291 46.3032 165.181 48.5532 166.963C50.2407 168.275 51.8188 170.353 53.2876 173.197C53.2563 168.603 52.6626 164.947 51.5063 162.228C50.3188 159.541 48.4438 157.416 45.8813 155.853C43.3188 154.322 39.897 153.416 35.6157 153.134L35.2876 151.4H72.4126L72.0845 153.134C66.3345 153.134 61.8813 154.806 58.7251 158.15C55.5376 161.525 54.0063 166.541 54.1313 173.197C55.5376 170.228 57.2876 167.994 59.3813 166.494C61.4438 165.025 63.772 164.291 66.3657 164.291C69.1782 164.291 71.6001 165.306 73.6313 167.338C75.6626 169.369 76.6782 171.775 76.6782 174.556C76.6782 176.869 76.1782 178.947 75.1782 180.791C73.772 183.384 71.4907 185.978 68.3345 188.572C65.147 191.166 62.8032 193.306 61.3032 194.994C58.9907 197.588 57.3188 199.9 56.2876 201.931C55.2251 203.963 54.4126 206.353 53.8501 209.103Z" fill="black"/>
<path d="M157.548 203.674C157.74 203.658 158.028 203.65 158.412 203.649C161.628 203.646 163.238 204.788 163.241 207.076C163.273 207.492 163.234 207.852 163.122 208.157C162.995 208.461 162.851 208.613 162.691 208.613C162.531 208.613 162.411 208.445 162.33 208.109C162.234 207.789 162.201 207.286 162.232 206.597C162.232 206.069 161.847 205.662 161.079 205.375C160.294 205.103 159.342 204.968 158.222 204.97C155.566 204.972 154.24 206.166 154.243 208.55C154.244 209.846 154.782 210.829 155.855 211.5C156.911 212.171 158.64 212.561 161.04 212.671C161.152 212.815 161.224 212.935 161.257 213.03C161.289 213.126 161.297 213.23 161.281 213.342C161.17 213.951 161.002 214.575 160.779 215.215C160.556 215.855 160.237 216.696 159.823 217.736L159.225 219.345C158.361 219.49 157.369 219.563 156.249 219.564C155.289 219.565 154.393 219.51 153.561 219.398C152.713 219.287 152.072 219.136 151.64 218.944C151.736 218.56 151.927 218.224 152.215 217.936C153.527 218.111 154.735 218.197 155.839 218.196C156.751 218.195 157.559 218.154 158.263 218.074C158.853 216.761 159.26 215.417 159.482 214.04C157.769 213.738 156.489 213.443 155.641 213.156C154.792 212.885 154.096 212.39 153.551 211.67C153.006 210.967 152.717 209.919 152.683 208.527C152.649 207.103 153.055 205.959 153.902 205.094C154.733 204.245 155.949 203.772 157.548 203.674Z" fill="black"/>
</svg>
