<svg width="177" height="217" viewBox="0 0 177 217" fill="none" xmlns="http://www.w3.org/2000/svg">
<path d="M171.239 0.691772C171.239 0.691772 120.47 1.92483 88.6528 1.92483C56.8354 1.92483 6.06656 0.691772 6.06656 0.691772C3.11084 0.691772 0.850586 2.6955 0.850586 5.31575V210.158C0.850586 212.778 3.28471 214.936 6.06656 214.936C6.06656 214.936 56.8354 216.477 88.6528 216.477C120.47 216.477 171.239 214.936 171.239 214.936C174.195 214.782 176.455 212.624 176.455 210.158V5.31575C176.455 2.6955 174.195 0.691772 171.239 0.691772Z" fill="white"/>
<path d="M14.6701 28.6855C13.1821 28.6855 12.0541 28.2615 11.2861 27.4135C10.5341 26.5655 10.1581 25.3815 10.1581 23.8615C10.1581 22.5655 10.4141 21.2055 10.9261 19.7815C11.4541 18.3415 12.1981 17.1175 13.1581 16.1095C14.1341 15.1015 15.2621 14.5495 16.5421 14.4535L17.0461 14.4295C17.8141 14.4295 18.4621 14.5495 18.9901 14.7895C19.5181 15.0135 19.7821 15.3095 19.7821 15.6775C19.7821 15.8695 19.7421 16.0055 19.6621 16.0855C19.5981 16.1495 19.4861 16.1815 19.3261 16.1815C19.1821 16.1815 18.9501 16.1415 18.6301 16.0615C17.9101 15.9015 17.3581 15.8215 16.9741 15.8215C16.7501 15.8215 16.5821 15.8295 16.4701 15.8455C15.7181 15.9415 14.9981 16.3015 14.3101 16.9255C13.6221 17.5495 13.0621 18.2855 12.6301 19.1335C12.2141 19.9655 12.0061 20.7175 12.0061 21.3895C12.9661 20.8135 13.9821 20.5255 15.0541 20.5255C15.8861 20.5255 16.6461 20.7095 17.3341 21.0775C18.0381 21.4295 18.5901 21.9415 18.9901 22.6135C19.4061 23.2695 19.6141 24.0295 19.6141 24.8935C19.6141 26.2215 19.1261 27.1895 18.1501 27.7975C17.1901 28.3895 16.0301 28.6855 14.6701 28.6855ZM14.5261 27.4375C15.1341 27.4855 15.7181 27.4135 16.2781 27.2215C16.8541 27.0295 17.3261 26.7175 17.6941 26.2855C18.0621 25.8375 18.2461 25.2775 18.2461 24.6055C18.2461 24.0295 18.0621 23.5335 17.6941 23.1175C17.3421 22.6855 16.8781 22.3575 16.3021 22.1335C15.7421 21.9095 15.1501 21.7975 14.5261 21.7975C13.6461 21.7975 12.9021 22.0215 12.2941 22.4695C11.7021 22.9015 11.4061 23.5335 11.4061 24.3655C11.4061 26.2535 12.4461 27.2775 14.5261 27.4375Z" fill="black"/>
<path d="M17.8745 35.9548C18.0776 36.7985 18.3901 37.5524 18.812 38.2165C19.2339 38.8806 19.9839 39.7048 21.062 40.6891C22.1479 41.6657 22.8354 42.4196 23.1245 42.9509C23.4136 43.4743 23.5581 44.0056 23.5581 44.5446C23.5581 45.2868 23.3081 45.9079 22.8081 46.4079C22.3081 46.9079 21.7065 47.1579 21.0034 47.1579C20.3628 47.1579 19.7612 46.9352 19.1987 46.4899C18.7769 46.1618 18.3823 45.6423 18.0151 44.9313C18.0229 46.0798 18.1714 46.9938 18.4604 47.6735C18.7573 48.3454 19.2261 48.8766 19.8667 49.2673C20.5073 49.6501 21.3628 49.8766 22.4331 49.947L22.5151 50.3806H13.2339L13.3159 49.947C14.7534 49.947 15.8667 49.529 16.6558 48.6931C17.4526 47.8493 17.8354 46.5954 17.8042 44.9313C17.4526 45.6735 17.0151 46.2321 16.4917 46.6071C15.9761 46.9743 15.394 47.1579 14.7456 47.1579C14.0425 47.1579 13.437 46.904 12.9292 46.3962C12.4214 45.8884 12.1675 45.2868 12.1675 44.5915C12.1675 44.0134 12.2925 43.4938 12.5425 43.0329C12.894 42.3845 13.4644 41.736 14.2534 41.0876C15.0503 40.4391 15.6362 39.904 16.0112 39.4821C16.5894 38.8337 17.0073 38.2556 17.2651 37.7477C17.5308 37.2399 17.7339 36.6423 17.8745 35.9548Z" fill="black"/>
<path d="M158.564 184.27C158.361 183.426 158.049 182.672 157.627 182.008C157.205 181.344 156.455 180.52 155.377 179.535C154.291 178.559 153.604 177.805 153.314 177.273C153.025 176.75 152.881 176.219 152.881 175.68C152.881 174.938 153.131 174.316 153.631 173.816C154.131 173.316 154.732 173.066 155.436 173.066C156.076 173.066 156.678 173.289 157.24 173.734C157.662 174.063 158.057 174.582 158.424 175.293C158.416 174.145 158.268 173.23 157.979 172.551C157.682 171.879 157.213 171.348 156.572 170.957C155.932 170.574 155.076 170.348 154.006 170.277L153.924 169.844H163.205L163.123 170.277C161.686 170.277 160.572 170.695 159.783 171.531C158.986 172.375 158.604 173.629 158.635 175.293C158.986 174.551 159.424 173.992 159.947 173.617C160.463 173.25 161.045 173.066 161.693 173.066C162.396 173.066 163.002 173.32 163.51 173.828C164.018 174.336 164.271 174.938 164.271 175.633C164.271 176.211 164.146 176.73 163.896 177.191C163.545 177.84 162.975 178.488 162.186 179.137C161.389 179.785 160.803 180.32 160.428 180.742C159.85 181.391 159.432 181.969 159.174 182.477C158.908 182.984 158.705 183.582 158.564 184.27Z" fill="black"/>
<path d="M61.5625 31.1047C62.1042 33.3547 62.9375 35.3651 64.0625 37.1359C65.1875 38.9067 67.1875 41.1047 70.0625 43.7297C72.9583 46.3338 74.7917 48.3442 75.5625 49.7609C76.3333 51.1567 76.7188 52.5734 76.7188 54.0109C76.7188 55.9901 76.0521 57.6463 74.7188 58.9797C73.3854 60.313 71.7812 60.9797 69.9062 60.9797C68.1979 60.9797 66.5938 60.3859 65.0938 59.1984C63.9688 58.3234 62.9167 56.938 61.9375 55.0422C61.9583 58.1047 62.3542 60.5422 63.125 62.3547C63.9167 64.1463 65.1667 65.563 66.875 66.6047C68.5833 67.6255 70.8646 68.2297 73.7188 68.4172L73.9375 69.5734H49.1875L49.4062 68.4172C53.2396 68.4172 56.2083 67.3026 58.3125 65.0734C60.4375 62.8234 61.4583 59.4797 61.375 55.0422C60.4375 57.0213 59.2708 58.5109 57.875 59.5109C56.5 60.4901 54.9479 60.9797 53.2188 60.9797C51.3438 60.9797 49.7292 60.3026 48.375 58.9484C47.0208 57.5942 46.3438 55.9901 46.3438 54.1359C46.3438 52.5942 46.6771 51.2088 47.3438 49.9797C48.2812 48.2505 49.8021 46.5213 51.9062 44.7922C54.0312 43.063 55.5938 41.6359 56.5938 40.5109C58.1354 38.7817 59.25 37.2401 59.9375 35.8859C60.6458 34.5317 61.1875 32.938 61.5625 31.1047Z" fill="black"/>
<path d="M118.562 31.1047C119.104 33.3547 119.938 35.3651 121.062 37.1359C122.188 38.9067 124.188 41.1047 127.062 43.7297C129.958 46.3338 131.792 48.3442 132.562 49.7609C133.333 51.1567 133.719 52.5734 133.719 54.0109C133.719 55.9901 133.052 57.6463 131.719 58.9797C130.385 60.313 128.781 60.9797 126.906 60.9797C125.198 60.9797 123.594 60.3859 122.094 59.1984C120.969 58.3234 119.917 56.938 118.938 55.0422C118.958 58.1047 119.354 60.5422 120.125 62.3547C120.917 64.1463 122.167 65.563 123.875 66.6047C125.583 67.6255 127.865 68.2297 130.719 68.4172L130.938 69.5734H106.188L106.406 68.4172C110.24 68.4172 113.208 67.3026 115.312 65.0734C117.438 62.8234 118.458 59.4797 118.375 55.0422C117.438 57.0213 116.271 58.5109 114.875 59.5109C113.5 60.4901 111.948 60.9797 110.219 60.9797C108.344 60.9797 106.729 60.3026 105.375 58.9484C104.021 57.5942 103.344 55.9901 103.344 54.1359C103.344 52.5942 103.677 51.2088 104.344 49.9797C105.281 48.2505 106.802 46.5213 108.906 44.7922C111.031 43.063 112.594 41.6359 113.594 40.5109C115.135 38.7817 116.25 37.2401 116.938 35.8859C117.646 34.5317 118.188 32.938 118.562 31.1047Z" fill="black"/>
<path d="M61.5625 88.1047C62.1042 90.3547 62.9375 92.3651 64.0625 94.1359C65.1875 95.9067 67.1875 98.1047 70.0625 100.73C72.9583 103.334 74.7917 105.344 75.5625 106.761C76.3333 108.157 76.7188 109.573 76.7188 111.011C76.7188 112.99 76.0521 114.646 74.7188 115.98C73.3854 117.313 71.7812 117.98 69.9062 117.98C68.1979 117.98 66.5938 117.386 65.0938 116.198C63.9688 115.323 62.9167 113.938 61.9375 112.042C61.9583 115.105 62.3542 117.542 63.125 119.355C63.9167 121.146 65.1667 122.563 66.875 123.605C68.5833 124.625 70.8646 125.23 73.7188 125.417L73.9375 126.573H49.1875L49.4062 125.417C53.2396 125.417 56.2083 124.303 58.3125 122.073C60.4375 119.823 61.4583 116.48 61.375 112.042C60.4375 114.021 59.2708 115.511 57.875 116.511C56.5 117.49 54.9479 117.98 53.2188 117.98C51.3438 117.98 49.7292 117.303 48.375 115.948C47.0208 114.594 46.3438 112.99 46.3438 111.136C46.3438 109.594 46.6771 108.209 47.3438 106.98C48.2812 105.25 49.8021 103.521 51.9062 101.792C54.0312 100.063 55.5938 98.6359 56.5938 97.5109C58.1354 95.7817 59.25 94.2401 59.9375 92.8859C60.6458 91.5317 61.1875 89.938 61.5625 88.1047Z" fill="black"/>
<path d="M118.562 88.1047C119.104 90.3547 119.938 92.3651 121.062 94.1359C122.188 95.9067 124.188 98.1047 127.062 100.73C129.958 103.334 131.792 105.344 132.562 106.761C133.333 108.157 133.719 109.573 133.719 111.011C133.719 112.99 133.052 114.646 131.719 115.98C130.385 117.313 128.781 117.98 126.906 117.98C125.198 117.98 123.594 117.386 122.094 116.198C120.969 115.323 119.917 113.938 118.938 112.042C118.958 115.105 119.354 117.542 120.125 119.355C120.917 121.146 122.167 122.563 123.875 123.605C125.583 124.625 127.865 125.23 130.719 125.417L130.938 126.573H106.188L106.406 125.417C110.24 125.417 113.208 124.303 115.312 122.073C117.438 119.823 118.458 116.48 118.375 112.042C117.438 114.021 116.271 115.511 114.875 116.511C113.5 117.49 111.948 117.98 110.219 117.98C108.344 117.98 106.729 117.303 105.375 115.948C104.021 114.594 103.344 112.99 103.344 111.136C103.344 109.594 103.677 108.209 104.344 106.98C105.281 105.25 106.802 103.521 108.906 101.792C111.031 100.063 112.594 98.6359 113.594 97.5109C115.135 95.7817 116.25 94.2401 116.938 92.8859C117.646 91.5317 118.188 89.938 118.562 88.1047Z" fill="black"/>
<path d="M63.7642 185.006C63.2225 182.756 62.3892 180.746 61.2642 178.975C60.1392 177.204 58.1392 175.006 55.2642 172.381C52.3683 169.777 50.535 167.767 49.7642 166.35C48.9933 164.954 48.6079 163.538 48.6079 162.1C48.6079 160.121 49.2746 158.465 50.6079 157.131C51.9412 155.798 53.5454 155.131 55.4204 155.131C57.1287 155.131 58.7329 155.725 60.2329 156.913C61.3579 157.788 62.41 159.173 63.3892 161.069C63.3683 158.006 62.9725 155.569 62.2017 153.756C61.41 151.965 60.16 150.548 58.4517 149.506C56.7433 148.486 54.4621 147.881 51.6079 147.694L51.3892 146.538H76.1392L75.9204 147.694C72.0871 147.694 69.1183 148.809 67.0142 151.038C64.8892 153.288 63.8683 156.631 63.9517 161.069C64.8892 159.09 66.0558 157.6 67.4517 156.6C68.8267 155.621 70.3787 155.131 72.1079 155.131C73.9829 155.131 75.5975 155.809 76.9517 157.163C78.3058 158.517 78.9829 160.121 78.9829 161.975C78.9829 163.517 78.6496 164.902 77.9829 166.131C77.0454 167.861 75.5246 169.59 73.4204 171.319C71.2954 173.048 69.7329 174.475 68.7329 175.6C67.1912 177.329 66.0767 178.871 65.3892 180.225C64.6808 181.579 64.1392 183.173 63.7642 185.006Z" fill="black"/>
<path d="M117.764 185.006C117.222 182.756 116.389 180.746 115.264 178.975C114.139 177.204 112.139 175.006 109.264 172.381C106.368 169.777 104.535 167.767 103.764 166.35C102.993 164.954 102.608 163.538 102.608 162.1C102.608 160.121 103.275 158.465 104.608 157.131C105.941 155.798 107.545 155.131 109.42 155.131C111.129 155.131 112.733 155.725 114.233 156.913C115.358 157.788 116.41 159.173 117.389 161.069C117.368 158.006 116.972 155.569 116.202 153.756C115.41 151.965 114.16 150.548 112.452 149.506C110.743 148.486 108.462 147.881 105.608 147.694L105.389 146.538H130.139L129.92 147.694C126.087 147.694 123.118 148.809 121.014 151.038C118.889 153.288 117.868 156.631 117.952 161.069C118.889 159.09 120.056 157.6 121.452 156.6C122.827 155.621 124.379 155.131 126.108 155.131C127.983 155.131 129.597 155.809 130.952 157.163C132.306 158.517 132.983 160.121 132.983 161.975C132.983 163.517 132.65 164.902 131.983 166.131C131.045 167.861 129.525 169.59 127.42 171.319C125.295 173.048 123.733 174.475 122.733 175.6C121.191 177.329 120.077 178.871 119.389 180.225C118.681 181.579 118.139 183.173 117.764 185.006Z" fill="black"/>
<path d="M160.084 186.434C161.572 186.432 162.7 186.855 163.469 187.702C164.222 188.55 164.6 189.733 164.602 191.253C164.604 192.549 164.349 193.909 163.839 195.334C163.313 196.774 162.571 197.999 161.612 199.008C160.637 200.017 159.51 200.57 158.23 200.668L157.726 200.692C156.958 200.693 156.31 200.574 155.782 200.334C155.253 200.111 154.989 199.815 154.988 199.447C154.988 199.255 155.028 199.119 155.108 199.039C155.172 198.975 155.284 198.943 155.444 198.943C155.588 198.942 155.82 198.982 156.14 199.062C156.86 199.221 157.412 199.301 157.796 199.3C158.02 199.3 158.188 199.292 158.3 199.276C159.052 199.179 159.772 198.818 160.459 198.193C161.146 197.569 161.705 196.832 162.136 195.984C162.551 195.151 162.758 194.399 162.757 193.727C161.798 194.304 160.782 194.593 159.71 194.594C158.878 194.595 158.118 194.412 157.429 194.045C156.725 193.693 156.172 193.182 155.772 192.51C155.355 191.855 155.146 191.095 155.145 190.231C155.143 188.903 155.63 187.934 156.605 187.325C157.564 186.732 158.724 186.435 160.084 186.434ZM160.229 187.682C159.621 187.634 159.037 187.707 158.478 187.899C157.902 188.092 157.43 188.405 157.063 188.837C156.695 189.285 156.512 189.846 156.513 190.518C156.514 191.094 156.698 191.589 157.067 192.005C157.419 192.437 157.884 192.764 158.46 192.988C159.02 193.211 159.613 193.322 160.237 193.322C161.117 193.321 161.86 193.096 162.468 192.647C163.059 192.215 163.354 191.582 163.353 190.75C163.351 188.862 162.31 187.84 160.229 187.682Z" fill="black"/>
</svg>
