<svg width="183" height="218" viewBox="0 0 183 218" fill="none" xmlns="http://www.w3.org/2000/svg">
<path d="M170.932 1.53571C170.932 1.53571 120.163 2.76876 88.3456 2.76876C56.5282 2.76876 5.75943 1.53571 5.75943 1.53571C2.80371 1.53571 0.543457 3.53943 0.543457 6.15969V211.002C0.543457 213.622 2.97758 215.78 5.75943 215.78C5.75943 215.78 56.5282 217.321 88.3456 217.321C120.163 217.321 170.932 215.78 170.932 215.78C173.888 215.626 176.148 213.468 176.148 211.002V6.15969C176.148 3.53943 173.888 1.53571 170.932 1.53571Z" fill="white"/>
<path d="M18.875 23.5775C18.955 23.6735 18.995 23.7855 18.995 23.9135C18.995 24.0735 18.931 24.2175 18.803 24.3455C18.691 24.4575 18.563 24.5135 18.419 24.5135C17.747 24.3055 16.987 24.1535 16.139 24.0575C15.915 25.4815 15.547 27.2015 15.035 29.2175C14.939 29.5375 14.707 29.6975 14.339 29.6975C14.163 29.6975 14.027 29.6415 13.931 29.5295C13.851 29.4015 13.771 29.2255 13.691 29.0015C14.187 27.0495 14.555 25.3695 14.795 23.9615C14.539 23.9455 14.131 23.9375 13.571 23.9375C13.155 23.9375 12.419 23.9535 11.363 23.9855C11.299 23.7935 11.267 23.6415 11.267 23.5295C11.267 23.3695 11.299 23.2335 11.363 23.1215C11.427 22.9935 11.515 22.9215 11.627 22.9055C12.059 22.8255 12.795 22.7855 13.835 22.7855C14.331 22.7855 14.707 22.7935 14.963 22.8095C15.203 21.1135 15.299 19.5695 15.251 18.1775C15.011 18.1615 14.547 18.1695 13.859 18.2015C13.251 18.2335 12.771 18.2495 12.419 18.2495C11.699 18.2495 11.123 18.1935 10.691 18.0815C10.275 17.9535 10.067 17.7375 10.067 17.4335C10.067 17.2415 10.131 17.0495 10.259 16.8575C11.923 17.0335 13.539 17.1215 15.107 17.1215C15.811 17.1215 16.307 17.1055 16.595 17.0735C16.595 19.3295 16.499 21.2655 16.307 22.8815C17.763 22.9935 18.619 23.2255 18.875 23.5775Z" fill="black"/>
<path d="M17.5674 36.7987C17.7705 37.6425 18.083 38.3964 18.5049 39.0604C18.9268 39.7245 19.6768 40.5487 20.7549 41.5331C21.8408 42.5096 22.5283 43.2635 22.8174 43.7948C23.1064 44.3182 23.251 44.8495 23.251 45.3885C23.251 46.1307 23.001 46.7518 22.501 47.2518C22.001 47.7518 21.3994 48.0018 20.6963 48.0018C20.0557 48.0018 19.4541 47.7792 18.8916 47.3339C18.4697 47.0057 18.0752 46.4862 17.708 45.7753C17.7158 46.9237 17.8643 47.8378 18.1533 48.5175C18.4502 49.1893 18.9189 49.7206 19.5596 50.1112C20.2002 50.494 21.0557 50.7206 22.126 50.7909L22.208 51.2245H12.9268L13.0088 50.7909C14.4463 50.7909 15.5596 50.3729 16.3486 49.537C17.1455 48.6932 17.5283 47.4393 17.4971 45.7753C17.1455 46.5175 16.708 47.076 16.1846 47.451C15.6689 47.8182 15.0869 48.0018 14.4385 48.0018C13.7354 48.0018 13.1299 47.7479 12.6221 47.2401C12.1143 46.7323 11.8604 46.1307 11.8604 45.4354C11.8604 44.8573 11.9854 44.3378 12.2354 43.8768C12.5869 43.2284 13.1572 42.58 13.9463 41.9315C14.7432 41.2831 15.3291 40.7479 15.7041 40.326C16.2822 39.6776 16.7002 39.0995 16.958 38.5917C17.2236 38.0839 17.4268 37.4862 17.5674 36.7987Z" fill="black"/>
<path d="M154.625 166.27C154.828 167.114 155.14 167.868 155.562 168.532C155.984 169.196 156.734 170.02 157.812 171.004C158.898 171.981 159.585 172.735 159.875 173.266C160.164 173.79 160.308 174.321 160.308 174.86C160.308 175.602 160.058 176.223 159.558 176.723C159.058 177.223 158.457 177.473 157.753 177.473C157.113 177.473 156.511 177.251 155.949 176.805C155.527 176.477 155.132 175.958 154.765 175.247C154.773 176.395 154.921 177.309 155.21 177.989C155.507 178.661 155.976 179.192 156.617 179.583C157.257 179.965 158.113 180.192 159.183 180.262L159.265 180.696H149.984L150.066 180.262C151.503 180.262 152.617 179.844 153.406 179.008C154.203 178.165 154.585 176.911 154.554 175.247C154.203 175.989 153.765 176.547 153.242 176.922C152.726 177.29 152.144 177.473 151.496 177.473C150.792 177.473 150.187 177.219 149.679 176.712C149.171 176.204 148.917 175.602 148.917 174.907C148.917 174.329 149.042 173.809 149.292 173.348C149.644 172.7 150.214 172.051 151.003 171.403C151.8 170.754 152.386 170.219 152.761 169.797C153.339 169.149 153.757 168.571 154.015 168.063C154.281 167.555 154.484 166.958 154.625 166.27Z" fill="black"/>
<path d="M155.272 193.234C155.192 193.139 155.152 193.027 155.152 192.899C155.151 192.739 155.215 192.594 155.343 192.466C155.455 192.354 155.583 192.298 155.727 192.298C156.399 192.505 157.159 192.656 158.007 192.752C158.23 191.327 158.595 189.607 159.105 187.59C159.2 187.27 159.432 187.11 159.8 187.11C159.976 187.11 160.112 187.165 160.208 187.277C160.289 187.405 160.369 187.581 160.449 187.805C159.956 189.758 159.59 191.438 159.352 192.846C159.608 192.862 160.016 192.87 160.576 192.869C160.992 192.868 161.728 192.852 162.783 192.819C162.848 193.011 162.88 193.163 162.88 193.275C162.88 193.435 162.848 193.571 162.785 193.683C162.721 193.811 162.633 193.883 162.521 193.899C162.089 193.979 161.353 194.02 160.313 194.021C159.817 194.022 159.441 194.014 159.185 193.998C158.947 195.695 158.853 197.239 158.903 198.631C159.143 198.646 159.607 198.638 160.295 198.605C160.903 198.573 161.383 198.556 161.735 198.556C162.455 198.555 163.031 198.61 163.463 198.722C163.879 198.849 164.087 199.065 164.088 199.369C164.088 199.561 164.024 199.753 163.897 199.945C162.232 199.771 160.616 199.685 159.048 199.687C158.344 199.687 157.848 199.704 157.56 199.736C157.557 197.48 157.651 195.544 157.841 193.928C156.385 193.817 155.528 193.586 155.272 193.234Z" fill="black"/>
<path d="M56.5625 27.1047C57.1042 29.3547 57.9375 31.3651 59.0625 33.1359C60.1875 34.9068 62.1875 37.1047 65.0625 39.7297C67.9583 42.3338 69.7917 44.3443 70.5625 45.7609C71.3333 47.1568 71.7188 48.5734 71.7188 50.0109C71.7188 51.9901 71.0521 53.6463 69.7188 54.9797C68.3854 56.313 66.7812 56.9797 64.9062 56.9797C63.1979 56.9797 61.5938 56.3859 60.0938 55.1984C58.9688 54.3234 57.9167 52.938 56.9375 51.0422C56.9583 54.1047 57.3542 56.5422 58.125 58.3547C58.9167 60.1463 60.1667 61.563 61.875 62.6047C63.5833 63.6255 65.8646 64.2297 68.7188 64.4172L68.9375 65.5734H44.1875L44.4062 64.4172C48.2396 64.4172 51.2083 63.3026 53.3125 61.0734C55.4375 58.8234 56.4583 55.4797 56.375 51.0422C55.4375 53.0213 54.2708 54.5109 52.875 55.5109C51.5 56.4901 49.9479 56.9797 48.2188 56.9797C46.3438 56.9797 44.7292 56.3026 43.375 54.9484C42.0208 53.5943 41.3438 51.9901 41.3438 50.1359C41.3438 48.5943 41.6771 47.2088 42.3438 45.9797C43.2812 44.2505 44.8021 42.5213 46.9062 40.7922C49.0312 39.063 50.5938 37.6359 51.5938 36.5109C53.1354 34.7818 54.25 33.2401 54.9375 31.8859C55.6458 30.5318 56.1875 28.938 56.5625 27.1047Z" fill="black"/>
<path d="M94.5625 50.1047C95.1042 52.3547 95.9375 54.3651 97.0625 56.1359C98.1875 57.9068 100.188 60.1047 103.062 62.7297C105.958 65.3338 107.792 67.3443 108.562 68.7609C109.333 70.1568 109.719 71.5734 109.719 73.0109C109.719 74.9901 109.052 76.6463 107.719 77.9797C106.385 79.313 104.781 79.9797 102.906 79.9797C101.198 79.9797 99.5938 79.3859 98.0938 78.1984C96.9688 77.3234 95.9167 75.938 94.9375 74.0422C94.9583 77.1047 95.3542 79.5422 96.125 81.3547C96.9167 83.1463 98.1667 84.563 99.875 85.6047C101.583 86.6255 103.865 87.2297 106.719 87.4172L106.938 88.5734H82.1875L82.4062 87.4172C86.2396 87.4172 89.2083 86.3026 91.3125 84.0734C93.4375 81.8234 94.4583 78.4797 94.375 74.0422C93.4375 76.0213 92.2708 77.5109 90.875 78.5109C89.5 79.4901 87.9479 79.9797 86.2188 79.9797C84.3438 79.9797 82.7292 79.3026 81.375 77.9484C80.0208 76.5943 79.3438 74.9901 79.3438 73.1359C79.3438 71.5943 79.6771 70.2088 80.3438 68.9797C81.2812 67.2505 82.8021 65.5213 84.9062 63.7922C87.0312 62.063 88.5938 60.6359 89.5938 59.5109C91.1354 57.7818 92.25 56.2401 92.9375 54.8859C93.6458 53.5318 94.1875 51.938 94.5625 50.1047Z" fill="black"/>
<path d="M56.7642 173.006C56.2225 170.756 55.3892 168.746 54.2642 166.975C53.1392 165.204 51.1392 163.006 48.2642 160.381C45.3683 157.777 43.535 155.767 42.7642 154.35C41.9933 152.954 41.6079 151.538 41.6079 150.1C41.6079 148.121 42.2746 146.465 43.6079 145.131C44.9412 143.798 46.5454 143.131 48.4204 143.131C50.1287 143.131 51.7329 143.725 53.2329 144.913C54.3579 145.788 55.41 147.173 56.3892 149.069C56.3683 146.006 55.9725 143.569 55.2017 141.756C54.41 139.965 53.16 138.548 51.4517 137.506C49.7433 136.486 47.4621 135.881 44.6079 135.694L44.3892 134.538H69.1392L68.9204 135.694C65.0871 135.694 62.1183 136.809 60.0142 139.038C57.8892 141.288 56.8683 144.631 56.9517 149.069C57.8892 147.09 59.0558 145.6 60.4517 144.6C61.8267 143.621 63.3787 143.131 65.1079 143.131C66.9829 143.131 68.5975 143.809 69.9517 145.163C71.3058 146.517 71.9829 148.121 71.9829 149.975C71.9829 151.517 71.6496 152.902 70.9829 154.131C70.0454 155.861 68.5246 157.59 66.4204 159.319C64.2954 161.048 62.7329 162.475 61.7329 163.6C60.1912 165.329 59.0767 166.871 58.3892 168.225C57.6808 169.579 57.1392 171.173 56.7642 173.006Z" fill="black"/>
<path d="M130.764 172.006C130.222 169.756 129.389 167.746 128.264 165.975C127.139 164.204 125.139 162.006 122.264 159.381C119.368 156.777 117.535 154.767 116.764 153.35C115.993 151.954 115.608 150.538 115.608 149.1C115.608 147.121 116.275 145.465 117.608 144.131C118.941 142.798 120.545 142.131 122.42 142.131C124.129 142.131 125.733 142.725 127.233 143.913C128.358 144.788 129.41 146.173 130.389 148.069C130.368 145.006 129.972 142.569 129.202 140.756C128.41 138.965 127.16 137.548 125.452 136.506C123.743 135.486 121.462 134.881 118.608 134.694L118.389 133.538H143.139L142.92 134.694C139.087 134.694 136.118 135.809 134.014 138.038C131.889 140.288 130.868 143.631 130.952 148.069C131.889 146.09 133.056 144.6 134.452 143.6C135.827 142.621 137.379 142.131 139.108 142.131C140.983 142.131 142.597 142.809 143.952 144.163C145.306 145.517 145.983 147.121 145.983 148.975C145.983 150.517 145.65 151.902 144.983 153.131C144.045 154.861 142.525 156.59 140.42 158.319C138.295 160.048 136.733 161.475 135.733 162.6C134.191 164.329 133.077 165.871 132.389 167.225C131.681 168.579 131.139 170.173 130.764 172.006Z" fill="black"/>
<path d="M132.562 27.1047C133.104 29.3547 133.938 31.3651 135.062 33.1359C136.188 34.9068 138.188 37.1047 141.062 39.7297C143.958 42.3338 145.792 44.3443 146.562 45.7609C147.333 47.1568 147.719 48.5734 147.719 50.0109C147.719 51.9901 147.052 53.6463 145.719 54.9797C144.385 56.313 142.781 56.9797 140.906 56.9797C139.198 56.9797 137.594 56.3859 136.094 55.1984C134.969 54.3234 133.917 52.938 132.938 51.0422C132.958 54.1047 133.354 56.5422 134.125 58.3547C134.917 60.1463 136.167 61.563 137.875 62.6047C139.583 63.6255 141.865 64.2297 144.719 64.4172L144.938 65.5734H120.188L120.406 64.4172C124.24 64.4172 127.208 63.3026 129.312 61.0734C131.438 58.8234 132.458 55.4797 132.375 51.0422C131.438 53.0213 130.271 54.5109 128.875 55.5109C127.5 56.4901 125.948 56.9797 124.219 56.9797C122.344 56.9797 120.729 56.3026 119.375 54.9484C118.021 53.5943 117.344 51.9901 117.344 50.1359C117.344 48.5943 117.677 47.2088 118.344 45.9797C119.281 44.2505 120.802 42.5213 122.906 40.7922C125.031 39.063 126.594 37.6359 127.594 36.5109C129.135 34.7818 130.25 33.2401 130.938 31.8859C131.646 30.5318 132.188 28.938 132.562 27.1047Z" fill="black"/>
<path d="M56.5625 78.1047C57.1042 80.3547 57.9375 82.3651 59.0625 84.1359C60.1875 85.9068 62.1875 88.1047 65.0625 90.7297C67.9583 93.3338 69.7917 95.3443 70.5625 96.7609C71.3333 98.1568 71.7188 99.5734 71.7188 101.011C71.7188 102.99 71.0521 104.646 69.7188 105.98C68.3854 107.313 66.7812 107.98 64.9062 107.98C63.1979 107.98 61.5938 107.386 60.0938 106.198C58.9688 105.323 57.9167 103.938 56.9375 102.042C56.9583 105.105 57.3542 107.542 58.125 109.355C58.9167 111.146 60.1667 112.563 61.875 113.605C63.5833 114.626 65.8646 115.23 68.7188 115.417L68.9375 116.573H44.1875L44.4062 115.417C48.2396 115.417 51.2083 114.303 53.3125 112.073C55.4375 109.823 56.4583 106.48 56.375 102.042C55.4375 104.021 54.2708 105.511 52.875 106.511C51.5 107.49 49.9479 107.98 48.2188 107.98C46.3438 107.98 44.7292 107.303 43.375 105.948C42.0208 104.594 41.3438 102.99 41.3438 101.136C41.3438 99.5943 41.6771 98.2088 42.3438 96.9797C43.2812 95.2505 44.8021 93.5213 46.9062 91.7922C49.0312 90.063 50.5938 88.6359 51.5938 87.5109C53.1354 85.7818 54.25 84.2401 54.9375 82.8859C55.6458 81.5318 56.1875 79.938 56.5625 78.1047Z" fill="black"/>
<path d="M132.562 76.1047C133.104 78.3547 133.938 80.3651 135.062 82.1359C136.188 83.9068 138.188 86.1047 141.062 88.7297C143.958 91.3338 145.792 93.3443 146.562 94.7609C147.333 96.1568 147.719 97.5734 147.719 99.0109C147.719 100.99 147.052 102.646 145.719 103.98C144.385 105.313 142.781 105.98 140.906 105.98C139.198 105.98 137.594 105.386 136.094 104.198C134.969 103.323 133.917 101.938 132.938 100.042C132.958 103.105 133.354 105.542 134.125 107.355C134.917 109.146 136.167 110.563 137.875 111.605C139.583 112.626 141.865 113.23 144.719 113.417L144.938 114.573H120.188L120.406 113.417C124.24 113.417 127.208 112.303 129.312 110.073C131.438 107.823 132.458 104.48 132.375 100.042C131.438 102.021 130.271 103.511 128.875 104.511C127.5 105.49 125.948 105.98 124.219 105.98C122.344 105.98 120.729 105.303 119.375 103.948C118.021 102.594 117.344 100.99 117.344 99.1359C117.344 97.5943 117.677 96.2088 118.344 94.9797C119.281 93.2505 120.802 91.5213 122.906 89.7922C125.031 88.063 126.594 86.6359 127.594 85.5109C129.135 83.7818 130.25 82.2401 130.938 80.8859C131.646 79.5318 132.188 77.938 132.562 76.1047Z" fill="black"/>
</svg>
