<svg width="177" height="242" viewBox="0 0 177 242" fill="none" xmlns="http://www.w3.org/2000/svg">
<path d="M171.33 7.34286C171.33 7.34286 120.562 8.57592 88.7443 8.57592C56.9269 8.57592 6.15811 7.34286 6.15811 7.34286C3.20239 7.34286 0.942139 9.34659 0.942139 11.9668V216.809C0.942139 219.429 3.37626 221.587 6.15811 221.587C6.15811 221.587 56.9269 223.129 88.7443 223.129C120.562 223.129 171.33 221.587 171.33 221.587C174.286 221.433 176.546 219.275 176.546 216.809V11.9668C176.546 9.34659 174.286 7.34286 171.33 7.34286Z" fill="white"/>
<path d="M122.562 30.1047C123.104 32.3547 123.938 34.3651 125.062 36.1359C126.188 37.9068 128.188 40.1047 131.062 42.7297C133.958 45.3338 135.792 47.3443 136.562 48.7609C137.333 50.1568 137.719 51.5734 137.719 53.0109C137.719 54.9901 137.052 56.6463 135.719 57.9797C134.385 59.313 132.781 59.9797 130.906 59.9797C129.198 59.9797 127.594 59.3859 126.094 58.1984C124.969 57.3234 123.917 55.938 122.938 54.0422C122.958 57.1047 123.354 59.5422 124.125 61.3547C124.917 63.1463 126.167 64.563 127.875 65.6047C129.583 66.6255 131.865 67.2297 134.719 67.4172L134.938 68.5734H110.188L110.406 67.4172C114.24 67.4172 117.208 66.3026 119.312 64.0734C121.438 61.8234 122.458 58.4797 122.375 54.0422C121.438 56.0213 120.271 57.5109 118.875 58.5109C117.5 59.4901 115.948 59.9797 114.219 59.9797C112.344 59.9797 110.729 59.3026 109.375 57.9484C108.021 56.5943 107.344 54.9901 107.344 53.1359C107.344 51.5943 107.677 50.2088 108.344 48.9797C109.281 47.2505 110.802 45.5213 112.906 43.7922C115.031 42.063 116.594 40.6359 117.594 39.5109C119.135 37.7818 120.25 36.2401 120.938 34.8859C121.646 33.5318 122.188 31.938 122.562 30.1047Z" fill="black"/>
<path d="M121.562 76.1047C122.104 78.3547 122.938 80.3651 124.062 82.1359C125.188 83.9068 127.188 86.1047 130.062 88.7297C132.958 91.3338 134.792 93.3443 135.562 94.7609C136.333 96.1568 136.719 97.5734 136.719 99.0109C136.719 100.99 136.052 102.646 134.719 103.98C133.385 105.313 131.781 105.98 129.906 105.98C128.198 105.98 126.594 105.386 125.094 104.198C123.969 103.323 122.917 101.938 121.938 100.042C121.958 103.105 122.354 105.542 123.125 107.355C123.917 109.146 125.167 110.563 126.875 111.605C128.583 112.626 130.865 113.23 133.719 113.417L133.938 114.573H109.188L109.406 113.417C113.24 113.417 116.208 112.303 118.312 110.073C120.438 107.823 121.458 104.48 121.375 100.042C120.438 102.021 119.271 103.511 117.875 104.511C116.5 105.49 114.948 105.98 113.219 105.98C111.344 105.98 109.729 105.303 108.375 103.948C107.021 102.594 106.344 100.99 106.344 99.1359C106.344 97.5943 106.677 96.2088 107.344 94.9797C108.281 93.2505 109.802 91.5213 111.906 89.7922C114.031 88.063 115.594 86.6359 116.594 85.5109C118.135 83.7818 119.25 82.2401 119.938 80.8859C120.646 79.5318 121.188 77.938 121.562 76.1047Z" fill="black"/>
<path d="M121.764 166.006C121.222 163.756 120.389 161.746 119.264 159.975C118.139 158.204 116.139 156.006 113.264 153.381C110.368 150.777 108.535 148.767 107.764 147.35C106.993 145.954 106.608 144.538 106.608 143.1C106.608 141.121 107.275 139.465 108.608 138.131C109.941 136.798 111.545 136.131 113.42 136.131C115.129 136.131 116.733 136.725 118.233 137.913C119.358 138.788 120.41 140.173 121.389 142.069C121.368 139.006 120.972 136.569 120.202 134.756C119.41 132.965 118.16 131.548 116.452 130.506C114.743 129.486 112.462 128.881 109.608 128.694L109.389 127.538H134.139L133.92 128.694C130.087 128.694 127.118 129.809 125.014 132.038C122.889 134.288 121.868 137.631 121.952 142.069C122.889 140.09 124.056 138.6 125.452 137.6C126.827 136.621 128.379 136.131 130.108 136.131C131.983 136.131 133.597 136.809 134.952 138.163C136.306 139.517 136.983 141.121 136.983 142.975C136.983 144.517 136.65 145.902 135.983 147.131C135.045 148.861 133.525 150.59 131.42 152.319C129.295 154.048 127.733 155.475 126.733 156.6C125.191 158.329 124.077 159.871 123.389 161.225C122.681 162.579 122.139 164.173 121.764 166.006Z" fill="black"/>
<path d="M120.764 215.006C120.222 212.756 119.389 210.746 118.264 208.975C117.139 207.204 115.139 205.006 112.264 202.381C109.368 199.777 107.535 197.767 106.764 196.35C105.993 194.954 105.608 193.538 105.608 192.1C105.608 190.121 106.275 188.465 107.608 187.131C108.941 185.798 110.545 185.131 112.42 185.131C114.129 185.131 115.733 185.725 117.233 186.913C118.358 187.788 119.41 189.173 120.389 191.069C120.368 188.006 119.972 185.569 119.202 183.756C118.41 181.965 117.16 180.548 115.452 179.506C113.743 178.486 111.462 177.881 108.608 177.694L108.389 176.538H133.139L132.92 177.694C129.087 177.694 126.118 178.809 124.014 181.038C121.889 183.288 120.868 186.631 120.952 191.069C121.889 189.09 123.056 187.6 124.452 186.6C125.827 185.621 127.379 185.131 129.108 185.131C130.983 185.131 132.597 185.809 133.952 187.163C135.306 188.517 135.983 190.121 135.983 191.975C135.983 193.517 135.65 194.902 134.983 196.131C134.045 197.861 132.525 199.59 130.42 201.319C128.295 203.048 126.733 204.475 125.733 205.6C124.191 207.329 123.077 208.871 122.389 210.225C121.681 211.579 121.139 213.173 120.764 215.006Z" fill="black"/>
<path d="M15.4337 35.5046C14.6177 35.5046 13.8737 35.3526 13.2017 35.0486C12.5457 34.7286 12.0257 34.2966 11.6417 33.7526C11.2737 33.1926 11.0897 32.5686 11.0897 31.8806C11.0897 30.6326 11.6657 29.4006 12.8177 28.1846C11.9857 27.7366 11.3777 27.3046 10.9937 26.8886C10.6097 26.4566 10.3617 25.9366 10.2497 25.3286C10.2177 25.1046 10.2017 24.9366 10.2017 24.8246C10.2017 24.2486 10.3697 23.7366 10.7057 23.2886C11.0417 22.8406 11.4897 22.4966 12.0497 22.2566C12.6097 22.0006 13.2017 21.8726 13.8257 21.8726C14.7857 21.8726 15.5137 22.0566 16.0097 22.4246C16.5217 22.7766 16.7777 23.2966 16.7777 23.9846C16.7777 24.7366 16.6497 25.3286 16.3937 25.7606C16.1537 26.1926 15.7537 26.6886 15.1937 27.2486C14.7937 27.6486 14.5537 27.8966 14.4737 27.9926C14.7617 28.2486 15.1217 28.5446 15.5537 28.8806C16.2577 29.4566 16.7697 29.9046 17.0897 30.2246C17.4257 30.5446 17.6817 30.9126 17.8577 31.3286C18.0497 31.7286 18.1457 32.2166 18.1457 32.7926C18.1457 33.6406 17.9057 34.3046 17.4257 34.7846C16.9457 35.2646 16.2817 35.5046 15.4337 35.5046ZM13.4897 27.5126C14.1457 27.0166 14.6577 26.4886 15.0257 25.9286C15.3937 25.3526 15.5777 24.8246 15.5777 24.3446C15.5777 23.9286 15.4257 23.5926 15.1217 23.3366C14.8337 23.0806 14.4017 22.9526 13.8257 22.9526C12.9777 22.9526 12.3537 23.1686 11.9537 23.6006C11.5537 24.0166 11.3537 24.5206 11.3537 25.1126C11.3537 25.6086 11.5217 26.0246 11.8577 26.3606C12.2097 26.6966 12.7537 27.0806 13.4897 27.5126ZM15.2897 34.4006C15.7857 34.4006 16.1937 34.2806 16.5137 34.0406C16.8337 33.8006 16.9937 33.4166 16.9937 32.8886C16.9937 32.4246 16.8897 32.0006 16.6817 31.6166C16.4737 31.2326 16.1537 30.8326 15.7217 30.4166C15.3057 30.0006 14.6577 29.4166 13.7777 28.6646C13.2817 29.1286 12.9057 29.6246 12.6497 30.1526C12.4097 30.6806 12.2897 31.1926 12.2897 31.6886C12.2897 32.4566 12.5537 33.1046 13.0817 33.6326C13.6257 34.1446 14.3617 34.4006 15.2897 34.4006Z" fill="black"/>
<path d="M17.9661 42.6059C18.1692 43.4496 18.4817 44.2035 18.9036 44.8676C19.3254 45.5316 20.0754 46.3559 21.1536 47.3402C22.2395 48.3168 22.927 49.0707 23.2161 49.6019C23.5051 50.1254 23.6497 50.6566 23.6497 51.1957C23.6497 51.9379 23.3997 52.559 22.8997 53.059C22.3997 53.559 21.7981 53.809 21.095 53.809C20.4543 53.809 19.8528 53.5863 19.2903 53.141C18.8684 52.8129 18.4739 52.2934 18.1067 51.5824C18.1145 52.7309 18.2629 53.6449 18.552 54.3246C18.8489 54.9965 19.3176 55.5277 19.9583 55.9184C20.5989 56.3012 21.4543 56.5277 22.5247 56.598L22.6067 57.0316H13.3254L13.4075 56.598C14.845 56.598 15.9583 56.1801 16.7473 55.3441C17.5442 54.5004 17.927 53.2465 17.8958 51.5824C17.5442 52.3246 17.1067 52.8832 16.5833 53.2582C16.0676 53.6254 15.4856 53.809 14.8372 53.809C14.134 53.809 13.5286 53.5551 13.0208 53.0473C12.5129 52.5394 12.259 51.9379 12.259 51.2426C12.259 50.6644 12.384 50.1449 12.634 49.684C12.9856 49.0355 13.5559 48.3871 14.345 47.7387C15.1418 47.0902 15.7278 46.5551 16.1028 46.1332C16.6809 45.4848 17.0989 44.9066 17.3567 44.3988C17.6223 43.891 17.8254 43.2934 17.9661 42.6059Z" fill="black"/>
<path d="M161.656 190.921C161.453 190.077 161.141 189.323 160.719 188.659C160.297 187.995 159.547 187.171 158.469 186.186C157.383 185.21 156.695 184.456 156.406 183.925C156.117 183.401 155.973 182.87 155.973 182.331C155.973 181.589 156.223 180.968 156.723 180.468C157.223 179.968 157.824 179.718 158.527 179.718C159.168 179.718 159.77 179.94 160.332 180.385C160.754 180.714 161.148 181.233 161.516 181.944C161.508 180.796 161.359 179.882 161.07 179.202C160.773 178.53 160.305 177.999 159.664 177.608C159.023 177.225 158.168 176.999 157.098 176.928L157.016 176.495H166.297L166.215 176.928C164.777 176.928 163.664 177.346 162.875 178.182C162.078 179.026 161.695 180.28 161.727 181.944C162.078 181.202 162.516 180.643 163.039 180.268C163.555 179.901 164.137 179.718 164.785 179.718C165.488 179.718 166.094 179.971 166.602 180.479C167.109 180.987 167.363 181.589 167.363 182.284C167.363 182.862 167.238 183.382 166.988 183.843C166.637 184.491 166.066 185.139 165.277 185.788C164.48 186.436 163.895 186.971 163.52 187.393C162.941 188.042 162.523 188.62 162.266 189.128C162 189.635 161.797 190.233 161.656 190.921Z" fill="black"/>
<path d="M159.503 192.918C160.319 192.917 161.063 193.068 161.735 193.371C162.392 193.691 162.912 194.122 163.297 194.666C163.666 195.225 163.851 195.849 163.851 196.537C163.853 197.785 163.279 199.018 162.128 200.235C162.961 200.682 163.569 201.113 163.954 201.529C164.338 201.961 164.587 202.48 164.7 203.088C164.732 203.312 164.748 203.48 164.749 203.592C164.749 204.168 164.582 204.68 164.246 205.129C163.911 205.577 163.464 205.921 162.904 206.162C162.344 206.419 161.752 206.547 161.128 206.548C160.168 206.549 159.44 206.366 158.944 205.998C158.431 205.647 158.174 205.127 158.174 204.439C158.173 203.687 158.3 203.095 158.555 202.663C158.795 202.23 159.194 201.734 159.753 201.173C160.153 200.773 160.393 200.525 160.472 200.429C160.184 200.173 159.824 199.877 159.391 199.542C158.687 198.966 158.174 198.519 157.854 198.199C157.517 197.88 157.261 197.512 157.084 197.096C156.892 196.696 156.795 196.208 156.794 195.632C156.793 194.784 157.032 194.12 157.512 193.64C157.991 193.159 158.655 192.918 159.503 192.918ZM161.457 200.908C160.802 201.404 160.29 201.933 159.923 202.493C159.556 203.07 159.373 203.598 159.373 204.078C159.374 204.494 159.526 204.83 159.83 205.085C160.119 205.341 160.551 205.469 161.127 205.468C161.975 205.467 162.599 205.25 162.998 204.818C163.398 204.402 163.597 203.897 163.596 203.305C163.596 202.809 163.427 202.394 163.091 202.058C162.738 201.722 162.194 201.339 161.457 200.908ZM159.648 194.021C159.152 194.022 158.744 194.142 158.425 194.383C158.105 194.623 157.946 195.007 157.946 195.535C157.947 195.999 158.051 196.423 158.26 196.807C158.468 197.191 158.789 197.59 159.221 198.006C159.638 198.421 160.287 199.005 161.168 199.756C161.663 199.291 162.038 198.795 162.294 198.267C162.533 197.738 162.652 197.226 162.652 196.73C162.651 195.962 162.386 195.315 161.857 194.787C161.313 194.276 160.576 194.02 159.648 194.021Z" fill="black"/>
<path d="M51.5625 27.1047C52.1042 29.3547 52.9375 31.3651 54.0625 33.1359C55.1875 34.9068 57.1875 37.1047 60.0625 39.7297C62.9583 42.3338 64.7917 44.3443 65.5625 45.7609C66.3333 47.1568 66.7188 48.5734 66.7188 50.0109C66.7188 51.9901 66.0521 53.6463 64.7188 54.9797C63.3854 56.313 61.7812 56.9797 59.9062 56.9797C58.1979 56.9797 56.5938 56.3859 55.0938 55.1984C53.9688 54.3234 52.9167 52.938 51.9375 51.0422C51.9583 54.1047 52.3542 56.5422 53.125 58.3547C53.9167 60.1463 55.1667 61.563 56.875 62.6047C58.5833 63.6255 60.8646 64.2297 63.7188 64.4172L63.9375 65.5734H39.1875L39.4062 64.4172C43.2396 64.4172 46.2083 63.3026 48.3125 61.0734C50.4375 58.8234 51.4583 55.4797 51.375 51.0422C50.4375 53.0213 49.2708 54.5109 47.875 55.5109C46.5 56.4901 44.9479 56.9797 43.2188 56.9797C41.3438 56.9797 39.7292 56.3026 38.375 54.9484C37.0208 53.5943 36.3438 51.9901 36.3438 50.1359C36.3438 48.5943 36.6771 47.2088 37.3438 45.9797C38.2812 44.2505 39.8021 42.5213 41.9062 40.7922C44.0312 39.063 45.5938 37.6359 46.5938 36.5109C48.1354 34.7818 49.25 33.2401 49.9375 31.8859C50.6458 30.5318 51.1875 28.938 51.5625 27.1047Z" fill="black"/>
<path d="M51.5625 76.1047C52.1042 78.3547 52.9375 80.3651 54.0625 82.1359C55.1875 83.9068 57.1875 86.1047 60.0625 88.7297C62.9583 91.3338 64.7917 93.3443 65.5625 94.7609C66.3333 96.1568 66.7188 97.5734 66.7188 99.0109C66.7188 100.99 66.0521 102.646 64.7188 103.98C63.3854 105.313 61.7812 105.98 59.9062 105.98C58.1979 105.98 56.5938 105.386 55.0938 104.198C53.9688 103.323 52.9167 101.938 51.9375 100.042C51.9583 103.105 52.3542 105.542 53.125 107.355C53.9167 109.146 55.1667 110.563 56.875 111.605C58.5833 112.626 60.8646 113.23 63.7188 113.417L63.9375 114.573H39.1875L39.4062 113.417C43.2396 113.417 46.2083 112.303 48.3125 110.073C50.4375 107.823 51.4583 104.48 51.375 100.042C50.4375 102.021 49.2708 103.511 47.875 104.511C46.5 105.49 44.9479 105.98 43.2188 105.98C41.3438 105.98 39.7292 105.303 38.375 103.948C37.0208 102.594 36.3438 100.99 36.3438 99.1359C36.3438 97.5943 36.6771 96.2088 37.3438 94.9797C38.2812 93.2505 39.8021 91.5213 41.9062 89.7922C44.0312 88.063 45.5938 86.6359 46.5938 85.5109C48.1354 83.7818 49.25 82.2401 49.9375 80.8859C50.6458 79.5318 51.1875 77.938 51.5625 76.1047Z" fill="black"/>
<path d="M51.7644 167.006C51.2227 164.756 50.3894 162.746 49.2644 160.975C48.1394 159.204 46.1394 157.006 43.2644 154.381C40.3686 151.777 38.5352 149.767 37.7644 148.35C36.9936 146.954 36.6082 145.538 36.6082 144.1C36.6082 142.121 37.2748 140.465 38.6082 139.131C39.9415 137.798 41.5457 137.131 43.4207 137.131C45.129 137.131 46.7332 137.725 48.2332 138.913C49.3582 139.788 50.4102 141.173 51.3894 143.069C51.3686 140.006 50.9727 137.569 50.2019 135.756C49.4102 133.965 48.1602 132.548 46.4519 131.506C44.7436 130.486 42.4623 129.881 39.6082 129.694L39.3894 128.538H64.1394L63.9207 129.694C60.0873 129.694 57.1186 130.809 55.0144 133.038C52.8894 135.288 51.8686 138.631 51.9519 143.069C52.8894 141.09 54.0561 139.6 55.4519 138.6C56.8269 137.621 58.379 137.131 60.1082 137.131C61.9832 137.131 63.5977 137.809 64.9519 139.163C66.3061 140.517 66.9832 142.121 66.9832 143.975C66.9832 145.517 66.6498 146.902 65.9832 148.131C65.0457 149.861 63.5248 151.59 61.4207 153.319C59.2957 155.048 57.7332 156.475 56.7332 157.6C55.1915 159.329 54.0769 160.871 53.3894 162.225C52.6811 163.579 52.1394 165.173 51.7644 167.006Z" fill="black"/>
<path d="M51.7644 214.006C51.2227 211.756 50.3894 209.746 49.2644 207.975C48.1394 206.204 46.1394 204.006 43.2644 201.381C40.3686 198.777 38.5352 196.767 37.7644 195.35C36.9936 193.954 36.6082 192.538 36.6082 191.1C36.6082 189.121 37.2748 187.465 38.6082 186.131C39.9415 184.798 41.5457 184.131 43.4207 184.131C45.129 184.131 46.7332 184.725 48.2332 185.913C49.3582 186.788 50.4102 188.173 51.3894 190.069C51.3686 187.006 50.9727 184.569 50.2019 182.756C49.4102 180.965 48.1602 179.548 46.4519 178.506C44.7436 177.486 42.4623 176.881 39.6082 176.694L39.3894 175.538H64.1394L63.9207 176.694C60.0873 176.694 57.1186 177.809 55.0144 180.038C52.8894 182.288 51.8686 185.631 51.9519 190.069C52.8894 188.09 54.0561 186.6 55.4519 185.6C56.8269 184.621 58.379 184.131 60.1082 184.131C61.9832 184.131 63.5977 184.809 64.9519 186.163C66.3061 187.517 66.9832 189.121 66.9832 190.975C66.9832 192.517 66.6498 193.902 65.9832 195.131C65.0457 196.861 63.5248 198.59 61.4207 200.319C59.2957 202.048 57.7332 203.475 56.7332 204.6C55.1915 206.329 54.0769 207.871 53.3894 209.225C52.6811 210.579 52.1394 212.173 51.7644 214.006Z" fill="black"/>
</svg>
