<svg width="176" height="234" viewBox="0 0 176 234" fill="none" xmlns="http://www.w3.org/2000/svg">
<path d="M170.388 12.4266C170.388 12.4266 119.62 13.6596 87.8022 13.6596C55.9848 13.6596 5.21597 12.4266 5.21597 12.4266C2.26025 12.4266 0 14.4303 0 17.0506V221.893C0 224.513 2.43412 226.671 5.21597 226.671C5.21597 226.671 55.9848 228.212 87.8022 228.212C119.62 228.212 170.388 226.671 170.388 226.671C173.344 226.517 175.604 224.359 175.604 221.893V17.0506C175.604 14.4303 173.344 12.4266 170.388 12.4266Z" fill="white"/>
<path d="M12.4993 25.1404C13.0273 25.1404 13.5473 25.2604 14.0593 25.5004C14.5873 25.7244 15.0193 26.0524 15.3553 26.4844C15.6913 26.9004 15.8593 27.3644 15.8593 27.8764C15.8593 28.1164 15.8273 28.3324 15.7633 28.5244C15.4913 29.5004 15.2993 30.6444 15.1873 31.9564C15.0753 33.2684 15.0193 34.5804 15.0193 35.8924C15.0193 37.6364 15.0833 38.6604 15.2113 38.9644C15.2113 39.1404 15.1313 39.2604 14.9713 39.3244C14.8273 39.3724 14.6033 39.3964 14.2993 39.3964C13.7553 39.4124 13.4833 38.5964 13.4833 36.9484C13.4833 35.7004 13.6193 34.2044 13.8913 32.4604C13.3153 32.5244 12.9233 32.5564 12.7153 32.5564C11.4673 32.5564 10.5473 32.2524 9.95532 31.6444C9.37932 31.0204 9.09132 30.1484 9.09132 29.0284C9.09132 27.9404 9.39532 27.0204 10.0033 26.2684C10.6273 25.5164 11.4593 25.1404 12.4993 25.1404ZM12.7873 31.5964C13.2833 31.5964 13.7153 31.4844 14.0833 31.2604C14.2433 30.3004 14.4193 29.4364 14.6113 28.6684C14.6753 27.9644 14.5153 27.4044 14.1313 26.9884C13.7633 26.5564 13.3073 26.3404 12.7633 26.3404C12.1713 26.3404 11.6273 26.5564 11.1313 26.9884C10.6513 27.4044 10.4113 28.0124 10.4113 28.8124C10.4113 29.6604 10.6193 30.3404 11.0353 30.8524C11.4513 31.3484 12.0353 31.5964 12.7873 31.5964Z" fill="black"/>
<path d="M17.0239 46.6896C17.2271 47.5333 17.5396 48.2872 17.9614 48.9513C18.3833 49.6154 19.1333 50.4396 20.2114 51.424C21.2974 52.4005 21.9849 53.1544 22.2739 53.6857C22.563 54.2091 22.7075 54.7404 22.7075 55.2794C22.7075 56.0216 22.4575 56.6427 21.9575 57.1427C21.4575 57.6427 20.856 57.8927 20.1528 57.8927C19.5122 57.8927 18.9106 57.6701 18.3481 57.2247C17.9263 56.8966 17.5317 56.3771 17.1646 55.6662C17.1724 56.8146 17.3208 57.7287 17.6099 58.4083C17.9067 59.0802 18.3755 59.6115 19.0161 60.0021C19.6567 60.3849 20.5122 60.6115 21.5825 60.6818L21.6646 61.1154H12.3833L12.4653 60.6818C13.9028 60.6818 15.0161 60.2638 15.8052 59.4279C16.6021 58.5841 16.9849 57.3302 16.9536 55.6662C16.6021 56.4083 16.1646 56.9669 15.6411 57.3419C15.1255 57.7091 14.5435 57.8927 13.895 57.8927C13.1919 57.8927 12.5864 57.6388 12.0786 57.131C11.5708 56.6232 11.3169 56.0216 11.3169 55.3263C11.3169 54.7482 11.4419 54.2287 11.6919 53.7677C12.0435 53.1193 12.6138 52.4708 13.4028 51.8224C14.1997 51.174 14.7856 50.6388 15.1606 50.2169C15.7388 49.5685 16.1567 48.9904 16.4146 48.4826C16.6802 47.9747 16.8833 47.3771 17.0239 46.6896Z" fill="black"/>
<path d="M159.714 195.004C159.511 194.161 159.198 193.407 158.776 192.743C158.354 192.079 157.604 191.254 156.526 190.27C155.44 189.293 154.753 188.54 154.464 188.008C154.175 187.485 154.03 186.954 154.03 186.415C154.03 185.672 154.28 185.051 154.78 184.551C155.28 184.051 155.882 183.801 156.585 183.801C157.226 183.801 157.827 184.024 158.39 184.469C158.812 184.797 159.206 185.317 159.573 186.028C159.565 184.879 159.417 183.965 159.128 183.286C158.831 182.614 158.362 182.083 157.722 181.692C157.081 181.309 156.226 181.083 155.155 181.012L155.073 180.579H164.354L164.272 181.012C162.835 181.012 161.722 181.43 160.933 182.266C160.136 183.11 159.753 184.364 159.784 186.028C160.136 185.286 160.573 184.727 161.097 184.352C161.612 183.985 162.194 183.801 162.843 183.801C163.546 183.801 164.151 184.055 164.659 184.563C165.167 185.071 165.421 185.672 165.421 186.368C165.421 186.946 165.296 187.465 165.046 187.926C164.694 188.575 164.124 189.223 163.335 189.872C162.538 190.52 161.952 191.055 161.577 191.477C160.999 192.125 160.581 192.704 160.323 193.211C160.058 193.719 159.854 194.317 159.714 195.004Z" fill="black"/>
<path d="M160.571 211.447C160.043 211.448 159.523 211.328 159.011 211.089C158.483 210.865 158.05 210.538 157.714 210.106C157.377 209.691 157.209 209.227 157.208 208.715C157.208 208.475 157.239 208.259 157.303 208.067C157.574 207.09 157.764 205.946 157.875 204.634C157.985 203.322 158.039 202.01 158.038 200.698C158.035 198.954 157.97 197.93 157.842 197.626C157.842 197.45 157.921 197.33 158.081 197.266C158.225 197.218 158.449 197.193 158.753 197.193C159.297 197.177 159.57 197.992 159.572 199.64C159.574 200.888 159.44 202.384 159.17 204.129C159.746 204.064 160.138 204.032 160.346 204.031C161.594 204.03 162.514 204.333 163.107 204.941C163.684 205.564 163.973 206.436 163.974 207.556C163.976 208.644 163.673 209.564 163.066 210.317C162.443 211.069 161.611 211.446 160.571 211.447ZM160.275 204.992C159.779 204.992 159.347 205.105 158.98 205.329C158.821 206.289 158.646 207.153 158.455 207.921C158.392 208.626 158.553 209.185 158.937 209.601C159.306 210.033 159.762 210.248 160.306 210.248C160.898 210.247 161.442 210.03 161.937 209.598C162.417 209.181 162.656 208.573 162.655 207.773C162.654 206.925 162.445 206.245 162.028 205.734C161.612 205.238 161.027 204.991 160.275 204.992Z" fill="black"/>
<path d="M119.562 26.5312C120.104 28.7812 120.938 30.7917 122.062 32.5625C123.188 34.3333 125.188 36.5312 128.062 39.1562C130.958 41.7604 132.792 43.7708 133.562 45.1875C134.333 46.5833 134.719 48 134.719 49.4375C134.719 51.4167 134.052 53.0729 132.719 54.4062C131.385 55.7396 129.781 56.4062 127.906 56.4062C126.198 56.4062 124.594 55.8125 123.094 54.625C121.969 53.75 120.917 52.3646 119.938 50.4688C119.958 53.5312 120.354 55.9688 121.125 57.7812C121.917 59.5729 123.167 60.9896 124.875 62.0312C126.583 63.0521 128.865 63.6562 131.719 63.8438L131.938 65H107.188L107.406 63.8438C111.24 63.8438 114.208 62.7292 116.312 60.5C118.438 58.25 119.458 54.9062 119.375 50.4688C118.438 52.4479 117.271 53.9375 115.875 54.9375C114.5 55.9167 112.948 56.4062 111.219 56.4062C109.344 56.4062 107.729 55.7292 106.375 54.375C105.021 53.0208 104.344 51.4167 104.344 49.5625C104.344 48.0208 104.677 46.6354 105.344 45.4062C106.281 43.6771 107.802 41.9479 109.906 40.2188C112.031 38.4896 113.594 37.0625 114.594 35.9375C116.135 34.2083 117.25 32.6667 117.938 31.3125C118.646 29.9583 119.188 28.3646 119.562 26.5312Z" fill="black"/>
<path d="M60.5625 26.5312C61.1042 28.7812 61.9375 30.7917 63.0625 32.5625C64.1875 34.3333 66.1875 36.5312 69.0625 39.1562C71.9583 41.7604 73.7917 43.7708 74.5625 45.1875C75.3333 46.5833 75.7188 48 75.7188 49.4375C75.7188 51.4167 75.0521 53.0729 73.7188 54.4062C72.3854 55.7396 70.7812 56.4062 68.9062 56.4062C67.1979 56.4062 65.5938 55.8125 64.0938 54.625C62.9688 53.75 61.9167 52.3646 60.9375 50.4688C60.9583 53.5312 61.3542 55.9688 62.125 57.7812C62.9167 59.5729 64.1667 60.9896 65.875 62.0312C67.5833 63.0521 69.8646 63.6562 72.7188 63.8438L72.9375 65H48.1875L48.4062 63.8438C52.2396 63.8438 55.2083 62.7292 57.3125 60.5C59.4375 58.25 60.4583 54.9062 60.375 50.4688C59.4375 52.4479 58.2708 53.9375 56.875 54.9375C55.5 55.9167 53.9479 56.4062 52.2188 56.4062C50.3438 56.4062 48.7292 55.7292 47.375 54.375C46.0208 53.0208 45.3438 51.4167 45.3438 49.5625C45.3438 48.0208 45.6771 46.6354 46.3438 45.4062C47.2812 43.6771 48.8021 41.9479 50.9062 40.2188C53.0312 38.4896 54.5938 37.0625 55.5938 35.9375C57.1354 34.2083 58.25 32.6667 58.9375 31.3125C59.6458 29.9583 60.1875 28.3646 60.5625 26.5312Z" fill="black"/>
<path d="M94.5625 95.5312C95.1042 97.7812 95.9375 99.7917 97.0625 101.562C98.1875 103.333 100.188 105.531 103.062 108.156C105.958 110.76 107.792 112.771 108.562 114.188C109.333 115.583 109.719 117 109.719 118.438C109.719 120.417 109.052 122.073 107.719 123.406C106.385 124.74 104.781 125.406 102.906 125.406C101.198 125.406 99.5938 124.812 98.0938 123.625C96.9688 122.75 95.9167 121.365 94.9375 119.469C94.9583 122.531 95.3542 124.969 96.125 126.781C96.9167 128.573 98.1667 129.99 99.875 131.031C101.583 132.052 103.865 132.656 106.719 132.844L106.938 134H82.1875L82.4062 132.844C86.2396 132.844 89.2083 131.729 91.3125 129.5C93.4375 127.25 94.4583 123.906 94.375 119.469C93.4375 121.448 92.2708 122.938 90.875 123.938C89.5 124.917 87.9479 125.406 86.2188 125.406C84.3438 125.406 82.7292 124.729 81.375 123.375C80.0208 122.021 79.3438 120.417 79.3438 118.562C79.3438 117.021 79.6771 115.635 80.3438 114.406C81.2812 112.677 82.8021 110.948 84.9062 109.219C87.0312 107.49 88.5938 106.062 89.5938 104.938C91.1354 103.208 92.25 101.667 92.9375 100.312C93.6458 98.9583 94.1875 97.3646 94.5625 95.5312Z" fill="black"/>
<path d="M62.5625 71.5312C63.1042 73.7812 63.9375 75.7917 65.0625 77.5625C66.1875 79.3333 68.1875 81.5312 71.0625 84.1562C73.9583 86.7604 75.7917 88.7708 76.5625 90.1875C77.3333 91.5833 77.7188 93 77.7188 94.4375C77.7188 96.4167 77.0521 98.0729 75.7188 99.4062C74.3854 100.74 72.7812 101.406 70.9062 101.406C69.1979 101.406 67.5938 100.812 66.0938 99.625C64.9688 98.75 63.9167 97.3646 62.9375 95.4688C62.9583 98.5312 63.3542 100.969 64.125 102.781C64.9167 104.573 66.1667 105.99 67.875 107.031C69.5833 108.052 71.8646 108.656 74.7188 108.844L74.9375 110H50.1875L50.4062 108.844C54.2396 108.844 57.2083 107.729 59.3125 105.5C61.4375 103.25 62.4583 99.9062 62.375 95.4688C61.4375 97.4479 60.2708 98.9375 58.875 99.9375C57.5 100.917 55.9479 101.406 54.2188 101.406C52.3438 101.406 50.7292 100.729 49.375 99.375C48.0208 98.0208 47.3438 96.4167 47.3438 94.5625C47.3438 93.0208 47.6771 91.6354 48.3438 90.4062C49.2812 88.6771 50.8021 86.9479 52.9062 85.2188C55.0312 83.4896 56.5938 82.0625 57.5938 80.9375C59.1354 79.2083 60.25 77.6667 60.9375 76.3125C61.6458 74.9583 62.1875 73.3646 62.5625 71.5312Z" fill="black"/>
<path d="M59.7642 160.433C59.2225 158.183 58.3892 156.173 57.2642 154.402C56.1392 152.631 54.1392 150.433 51.2642 147.808C48.3683 145.204 46.535 143.193 45.7642 141.777C44.9933 140.381 44.6079 138.964 44.6079 137.527C44.6079 135.548 45.2746 133.891 46.6079 132.558C47.9412 131.225 49.5454 130.558 51.4204 130.558C53.1287 130.558 54.7329 131.152 56.2329 132.339C57.3579 133.214 58.41 134.6 59.3892 136.496C59.3683 133.433 58.9725 130.996 58.2017 129.183C57.41 127.391 56.16 125.975 54.4517 124.933C52.7433 123.912 50.4621 123.308 47.6079 123.121L47.3892 121.964H72.1392L71.9204 123.121C68.0871 123.121 65.1183 124.235 63.0142 126.464C60.8892 128.714 59.8683 132.058 59.9517 136.496C60.8892 134.516 62.0558 133.027 63.4517 132.027C64.8267 131.048 66.3787 130.558 68.1079 130.558C69.9829 130.558 71.5975 131.235 72.9517 132.589C74.3058 133.943 74.9829 135.548 74.9829 137.402C74.9829 138.943 74.6496 140.329 73.9829 141.558C73.0454 143.287 71.5246 145.016 69.4204 146.746C67.2954 148.475 65.7329 149.902 64.7329 151.027C63.1912 152.756 62.0767 154.298 61.3892 155.652C60.6808 157.006 60.1392 158.6 59.7642 160.433Z" fill="black"/>
<path d="M60.7642 206.433C60.2225 204.183 59.3892 202.173 58.2642 200.402C57.1392 198.631 55.1392 196.433 52.2642 193.808C49.3683 191.204 47.535 189.193 46.7642 187.777C45.9933 186.381 45.6079 184.964 45.6079 183.527C45.6079 181.548 46.2746 179.891 47.6079 178.558C48.9412 177.225 50.5454 176.558 52.4204 176.558C54.1287 176.558 55.7329 177.152 57.2329 178.339C58.3579 179.214 59.41 180.6 60.3892 182.496C60.3683 179.433 59.9725 176.996 59.2017 175.183C58.41 173.391 57.16 171.975 55.4517 170.933C53.7433 169.912 51.4621 169.308 48.6079 169.121L48.3892 167.964H73.1392L72.9204 169.121C69.0871 169.121 66.1183 170.235 64.0142 172.464C61.8892 174.714 60.8683 178.058 60.9517 182.496C61.8892 180.516 63.0558 179.027 64.4517 178.027C65.8267 177.048 67.3787 176.558 69.1079 176.558C70.9829 176.558 72.5975 177.235 73.9517 178.589C75.3058 179.943 75.9829 181.548 75.9829 183.402C75.9829 184.943 75.6496 186.329 74.9829 187.558C74.0454 189.287 72.5246 191.016 70.4204 192.746C68.2954 194.475 66.7329 195.902 65.7329 197.027C64.1912 198.756 63.0767 200.298 62.3892 201.652C61.6808 203.006 61.1392 204.6 60.7642 206.433Z" fill="black"/>
<path d="M120.562 71.5312C121.104 73.7812 121.938 75.7917 123.062 77.5625C124.188 79.3333 126.188 81.5312 129.062 84.1562C131.958 86.7604 133.792 88.7708 134.562 90.1875C135.333 91.5833 135.719 93 135.719 94.4375C135.719 96.4167 135.052 98.0729 133.719 99.4062C132.385 100.74 130.781 101.406 128.906 101.406C127.198 101.406 125.594 100.812 124.094 99.625C122.969 98.75 121.917 97.3646 120.938 95.4688C120.958 98.5312 121.354 100.969 122.125 102.781C122.917 104.573 124.167 105.99 125.875 107.031C127.583 108.052 129.865 108.656 132.719 108.844L132.938 110H108.188L108.406 108.844C112.24 108.844 115.208 107.729 117.312 105.5C119.438 103.25 120.458 99.9062 120.375 95.4688C119.438 97.4479 118.271 98.9375 116.875 99.9375C115.5 100.917 113.948 101.406 112.219 101.406C110.344 101.406 108.729 100.729 107.375 99.375C106.021 98.0208 105.344 96.4167 105.344 94.5625C105.344 93.0208 105.677 91.6354 106.344 90.4062C107.281 88.6771 108.802 86.9479 110.906 85.2188C113.031 83.4896 114.594 82.0625 115.594 80.9375C117.135 79.2083 118.25 77.6667 118.938 76.3125C119.646 74.9583 120.188 73.3646 120.562 71.5312Z" fill="black"/>
<path d="M121.764 161.433C121.222 159.183 120.389 157.173 119.264 155.402C118.139 153.631 116.139 151.433 113.264 148.808C110.368 146.204 108.535 144.193 107.764 142.777C106.993 141.381 106.608 139.964 106.608 138.527C106.608 136.548 107.275 134.891 108.608 133.558C109.941 132.225 111.545 131.558 113.42 131.558C115.129 131.558 116.733 132.152 118.233 133.339C119.358 134.214 120.41 135.6 121.389 137.496C121.368 134.433 120.972 131.996 120.202 130.183C119.41 128.391 118.16 126.975 116.452 125.933C114.743 124.912 112.462 124.308 109.608 124.121L109.389 122.964H134.139L133.92 124.121C130.087 124.121 127.118 125.235 125.014 127.464C122.889 129.714 121.868 133.058 121.952 137.496C122.889 135.516 124.056 134.027 125.452 133.027C126.827 132.048 128.379 131.558 130.108 131.558C131.983 131.558 133.597 132.235 134.952 133.589C136.306 134.943 136.983 136.548 136.983 138.402C136.983 139.943 136.65 141.329 135.983 142.558C135.045 144.287 133.525 146.016 131.42 147.746C129.295 149.475 127.733 150.902 126.733 152.027C125.191 153.756 124.077 155.298 123.389 156.652C122.681 158.006 122.139 159.6 121.764 161.433Z" fill="black"/>
<path d="M120.764 207.433C120.222 205.183 119.389 203.173 118.264 201.402C117.139 199.631 115.139 197.433 112.264 194.808C109.368 192.204 107.535 190.193 106.764 188.777C105.993 187.381 105.608 185.964 105.608 184.527C105.608 182.548 106.275 180.891 107.608 179.558C108.941 178.225 110.545 177.558 112.42 177.558C114.129 177.558 115.733 178.152 117.233 179.339C118.358 180.214 119.41 181.6 120.389 183.496C120.368 180.433 119.972 177.996 119.202 176.183C118.41 174.391 117.16 172.975 115.452 171.933C113.743 170.912 111.462 170.308 108.608 170.121L108.389 168.964H133.139L132.92 170.121C129.087 170.121 126.118 171.235 124.014 173.464C121.889 175.714 120.868 179.058 120.952 183.496C121.889 181.516 123.056 180.027 124.452 179.027C125.827 178.048 127.379 177.558 129.108 177.558C130.983 177.558 132.597 178.235 133.952 179.589C135.306 180.943 135.983 182.548 135.983 184.402C135.983 185.943 135.65 187.329 134.983 188.558C134.045 190.287 132.525 192.016 130.42 193.746C128.295 195.475 126.733 196.902 125.733 198.027C124.191 199.756 123.077 201.298 122.389 202.652C121.681 204.006 121.139 205.6 120.764 207.433Z" fill="black"/>
</svg>
