<svg width="176" height="217" viewBox="0 0 176 217" fill="none" xmlns="http://www.w3.org/2000/svg">
<path d="M170.52 0.416321C170.52 0.416321 119.752 1.64937 87.9343 1.64937C56.1168 1.64937 5.34805 0.416321 5.34805 0.416321C2.39233 0.416321 0.13208 2.42005 0.13208 5.0403V209.883C0.13208 212.503 2.5662 214.661 5.34805 214.661C5.34805 214.661 56.1168 216.202 87.9343 216.202C119.752 216.202 170.52 214.661 170.52 214.661C173.476 214.507 175.736 212.349 175.736 209.883V5.0403C175.736 2.42005 173.476 0.416321 170.52 0.416321Z" fill="white"/>
<path d="M21.2236 28.5781C21.0316 28.5781 20.8956 28.5301 20.8156 28.4341C20.7516 28.3381 20.7196 28.2021 20.7196 28.0261C20.7196 27.6741 20.7996 27.1301 20.9596 26.3941C21.1356 25.7221 21.2236 25.1701 21.2236 24.7381C21.2236 23.4901 21.1276 22.5381 20.9356 21.8821H20.1916C19.5356 21.8821 18.6796 21.8661 17.6236 21.8341L15.3676 21.8101H12.1276L12.1756 22.7461C12.1756 23.4821 12.2956 24.4021 12.5356 25.5061C12.6156 25.9541 12.6876 26.4101 12.7516 26.8741C12.8316 27.3221 12.8716 27.7301 12.8716 28.0981V28.3141C12.7116 28.4741 12.5436 28.5541 12.3676 28.5541C11.9516 28.5541 11.6236 28.0661 11.3836 27.0901C11.1436 26.0981 11.0236 24.9061 11.0236 23.5141C11.0236 22.9541 11.0476 22.4021 11.0956 21.8581C10.7436 21.8421 10.5036 21.7861 10.3756 21.6901C10.2476 21.5781 10.1836 21.4101 10.1836 21.1861C10.1836 21.0101 10.2316 20.8901 10.3276 20.8261C10.4396 20.7621 10.6316 20.7141 10.9036 20.6821L10.8796 20.0341L10.9516 18.9301C11.0636 17.1221 11.2316 15.6501 11.4556 14.5141C11.6796 13.3781 12.1596 12.3941 12.8956 11.5621C13.6316 10.7301 14.7356 10.3141 16.2076 10.3141C17.8876 10.3141 19.1996 11.2181 20.1436 13.0261C21.0876 14.8341 21.7276 16.8501 22.0636 19.0741C22.3996 21.2981 22.5676 23.2101 22.5676 24.8101C22.5676 25.3861 22.5516 25.8901 22.5196 26.3221C22.4876 26.7381 22.4236 27.2581 22.3276 27.8821C21.9596 28.3461 21.5916 28.5781 21.2236 28.5781ZM20.8396 20.9461C20.5356 17.9861 19.9916 15.6661 19.2076 13.9861C18.4236 12.2901 17.2476 11.4421 15.6796 11.4421C14.5116 11.4421 13.6476 11.9861 13.0876 13.0741C12.5436 14.1461 12.2156 15.2981 12.1036 16.5301C11.9916 17.7621 11.9356 19.1461 11.9356 20.6821L20.8396 20.9461Z" fill="black"/>
<path d="M17.156 35.6793C17.3591 36.5231 17.6716 37.277 18.0935 37.941C18.5154 38.6051 19.2654 39.4293 20.3435 40.4137C21.4294 41.3903 22.1169 42.1442 22.406 42.6754C22.6951 43.1989 22.8396 43.7301 22.8396 44.2692C22.8396 45.0114 22.5896 45.6324 22.0896 46.1324C21.5896 46.6324 20.988 46.8824 20.2849 46.8824C19.6443 46.8824 19.0427 46.6598 18.4802 46.2145C18.0583 45.8864 17.6638 45.3668 17.2966 44.6559C17.3044 45.8043 17.4529 46.7184 17.7419 47.3981C18.0388 48.0699 18.5076 48.6012 19.1482 48.9918C19.7888 49.3746 20.6443 49.6012 21.7146 49.6715L21.7966 50.1051H12.5154L12.5974 49.6715C14.0349 49.6715 15.1482 49.2535 15.9373 48.4176C16.7341 47.5739 17.1169 46.3199 17.0857 44.6559C16.7341 45.3981 16.2966 45.9567 15.7732 46.3317C15.2576 46.6989 14.6755 46.8824 14.0271 46.8824C13.324 46.8824 12.7185 46.6285 12.2107 46.1207C11.7029 45.6129 11.449 45.0114 11.449 44.316C11.449 43.7379 11.574 43.2184 11.824 42.7574C12.1755 42.109 12.7458 41.4606 13.5349 40.8121C14.3318 40.1637 14.9177 39.6285 15.2927 39.2067C15.8708 38.5582 16.2888 37.9801 16.5466 37.4723C16.8123 36.9645 17.0154 36.3668 17.156 35.6793Z" fill="black"/>
<path d="M157.846 183.994C157.643 183.15 157.331 182.396 156.909 181.732C156.487 181.068 155.737 180.244 154.659 179.26C153.573 178.283 152.885 177.529 152.596 176.998C152.307 176.475 152.163 175.943 152.163 175.404C152.163 174.662 152.413 174.041 152.913 173.541C153.413 173.041 154.014 172.791 154.717 172.791C155.358 172.791 155.959 173.014 156.522 173.459C156.944 173.787 157.338 174.307 157.706 175.018C157.698 173.869 157.549 172.955 157.26 172.275C156.963 171.603 156.495 171.072 155.854 170.682C155.213 170.299 154.358 170.072 153.288 170.002L153.206 169.568H162.487L162.405 170.002C160.967 170.002 159.854 170.42 159.065 171.256C158.268 172.1 157.885 173.353 157.917 175.018C158.268 174.275 158.706 173.717 159.229 173.342C159.745 172.975 160.327 172.791 160.975 172.791C161.678 172.791 162.284 173.045 162.792 173.553C163.299 174.061 163.553 174.662 163.553 175.357C163.553 175.936 163.428 176.455 163.178 176.916C162.827 177.564 162.256 178.213 161.467 178.861C160.67 179.51 160.084 180.045 159.709 180.467C159.131 181.115 158.713 181.693 158.456 182.201C158.19 182.709 157.987 183.307 157.846 183.994Z" fill="black"/>
<path d="M85.3596 72.5948C86.1721 75.9698 87.4221 78.9854 89.1096 81.6417C90.7971 84.2979 93.7971 87.5948 98.1096 91.5323C102.453 95.4386 105.203 98.4542 106.36 100.579C107.516 102.673 108.094 104.798 108.094 106.954C108.094 109.923 107.094 112.407 105.094 114.407C103.094 116.407 100.688 117.407 97.8752 117.407C95.3127 117.407 92.9065 116.517 90.6565 114.735C88.969 113.423 87.3909 111.345 85.9221 108.501C85.9534 113.095 86.5471 116.751 87.7034 119.47C88.8909 122.157 90.7659 124.282 93.3284 125.845C95.8909 127.376 99.3127 128.282 103.594 128.564L103.922 130.298H66.7971L67.1252 128.564C72.8752 128.564 77.3284 126.892 80.4846 123.548C83.6721 120.173 85.2034 115.157 85.0784 108.501C83.6721 111.47 81.9221 113.704 79.8284 115.204C77.7659 116.673 75.4377 117.407 72.844 117.407C70.0315 117.407 67.6096 116.392 65.5784 114.36C63.5471 112.329 62.5315 109.923 62.5315 107.142C62.5315 104.829 63.0315 102.751 64.0315 100.907C65.4377 98.3136 67.719 95.7198 70.8752 93.1261C74.0627 90.5323 76.4065 88.3917 77.9065 86.7042C80.219 84.1104 81.8909 81.7979 82.9221 79.7667C83.9846 77.7354 84.7971 75.3448 85.3596 72.5948Z" fill="black"/>
<path d="M152.093 185.998C152.285 185.998 152.421 186.046 152.501 186.141C152.565 186.237 152.597 186.373 152.597 186.549C152.598 186.901 152.519 187.445 152.36 188.182C152.184 188.854 152.097 189.406 152.098 189.838C152.099 191.086 152.197 192.038 152.389 192.694L153.133 192.693C153.789 192.692 154.645 192.707 155.701 192.738L157.957 192.76L161.197 192.756L161.148 191.82C161.147 191.085 161.026 190.165 160.785 189.061C160.704 188.613 160.632 188.157 160.567 187.693C160.486 187.245 160.446 186.837 160.445 186.469L160.445 186.253C160.605 186.093 160.773 186.013 160.949 186.013C161.365 186.012 161.693 186.5 161.935 187.476C162.176 188.467 162.297 189.659 162.299 191.051C162.3 191.611 162.277 192.163 162.229 192.707C162.581 192.723 162.821 192.779 162.95 192.875C163.078 192.986 163.142 193.154 163.142 193.378C163.142 193.554 163.095 193.674 162.999 193.739C162.887 193.803 162.695 193.851 162.423 193.883L162.448 194.531L162.377 195.635C162.267 197.443 162.101 198.916 161.879 200.052C161.656 201.188 161.178 202.172 160.443 203.005C159.708 203.838 158.604 204.255 157.132 204.257C155.452 204.258 154.139 203.356 153.193 201.549C152.246 199.742 151.604 197.726 151.265 195.503C150.926 193.279 150.756 191.367 150.754 189.767C150.753 189.191 150.768 188.687 150.8 188.255C150.831 187.839 150.894 187.319 150.99 186.695C151.357 186.231 151.725 185.998 152.093 185.998ZM152.487 193.629C152.794 196.589 153.341 198.909 154.127 200.588C154.914 202.283 156.091 203.13 157.659 203.128C158.827 203.127 159.69 202.582 160.249 201.493C160.791 200.421 161.118 199.269 161.228 198.036C161.339 196.804 161.393 195.42 161.391 193.884L152.487 193.629Z" fill="black"/>
</svg>
