<svg width="183" height="216" viewBox="0 0 183 216" fill="none" xmlns="http://www.w3.org/2000/svg">
<path d="M177.389 0C177.389 0 126.62 1.23305 94.8027 1.23305C62.9853 1.23305 12.2165 0 12.2165 0C9.26074 0 7.00049 2.00372 7.00049 4.62398V209.466C7.00049 212.087 9.43461 214.244 12.2165 214.244C12.2165 214.244 62.9853 215.786 94.8027 215.786C126.62 215.786 177.389 214.244 177.389 214.244C180.345 214.09 182.605 211.932 182.605 209.466V4.62398C182.605 2.00372 180.345 0 177.389 0Z" fill="white"/>
<path d="M22.7401 28.1618C20.5321 28.1458 18.9161 27.6498 17.8921 26.6738C16.8681 25.6978 16.3561 24.4418 16.3561 22.9058C16.3561 21.5298 16.7321 20.8418 17.4841 20.8418C17.6281 20.9058 17.7001 20.9778 17.7001 21.0578C17.7001 21.1218 17.6681 21.2098 17.6041 21.3218C17.5561 21.4338 17.5161 21.5378 17.4841 21.6338C17.4041 21.9218 17.3641 22.1938 17.3641 22.4498C17.3641 23.1538 17.6041 23.8418 18.0841 24.5138C18.5641 25.1858 19.2121 25.7378 20.0281 26.1698C20.8441 26.5858 21.7161 26.7938 22.6441 26.7938C23.3321 26.7938 23.8681 26.4898 24.2521 25.8818C24.6521 25.2738 24.8521 24.3378 24.8521 23.0738C24.8521 22.3058 24.7881 21.5138 24.6601 20.6978L23.3641 11.9138C23.5401 11.6738 23.6921 11.5538 23.8201 11.5538C24.2201 11.5538 24.5641 12.2738 24.8521 13.7138C25.1401 15.1378 25.4761 17.3378 25.8601 20.3138L25.9561 21.1058C26.0681 22.0338 26.1241 22.7618 26.1241 23.2898C26.1241 24.8738 25.8361 26.0818 25.2601 26.9138C24.6841 27.7458 23.8441 28.1618 22.7401 28.1618Z" fill="black"/>
<path d="M24.0244 35.263C24.2275 36.1068 24.54 36.8607 24.9619 37.5247C25.3838 38.1888 26.1338 39.013 27.2119 39.9974C28.2979 40.9739 28.9854 41.7278 29.2744 42.2591C29.5635 42.7825 29.708 43.3138 29.708 43.8528C29.708 44.595 29.458 45.2161 28.958 45.7161C28.458 46.2161 27.8564 46.4661 27.1533 46.4661C26.5127 46.4661 25.9111 46.2435 25.3486 45.7982C24.9268 45.47 24.5322 44.9505 24.165 44.2396C24.1729 45.388 24.3213 46.3021 24.6104 46.9818C24.9072 47.6536 25.376 48.1849 26.0166 48.5755C26.6572 48.9583 27.5127 49.1849 28.583 49.2552L28.665 49.6888H19.3838L19.4658 49.2552C20.9033 49.2552 22.0166 48.8372 22.8057 48.0013C23.6025 47.1575 23.9854 45.9036 23.9541 44.2396C23.6025 44.9818 23.165 45.5403 22.6416 45.9153C22.126 46.2825 21.5439 46.4661 20.8955 46.4661C20.1924 46.4661 19.5869 46.2122 19.0791 45.7044C18.5713 45.1966 18.3174 44.595 18.3174 43.8997C18.3174 43.3216 18.4424 42.8021 18.6924 42.3411C19.0439 41.6927 19.6143 41.0443 20.4033 40.3958C21.2002 39.7474 21.7861 39.2122 22.1611 38.7903C22.7393 38.1419 23.1572 37.5638 23.415 37.056C23.6807 36.5482 23.8838 35.9505 24.0244 35.263Z" fill="black"/>
<path d="M164.714 182.578C164.511 181.734 164.199 180.98 163.777 180.316C163.355 179.652 162.605 178.828 161.527 177.843C160.441 176.867 159.753 176.113 159.464 175.582C159.175 175.058 159.031 174.527 159.031 173.988C159.031 173.246 159.281 172.625 159.781 172.125C160.281 171.625 160.882 171.375 161.585 171.375C162.226 171.375 162.828 171.597 163.39 172.043C163.812 172.371 164.207 172.89 164.574 173.601C164.566 172.453 164.417 171.539 164.128 170.859C163.832 170.187 163.363 169.656 162.722 169.265C162.082 168.882 161.226 168.656 160.156 168.586L160.074 168.152H169.355L169.273 168.586C167.835 168.586 166.722 169.004 165.933 169.839C165.136 170.683 164.753 171.937 164.785 173.601C165.136 172.859 165.574 172.3 166.097 171.925C166.613 171.558 167.195 171.375 167.843 171.375C168.546 171.375 169.152 171.629 169.66 172.136C170.167 172.644 170.421 173.246 170.421 173.941C170.421 174.519 170.296 175.039 170.046 175.5C169.695 176.148 169.125 176.797 168.335 177.445C167.539 178.093 166.953 178.629 166.578 179.05C166 179.699 165.582 180.277 165.324 180.785C165.058 181.293 164.855 181.89 164.714 182.578Z" fill="black"/>
<path d="M164.313 185.576C166.521 185.59 168.138 186.084 169.163 187.059C170.189 188.034 170.702 189.289 170.704 190.825C170.706 192.201 170.331 192.89 169.579 192.891C169.435 192.827 169.363 192.755 169.363 192.675C169.362 192.611 169.394 192.523 169.458 192.411C169.506 192.299 169.546 192.195 169.578 192.099C169.657 191.81 169.697 191.538 169.697 191.282C169.696 190.578 169.455 189.891 168.974 189.219C168.493 188.548 167.845 187.996 167.028 187.565C166.211 187.15 165.339 186.943 164.411 186.944C163.723 186.945 163.188 187.249 162.804 187.858C162.405 188.466 162.206 189.402 162.208 190.666C162.209 191.434 162.274 192.226 162.403 193.042L163.71 201.825C163.535 202.065 163.383 202.185 163.255 202.185C162.855 202.186 162.51 201.466 162.22 200.026C161.93 198.603 161.591 196.403 161.203 193.427L161.106 192.635C160.993 191.707 160.936 190.98 160.936 190.452C160.934 188.868 161.22 187.659 161.795 186.827C162.37 185.994 163.209 185.577 164.313 185.576Z" fill="black"/>
<path d="M139.567 120.401C139.567 146.592 117.672 167.901 90.5669 167.901C63.462 167.901 41.5669 146.592 41.5669 120.401C41.5669 94.2098 63.462 72.901 90.5669 72.901C117.672 72.901 139.567 94.2098 139.567 120.401Z" fill="white" stroke="black" stroke-width="3"/>
<path d="M72.9549 95.425C70.7469 95.409 69.1309 94.913 68.1069 93.937C67.0829 92.961 66.5709 91.705 66.5709 90.169C66.5709 88.793 66.9469 88.105 67.6989 88.105C67.8429 88.169 67.9149 88.241 67.9149 88.321C67.9149 88.385 67.8829 88.473 67.8189 88.585C67.7709 88.697 67.7309 88.801 67.6989 88.897C67.6189 89.185 67.5789 89.457 67.5789 89.713C67.5789 90.417 67.8189 91.105 68.2989 91.777C68.7789 92.449 69.4269 93.001 70.2429 93.433C71.0589 93.849 71.9309 94.057 72.8589 94.057C73.5469 94.057 74.0829 93.753 74.4669 93.145C74.8669 92.537 75.0669 91.601 75.0669 90.337C75.0669 89.569 75.0029 88.777 74.8749 87.961L73.5789 79.177C73.7549 78.937 73.9069 78.817 74.0349 78.817C74.4349 78.817 74.7789 79.537 75.0669 80.977C75.3549 82.401 75.6909 84.601 76.0749 87.577L76.1709 88.369C76.2829 89.297 76.3389 90.025 76.3389 90.553C76.3389 92.137 76.0509 93.345 75.4749 94.177C74.8989 95.009 74.0589 95.425 72.9549 95.425ZM84.9136 95.401C83.2496 95.401 81.8016 95.113 80.5696 94.537C79.3536 93.945 78.7456 92.913 78.7456 91.441C78.7456 90.913 78.9056 90.401 79.2256 89.905C79.5456 89.409 80.0176 89.009 80.6416 88.705C81.2656 88.385 82.0256 88.225 82.9216 88.225C83.6096 88.225 84.1936 88.257 84.6736 88.321C85.1536 88.385 85.7056 88.561 86.3296 88.849C86.9536 89.137 87.6016 89.593 88.2736 90.217C88.0176 89.113 87.6336 88.145 87.1216 87.313C86.6096 86.481 86.0336 85.841 85.3936 85.393C84.7696 84.929 84.1536 84.697 83.5456 84.697C83.2576 84.697 82.9856 84.753 82.7296 84.865C82.4896 84.961 82.1936 85.105 81.8416 85.297C81.4416 85.553 81.1456 85.681 80.9536 85.681C80.8736 85.681 80.8016 85.657 80.7376 85.609C80.6896 85.545 80.6656 85.473 80.6656 85.393C80.6656 84.753 80.9456 84.257 81.5056 83.905C82.0816 83.553 82.7776 83.393 83.5936 83.425C84.7136 83.489 85.7376 83.969 86.6656 84.865C87.5936 85.745 88.3216 86.841 88.8496 88.153C89.3936 89.465 89.6656 90.753 89.6656 92.017C89.6656 92.225 89.6496 92.521 89.6176 92.905L88.8496 92.857C88.2416 91.625 87.4576 90.753 86.4976 90.241C85.5536 89.713 84.6016 89.449 83.6416 89.449C82.4096 89.449 81.5296 89.633 81.0016 90.001C80.4736 90.369 80.2096 90.905 80.2096 91.609C80.2096 92.345 80.5776 92.937 81.3136 93.385C82.0496 93.833 82.9936 94.057 84.1456 94.057C84.7856 94.057 85.2976 94.025 85.6816 93.961C86.0656 93.881 86.4656 93.777 86.8816 93.649C87.2176 93.537 87.5136 93.457 87.7696 93.409C88.0256 93.361 88.3536 93.337 88.7536 93.337C89.2016 93.337 89.4816 93.369 89.5936 93.433C89.7216 93.497 89.7856 93.641 89.7856 93.865C89.7856 94.025 89.4576 94.225 88.8016 94.465C88.1456 94.705 87.4096 94.921 86.5936 95.113C85.7776 95.305 85.2176 95.401 84.9136 95.401ZM97.6106 95.425C95.7386 95.425 94.2826 95.001 93.2426 94.153C92.2186 93.289 91.7066 91.961 91.7066 90.169C91.7066 89.257 91.9306 88.393 92.3786 87.577C92.8426 86.745 93.4586 86.081 94.2266 85.585C95.0106 85.073 95.8506 84.817 96.7466 84.817C97.6586 84.817 98.4346 85.017 99.0746 85.417C99.7146 85.801 100.035 86.361 100.035 87.097C100.035 87.609 99.9386 87.977 99.7466 88.201C99.5706 88.409 99.3706 88.513 99.1466 88.513C99.1466 87.745 98.9386 87.121 98.5226 86.641C98.1066 86.161 97.5146 85.921 96.7466 85.921C95.9786 85.921 95.3146 86.129 94.7546 86.545C94.1946 86.945 93.7626 87.481 93.4586 88.153C93.1706 88.809 93.0266 89.497 93.0266 90.217C93.0266 91.737 93.5386 92.769 94.5626 93.313C95.6026 93.857 96.9706 94.129 98.6666 94.129C99.2426 94.129 99.9946 94.097 100.923 94.033C100.955 94.033 101.027 94.065 101.139 94.129C101.251 94.193 101.339 94.233 101.403 94.249V94.393C101.403 94.857 100.995 95.145 100.179 95.257C99.3626 95.369 98.5066 95.425 97.6106 95.425ZM104.171 95.425C103.771 95.425 103.571 95.193 103.571 94.729C103.571 94.633 103.603 94.433 103.667 94.129C103.747 93.825 103.787 93.489 103.787 93.121V91.945V90.217C103.707 89.081 103.507 87.697 103.187 86.065C102.835 84.273 102.563 82.609 102.371 81.073C102.419 80.801 102.547 80.665 102.755 80.665C103.027 80.665 103.355 81.385 103.739 82.825C104.123 84.249 104.515 86.609 104.915 89.905C105.235 89.105 105.675 88.297 106.235 87.481C106.795 86.649 107.387 85.961 108.011 85.417C108.635 84.873 109.179 84.601 109.643 84.601C109.835 84.601 109.955 84.657 110.003 84.769C110.067 84.881 110.091 85.041 110.075 85.249C109.131 86.081 108.179 87.049 107.219 88.153C106.259 89.257 105.779 90.113 105.779 90.721C105.779 91.089 106.083 91.513 106.691 91.993C107.299 92.457 108.051 92.873 108.947 93.241C109.843 93.593 110.683 93.793 111.467 93.841C111.771 93.889 111.923 94.073 111.923 94.393C111.923 94.937 111.411 95.209 110.387 95.209C109.571 95.209 108.675 94.881 107.699 94.225C106.739 93.569 105.907 92.881 105.203 92.161C105.155 92.433 105.123 92.673 105.107 92.881C105.091 93.073 105.075 93.241 105.059 93.385C104.995 94.089 104.907 94.609 104.795 94.945C104.699 95.265 104.491 95.425 104.171 95.425Z" fill="black"/>
<line x1="65.4071" y1="121.767" x2="51.4071" y2="134.767" stroke="black"/>
<line x1="98.312" y1="124.965" x2="114.312" y2="133.965" stroke="black"/>
<path d="M40.84 130.075C40.84 138.321 38.6542 146.382 38.6542 154.118C38.6542 162.75 26.1776 161.951 23.354 156.304" stroke="white" stroke-width="3" stroke-linecap="round"/>
<path d="M38.6541 127.889C38.6541 138.089 38.6541 148.289 38.6541 158.49C38.6541 168.647 26.1365 167.233 18.9824 167.233" stroke="black" stroke-width="3" stroke-linecap="round"/>
<path d="M137.013 123.518C137.013 131.532 137.013 139.546 137.013 147.561C137.013 157.623 143.528 160.508 145.756 169.418" stroke="white" stroke-width="3" stroke-linecap="round"/>
<path d="M139.198 132.261C139.198 137.953 136.335 158.22 143.084 158.49C152.479 158.865 165.193 155.055 167.613 145.375" stroke="black" stroke-width="3" stroke-linecap="round"/>
<path d="M71.4404 145.375H91.1121" stroke="black" stroke-width="3" stroke-linecap="round"/>
<path d="M118.067 169.623C120.728 169.623 122.892 169.909 125.455 169.34C127.752 168.829 130.329 169.023 132.776 169.023C135.725 169.023 138.529 169.038 141.297 169.89C143.701 170.63 146.565 170.365 148.685 171.424" stroke="black" stroke-linecap="round"/>
<path d="M56.8401 175.177C54.3889 174.871 54.134 174.435 51.7524 175.115C50.0178 175.611 47.2151 177.325 45.6721 177.411C40.2702 177.711 35.0767 178.528 29.4784 178.528C24.1895 178.528 1 176.266 1 182.995" stroke="black" stroke-linecap="round"/>
<line x1="59.5662" y1="154.427" x2="58.5662" y2="173.427" stroke="black"/>
<line x1="118.567" y1="158.401" x2="118.567" y2="169.401" stroke="black"/>
<path d="M118.368 169.023H123.17" stroke="white" stroke-linecap="round"/>
</svg>
